<?xml version="1.0" encoding="UTF-8"?>
<svg xmlns="http://www.w3.org/2000/svg" xmlns:xlink="http://www.w3.org/1999/xlink" width="22px" height="22px" viewBox="0 0 22 22" version="1.1">
<g id="surface1">
<path style=" stroke:none;fill-rule:evenodd;fill:rgb(100%,100%,100%);fill-opacity:0.501961;" d="M 19.261719 9.542969 L 12.457031 2.734375 C 11.652344 1.929688 10.347656 1.929688 9.539062 2.734375 L 2.734375 9.542969 C 1.929688 10.347656 1.929688 11.652344 2.734375 12.460938 L 9.539062 19.265625 C 10.347656 20.070312 11.652344 20.070312 12.457031 19.265625 L 19.261719 12.460938 C 20.066406 11.652344 20.066406 10.347656 19.261719 9.542969 Z M 13.914062 1.277344 C 12.304688 -0.332031 9.691406 -0.332031 8.082031 1.277344 L 1.277344 8.085938 C -0.335938 9.695312 -0.335938 12.308594 1.277344 13.917969 L 8.082031 20.722656 C 9.691406 22.335938 12.304688 22.335938 13.914062 20.722656 L 20.722656 13.917969 C 22.332031 12.308594 22.332031 9.695312 20.722656 8.085938 Z M 12.375 14.4375 C 12.375 15.199219 11.757812 15.8125 11 15.8125 C 10.238281 15.8125 9.625 15.199219 9.625 14.4375 C 9.625 13.679688 10.238281 13.0625 11 13.0625 C 11.757812 13.0625 12.375 13.679688 12.375 14.4375 Z M 12.03125 6.875 C 12.03125 6.304688 11.570312 5.84375 11 5.84375 C 10.429688 5.84375 9.96875 6.304688 9.96875 6.875 L 9.96875 10.3125 C 9.96875 10.882812 10.429688 11.34375 11 11.34375 C 11.570312 11.34375 12.03125 10.882812 12.03125 10.3125 Z M 12.03125 6.875 "/>
</g>
</svg>
