<svg width="20" height="20" fill="none" xmlns="http://www.w3.org/2000/svg"><g clip-path="url(#a)"><path fill-rule="evenodd" clip-rule="evenodd" d="m17.513 8.674-6.187-6.187a1.875 1.875 0 0 0-2.652 0L2.487 8.674a1.875 1.875 0 0 0 0 2.652l6.187 6.187c.732.732 1.92.732 2.652 0l6.187-6.187a1.875 1.875 0 0 0 0-2.652zm-4.861-7.513a3.75 3.75 0 0 0-5.304 0L1.161 7.348a3.75 3.75 0 0 0 0 5.304l6.187 6.187a3.75 3.75 0 0 0 5.304 0l6.187-6.187a3.75 3.75 0 0 0 0-5.304l-6.187-6.187zM11.25 13.125a1.25 1.25 0 1 1-2.5 0 1.25 1.25 0 0 1 2.5 0zm-.313-6.875a.937.937 0 1 0-1.875 0v3.125a.937.937 0 1 0 1.875 0V6.25z" fill="currentColor" fill-opacity=".5"/></g><defs><clipPath id="a"><path fill="currentColor" d="M0 0h20v20H0z"/></clipPath></defs></svg>