<svg width="20" height="21" fill="none" xmlns="http://www.w3.org/2000/svg"><path fill-rule="evenodd" clip-rule="evenodd" d="M5.875 7.245A1.125 1.125 0 0 1 4.75 6.12V5A2.25 2.25 0 0 0 2.5 7.25v1.5h15v-1.5A2.25 2.25 0 0 0 15.25 5v1.125a1.125 1.125 0 0 1-2.25 0V5H7v1.12c0 .621-.504 1.125-1.125 1.125zM13 2.75H7V1.62a1.125 1.125 0 0 0-2.25 0V2.75a4.5 4.5 0 0 0-4.5 4.5v9a4.5 4.5 0 0 0 4.5 4.5h10.5a4.5 4.5 0 0 0 4.5-4.5v-9a4.5 4.5 0 0 0-4.5-4.5V1.625a1.125 1.125 0 0 0-2.25 0V2.75zM2.5 11v5.25a2.25 2.25 0 0 0 2.25 2.25h10.5a2.25 2.25 0 0 0 2.25-2.25V11h-15z" fill="#fff" fill-opacity=".5"/></svg>