<svg width="20" height="20" fill="none" xmlns="http://www.w3.org/2000/svg"><path fill-rule="evenodd" clip-rule="evenodd" d="M6.563 6.87a.937.937 0 0 1-.938-.937V5C4.589 5 3.75 5.84 3.75 6.875v1.25h12.5v-1.25C16.25 5.839 15.41 5 14.375 5v.938a.937.937 0 1 1-1.875 0V5h-5v.933c0 .518-.42.938-.938.938zM12.5 3.126h-5v-.94a.937.937 0 1 0-1.875 0v.94a3.75 3.75 0 0 0-3.75 3.75v7.5a3.75 3.75 0 0 0 3.75 3.75h8.75a3.75 3.75 0 0 0 3.75-3.75v-7.5a3.75 3.75 0 0 0-3.75-3.75v-.937a.937.937 0 1 0-1.875 0v.937zM3.75 10v4.375c0 1.036.84 1.875 1.875 1.875h8.75c1.036 0 1.875-.84 1.875-1.875V10H3.75z" fill="currentColor" fill-opacity=".5"/></svg>