<svg width="20" height="20" fill="none" xmlns="http://www.w3.org/2000/svg"><path fill-rule="evenodd" clip-rule="evenodd" d="M13.75 16.875h-7.5A1.875 1.875 0 0 1 4.375 15V5c0-1.036.84-1.875 1.875-1.875h2.5V6.25A3.75 3.75 0 0 0 12.5 10h3.125v5c0 1.035-.84 1.875-1.875 1.875zm1.63-8.75a1.873 1.873 0 0 0-.304-.398l-4.053-4.053a1.874 1.874 0 0 0-.398-.303V6.25c0 1.036.84 1.875 1.875 1.875h2.88zm1.022-1.723A3.75 3.75 0 0 1 17.5 9.053V15a3.75 3.75 0 0 1-3.75 3.75h-7.5A3.75 3.75 0 0 1 2.5 15V5a3.75 3.75 0 0 1 3.75-3.75h3.447a3.75 3.75 0 0 1 2.651 1.098l4.054 4.054z" fill="currentColor" fill-opacity=".5"/></svg>