<svg width="18" height="22" fill="none" xmlns="http://www.w3.org/2000/svg"><path fill-rule="evenodd" clip-rule="evenodd" d="M13.5 19.25h-9A2.25 2.25 0 0 1 2.25 17V5A2.25 2.25 0 0 1 4.5 2.75h3V6.5A4.5 4.5 0 0 0 12 11h3.75v6a2.25 2.25 0 0 1-2.25 2.25zm1.955-10.5a2.25 2.25 0 0 0-.364-.477l-4.864-4.864a2.249 2.249 0 0 0-.477-.364V6.5A2.25 2.25 0 0 0 12 8.75h3.455zm1.227-2.068A4.5 4.5 0 0 1 18 9.864V17a4.5 4.5 0 0 1-4.5 4.5h-9A4.5 4.5 0 0 1 0 17V5A4.5 4.5 0 0 1 4.5.5h4.136a4.5 4.5 0 0 1 3.182 1.318l4.864 4.864z" fill="#fff" fill-opacity=".5"/></svg>