<svg width="20" height="20" fill="none" xmlns="http://www.w3.org/2000/svg"><path fill-rule="evenodd" clip-rule="evenodd" d="M4.337 8.163a.937.937 0 1 1 1.326 1.326l-.909.909a3.429 3.429 0 0 0 4.848 4.848l.91-.909a.938.938 0 0 1 1.325 1.326l-.909.909a5.303 5.303 0 1 1-7.5-7.5l.91-.91zm10 2.348a.937.937 0 0 0 1.326 1.326l.909-.909a5.303 5.303 0 1 0-7.5-7.5l-.91.91A.938.938 0 0 0 9.49 5.662l.909-.909a3.429 3.429 0 0 1 4.848 4.848l-.909.91zm-1.174-2.348a.938.938 0 0 0-1.326-1.326l-5 5a.937.937 0 1 0 1.326 1.326l5-5z" fill="currentColor" fill-opacity=".5"/></svg>