<svg width="20" height="20" fill="none" xmlns="http://www.w3.org/2000/svg"><path fill-rule="evenodd" clip-rule="evenodd" d="M3.204 7.795a1.125 1.125 0 1 1 1.591 1.591l-1.09 1.091a4.114 4.114 0 1 0 5.818 5.818l1.09-1.09a1.125 1.125 0 0 1 1.591 1.59l-1.09 1.091a6.364 6.364 0 0 1-9-9l1.09-1.09zm12 2.819a1.125 1.125 0 0 0 1.591 1.59l1.091-1.09a6.364 6.364 0 0 0-9-9l-1.09 1.09a1.125 1.125 0 1 0 1.59 1.591l1.091-1.09a4.114 4.114 0 1 1 5.818 5.818l-1.09 1.09zm-1.409-2.819a1.125 1.125 0 0 0-1.59-1.59l-6 6a1.125 1.125 0 0 0 1.59 1.59l6-6z" fill="#fff" fill-opacity=".5"/></svg>