<svg width="24" height="23" fill="none" xmlns="http://www.w3.org/2000/svg"><path fill-rule="evenodd" clip-rule="evenodd" d="m13.79 7.498.526 1.31 1.41.096 4.796.326-3.69 3.082-1.084.906.345 1.37 1.173 4.662-4.072-2.557-1.196-.75-1.196.75L6.73 19.25l1.173-4.662.345-1.37-1.084-.905-3.69-3.082 4.797-.326 1.41-.095.526-1.311 1.791-4.461 1.792 4.461zM2.204 7.061l5.915-.402 2.209-5.5c.604-1.506 2.736-1.506 3.34 0l2.21 5.5 5.914.402c1.619.11 2.277 2.136 1.032 3.177l-4.549 3.8 1.446 5.75c.396 1.573-1.328 2.826-2.702 1.963l-5.02-3.152-5.021 3.152c-1.375.863-3.099-.39-2.703-1.964L5.72 14.04l-4.549-3.801C-.073 9.198.586 7.17 2.204 7.06z" fill="#fff" fill-opacity=".5"/></svg>