<svg width="21" height="21" fill="none" xmlns="http://www.w3.org/2000/svg"><path d="M6.168 7.32a1.5 1.5 0 1 0 0-3 1.5 1.5 0 0 0 0 3z" fill="#fff" fill-opacity=".5"/><path fill-rule="evenodd" clip-rule="evenodd" d="M1.03 11.29a2.25 2.25 0 0 1-.659-1.633l.133-7.292A2.25 2.25 0 0 1 2.713.156l7.292-.132a2.25 2.25 0 0 1 1.632.658l8.529 8.53a2.25 2.25 0 0 1 0 3.181l-7.425 7.425a2.25 2.25 0 0 1-3.182 0L1.03 11.289zm9.016-9.017 8.529 8.53-7.425 7.424-8.529-8.529.133-7.292 7.292-.133z" fill="#fff" fill-opacity=".5"/></svg>