<svg width="18" height="18" viewBox="0 0 18 18" fill="none" xmlns="http://www.w3.org/2000/svg">
<path fill-rule="evenodd" clip-rule="evenodd" d="M5.5625 5.87202C5.04473 5.87202 4.625 5.45229 4.625 4.93452V4.00111C3.58947 4.00111 2.75 4.84058 2.75 5.87611V7.12611H15.25V5.87611C15.25 4.84058 14.4105 4.00111 13.375 4.00111V4.93864C13.375 5.4564 12.9553 5.87614 12.4375 5.87614C11.9197 5.87614 11.5 5.4564 11.5 4.93864V4.00111H6.5V4.93452C6.5 5.45229 6.08027 5.87202 5.5625 5.87202ZM11.5 2.12611H6.5V1.18555C6.5 0.66778 6.08027 0.248047 5.5625 0.248047C5.04473 0.248047 4.625 0.66778 4.625 1.18555V2.12611C2.55393 2.12611 0.875 3.80505 0.875 5.87611V13.3761C0.875 15.4472 2.55393 17.1261 4.625 17.1261H13.375C15.4461 17.1261 17.125 15.4472 17.125 13.3761V5.87611C17.125 3.80505 15.4461 2.12611 13.375 2.12611V1.18862C13.375 0.670848 12.9553 0.251116 12.4375 0.251116C11.9197 0.251116 11.5 0.670848 11.5 1.18862V2.12611ZM2.75 9.00111V13.3761C2.75 14.4116 3.58947 15.2511 4.625 15.2511H13.375C14.4105 15.2511 15.25 14.4116 15.25 13.3761V9.00111H2.75Z" fill="currentColor" fill-opacity="0.35"/>
</svg>
