<svg xmlns="http://www.w3.org/2000/svg" width="16" height="16"><path style="stroke:none;fill-rule:evenodd;fill:currentColor;fill-opacity:.5" d="M4.945 5.219a.834.834 0 0 1-.836-.832v-.832c-.918 0-1.664.75-1.664 1.668v1.113h11.11V5.223c0-.918-.746-1.668-1.664-1.668v.836a.834.834 0 0 1-1.668 0v-.836H5.777v.832a.83.83 0 0 1-.832.832zm5.278-3.328H5.777v-.836a.834.834 0 1 0-1.668 0v.836A3.333 3.333 0 0 0 .777 5.223v6.668a3.333 3.333 0 0 0 3.332 3.332h7.782a3.333 3.333 0 0 0 3.332-3.332V5.223A3.333 3.333 0 0 0 11.89 1.89v-.836a.836.836 0 0 0-.836-.832.833.833 0 0 0-.832.832zM2.445 8v3.89c0 .919.746 1.665 1.664 1.665h7.782c.918 0 1.664-.746 1.664-1.664V8zm0 0"/></svg>