<svg width="16" height="16" fill="none" xmlns="http://www.w3.org/2000/svg"><path d="M15.916 8.304a.76.76 0 0 0-.179-.88L12.53 4.516a.747.747 0 0 0-1.06.056.76.76 0 0 0 .056 1.067l2.6 2.358-2.616 2.372a.76.76 0 0 0-.056 1.068.747.747 0 0 0 1.06.056l3.209-2.909a.753.753 0 0 0 .194-.28zM1.86 7.99l2.601-2.357a.76.76 0 0 0 .056-1.068.747.747 0 0 0-1.06-.056L.247 7.418a.76.76 0 0 0-.179.88c.042.103.107.2.195.28l3.208 2.908a.747.747 0 0 0 1.06-.056.76.76 0 0 0-.055-1.068L1.86 7.99zm8.283-5.939c.39.143.59.577.448.969L6.804 13.497a.75.75 0 0 1-.962.452.757.757 0 0 1-.449-.969L9.18 2.503a.75.75 0 0 1 .963-.452z" fill="currentColor" fill-opacity=".5"/></svg>