<svg width="128" height="128" viewBox="0 0 128 128" fill="none" xmlns="http://www.w3.org/2000/svg">
<g clip-path="url(#clip0_2679_46051)">
<path d="M116.64 64.2204C116.64 56.8415 107.954 50.2979 94.5995 46.3032C97.8124 32.734 96.4095 21.9387 90.0158 18.2867C88.4481 17.416 86.679 16.9728 84.8859 17.0016C78.9206 17.0016 71.381 21.1676 63.7665 28.3752C56.1519 21.2212 48.6337 17.0765 42.6792 17.0765C40.8583 17.0363 39.0603 17.4876 37.4743 18.3831C31.1128 22.0458 29.7955 32.7769 32.9655 46.2817C19.6749 50.255 11.0322 56.7451 11.0108 64.0919C10.9893 71.4387 19.707 78.0144 33.0619 81.9984C29.849 95.5783 31.2413 106.363 37.6456 110.015C39.2076 110.89 40.9746 111.334 42.7649 111.3C48.7408 111.3 56.2804 107.134 63.895 99.9264C71.4988 107.08 79.017 111.225 84.9823 111.225C86.8024 111.259 88.5987 110.808 90.1872 109.919C96.5487 106.256 97.8553 95.5247 94.6959 82.0734C107.987 78.0466 116.629 71.5565 116.64 64.2204ZM68.6715 30.7956C77.4427 22.9454 82.926 22.0993 84.8752 22.0993C85.7792 22.0703 86.6743 22.2848 87.4669 22.7205C90.5299 24.4662 91.7508 30.6242 90.7762 38.785C90.5266 40.8691 90.1691 42.9388 89.7052 44.9859C85.2674 43.9544 80.7669 43.2138 76.2325 42.769C73.5323 38.9798 70.5843 35.3735 67.4077 31.9736C67.804 31.5774 68.2324 31.1811 68.6715 30.7956ZM42.1223 70.2928C42.9576 71.8992 43.8465 73.5057 44.7676 75.1228C45.6886 76.74 46.6525 78.3786 47.7234 79.9957C44.8211 79.578 42.0045 79.0533 39.3271 78.4321C40.0767 75.7119 41.0299 73.0345 42.1223 70.2928ZM39.1557 49.9016C41.8652 49.2697 44.7033 48.745 47.6484 48.338C46.5775 49.923 45.6565 51.5509 44.6926 53.2537C43.7287 54.9566 42.8827 56.4666 42.058 58.0945C40.9656 55.31 39.9982 52.579 39.1557 49.9016ZM44.7354 64.1883C46.0634 61.3823 47.5235 58.5764 49.1157 55.7705C50.7221 52.9646 52.4464 50.2336 54.2242 47.6204C57.3407 47.3848 60.5536 47.2563 63.8629 47.267C67.1721 47.2777 70.2886 47.3955 73.3837 47.6419C75.1615 50.2336 76.8644 52.9967 78.4708 55.7277C80.0773 58.4586 81.5552 61.3181 82.8832 64.1133C81.5659 66.9193 80.0987 69.7359 78.5136 72.5204C76.9286 75.3049 75.183 78.068 73.4052 80.6811C70.2886 80.9274 67.0758 81.0453 63.7665 81.0453C60.4572 81.0453 57.3407 80.906 54.2456 80.6597C52.4678 78.068 50.7542 75.3692 49.1478 72.5739C47.5414 69.7787 46.117 66.9835 44.7783 64.1883H44.7354ZM79.9273 48.3701C82.8403 48.7771 85.657 49.3019 88.3237 49.923C87.5312 52.5683 86.5887 55.2779 85.4963 58.0088C84.6503 56.4024 83.7721 54.7959 82.8403 53.1788C81.9086 51.5616 80.9233 49.9337 79.9702 48.3701H79.9273ZM82.8832 75.0586C83.8042 73.4379 84.6824 71.8207 85.5178 70.2071C86.5887 72.9916 87.6597 75.7333 88.4094 78.4107C85.7105 79.0426 82.8725 79.5566 79.9273 79.9636C80.9626 78.3786 81.9622 76.7436 82.926 75.0586H82.8832ZM63.7879 35.6149C65.7156 37.6712 67.6112 39.8988 69.464 42.287C67.6327 42.2121 65.7585 42.1585 63.8629 42.1585C61.9672 42.1585 60.0288 42.1585 58.1546 42.287C59.986 39.9095 61.8601 37.6712 63.7879 35.6149ZM40.0339 22.7634C40.8464 22.3312 41.7597 22.1242 42.6792 22.1636C44.6087 22.244 46.5009 22.7216 48.2375 23.5666C52.1623 25.417 55.7753 27.8667 58.9471 30.8277L60.2002 31.9736C57.0561 35.3486 54.1368 38.9262 51.4611 42.6833C46.9022 43.1249 42.3768 43.8619 37.9134 44.8895C37.4422 42.8118 37.0566 40.777 36.8424 38.8171C35.7286 30.7313 37.0138 24.5626 40.0232 22.8062L40.0339 22.7634ZM34.3685 77.0613C32.3562 76.447 30.376 75.7321 28.4353 74.9194C20.8315 71.7065 16.1193 67.5832 16.1193 64.0598C16.1193 60.5363 20.8529 56.4345 28.4461 53.2752C30.3521 52.4857 32.2966 51.7922 34.2721 51.1975C35.6109 55.6345 37.2424 59.9778 39.1557 64.199C37.2831 68.3782 35.684 72.6747 34.3685 77.0613ZM59.0007 97.5167C50.2295 105.367 44.7461 106.202 42.7863 106.202C41.8822 106.232 40.9868 106.018 40.1945 105.581C37.1316 103.835 35.9107 97.6774 36.8853 89.5166C37.134 87.436 37.4915 85.3697 37.9562 83.3264C42.3954 84.349 46.8955 85.0859 51.429 85.5326C54.1259 89.3243 57.0741 92.9308 60.2537 96.3279L59.0007 97.5167ZM63.895 92.6867C61.9672 90.6304 60.0716 88.4028 58.2082 86.0145C60.0502 86.1002 61.9244 86.1431 63.82 86.1431C65.7156 86.1431 67.6541 86.1431 69.5283 86.0253C67.6755 88.4028 65.7906 90.6304 63.8843 92.6867H63.895ZM87.649 105.538C86.8364 105.983 85.919 106.202 84.993 106.17C83.0438 106.17 77.4962 105.313 68.7572 97.4953L67.5041 96.3494C70.6446 92.9742 73.5603 89.3966 76.2325 85.6397C80.7957 85.2042 85.3251 84.4672 89.7909 83.4335C90.2621 85.5112 90.637 87.546 90.8619 89.5059C91.9221 97.581 90.6905 103.75 87.6383 105.495L87.649 105.538ZM99.2154 75.08C97.384 75.8297 95.4456 76.5258 93.3893 77.147C92.0452 72.7103 90.4103 68.3671 88.495 64.1455C90.3763 59.971 91.9826 55.6779 93.3037 51.2939C95.3159 51.9082 97.2962 52.6231 99.2368 53.4358C106.83 56.6487 111.553 60.7719 111.542 64.2954C111.531 67.8188 106.809 71.8778 99.2047 75.0372L99.2154 75.08ZM63.7879 73.9876C65.7324 73.9897 67.6338 73.4152 69.2517 72.3367C70.8697 71.2581 72.1315 69.724 72.8776 67.9284C73.6236 66.1327 73.8205 64.1562 73.4432 62.2487C73.0659 60.3411 72.1315 58.5883 70.758 57.2119C69.3846 55.8354 67.6338 54.8972 65.7271 54.5157C63.8204 54.1343 61.8434 54.3268 60.0462 55.069C58.2489 55.8112 56.712 57.0696 55.63 58.6852C54.5479 60.3008 53.9693 62.201 53.9671 64.1455C53.9643 65.4369 54.2163 66.7163 54.7085 67.9103C55.2008 69.1043 55.9238 70.1894 56.836 71.1036C57.7482 72.0178 58.8318 72.7431 60.0247 73.238C61.2176 73.7329 62.4964 73.9876 63.7879 73.9876ZM33.0512 81.9984C29.8383 95.5783 31.2306 106.363 37.6349 110.015C39.1969 110.89 40.9639 111.334 42.7541 111.3C48.7301 111.3 56.2697 107.134 63.8843 99.9264C71.4881 107.08 79.0063 111.225 84.9716 111.225C86.7917 111.259 88.5879 110.808 90.1765 109.919C96.538 106.256 97.8446 95.5247 94.6852 82.0734C107.976 78.0894 116.619 71.5994 116.629 64.2632C116.64 56.9271 107.944 50.3407 94.5888 46.346C97.8017 32.7769 96.3988 21.9816 90.0051 18.3296C88.4374 17.4589 86.6683 17.0156 84.8752 17.0444C78.9099 17.0444 71.3703 21.2105 63.7558 28.418C56.1412 21.264 48.623 17.1194 42.6685 17.1194C40.8476 17.0791 39.0496 17.5305 37.4636 18.4259C31.102 22.0886 29.7848 32.8197 32.9548 46.3246C19.6641 50.2979 11.0215 56.7879 11 64.1347C10.9786 71.4816 19.707 77.993 33.0619 81.9984H33.0512ZM58.9793 97.5167C50.2081 105.367 44.7247 106.202 42.7649 106.202C41.8608 106.232 40.9653 106.018 40.1731 105.581C37.1102 103.835 35.8893 97.6774 36.8638 89.5166C37.1126 87.436 37.47 85.3697 37.9348 83.3264C42.3739 84.349 46.8741 85.0859 51.4075 85.5326C54.1045 89.3243 57.0527 92.9308 60.2323 96.3279L58.9793 97.5167ZM85.5285 58.0088C84.6824 56.4024 83.8042 54.7959 82.8725 53.1788C81.9407 51.5616 80.9447 49.9659 79.9594 48.3701C82.8725 48.7771 85.6891 49.3019 88.3558 49.923C87.574 52.5683 86.6316 55.2779 85.5392 58.0088H85.5285ZM88.4415 78.3571C85.7427 78.989 82.9046 79.5031 79.9594 79.91C80.9662 78.325 81.9514 76.69 82.9153 75.005C83.8792 73.32 84.7574 71.7029 85.5499 70.1536C86.6744 72.9916 87.649 75.7119 88.4201 78.4107L88.4415 78.3571ZM82.8618 64.0598C81.5445 66.8657 80.0773 69.6823 78.4922 72.4668C76.9072 75.2514 75.1615 78.0144 73.3837 80.6276C70.2672 80.8739 67.0543 80.9917 63.745 80.9917C60.4358 80.9917 57.3193 80.8525 54.2242 80.6062C52.4464 78.0144 50.7328 75.3156 49.1264 72.5204C47.5199 69.7252 46.0527 66.93 44.714 64.1347C46.042 61.3288 47.5021 58.5229 49.0943 55.717C50.7007 52.911 52.425 50.1801 54.2028 47.5669C57.3193 47.3313 60.5322 47.2028 63.8414 47.2135C67.1507 47.2242 70.2672 47.342 73.3623 47.5883C75.1401 50.1801 76.8429 52.9432 78.4494 55.6741C80.0558 58.4051 81.5445 61.3181 82.8725 64.1133L82.8618 64.0598ZM47.7234 79.9957C44.8211 79.578 42.0045 79.0533 39.3271 78.4321C40.1196 75.7976 41.0727 73.0773 42.1651 70.3463C43.0005 71.9528 43.8894 73.5592 44.8104 75.1764C45.7314 76.7935 46.6525 78.3786 47.7234 79.9957ZM44.7354 53.2216C43.8037 54.828 42.9255 56.4345 42.1009 58.0624C40.9799 55.2993 39.9982 52.579 39.1557 49.9016C41.8652 49.2697 44.7033 48.745 47.6484 48.338C46.6525 49.923 45.6993 51.5616 44.7354 53.2216ZM63.8843 92.6867C61.9565 90.6304 60.0609 88.4028 58.1974 86.0145C60.0395 86.1002 61.9137 86.1431 63.8093 86.1431C65.7049 86.1431 67.6434 86.1431 69.5175 86.0253C67.6755 88.4028 65.7906 90.6304 63.8843 92.6867ZM87.6383 105.538C86.8257 105.983 85.9083 106.202 84.9823 106.17C83.0331 106.17 77.4855 105.313 68.7464 97.4953L67.4934 96.3494C70.6339 92.9742 73.5496 89.3966 76.2218 85.6397C80.785 85.2042 85.3143 84.4672 89.7802 83.4335C90.2514 85.5112 90.6263 87.546 90.8512 89.5059C91.9221 97.581 90.6905 103.75 87.6383 105.495V105.538ZM93.293 51.2832C95.3052 51.8975 97.2854 52.6124 99.2261 53.4251C106.819 56.638 111.542 60.7612 111.531 64.2847C111.521 67.8082 106.809 71.9528 99.2047 75.1121C97.3733 75.8618 95.4349 76.5579 93.3786 77.1791C92.0345 72.7425 90.3996 68.3992 88.4843 64.1776C90.369 59.9752 91.9754 55.6535 93.293 51.2403V51.2832ZM68.6608 30.8384C77.432 22.9883 82.9153 22.1422 84.8645 22.1422C85.7684 22.1132 86.6636 22.3277 87.4562 22.7634C90.5192 24.509 91.7401 30.6671 90.7655 38.8278C90.5159 40.9119 90.1584 42.9816 89.6945 45.0287C85.2567 43.9972 80.7562 43.2567 76.2218 42.8118C73.5216 39.0226 70.5735 35.4163 67.397 32.0165C67.804 31.5774 68.2324 31.1811 68.6715 30.7956L68.6608 30.8384ZM63.7879 35.6149C65.7156 37.6712 67.6112 39.8988 69.464 42.287C67.6327 42.2121 65.7585 42.1585 63.8629 42.1585C61.9672 42.1585 60.0288 42.1585 58.1546 42.287C59.986 39.9095 61.8601 37.6712 63.7879 35.6149ZM40.0339 22.7634C40.8464 22.3312 41.7597 22.1242 42.6792 22.1636C44.6087 22.244 46.5009 22.7216 48.2375 23.5666C52.1623 25.417 55.7753 27.8667 58.9471 30.8277L60.2002 31.9736C57.0561 35.3486 54.1368 38.9262 51.4611 42.6833C46.9022 43.1249 42.3768 43.8619 37.9134 44.8895C37.4422 42.8118 37.0566 40.777 36.8424 38.8171C35.7286 30.7313 37.0138 24.5626 40.0232 22.8062L40.0339 22.7634ZM28.4461 53.2752C30.3521 52.4857 32.2966 51.7922 34.2721 51.1975C35.6109 55.6345 37.2424 59.9778 39.1557 64.199C37.2762 68.3742 35.67 72.6671 34.3471 77.0506C32.3348 76.4362 30.3546 75.7214 28.4139 74.9086C20.8101 71.6957 16.0978 67.5725 16.0978 64.0491C16.0978 60.5256 20.8529 56.4345 28.4461 53.2752ZM63.7879 54.3461C61.8434 54.344 59.942 54.9185 58.324 55.9971C56.7061 57.0756 55.4443 58.6097 54.6982 60.4053C53.9521 62.201 53.7553 64.1775 54.1326 66.0851C54.5098 67.9926 55.4443 69.7454 56.8177 71.1219C58.1912 72.4983 59.942 73.4366 61.8487 73.818C63.7554 74.1995 65.7323 74.0069 67.5296 73.2647C69.3269 72.5226 70.8637 71.2641 71.9458 69.6485C73.0278 68.0329 73.6065 66.1327 73.6086 64.1883C73.6185 62.8923 73.3718 61.6072 72.8827 60.407C72.3936 59.2068 71.6718 58.1154 70.7588 57.1955C69.8459 56.2756 68.7599 55.5455 67.5635 55.0473C66.3671 54.549 65.0839 54.2925 63.7879 54.2926V54.3461ZM63.7879 54.3461C61.8434 54.344 59.942 54.9185 58.324 55.9971C56.7061 57.0756 55.4443 58.6097 54.6982 60.4053C53.9521 62.201 53.7553 64.1775 54.1326 66.0851C54.5098 67.9926 55.4443 69.7454 56.8177 71.1219C58.1912 72.4983 59.942 73.4366 61.8487 73.818C63.7554 74.1995 65.7323 74.0069 67.5296 73.2647C69.3269 72.5226 70.8637 71.2641 71.9458 69.6485C73.0278 68.0329 73.6065 66.1327 73.6086 64.1883C73.6185 62.8923 73.3718 61.6072 72.8827 60.407C72.3936 59.2068 71.6718 58.1154 70.7588 57.1955C69.8459 56.2756 68.7599 55.5455 67.5635 55.0473C66.3671 54.549 65.0839 54.2925 63.7879 54.2926V54.3461ZM63.7879 54.3461C61.8434 54.344 59.942 54.9185 58.324 55.9971C56.7061 57.0756 55.4443 58.6097 54.6982 60.4053C53.9521 62.201 53.7553 64.1775 54.1326 66.0851C54.5098 67.9926 55.4443 69.7454 56.8177 71.1219C58.1912 72.4983 59.942 73.4366 61.8487 73.818C63.7554 74.1995 65.7323 74.0069 67.5296 73.2647C69.3269 72.5226 70.8637 71.2641 71.9458 69.6485C73.0278 68.0329 73.6065 66.1327 73.6086 64.1883C73.6185 62.8923 73.3718 61.6072 72.8827 60.407C72.3936 59.2068 71.6718 58.1154 70.7588 57.1955C69.8459 56.2756 68.7599 55.5455 67.5635 55.0473C66.3671 54.549 65.0839 54.2925 63.7879 54.2926V54.3461ZM116.64 64.2418C116.64 56.8629 107.954 50.3193 94.5995 46.3246C97.8124 32.7555 96.4095 21.9601 90.0158 18.3081C88.4481 17.4374 86.679 16.9942 84.8859 17.023C78.9206 17.023 71.381 21.189 63.7665 28.3966C56.1519 21.2426 48.6337 17.0979 42.6792 17.0979C40.8583 17.0577 39.0603 17.5091 37.4743 18.4045C31.1128 22.0672 29.7955 32.7983 32.9655 46.3032C19.6749 50.2764 11.0322 56.7665 11.0108 64.1133C10.9893 71.4601 19.707 78.0358 33.0619 82.0198C29.849 95.5997 31.2413 106.384 37.6456 110.036C39.2076 110.912 40.9746 111.355 42.7649 111.321C48.7408 111.321 56.2804 107.155 63.895 99.9478C71.4988 107.102 79.017 111.247 84.9823 111.247C86.8024 111.28 88.5987 110.829 90.1872 109.94C96.5487 106.277 97.8553 95.5461 94.6959 82.0948C107.987 78.0466 116.629 71.5565 116.64 64.2204V64.2418ZM68.6715 30.7956C77.4427 22.9454 82.926 22.0993 84.8752 22.0993C85.7792 22.0703 86.6743 22.2848 87.4669 22.7205C90.5299 24.4662 91.7508 30.6242 90.7762 38.785C90.5266 40.8691 90.1691 42.9388 89.7052 44.9859C85.2674 43.9544 80.7669 43.2138 76.2325 42.769C73.5323 38.9798 70.5843 35.3735 67.4077 31.9736C67.804 31.5774 68.2324 31.1811 68.6715 30.7956ZM42.1223 70.2928C42.9576 71.8992 43.8465 73.5057 44.7676 75.1228C45.6886 76.74 46.6525 78.3786 47.7234 79.9957C44.8211 79.578 42.0045 79.0533 39.3271 78.4321C40.0767 75.7119 41.0299 73.0345 42.1223 70.2928ZM39.1557 49.9016C41.8652 49.2697 44.7033 48.745 47.6484 48.338C46.5775 49.923 45.6565 51.5509 44.6926 53.2537C43.7287 54.9566 42.8827 56.4666 42.058 58.0945C40.9656 55.31 39.9982 52.579 39.1557 49.9016ZM44.7354 64.1883C46.0634 61.3823 47.5235 58.5764 49.1157 55.7705C50.7221 52.9646 52.4464 50.2336 54.2242 47.6204C57.3407 47.3848 60.5536 47.2563 63.8629 47.267C67.1721 47.2777 70.2886 47.3955 73.3837 47.6419C75.1615 50.2336 76.8644 52.9967 78.4708 55.7277C80.0773 58.4586 81.5552 61.3181 82.8832 64.1133C81.5659 66.9193 80.0987 69.7359 78.5136 72.5204C76.9286 75.3049 75.183 78.068 73.4052 80.6811C70.2886 80.9274 67.0758 81.0453 63.7665 81.0453C60.4572 81.0453 57.3407 80.906 54.2456 80.6597C52.4678 78.068 50.7542 75.3692 49.1478 72.5739C47.5414 69.7787 46.117 66.9835 44.7783 64.1883H44.7354ZM79.9273 48.3701C82.8403 48.7771 85.657 49.3019 88.3237 49.923C87.5312 52.5683 86.5887 55.2779 85.4963 58.0088C84.6503 56.4024 83.7721 54.7959 82.8403 53.1788C81.9086 51.5616 80.9233 49.9337 79.9702 48.3701H79.9273ZM82.8832 75.0586C83.8042 73.4379 84.6824 71.8207 85.5178 70.2071C86.5887 72.9916 87.6597 75.7333 88.4094 78.4107C85.7105 79.0426 82.8725 79.5566 79.9273 79.9636C80.9626 78.3786 81.9622 76.7436 82.926 75.0586H82.8832ZM63.7879 35.6149C65.7156 37.6712 67.6112 39.8988 69.464 42.287C67.6327 42.2121 65.7585 42.1585 63.8629 42.1585C61.9672 42.1585 60.0288 42.1585 58.1546 42.287C59.986 39.9095 61.8601 37.6712 63.7879 35.6149ZM40.0339 22.7634C40.8464 22.3312 41.7597 22.1242 42.6792 22.1636C44.6087 22.244 46.5009 22.7216 48.2375 23.5666C52.1623 25.417 55.7753 27.8667 58.9471 30.8277L60.2002 31.9736C57.0561 35.3486 54.1368 38.9262 51.4611 42.6833C46.9022 43.1249 42.3768 43.8619 37.9134 44.8895C37.4422 42.8118 37.0566 40.777 36.8424 38.8171C35.7286 30.7313 37.0138 24.5626 40.0232 22.8062L40.0339 22.7634ZM34.3685 77.0613C32.3562 76.447 30.376 75.7321 28.4353 74.9194C20.8315 71.7065 16.1193 67.5832 16.1193 64.0598C16.1193 60.5363 20.8529 56.4345 28.4461 53.2752C30.3521 52.4857 32.2966 51.7922 34.2721 51.1975C35.6109 55.6345 37.2424 59.9778 39.1557 64.199C37.2831 68.3782 35.684 72.6747 34.3685 77.0613ZM59.0007 97.5167C50.2295 105.367 44.7461 106.202 42.7863 106.202C41.8822 106.232 40.9868 106.018 40.1945 105.581C37.1316 103.835 35.9107 97.6774 36.8853 89.5166C37.134 87.436 37.4915 85.3697 37.9562 83.3264C42.3954 84.349 46.8955 85.0859 51.429 85.5326C54.1259 89.3243 57.0741 92.9308 60.2537 96.3279L59.0007 97.5167ZM63.895 92.6867C61.9672 90.6304 60.0716 88.4028 58.2082 86.0145C60.0502 86.1002 61.9244 86.1431 63.82 86.1431C65.7156 86.1431 67.6541 86.1431 69.5283 86.0253C67.6755 88.4028 65.7906 90.6304 63.8843 92.6867H63.895ZM87.649 105.538C86.8364 105.983 85.919 106.202 84.993 106.17C83.0438 106.17 77.4962 105.313 68.7572 97.4953L67.5041 96.3494C70.6446 92.9742 73.5603 89.3966 76.2325 85.6397C80.7957 85.2042 85.3251 84.4672 89.7909 83.4335C90.2621 85.5112 90.637 87.546 90.8619 89.5059C91.9221 97.581 90.6905 103.75 87.6383 105.495L87.649 105.538ZM99.2154 75.08C97.384 75.8297 95.4456 76.5258 93.3893 77.147C92.0452 72.7103 90.4103 68.3671 88.495 64.1455C90.3763 59.971 91.9826 55.6779 93.3037 51.2939C95.3159 51.9082 97.2962 52.6231 99.2368 53.4358C106.83 56.6487 111.553 60.7719 111.542 64.2954C111.531 67.8188 106.809 71.8778 99.2047 75.0372L99.2154 75.08ZM63.7879 73.9876C65.7324 73.9897 67.6338 73.4152 69.2517 72.3367C70.8697 71.2581 72.1315 69.724 72.8776 67.9284C73.6236 66.1327 73.8205 64.1562 73.4432 62.2487C73.0659 60.3411 72.1315 58.5883 70.758 57.2119C69.3846 55.8354 67.6338 54.8972 65.7271 54.5157C63.8204 54.1343 61.8434 54.3268 60.0462 55.069C58.2489 55.8112 56.712 57.0696 55.63 58.6852C54.5479 60.3008 53.9693 62.201 53.9671 64.1455C53.9643 65.4369 54.2163 66.7163 54.7085 67.9103C55.2008 69.1043 55.9238 70.1894 56.836 71.1036C57.7482 72.0178 58.8318 72.7431 60.0247 73.238C61.2176 73.7329 62.4964 73.9876 63.7879 73.9876Z" fill="#09D3AC"/>
<path d="M5 25L5 123H106L101 128H0V30.1022L5 25Z" fill="#09D3AC" fill-opacity="0.5"/>
<path d="M123 103L123 5H22L27 0H128V97.8978L123 103Z" fill="#09D3AC" fill-opacity="0.5"/>
</g>
<defs>
<clipPath id="clip0_2679_46051">
<rect width="128" height="128" fill="white"/>
</clipPath>
</defs>
</svg>
