<svg width="17" height="16" viewBox="0 0 17 16" fill="none" xmlns="http://www.w3.org/2000/svg">
<path d="M13.9062 11.875C13.5654 11.875 13.1763 12 12.8125 12C9.84375 12 7.375 9.59375 7.375 6.5C7.375 4.53125 8.40625 2.71875 10.125 1.75C10.4062 1.59375 10.3438 1.1875 10.0312 1.125C9.6875 1.0625 9.125 1 8.75 1C4.875 1 1.75 4.15625 1.75 8C1.75 11.875 4.875 15 8.71875 15C10.875 15 12.8438 14.0312 14.1562 12.4375C14.3438 12.1875 14.1562 11.875 13.9062 11.875ZM8.71875 13.5C5.6875 13.5 3.25 11.0312 3.25 8C3.25 5.625 4.75 3.59375 6.875 2.84375C6.21875 3.90625 5.84375 5.1875 5.84375 6.5C5.84375 9.625 7.875 12.25 10.6875 13.1562C10.0625 13.4062 9.40625 13.5 8.71875 13.5Z" fill="currentColor" fill-opacity="0.85"/>
</svg>
