<svg width="300" height="300" viewBox="0 0 300 300" fill="none" xmlns="http://www.w3.org/2000/svg">
<path d="M106.25 25C96.3044 25 86.7661 28.9509 79.7335 35.9835C72.7009 43.0161 68.75 52.5544 68.75 62.5C68.75 72.4456 72.7009 81.9839 79.7335 89.0165C86.7661 96.0491 96.3044 100 106.25 100H193.75C203.696 100 213.234 96.0491 220.267 89.0165C227.299 81.9839 231.25 72.4456 231.25 62.5C231.25 52.5544 227.299 43.0161 220.267 35.9835C213.234 28.9509 203.696 25 193.75 25H106.25Z" fill="currentColor"/>
<path d="M193.75 112.5C183.804 112.5 174.266 116.451 167.233 123.483C160.201 130.516 156.25 140.054 156.25 150C156.25 159.946 160.201 169.484 167.233 176.517C174.266 183.549 183.804 187.5 193.75 187.5C203.696 187.5 213.234 183.549 220.267 176.517C227.299 169.484 231.25 159.946 231.25 150C231.25 140.054 227.299 130.516 220.267 123.483C213.234 116.451 203.696 112.5 193.75 112.5Z" fill="currentColor"/>
<path d="M68.75 150C68.75 140.054 72.7009 130.516 79.7335 123.483C86.7661 116.451 96.3044 112.5 106.25 112.5H143.75V187.5H106.25C96.3044 187.5 86.7661 183.549 79.7335 176.517C72.7009 169.484 68.75 159.946 68.75 150Z" fill="currentColor"/>
<path d="M106.25 200C98.8332 200 91.583 202.199 85.4161 206.32C79.2493 210.44 74.4428 216.297 71.6045 223.149C68.7662 230.002 68.0236 237.542 69.4706 244.816C70.9175 252.09 74.489 258.772 79.7335 264.017C84.978 269.261 91.6598 272.833 98.9341 274.279C106.208 275.726 113.748 274.984 120.601 272.145C127.453 269.307 133.31 264.501 137.43 258.334C141.551 252.167 143.75 244.917 143.75 237.5V200H106.25Z" fill="currentColor"/>
</svg>
