<svg width="12" height="12" viewBox="0 0 12 12" fill="none" xmlns="http://www.w3.org/2000/svg">
<path fill-rule="evenodd" clip-rule="evenodd" d="M1.7574 1.758L1.758 1.7568L1.7592 1.7574L2.0754 1.4406C2.1374 1.37867 2.22065 1.34266 2.30824 1.33988C2.39582 1.33709 2.48119 1.36774 2.547 1.4256L3.273 2.0622C3.42929 2.20679 3.62376 2.30354 3.83336 2.34099C4.04295 2.37844 4.25889 2.35501 4.45559 2.27349C4.65228 2.19198 4.82148 2.05578 4.94314 1.88104C5.06479 1.70631 5.13381 1.50036 5.142 1.2876H5.1444L5.2074 0.3234C5.21319 0.236012 5.25199 0.154096 5.31595 0.0942634C5.3799 0.0344309 5.46422 0.00116091 5.5518 0.00120006H5.9994V0V0.00120006H6.4476C6.6294 0.00120006 6.78 0.1422 6.792 0.3234L6.855 1.2876H6.858C6.8694 1.578 6.9918 1.8396 7.1844 2.0316C7.38896 2.2365 7.66535 2.35357 7.95485 2.35794C8.24435 2.36231 8.52415 2.25363 8.7348 2.055L9.4524 1.425C9.51829 1.36722 9.6037 1.33667 9.69128 1.33957C9.77887 1.34247 9.86208 1.37859 9.924 1.4406L10.2408 1.7574L10.242 1.7562V1.7574L10.2414 1.7586L10.5582 2.0748C10.6202 2.13672 10.6563 2.21993 10.6592 2.30752C10.6621 2.3951 10.6316 2.48051 10.5738 2.5464L9.9378 3.2736C9.74778 3.479 9.64235 3.74859 9.6426 4.0284C9.6426 4.3374 9.7686 4.6164 9.9714 4.8186C10.1634 5.0094 10.4232 5.1306 10.7124 5.142V5.1444L11.676 5.2074C11.8578 5.2194 11.9988 5.37 11.9988 5.5518V6H12V6.0012H11.9988V6.4488C11.9988 6.53638 11.9656 6.6207 11.9057 6.68465C11.8459 6.74861 11.764 6.78741 11.6766 6.7932L10.7124 6.8574V6.858C10.422 6.87 10.1604 6.9918 9.9684 7.1844C9.76472 7.38777 9.6478 7.66218 9.64221 7.94995C9.63661 8.23772 9.74278 8.51646 9.9384 8.7276H9.9372L10.5744 9.4542C10.6944 9.591 10.6872 9.7974 10.5588 9.9258L10.242 10.2426V10.2438H10.2414L9.9246 10.56C9.86271 10.6218 9.77962 10.6579 9.69218 10.6607C9.60473 10.6636 9.51945 10.6332 9.4536 10.5756L8.7528 9.963C8.54474 9.75752 8.26403 9.64239 7.9716 9.6426C7.68346 9.64284 7.40659 9.75451 7.19891 9.95424C6.99124 10.154 6.86886 10.4263 6.8574 10.7142H6.855L6.792 11.6784C6.78644 11.7623 6.75046 11.8412 6.6908 11.9005C6.63114 11.9597 6.55191 11.9951 6.468 12H5.532C5.44809 11.9951 5.36886 11.9597 5.3092 11.9005C5.24954 11.8412 5.21356 11.7623 5.208 11.6784L5.145 10.7142H5.1426C5.13211 10.433 5.01524 10.1662 4.8156 9.9678C4.71238 9.86461 4.58984 9.78277 4.45497 9.72697C4.3201 9.67117 4.17556 9.6425 4.0296 9.6426C3.7272 9.6426 3.4536 9.7626 3.2526 9.9582L2.5464 10.5762C2.48047 10.6337 2.39515 10.6641 2.3077 10.6611C2.22026 10.658 2.13722 10.6219 2.0754 10.56L1.7586 10.2432L1.758 10.2426L1.4412 9.9258C1.37919 9.86388 1.34307 9.78067 1.34017 9.69308C1.33727 9.6055 1.36782 9.52009 1.4256 9.4542L2.0628 8.7282L2.0622 8.7276C2.25272 8.52199 2.35839 8.25191 2.358 7.9716C2.358 7.6626 2.232 7.3836 2.0292 7.1814C1.83149 6.98414 1.56668 6.86867 1.2876 6.858V6.8574L0.3234 6.7932C0.236012 6.78741 0.154096 6.74861 0.0942634 6.68465C0.0344309 6.6207 0.00116091 6.53638 0.00120006 6.4488V6.0012H0V6H0.000599957V5.5518C0.000599957 5.37 0.1416 5.2194 0.3234 5.2074L1.287 5.1444V5.142C1.56783 5.13121 1.83412 5.01436 2.0322 4.815C2.23619 4.61094 2.3529 4.33561 2.35772 4.04712C2.36253 3.75863 2.25506 3.47955 2.058 3.2688L1.4256 2.5464C1.36782 2.48051 1.33727 2.3951 1.34017 2.30752C1.34307 2.21993 1.37919 2.13672 1.4412 2.0748L1.758 1.7586L1.7574 1.7574V1.758ZM8.5716 6C8.5716 6.68203 8.30066 7.33613 7.8184 7.8184C7.33613 8.30066 6.68203 8.5716 6 8.5716C5.31797 8.5716 4.66387 8.30066 4.1816 7.8184C3.69934 7.33613 3.4284 6.68203 3.4284 6C3.4284 5.31797 3.69934 4.66387 4.1816 4.1816C4.66387 3.69934 5.31797 3.4284 6 3.4284C6.68203 3.4284 7.33613 3.69934 7.8184 4.1816C8.30066 4.66387 8.5716 5.31797 8.5716 6Z" fill="currentColor" fill-opacity="0.5"/>
</svg>
