<svg width="38" height="38" viewBox="0 0 38 38" fill="none" xmlns="http://www.w3.org/2000/svg">
<ellipse cx="17.6873" cy="18.5623" rx="9.18734" ry="9.18734" fill="#140D1A"/>
<path fill-rule="evenodd" clip-rule="evenodd" d="M28.1523 28.1523C33.4635 22.8394 33.4635 14.2261 28.1523 8.91406L24.3313 12.7342C27.4532 15.9752 27.4401 21.1096 24.2744 24.2753C21.1087 27.4419 15.9743 27.455 12.7334 24.333L8.91406 28.1515C14.2261 33.4644 22.8394 33.4644 28.1515 28.1515L28.1523 28.1523Z" fill="url(#paint0_radial_1164_10164)"/>
<mask id="mask0_1164_10164" style="mask-type:alpha" maskUnits="userSpaceOnUse" x="5" y="5" width="28" height="28">
<path fill-rule="evenodd" clip-rule="evenodd" d="M8.98441 8.98487C4.35224 13.6162 3.759 20.7578 7.20469 26.0322C7.44968 26.4224 7.57218 26.6167 7.64218 26.7987C7.8058 27.2195 7.82943 27.5678 7.72355 28.0062C7.67805 28.1969 7.56168 28.4524 7.32981 28.9634C6.55282 30.6696 6.38483 31.9383 6.97457 32.5289C8.63966 34.194 13.9718 31.5612 22.7672 22.7659C31.5625 13.9714 34.1945 8.64012 32.5294 6.97415C31.9396 6.38354 30.6709 6.55153 28.9647 7.32852C28.4511 7.56214 28.1947 7.67851 28.0039 7.72401C27.5664 7.82901 27.2208 7.80539 26.8017 7.64439C26.6206 7.57439 26.4281 7.45364 26.0457 7.2139C20.7696 3.75771 13.6209 4.34832 8.98441 8.98487ZM20.2533 20.2529C23.4558 17.0487 25.617 14.0152 24.1304 12.5294C20.8973 9.29548 15.678 9.27099 12.4756 12.4743C9.2714 15.6785 9.2959 20.8969 12.5298 24.13C14.0156 25.6166 17.0491 23.4562 20.2533 20.2529Z" fill="#FF3377"/>
</mask>
<g mask="url(#mask0_1164_10164)">
<path fill-rule="evenodd" clip-rule="evenodd" d="M8.98441 8.98487C4.35224 13.6162 3.759 20.7578 7.20469 26.0322C7.44968 26.4224 7.57218 26.6167 7.64218 26.7987C7.8058 27.2195 7.82943 27.5678 7.72355 28.0062C7.67805 28.1969 7.56168 28.4524 7.32981 28.9634C6.55282 30.6696 6.38483 31.9383 6.97457 32.5289C8.63966 34.194 13.9718 31.5612 22.7672 22.7659C31.5625 13.9714 34.1945 8.64012 32.5294 6.97415C31.9396 6.38354 30.6709 6.55153 28.9647 7.32852C28.4511 7.56214 28.1947 7.67851 28.0039 7.72401C27.5664 7.82901 27.2208 7.80539 26.8017 7.64439C26.6206 7.57439 26.4281 7.45364 26.0457 7.2139C20.7696 3.75771 13.6209 4.34832 8.98441 8.98487ZM20.2533 20.2529C23.4558 17.0487 25.617 14.0152 24.1304 12.5294C20.8973 9.29548 15.678 9.27099 12.4756 12.4743C9.2714 15.6785 9.2959 20.8969 12.5298 24.13C14.0156 25.6166 17.0491 23.4562 20.2533 20.2529Z" fill="#FF3377"/>
<g filter="url(#filter0_f_1164_10164)">
<path d="M9.27419 24.7705C6.44362 20.4306 6.93011 14.5559 10.7372 10.7445C14.5477 6.92782 20.4259 6.4422 24.7623 9.28853C25.0747 9.48452 25.2322 9.5834 25.3809 9.64114C25.6936 9.77161 26.0407 9.79469 26.3679 9.70677C26.5254 9.66914 26.7354 9.5729 27.158 9.38127C28.5606 8.74253 30.5267 7.36968 31.2179 8.06005C32.2784 9.12228 29.0873 14.6408 21.8591 21.8778C14.6308 29.1139 9.11845 32.5141 8.05797 31.4528C7.3676 30.7615 8.7387 28.5863 9.37657 27.1828C9.56819 26.762 9.66356 26.5511 9.70119 26.3953C9.78781 26.034 9.76856 25.7479 9.63381 25.4014C9.57606 25.2509 9.47544 25.0907 9.27419 24.7705Z" fill="#FFFF00"/>
</g>
</g>
<defs>
<filter id="filter0_f_1164_10164" x="2.58089" y="2.58284" width="33.7171" height="33.9417" filterUnits="userSpaceOnUse" color-interpolation-filters="sRGB">
<feFlood flood-opacity="0" result="BackgroundImageFix"/>
<feBlend mode="normal" in="SourceGraphic" in2="BackgroundImageFix" result="shape"/>
<feGaussianBlur stdDeviation="2.441" result="effect1_foregroundBlur_1164_10164"/>
</filter>
<radialGradient id="paint0_radial_1164_10164" cx="0" cy="0" r="1" gradientUnits="userSpaceOnUse" gradientTransform="translate(18.5025 18.7072) rotate(45) scale(13.4235)">
<stop offset="0.646" stop-color="#FFFF00"/>
<stop offset="1" stop-color="#FF3377"/>
</radialGradient>
</defs>
</svg>
