<svg width="17" height="16" viewBox="0 0 17 16" fill="none" xmlns="http://www.w3.org/2000/svg">
<path d="M8.25 4.5C6.3125 4.5 4.75 6.09375 4.75 8C4.75 9.9375 6.3125 11.5 8.25 11.5C10.1562 11.5 11.75 9.9375 11.75 8C11.75 6.09375 10.1562 4.5 8.25 4.5ZM8.25 10C7.125 10 6.25 9.125 6.25 8C6.25 6.90625 7.125 6 8.25 6C9.34375 6 10.25 6.90625 10.25 8C10.25 9.125 9.34375 10 8.25 10ZM8.25 3.5C8.65625 3.5 9 3.1875 9 2.75V0.75C9 0.34375 8.65625 0 8.25 0C7.8125 0 7.5 0.34375 7.5 0.75V2.75C7.5 3.1875 7.8125 3.5 8.25 3.5ZM8.25 12.5C7.8125 12.5 7.5 12.8438 7.5 13.25V15.25C7.5 15.6875 7.8125 16 8.25 16C8.65625 16 9 15.6875 9 15.25V13.25C9 12.8438 8.65625 12.5 8.25 12.5ZM15.5 7.25H13.5C13.0625 7.25 12.75 7.59375 12.75 8C12.75 8.4375 13.0625 8.75 13.5 8.75H15.5C15.9062 8.75 16.25 8.4375 16.25 8C16.25 7.59375 15.9062 7.25 15.5 7.25ZM3.75 8C3.75 7.59375 3.40625 7.25 3 7.25H1C0.5625 7.25 0.25 7.59375 0.25 8C0.25 8.4375 0.5625 8.75 1 8.75H3C3.40625 8.75 3.75 8.4375 3.75 8ZM12.4688 11.1875C12.1875 10.9062 11.7188 10.9062 11.4062 11.1875C11.125 11.5 11.125 11.9688 11.4062 12.25L12.8438 13.6875C12.9688 13.8125 13.1562 13.9062 13.375 13.9062C13.5625 13.9062 13.75 13.8125 13.9062 13.6875C14.1875 13.375 14.1875 12.9062 13.9062 12.625L12.4688 11.1875ZM4 4.84375C4.125 4.96875 4.34375 5.0625 4.53125 5.0625C4.71875 5.0625 4.90625 4.96875 5.0625 4.84375C5.34375 4.53125 5.34375 4.0625 5.0625 3.78125L3.625 2.34375C3.34375 2.0625 2.875 2.0625 2.5625 2.34375C2.28125 2.65625 2.28125 3.125 2.5625 3.40625L4 4.84375ZM11.9375 5.0625C12.125 5.0625 12.3438 4.96875 12.4688 4.84375L13.9062 3.40625C14.1875 3.125 14.1875 2.65625 13.9062 2.34375C13.5938 2.0625 13.125 2.0625 12.8438 2.34375L11.4062 3.78125C11.125 4.0625 11.125 4.53125 11.4062 4.84375C11.5625 4.96875 11.75 5.0625 11.9375 5.0625ZM4 11.1875L2.5625 12.625C2.28125 12.9062 2.28125 13.375 2.5625 13.6875C2.71875 13.8125 2.90625 13.9062 3.09375 13.9062C3.3125 13.9062 3.5 13.8125 3.625 13.6875L5.0625 12.25C5.34375 11.9688 5.34375 11.5 5.0625 11.1875C4.75 10.9062 4.28125 10.9062 4 11.1875Z" fill="currentColor" />
</svg>
