<svg xmlns="http://www.w3.org/2000/svg" width="121" height="24" fill="none"><g clip-path="url(#a)"><path fill="#fff" d="M79.147 5.075c.254.25.565.375.932.375.353 0 .65-.125.89-.375.253-.25.38-.555.38-.916s-.127-.667-.38-.917a1.184 1.184 0 0 0-.89-.375c-.367 0-.678.125-.932.375s-.38.556-.38.917c0 .36.126.666.38.916ZM86.031 15.354V8.926h3.229V7.464H86.03V4.687c-.35 0-.524 0-.669.03a1.435 1.435 0 0 0-1.111 1.113c-.03.144-.03.32-.03.668v.966h-1.244v1.462h1.243v6.428c0 1.938.908 2.985 3.025 2.985h2.015V16.71h-1.908c-.995 0-1.32-.342-1.32-1.357ZM80.927 7.46v10.906h-1.811V7.461h1.81ZM75.405 7.46l-3.383 8.852L68.62 7.46h-1.95l4.279 10.905h2.109l4.278-10.905h-1.93ZM30.615 11.45a7.032 7.032 0 0 1 13.361-3.065h-2.161a5.175 5.175 0 0 0-4.168-2.112 5.182 5.182 0 0 0-5.177 5.178 5.182 5.182 0 0 0 5.177 5.177 5.186 5.186 0 0 0 5.078-4.17l.016-.08h-5.496v-1.501h7.41a7.031 7.031 0 0 1-7.008 7.606 7.031 7.031 0 0 1-7.032-7.032ZM104.838 4.497v8.348c0 1.829.542 3.274 1.536 4.261.991.983 2.324 1.407 3.702 1.407 1.379 0 2.718-.425 3.711-1.44.993-1.017 1.527-2.509 1.527-4.42V4.497h-1.818v7.965c0 2.24-.717 4.233-3.42 4.233s-3.42-1.835-3.42-4.042V4.497h-1.818ZM120.129 4.497V18.37h-1.818V4.497h1.818ZM90.152 7.462l4.888 10.34-2.247 4.954h.16c.903 0 1.354 0 1.71-.23.357-.231.541-.643.91-1.467l6.09-13.597h-1.992l-3.653 8.156-3.855-8.156h-2.01Z"/><path fill="#fff" fill-rule="evenodd" d="M59.25 7.269a5.645 5.645 0 1 0 0 11.289c1.691 0 3.01-.663 3.893-1.73v1.539h1.818V7.46h-1.818v1.538c-.883-1.066-2.202-1.73-3.894-1.73Zm-3.887 5.644a3.887 3.887 0 1 1 7.773 0 3.887 3.887 0 0 1-7.773 0Z" clip-rule="evenodd"/><path fill="#fff" d="M52.743 7.365c-1.693 0-3.109.192-4.025 1.58V7.461h-1.81v10.905h1.81l.025-5.922c0-2.203 1.015-3.4 3.044-3.4h.956V7.365Z"/><path fill="url(#b)" fill-rule="evenodd" d="M19.789 19.787c4.54-4.54 4.54-11.903 0-16.443l-3.265 3.265c2.668 2.77 2.657 7.159-.05 9.865-2.705 2.706-7.094 2.717-9.864.049l-3.264 3.264c4.54 4.54 11.902 4.54 16.443 0Z" clip-rule="evenodd"/><mask id="c" width="24" height="25" x="0" y="-1" maskUnits="userSpaceOnUse" style="mask-type:alpha"><path fill="#F37" fill-rule="evenodd" d="M3.407 3.403c-3.959 3.96-4.466 10.063-1.52 14.572h-.001c.21.333.314.499.375.654.14.36.16.658.07 1.033-.04.162-.14.38-.338.818-.664 1.458-.807 2.543-.303 3.047 1.423 1.423 5.98-.827 13.498-8.344 7.517-7.518 9.767-12.075 8.344-13.498-.504-.504-1.588-.36-3.047.303-.439.2-.658.3-.821.338-.374.09-.669.07-1.027-.068-.155-.06-.32-.163-.647-.368C13.48-1.063 7.37-.56 3.407 3.403Zm9.632 9.631c2.738-2.738 4.585-5.33 3.315-6.6-2.764-2.765-7.225-2.785-9.963-.047-2.738 2.738-2.717 7.198.047 9.962 1.27 1.27 3.863-.576 6.601-3.315Z" clip-rule="evenodd"/></mask><g mask="url(#c)"><path fill="#F37" fill-rule="evenodd" d="M3.407 3.403c-3.959 3.96-4.466 10.063-1.52 14.572h-.001c.21.333.314.499.375.654.14.36.16.658.07 1.033-.04.162-.14.38-.338.818-.664 1.458-.807 2.543-.303 3.047 1.423 1.423 5.98-.827 13.498-8.344 7.517-7.518 9.767-12.075 8.344-13.498-.504-.504-1.588-.36-3.047.303-.439.2-.658.3-.821.338-.374.09-.669.07-1.027-.068-.155-.06-.32-.163-.647-.368C13.48-1.063 7.37-.56 3.407 3.403Zm9.632 9.631c2.738-2.738 4.585-5.33 3.315-6.6-2.764-2.765-7.225-2.785-9.963-.047-2.738 2.738-2.717 7.198.047 9.962 1.27 1.27 3.863-.576 6.601-3.315Z" clip-rule="evenodd"/><g filter="url(#d)"><path fill="#FF0" d="M3.656 16.895c-2.42-3.71-2.004-8.732 1.25-11.99a9.55 9.55 0 0 1 11.988-1.243c.266.167.402.252.528.3.295.114.537.13.844.057.135-.032.315-.114.676-.278 1.198-.546 2.88-1.72 3.47-1.129.906.908-1.822 5.624-8 11.81-6.178 6.185-10.89 9.091-11.796 8.184-.59-.59.582-2.45 1.128-3.65.163-.36.245-.54.277-.673a1.313 1.313 0 0 0-.057-.85c-.05-.128-.136-.264-.308-.538Z"/></g></g></g><defs><radialGradient id="b" cx="0" cy="0" r="1" gradientTransform="rotate(45 -8.37 19.788) scale(11.4732)" gradientUnits="userSpaceOnUse"><stop offset=".646" stop-color="#FF0"/><stop offset="1" stop-color="#F37"/></radialGradient><clipPath id="a"><path fill="#fff" d="M0 0h120.192v24H0z"/></clipPath><filter id="d" width="27.778" height="27.969" x="-1.544" y="-1.548" color-interpolation-filters="sRGB" filterUnits="userSpaceOnUse"><feFlood flood-opacity="0" result="BackgroundImageFix"/><feBlend in="SourceGraphic" in2="BackgroundImageFix" result="shape"/><feGaussianBlur result="effect1_foregroundBlur_632_28741" stdDeviation="1.826"/></filter></defs></svg>