<svg width="16" height="16" viewBox="0 0 16 16" fill="none" xmlns="http://www.w3.org/2000/svg">
<path d="M0 1C0 0.447715 0.447715 0 1 0H15C15.5523 0 16 0.447715 16 1C16 1.55228 15.5523 2 15 2H1C0.447715 2 0 1.55228 0 1Z" fill="currentColor"/>
<path d="M0 8C0 7.44772 0.447715 7 1 7H15C15.5523 7 16 7.44772 16 8C16 8.55228 15.5523 9 15 9H1C0.447715 9 0 8.55228 0 8Z" fill="currentColor"/>
<path d="M1 14C0.447715 14 0 14.4477 0 15C0 15.5523 0.447715 16 1 16H15C15.5523 16 16 15.5523 16 15C16 14.4477 15.5523 14 15 14H1Z" fill="currentColor"/>
</svg>
