<svg width="24" height="24" viewBox="0 0 24 24" fill="none" xmlns="http://www.w3.org/2000/svg">
<g clip-path="url(#clip0_2557_9914)">
<path d="M11.2147 0.0186595C11.1632 0.0233466 10.9991 0.0397512 10.8515 0.0514688C7.44634 0.35847 4.25681 2.19579 2.2367 5.01973C1.11181 6.58989 0.392346 8.37097 0.120497 10.2575C0.0244129 10.916 0.0126953 11.1105 0.0126953 12.0034C0.0126953 12.8963 0.0244129 13.0908 0.120497 13.7493C0.771996 18.2513 3.97559 22.0337 8.32048 23.4351C9.09853 23.6859 9.91876 23.857 10.8515 23.9601C11.2147 23.9999 12.7849 23.9999 13.1481 23.9601C14.7581 23.782 16.1221 23.3836 17.4672 22.6969C17.6735 22.5915 17.7133 22.5633 17.6852 22.5399C17.6664 22.5258 16.7876 21.347 15.733 19.9222L13.816 17.3326L11.4139 13.7775C10.0922 11.823 9.00479 10.2247 8.99541 10.2247C8.98604 10.2224 8.97666 11.8019 8.97198 13.7306C8.96495 17.1076 8.9626 17.2435 8.92042 17.3232C8.85949 17.4381 8.81262 17.4849 8.71419 17.5365C8.6392 17.574 8.57358 17.581 8.21971 17.581H7.81428L7.70647 17.513C7.63617 17.4685 7.58461 17.4099 7.54946 17.342L7.50025 17.2365L7.50493 12.5377L7.51196 7.83665L7.58461 7.74525C7.62211 7.69603 7.70179 7.63276 7.75803 7.60229C7.85412 7.55542 7.89161 7.55074 8.29704 7.55074C8.77512 7.55074 8.8548 7.56948 8.97901 7.70541C9.01416 7.74291 10.3148 9.70209 11.8709 12.062C13.427 14.4219 15.5549 17.6443 16.6001 19.2262L18.4984 22.1017L18.5945 22.0384C19.4452 21.4853 20.3451 20.6979 21.0575 19.8777C22.5738 18.1364 23.551 16.0132 23.8791 13.7493C23.9752 13.0908 23.9869 12.8963 23.9869 12.0034C23.9869 11.1105 23.9752 10.916 23.8791 10.2575C23.2276 5.7556 20.024 1.97316 15.6791 0.57173C14.9128 0.323317 14.0973 0.15224 13.1833 0.0491253C12.9583 0.0256901 11.4092 -8.86405e-05 11.2147 0.0186595ZM16.1221 7.26951C16.2345 7.32576 16.3259 7.43356 16.3588 7.54605C16.3775 7.60698 16.3822 8.90998 16.3775 11.8464L16.3705 16.0601L15.6276 14.9211L14.8823 13.7822V10.7192C14.8823 8.7389 14.8917 7.62573 14.9058 7.57183C14.9433 7.44059 15.0253 7.33748 15.1378 7.27654C15.2339 7.22733 15.269 7.22264 15.637 7.22264C15.9838 7.22264 16.0447 7.22733 16.1221 7.26951Z" fill="white" fill-opacity="0.85"/>
<path d="M18.3813 22.1532C18.2993 22.2048 18.2735 22.2399 18.3462 22.2001C18.3977 22.1696 18.4821 22.1063 18.468 22.104C18.461 22.104 18.4212 22.1274 18.3813 22.1532ZM18.2196 22.2587C18.1774 22.2915 18.1774 22.2938 18.229 22.2681C18.2571 22.254 18.2806 22.2376 18.2806 22.2329C18.2806 22.2141 18.2688 22.2188 18.2196 22.2587ZM18.1025 22.329C18.0603 22.3618 18.0603 22.3641 18.1118 22.3384C18.1399 22.3243 18.1634 22.3079 18.1634 22.3032C18.1634 22.2845 18.1517 22.2891 18.1025 22.329ZM17.9853 22.3993C17.9431 22.4321 17.9431 22.4344 17.9947 22.4087C18.0228 22.3946 18.0462 22.3782 18.0462 22.3735C18.0462 22.3548 18.0345 22.3594 17.9853 22.3993ZM17.8072 22.493C17.7181 22.5399 17.7228 22.5586 17.8119 22.5141C17.8517 22.493 17.8822 22.4719 17.8822 22.4672C17.8822 22.4508 17.8798 22.4532 17.8072 22.493Z" fill="white" fill-opacity="0.7"/>
</g>
<defs>
<clipPath id="clip0_2557_9914">
<rect width="24" height="24" fill="white"/>
</clipPath>
</defs>
</svg>
