<svg width="20" height="17" viewBox="0 0 20 17" fill="none" xmlns="http://www.w3.org/2000/svg">
<path d="M12.9258 0C13.7465 4.71944e-05 14.4844 0.501346 14.7861 1.26465C15.1114 2.08794 15.9068 2.62887 16.792 2.62891H17C18.6569 2.62891 20 3.97205 20 5.62891V13.4287C20 15.0856 18.6569 16.4287 17 16.4287H16.0361C15.7456 16.4287 15.4966 16.262 15.3721 16.0205C15.3009 15.9853 15.233 15.9411 15.1738 15.8818L12.123 12.8262C11.4582 13.2015 10.6909 13.4178 9.87305 13.418L9.63672 13.4121C7.29146 13.293 5.41065 11.4123 5.29199 9.06641L5.28613 8.83105C5.2863 6.29764 7.34017 4.24333 9.87305 4.24316L10.1084 4.24902C12.5317 4.37193 14.4588 6.37674 14.459 8.83105L14.4531 9.06641C14.3986 10.1446 13.9707 11.1241 13.2979 11.8799L16.2354 14.8213C16.2687 14.8547 16.2975 14.8911 16.3232 14.9287H17C17.8284 14.9287 18.5 14.2571 18.5 13.4287V5.62891C18.5 4.80048 17.8284 4.12891 17 4.12891H15.3252C14.7093 4.12887 14.156 3.7525 13.9297 3.17969L13.3906 1.81543C13.3247 1.64944 13.1758 1.53258 13.002 1.50586L12.9258 1.5H7.07422C6.86991 1.50005 6.68618 1.62477 6.61035 1.81543L6.07129 3.17969C5.84499 3.7525 5.29167 4.12887 4.67578 4.12891H3C2.17157 4.12891 1.5 4.80048 1.5 5.62891V13.4287C1.5 14.2571 2.17157 14.9287 3 14.9287H8.82129C9.2355 14.9287 9.57129 15.2645 9.57129 15.6787C9.57129 16.0929 9.2355 16.4287 8.82129 16.4287H3C1.34315 16.4287 0 15.0856 0 13.4287V5.62891C0 3.97205 1.34315 2.62891 3 2.62891H3.20898C4.09421 2.62887 4.88953 2.08794 5.21484 1.26465C5.51662 0.501536 6.25359 5.49686e-05 7.07422 0H12.9258ZM9.87305 5.74316C8.1689 5.74333 6.7863 7.12576 6.78613 8.83105C6.78629 10.5364 8.16889 11.9178 9.87305 11.918C11.577 11.9175 12.9588 10.5362 12.959 8.83105C12.9588 7.12592 11.577 5.74358 9.87305 5.74316Z" fill="currentColor"/>
</svg>
