<svg width="52" height="52" viewBox="0 0 52 52" fill="none" xmlns="http://www.w3.org/2000/svg">
<path fill-rule="evenodd" clip-rule="evenodd" d="M29.8828 16.248L31.0233 19.0881L34.0769 19.2952L44.4689 19.9998L36.4758 26.6781L34.1271 28.6405L34.8738 31.6086L37.4149 41.7097L28.5934 36.1715L26.0014 34.5442L23.4093 36.1715L14.5878 41.7097L17.1289 31.6086L17.8756 28.6405L15.527 26.6781L7.5338 19.9998L17.9258 19.2952L20.9794 19.0881L22.1199 16.248L26.0014 6.58233L29.8828 16.248ZM4.78161 15.3002L17.596 14.4313L22.3823 2.51259C23.6923 -0.749644 28.3104 -0.749635 29.6205 2.5126L34.4067 14.4313L47.2211 15.3002C50.7285 15.538 52.1556 19.9302 49.4578 22.1841L39.6015 30.4192L42.735 42.875C43.5926 46.2842 39.8565 48.9987 36.8792 47.1295L26.0014 40.3003L15.1236 47.1295C12.1462 48.9987 8.41008 46.2842 9.26774 42.875L12.4013 30.4192L2.54488 22.1841C-0.152868 19.9302 1.27423 15.538 4.78161 15.3002Z" fill="white"/>
</svg>
