<svg width="53" height="52" viewBox="0 0 53 52" fill="none" xmlns="http://www.w3.org/2000/svg">
<path d="M18.2026 20.1968C19.9976 20.1968 21.4526 18.7417 21.4526 16.9468C21.4526 15.1518 19.9976 13.6968 18.2026 13.6968C16.4077 13.6968 14.9526 15.1518 14.9526 16.9468C14.9526 18.7417 16.4077 20.1968 18.2026 20.1968Z" fill="white"/>
<path fill-rule="evenodd" clip-rule="evenodd" d="M7.06946 28.7951C6.13348 27.8591 5.61835 26.5827 5.64241 25.2593L5.92967 9.45987C5.97736 6.83688 8.09225 4.72199 10.7152 4.6743L26.5147 4.38704C27.8381 4.36297 29.1145 4.87811 30.0504 5.81408L48.5299 24.2936C50.4337 26.1974 50.4337 29.2841 48.5299 31.1879L32.4432 47.2746C30.5394 49.1784 27.4528 49.1784 25.549 47.2745L7.06946 28.7951ZM26.6033 9.26123L45.0828 27.7407L28.9961 43.8274L10.5166 25.3479L10.8039 9.54849L26.6033 9.26123Z" fill="white"/>
</svg>
