<svg width="52" height="52" viewBox="0 0 52 52" fill="none" xmlns="http://www.w3.org/2000/svg">
<path fill-rule="evenodd" clip-rule="evenodd" d="M17.0625 17.8645C15.7163 17.8645 14.625 16.7732 14.625 15.427V13.0002C11.9326 13.0002 9.75 15.1828 9.75 17.8752V21.1252H42.25V17.8752C42.25 15.1828 40.0674 13.0002 37.375 13.0002V15.4377C37.375 16.7839 36.2837 17.8752 34.9375 17.8752C33.5913 17.8752 32.5 16.7839 32.5 15.4377V13.0002H19.5V15.427C19.5 16.7732 18.4087 17.8645 17.0625 17.8645ZM32.5 8.12517H19.5V5.67969C19.5 4.33349 18.4087 3.24219 17.0625 3.24219C15.7163 3.24219 14.625 4.33349 14.625 5.67969V8.12517C9.24022 8.12517 4.875 12.4904 4.875 17.8752V37.3752C4.875 42.7599 9.24022 47.1252 14.625 47.1252H37.375C42.7598 47.1252 47.125 42.7599 47.125 37.3752V17.8752C47.125 12.4904 42.7598 8.12517 37.375 8.12517V5.68767C37.375 4.34147 36.2837 3.25017 34.9375 3.25017C33.5913 3.25017 32.5 4.34147 32.5 5.68767V8.12517ZM9.75 26.0002V37.3752C9.75 40.0676 11.9326 42.2502 14.625 42.2502H37.375C40.0674 42.2502 42.25 40.0676 42.25 37.3752V26.0002H9.75Z" fill="white"/>
</svg>
