<svg width="16" height="16" viewBox="0 0 16 16" fill="none" xmlns="http://www.w3.org/2000/svg">
<g clip-path="url(#clip0_2555_8769)">
<path fill-rule="evenodd" clip-rule="evenodd" d="M15.5 0.500008C16.5 4 14.5 10.5 6.99999 12.5C6.99999 12.5 9.5 12 11 11C11.5 11.5 11.0976 12.3764 11 12.5L8.69813 15.7925C8.52995 16.0056 8.25978 16.1111 7.99172 16.0685C7.72366 16.0259 7.49954 15.8418 7.40571 15.5871L6.17198 12.2384C5.89879 11.5654 5.61105 11.1073 5.25819 10.7545C4.90537 10.4016 4.44729 10.1139 3.77448 9.84074L0.425567 8.60693C0.170878 8.5131 -0.0132391 8.28898 -0.055852 8.02092C-0.0984648 7.75286 0.007079 7.4827 0.220116 7.31451L3.5 5C3.62361 4.90241 4.5 4.5 5 5C4 6.5 3.49999 9.00001 3.49999 9.00001C5.5 1.5 12 -0.5 15.5 0.500008ZM4.2378 11.7763C3.36468 10.9032 1.96509 10.8872 1.11172 11.7406C0.0150749 12.8372 0.0393968 14.8595 0.0751309 15.4774C0.0820518 15.5971 0.135344 15.7078 0.220112 15.7925C0.305804 15.8782 0.417885 15.9317 0.538911 15.938C1.1616 15.9701 3.19217 15.9838 4.27357 14.9024C5.12694 14.0491 5.11093 12.6495 4.2378 11.7763Z" fill="black"/>
<circle cx="11" cy="5" r="1" fill="#FFBE5C"/>
</g>
<defs>
<clipPath id="clip0_2555_8769">
<rect width="16" height="16" fill="white"/>
</clipPath>
</defs>
</svg>
