<svg width="46" height="20" viewBox="0 0 46 20" fill="none" xmlns="http://www.w3.org/2000/svg"><path d="M13.664 6.852c.302.203.474.49.516.859h1.164a1.98 1.98 0 0 0-.375-1.14 2.417 2.417 0 0 0-.985-.786c-.414-.19-.892-.285-1.433-.285-.537 0-1.018.096-1.446.29-.427.19-.765.456-1.015.8-.25.344-.375.746-.375 1.207 0 .557.186 1.005.558 1.344.375.338.883.595 1.524.77l.945.257c.287.075.543.163.77.262.229.099.41.224.543.375a.839.839 0 0 1 .203.582c0 .26-.077.488-.23.683a1.523 1.523 0 0 1-.633.453c-.266.107-.57.16-.91.16-.31 0-.596-.045-.856-.136a1.52 1.52 0 0 1-.637-.426 1.237 1.237 0 0 1-.281-.723H9.5c.026.482.163.899.41 1.25.248.35.59.619 1.027.809.438.19.956.285 1.555.285.625 0 1.158-.101 1.598-.305.443-.203.78-.48 1.012-.832.234-.351.351-.753.351-1.207 0-.359-.071-.668-.215-.925a2.02 2.02 0 0 0-.554-.649 3.149 3.149 0 0 0-.746-.422 5.954 5.954 0 0 0-.786-.254l-.78-.203a5.375 5.375 0 0 1-.49-.148 2.688 2.688 0 0 1-.476-.23 1.192 1.192 0 0 1-.355-.348.891.891 0 0 1-.133-.492c0-.227.065-.429.195-.606.133-.18.32-.32.559-.422.24-.104.523-.156.851-.156.459 0 .839.103 1.141.309z" fill="currentColor"/><path fill-rule="evenodd" clip-rule="evenodd" d="M23.376 11.813c.313-.615.469-1.35.469-2.204 0-.854-.156-1.587-.469-2.199-.313-.614-.74-1.086-1.285-1.414-.542-.33-1.158-.496-1.848-.496-.692 0-1.311.165-1.855.496-.542.328-.97.8-1.282 1.414-.312.612-.468 1.345-.468 2.2 0 .85.156 1.584.468 2.199.313.614.74 1.087 1.282 1.418.544.328 1.162.492 1.855.492.69 0 1.306-.164 1.848-.492.544-.331.973-.803 1.285-1.415zm-1.043-3.848c.21.445.316.993.316 1.644 0 .651-.105 1.2-.316 1.649-.208.445-.495.784-.86 1.015a2.25 2.25 0 0 1-1.23.344c-.46 0-.872-.114-1.234-.344-.362-.231-.649-.57-.86-1.015-.208-.448-.312-.998-.312-1.649 0-.65.104-1.199.312-1.644.211-.448.498-.787.86-1.016a2.24 2.24 0 0 1 1.234-.347c.459 0 .869.115 1.23.347.365.23.652.568.86 1.016zM32.299 9.61c0 .854-.156 1.588-.469 2.203-.312.611-.74 1.083-1.285 1.414-.542.328-1.158.492-1.848.492-.692 0-1.31-.164-1.855-.492-.542-.331-.969-.804-1.281-1.418-.313-.615-.47-1.348-.47-2.2 0-.854.157-1.587.47-2.199.312-.614.74-1.086 1.28-1.414.545-.33 1.164-.496 1.856-.496.69 0 1.306.165 1.848.496.544.328.973.8 1.285 1.414.313.612.469 1.345.469 2.2zm-1.195 0c0-.652-.106-1.2-.317-1.645-.208-.448-.495-.787-.86-1.016a2.232 2.232 0 0 0-1.23-.347 2.24 2.24 0 0 0-1.234.347c-.362.23-.649.568-.86 1.016-.208.445-.312.993-.312 1.644 0 .651.104 1.2.313 1.649.21.445.497.784.859 1.015.362.23.773.344 1.234.344a2.25 2.25 0 0 0 1.23-.344c.365-.231.652-.57.86-1.015.211-.448.317-.998.317-1.649z" fill="currentColor"/><path d="M39.151 13.61h1.11v-8h-1.196v5.874h-.074l-4.07-5.875h-1.117v8h1.207V7.742h.074l4.066 5.867z" fill="currentColor"/><path fill-rule="evenodd" clip-rule="evenodd" d="M5.8 1.6A4 4 0 0 1 9 0h33a4 4 0 0 1 4 4v12a4 4 0 0 1-4 4H9a4 4 0 0 1-3.2-1.6L.4 11.2a2 2 0 0 1 0-2.4l5.4-7.2zM9 1.5h33A2.5 2.5 0 0 1 44.5 4v12a2.5 2.5 0 0 1-2.5 2.5H9a2.5 2.5 0 0 1-2-1l-5.4-7.2a.5.5 0 0 1 0-.6L7 2.5a2.5 2.5 0 0 1 2-1z" fill="currentColor"/></svg>