<svg width="20" height="20" viewBox="0 0 20 20" fill="none" xmlns="http://www.w3.org/2000/svg"><path fill-rule="evenodd" clip-rule="evenodd" d="m11.493 6.25.438 1.091 1.175.08 3.997.271-3.075 2.569-.903.755.287 1.141.977 3.885-3.392-2.13-.997-.626-.997.626-3.393 2.13.977-3.885.287-1.142-.903-.754-3.074-2.569 3.997-.27 1.174-.08.439-1.093L10 2.532l1.493 3.717zm-9.655-.365 4.929-.335L8.607.966c.505-1.254 2.28-1.254 2.785 0l1.84 4.584 4.93.335c1.348.091 1.897 1.78.86 2.647L15.23 11.7l1.205 4.79c.33 1.312-1.107 2.356-2.252 1.637L10 15.5l-4.184 2.627c-1.145.719-2.582-.325-2.252-1.637l1.205-4.79L.978 8.532c-1.038-.867-.489-2.556.86-2.647z" fill="currentColor" fill-opacity=".5"/></svg>