<svg width="17" height="14" viewBox="0 0 17 14" fill="none" xmlns="http://www.w3.org/2000/svg">
<path fill-rule="evenodd" clip-rule="evenodd" d="M9.49576 4.68646L9.86131 5.50573L10.84 5.56545L14.1708 5.76871L11.6089 7.69516L10.8561 8.26122L11.0954 9.1174L11.9099 12.0312L9.0825 10.4336L8.2517 9.96421L7.42091 10.4336L4.5935 12.0312L5.40798 9.1174L5.6473 8.26122L4.89452 7.69516L2.33261 5.76871L5.66339 5.56545L6.64209 5.50573L7.00764 4.68646L8.2517 1.89829L9.49576 4.68646ZM1.4505 4.41307L5.55769 4.16243L7.09174 0.724324C7.51162 -0.216704 8.99179 -0.216701 9.41167 0.724327L10.9457 4.16243L15.0529 4.41307C16.1771 4.48167 16.6345 5.74863 15.7698 6.39881L12.6107 8.77432L13.615 12.3673C13.8899 13.3507 12.6924 14.1338 11.7382 13.5946L8.2517 11.6246L4.76522 13.5946C3.81095 14.1338 2.61347 13.3507 2.88836 12.3673L3.89269 8.77432L0.733598 6.39881C-0.131065 5.74862 0.326337 4.48167 1.4505 4.41307Z" fill="currentColor"/>
</svg>
