<svg width="16" height="16" viewBox="0 0 16 16" fill="none" xmlns="http://www.w3.org/2000/svg">
<path fill-rule="evenodd" clip-rule="evenodd" d="M10.6712 14.4723C11.4999 14.1307 12.2764 13.6231 12.9498 12.9497C14.2165 11.683 15 9.93299 15 8C15 4.13401 11.866 1 8 1C6.02388 1 4.23901 1.81885 2.9662 3.13575C2.34236 3.7809 1.86698 4.51637 1.54004 5.29918C1.19217 6.13025 1 7.04269 1 8C1 9.88987 1.74893 11.6048 2.9662 12.8643C3.02175 12.9217 3.07828 12.9783 3.13576 13.0338C3.78426 13.6609 4.52403 14.138 5.3114 14.4651C6.1392 14.8097 7.04738 15 8 15C8.94594 15 9.84807 14.8124 10.6712 14.4723ZM11.8891 11.8891C12.8844 10.8938 13.5 9.51878 13.5 8C13.5 4.96243 11.0376 2.5 8 2.5C6.48122 2.5 5.10623 3.1156 4.11092 4.1109L11.8891 11.8891Z" fill="currentColor"/>
</svg>
