<svg xmlns="http://www.w3.org/2000/svg" width="16" height="16"><path style="stroke:none;fill-rule:nonzero;fill:currentColor;fill-opacity:.5" d="M4.89 6.016c.583 0 1.055-.496 1.055-1.11 0-.613-.472-1.113-1.054-1.113-.582 0-1.051.5-1.051 1.113 0 .614.469 1.11 1.05 1.11zm0 0"/><path style="stroke:none;fill-rule:evenodd;fill:currentColor;fill-opacity:.501961" d="M1.285 8.957a1.733 1.733 0 0 1-.465-1.21l.094-5.4C.93 1.45 1.617.728 2.464.712L7.583.609a1.53 1.53 0 0 1 1.145.489l5.988 6.316a1.743 1.743 0 0 1 0 2.36l-5.211 5.5a1.52 1.52 0 0 1-2.234 0zm6.328-6.68 5.985 6.317-5.211 5.5-5.985-6.317.094-5.402zm0 0"/></svg>