<svg width="20" height="20" viewBox="0 0 20 20" fill="none" xmlns="http://www.w3.org/2000/svg"><path d="M6.808 7.768a1.25 1.25 0 1 0 0-2.5 1.25 1.25 0 0 0 0 2.5z" fill="currentColor" fill-opacity=".5"/><path fill-rule="evenodd" clip-rule="evenodd" d="M2.526 11.075c-.36-.36-.558-.85-.548-1.36l.11-6.077a1.875 1.875 0 0 1 1.84-1.84l6.077-.11c.51-.01 1 .188 1.36.548l7.108 7.108c.732.732.732 1.92 0 2.651l-6.187 6.188a1.875 1.875 0 0 1-2.652 0l-7.108-7.108zm7.514-7.513 7.107 7.107-6.187 6.188-7.108-7.108.11-6.077 6.077-.11z" fill="currentColor" fill-opacity=".5"/></svg>