<svg preserveAspectRatio="none" width="100%" height="100%" overflow="visible" style="display: block;" viewBox="0 0 314.298 238.681" fill="none" xmlns="http://www.w3.org/2000/svg">
<g id="Union" opacity="0.2" filter="url(#filter0_f_3114_115639)">
<path d="M105.016 87.3681C76.2462 97.2875 64.1687 112.597 61.7286 119.012C58.358 132.341 54.7779 153.33 67.4007 130.647C79.3194 109.228 96.3578 103.941 125.527 94.8895C134.972 91.9589 145.688 88.6337 157.914 84.2386C197.902 69.8628 182.7 61.1169 170.105 58.5409L145.639 61.818C144.086 66.2016 133.787 77.4487 105.016 87.3681Z" fill="url(#paint0_radial_3114_115639)"/>
<path d="M83.5697 145.367C86.0129 138.953 98.0873 123.644 126.857 113.724C155.628 103.805 165.927 92.5577 167.48 88.1741L191.946 84.8969C204.544 87.4729 219.743 96.2189 179.755 110.595C167.529 114.99 156.813 118.315 147.368 121.246C118.199 130.297 101.16 135.584 89.2418 157.003C76.619 179.686 80.2022 158.697 83.5697 145.367Z" fill="url(#paint1_radial_3114_115639)"/>
<path d="M133.743 158.464C136.183 152.049 148.261 136.74 177.031 126.82C205.801 116.901 216.101 105.654 217.654 101.27L242.117 97.993C254.715 100.569 269.913 109.315 229.925 123.691C217.7 128.086 206.984 131.411 197.54 134.342L197.539 134.342C168.372 143.393 151.334 148.68 139.415 170.099C126.793 192.782 130.373 171.793 133.743 158.464Z" fill="url(#paint2_radial_3114_115639)"/>
</g>
<defs>
<filter id="filter0_f_3114_115639" x="-8.08851e-08" y="0" width="314.298" height="238.681" filterUnits="userSpaceOnUse" color-interpolation-filters="sRGB">
<feFlood flood-opacity="0" result="BackgroundImageFix"/>
<feBlend mode="normal" in="SourceGraphic" in2="BackgroundImageFix" result="shape"/>
<feGaussianBlur stdDeviation="29.2704" result="effect1_foregroundBlur_3114_115639"/>
</filter>
<radialGradient id="paint0_radial_3114_115639" cx="0" cy="0" r="1" gradientTransform="matrix(-41.9472 26.8712 -24.2262 -33.8629 138.034 81.4633)" gradientUnits="userSpaceOnUse">
<stop stop-color="#A67D15"/>
<stop offset="1" stop-color="#FFE9B0" stop-opacity="0.91"/>
</radialGradient>
<radialGradient id="paint1_radial_3114_115639" cx="0" cy="0" r="1" gradientTransform="matrix(-41.9472 26.8712 -24.2262 -33.8629 138.034 81.4633)" gradientUnits="userSpaceOnUse">
<stop stop-color="#A67D15"/>
<stop offset="1" stop-color="#FFE9B0" stop-opacity="0.91"/>
</radialGradient>
<radialGradient id="paint2_radial_3114_115639" cx="0" cy="0" r="1" gradientTransform="matrix(-41.9472 26.8712 -24.2262 -33.8629 138.034 81.4633)" gradientUnits="userSpaceOnUse">
<stop stop-color="#A67D15"/>
<stop offset="1" stop-color="#FFE9B0" stop-opacity="0.91"/>
</radialGradient>
</defs>
</svg>
