<svg preserveAspectRatio="none" width="100%" height="100%" overflow="visible" style="display: block;" viewBox="0 0 244.91 230.984" fill="none" xmlns="http://www.w3.org/2000/svg">
<g id="Union" opacity="0.2" filter="url(#filter0_f_3123_115775)">
<path d="M88.6646 85.5433C70.0168 94.8347 62.1886 109.175 60.607 115.184C58.4223 127.669 56.1018 147.33 64.2835 126.082C72.0087 106.019 83.0525 101.067 101.959 92.5886C108.081 89.8435 115.026 86.7288 122.951 82.6119C148.87 69.1461 139.016 60.9538 130.853 58.5409L114.995 61.6106C113.988 65.7167 107.312 76.2518 88.6646 85.5433Z" fill="url(#paint0_radial_3123_115775)"/>
<path d="M74.7636 139.871C76.3472 133.863 84.1734 119.522 102.821 110.231C121.469 100.939 128.145 90.4044 129.151 86.2983L145.009 83.2285C153.175 85.6415 163.026 93.8338 137.107 107.3C129.183 111.417 122.237 114.531 116.115 117.276C97.209 125.755 86.1653 130.707 78.4401 150.77C70.2584 172.017 72.5809 152.357 74.7636 139.871Z" fill="url(#paint1_radial_3123_115775)"/>
<path d="M107.284 152.138C108.866 146.13 116.694 131.79 135.342 122.498C153.99 113.207 160.666 102.671 161.672 98.5653L177.528 95.4956C185.694 97.9085 195.545 106.101 169.626 119.567C161.702 123.684 154.756 126.799 148.635 129.544L148.635 129.544C129.729 138.022 118.686 142.974 110.961 163.037C102.779 184.284 105.1 164.624 107.284 152.138Z" fill="url(#paint2_radial_3123_115775)"/>
</g>
<defs>
<filter id="filter0_f_3123_115775" x="-4.56394e-08" y="0" width="244.91" height="230.984" filterUnits="userSpaceOnUse" color-interpolation-filters="sRGB">
<feFlood flood-opacity="0" result="BackgroundImageFix"/>
<feBlend mode="normal" in="SourceGraphic" in2="BackgroundImageFix" result="shape"/>
<feGaussianBlur stdDeviation="29.2704" result="effect1_foregroundBlur_3123_115775"/>
</filter>
<radialGradient id="paint0_radial_3123_115775" cx="0" cy="0" r="1" gradientTransform="matrix(-27.1887 25.1702 -15.7025 -31.7194 110.065 80.0122)" gradientUnits="userSpaceOnUse">
<stop stop-color="#A67D15"/>
<stop offset="1" stop-color="#FFE9B0" stop-opacity="0.91"/>
</radialGradient>
<radialGradient id="paint1_radial_3123_115775" cx="0" cy="0" r="1" gradientTransform="matrix(-27.1887 25.1702 -15.7025 -31.7194 110.065 80.0122)" gradientUnits="userSpaceOnUse">
<stop stop-color="#A67D15"/>
<stop offset="1" stop-color="#FFE9B0" stop-opacity="0.91"/>
</radialGradient>
<radialGradient id="paint2_radial_3123_115775" cx="0" cy="0" r="1" gradientTransform="matrix(-27.1887 25.1702 -15.7025 -31.7194 110.065 80.0122)" gradientUnits="userSpaceOnUse">
<stop stop-color="#A67D15"/>
<stop offset="1" stop-color="#FFE9B0" stop-opacity="0.91"/>
</radialGradient>
</defs>
</svg>
