<svg width="1800" height="760" viewBox="0 0 1800 760" fill="none" xmlns="http://www.w3.org/2000/svg">
<g clip-path="url(#clip0_317_51117)">
<path d="M1800 0H0V760H1800V0Z" fill="#080349"/>
<g filter="url(#filter0_f_317_51117)">
<circle cx="1321.5" cy="224.5" r="439.5" fill="url(#paint0_radial_317_51117)"/>
</g>
<g filter="url(#filter1_f_317_51117)">
<path d="M907.087 664.488C1033.22 732.415 1214.92 702.835 1312.93 598.418L1449.14 453.292C1547.15 348.875 1524.36 209.163 1398.23 141.237L1136.91 0.511568C1010.78 -67.4154 829.084 -37.8347 731.072 66.5823L594.854 211.708C496.846 316.125 519.646 455.836 645.778 523.764L907.087 664.488Z" fill="url(#paint1_radial_317_51117)"/>
</g>
<g filter="url(#filter2_f_317_51117)">
<path d="M895.964 564.785C983.66 658.98 1147.37 687.289 1261.61 628.016L1541.01 483.046C1655.25 423.773 1676.76 299.363 1589.07 205.168L1320.03 -83.7855C1232.34 -177.98 1068.63 -206.289 954.392 -147.016L674.991 -2.04557C560.751 57.2274 539.237 181.637 626.936 275.832L895.964 564.785Z" fill="url(#paint2_radial_317_51117)"/>
</g>
<g style="mix-blend-mode:screen" filter="url(#filter3_f_317_51117)">
<circle cx="1037.5" cy="205.5" r="447.5" fill="url(#paint3_radial_317_51117)"/>
</g>
<g filter="url(#filter4_f_317_51117)">
<path d="M874.601 466.43C961.756 559.979 1124.44 588.095 1237.97 529.228L1256.64 519.545C1370.17 460.677 1391.55 337.119 1304.4 243.569C1217.25 150.02 1054.56 121.905 941.033 180.772L922.357 190.455C808.827 249.322 787.447 372.88 874.601 466.43Z" fill="url(#paint4_radial_317_51117)"/>
</g>
<g opacity="0.2" filter="url(#filter5_f_317_51117)">
<path d="M1197.28 21.8783C1108.58 54.1816 1071.35 104.038 1063.83 124.928C1053.44 168.337 1042.4 236.688 1081.31 162.819C1118.06 93.0665 1170.59 75.8489 1260.51 46.3726C1289.63 36.8289 1322.67 26.0001 1360.36 11.6869C1483.64 -35.129 1436.77 -63.611 1397.94 -72L1322.52 -61.3276C1317.73 -47.0521 1285.98 -10.425 1197.28 21.8783Z" fill="url(#paint5_radial_317_51117)"/>
<path d="M1131.16 210.758C1138.69 189.869 1175.92 140.013 1264.61 107.709C1353.31 75.4057 1385.06 38.7787 1389.85 24.5032L1465.28 13.8308C1504.12 22.2198 1550.97 50.7018 1427.69 97.5176C1390 111.831 1356.96 122.66 1327.85 132.204C1237.92 161.68 1185.39 178.898 1148.65 248.649C1109.73 322.519 1120.78 254.168 1131.16 210.758Z" fill="url(#paint6_radial_317_51117)"/>
<path d="M1285.84 253.407C1293.37 232.517 1330.6 182.661 1419.3 150.358C1507.99 118.054 1539.74 81.4271 1544.53 67.1515L1619.95 56.4791C1658.79 64.8681 1705.64 93.3501 1582.36 140.166C1544.67 154.48 1511.64 165.309 1482.52 174.853L1482.52 174.854C1392.6 204.329 1340.07 221.547 1303.33 291.298C1264.41 365.167 1275.45 296.817 1285.84 253.407Z" fill="url(#paint7_radial_317_51117)"/>
</g>
<g style="mix-blend-mode:hard-light" filter="url(#filter6_f_317_51117)">
<ellipse cx="983.5" cy="260" rx="361.5" ry="362" fill="url(#paint8_radial_317_51117)"/>
</g>
<path d="M297.701 552.417C410.407 588.863 548.408 534.468 605.935 430.923C663.462 327.378 618.73 213.893 506.025 177.447L406.654 145.313C293.949 108.867 155.948 163.262 98.4208 266.807C40.8939 370.352 85.6253 483.837 198.331 520.283L297.701 552.417Z" fill="url(#paint9_radial_317_51117)"/>
<path d="M638.518 173.541C708.003 196.01 793.083 162.475 828.549 98.6383C864.016 34.801 836.438 -35.1645 766.953 -57.6341L705.689 -77.4451C636.204 -99.9147 551.124 -66.3796 515.658 -2.54234C480.192 61.295 507.77 131.26 577.255 153.73L638.518 173.541Z" fill="url(#paint10_radial_317_51117)"/>
</g>
<defs>
<filter id="filter0_f_317_51117" x="768.024" y="-328.976" width="1106.95" height="1106.95" filterUnits="userSpaceOnUse" color-interpolation-filters="sRGB">
<feFlood flood-opacity="0" result="BackgroundImageFix"/>
<feBlend mode="normal" in="SourceGraphic" in2="BackgroundImageFix" result="shape"/>
<feGaussianBlur stdDeviation="56.9881" result="effect1_foregroundBlur_317_51117"/>
</filter>
<filter id="filter1_f_317_51117" x="420.024" y="-149.976" width="1203.95" height="964.952" filterUnits="userSpaceOnUse" color-interpolation-filters="sRGB">
<feFlood flood-opacity="0" result="BackgroundImageFix"/>
<feBlend mode="normal" in="SourceGraphic" in2="BackgroundImageFix" result="shape"/>
<feGaussianBlur stdDeviation="56.9881" result="effect1_foregroundBlur_317_51117"/>
</filter>
<filter id="filter2_f_317_51117" x="459.024" y="-291.976" width="1297.95" height="1064.95" filterUnits="userSpaceOnUse" color-interpolation-filters="sRGB">
<feFlood flood-opacity="0" result="BackgroundImageFix"/>
<feBlend mode="normal" in="SourceGraphic" in2="BackgroundImageFix" result="shape"/>
<feGaussianBlur stdDeviation="56.9881" result="effect1_foregroundBlur_317_51117"/>
</filter>
<filter id="filter3_f_317_51117" x="476.024" y="-355.976" width="1122.95" height="1122.95" filterUnits="userSpaceOnUse" color-interpolation-filters="sRGB">
<feFlood flood-opacity="0" result="BackgroundImageFix"/>
<feBlend mode="normal" in="SourceGraphic" in2="BackgroundImageFix" result="shape"/>
<feGaussianBlur stdDeviation="56.9881" result="effect1_foregroundBlur_317_51117"/>
</filter>
<filter id="filter4_f_317_51117" x="707.024" y="36.0238" width="764.952" height="637.952" filterUnits="userSpaceOnUse" color-interpolation-filters="sRGB">
<feFlood flood-opacity="0" result="BackgroundImageFix"/>
<feBlend mode="normal" in="SourceGraphic" in2="BackgroundImageFix" result="shape"/>
<feGaussianBlur stdDeviation="56.9881" result="effect1_foregroundBlur_317_51117"/>
</filter>
<filter id="filter5_f_317_51117" x="1004.87" y="-121.125" width="706.25" height="494.25" filterUnits="userSpaceOnUse" color-interpolation-filters="sRGB">
<feFlood flood-opacity="0" result="BackgroundImageFix"/>
<feBlend mode="normal" in="SourceGraphic" in2="BackgroundImageFix" result="shape"/>
<feGaussianBlur stdDeviation="24.5626" result="effect1_foregroundBlur_317_51117"/>
</filter>
<filter id="filter6_f_317_51117" x="508.024" y="-215.976" width="950.952" height="951.952" filterUnits="userSpaceOnUse" color-interpolation-filters="sRGB">
<feFlood flood-opacity="0" result="BackgroundImageFix"/>
<feBlend mode="normal" in="SourceGraphic" in2="BackgroundImageFix" result="shape"/>
<feGaussianBlur stdDeviation="56.9881" result="effect1_foregroundBlur_317_51117"/>
</filter>
<radialGradient id="paint0_radial_317_51117" cx="0" cy="0" r="1" gradientUnits="userSpaceOnUse" gradientTransform="translate(1520.31 311.971) rotate(-166.977) scale(355.178 339.982)">
<stop stop-color="#6607FF"/>
<stop offset="0.578125" stop-color="#1028FF" stop-opacity="0.385417"/>
<stop offset="1" stop-color="#0015FF" stop-opacity="0"/>
</radialGradient>
<radialGradient id="paint1_radial_317_51117" cx="0" cy="0" r="1" gradientUnits="userSpaceOnUse" gradientTransform="translate(1174.7 384.108) rotate(-172.386) scale(389.484 300.753)">
<stop offset="0.119792" stop-color="#DB00FF"/>
<stop offset="1" stop-color="#D03F92" stop-opacity="0"/>
</radialGradient>
<radialGradient id="paint2_radial_317_51117" cx="0" cy="0" r="1" gradientUnits="userSpaceOnUse" gradientTransform="translate(1350.01 323.791) rotate(-169.745) scale(428.074 326.975)">
<stop stop-color="#0C07FF"/>
<stop offset="1" stop-color="#0015FF" stop-opacity="0"/>
</radialGradient>
<radialGradient id="paint3_radial_317_51117" cx="0" cy="0" r="1" gradientUnits="userSpaceOnUse" gradientTransform="translate(1250.39 260.102) rotate(-176.063) scale(335.888 335.235)">
<stop offset="0.0001" stop-color="#6DE5FF"/>
<stop offset="0.729167" stop-color="#6DE5FF" stop-opacity="0"/>
<stop offset="1" stop-color="#080349" stop-opacity="0"/>
</radialGradient>
<radialGradient id="paint4_radial_317_51117" cx="0" cy="0" r="1" gradientUnits="userSpaceOnUse" gradientTransform="translate(968.5 328) rotate(-156.097) scale(245.562 308.591)">
<stop stop-color="#444CE4"/>
<stop offset="1" stop-color="#F257E2"/>
</radialGradient>
<radialGradient id="paint5_radial_317_51117" cx="0" cy="0" r="1" gradientUnits="userSpaceOnUse" gradientTransform="translate(1299.07 2.64878) rotate(145.914) scale(156.145 133.189)">
<stop stop-color="#63D1F4"/>
<stop offset="1" stop-color="white" stop-opacity="0.91"/>
</radialGradient>
<radialGradient id="paint6_radial_317_51117" cx="0" cy="0" r="1" gradientUnits="userSpaceOnUse" gradientTransform="translate(1299.07 2.64878) rotate(145.914) scale(156.145 133.189)">
<stop stop-color="#63D1F4"/>
<stop offset="1" stop-color="white" stop-opacity="0.91"/>
</radialGradient>
<radialGradient id="paint7_radial_317_51117" cx="0" cy="0" r="1" gradientUnits="userSpaceOnUse" gradientTransform="translate(1299.07 2.64878) rotate(145.914) scale(156.145 133.189)">
<stop stop-color="#63D1F4"/>
<stop offset="1" stop-color="white" stop-opacity="0.91"/>
</radialGradient>
<radialGradient id="paint8_radial_317_51117" cx="0" cy="0" r="1" gradientUnits="userSpaceOnUse" gradientTransform="translate(1136 260) rotate(174.19) scale(286.472 286.306)">
<stop offset="0.0001" stop-color="#6DF6FF"/>
<stop offset="0.778467" stop-color="#5589C0" stop-opacity="0.333932"/>
<stop offset="1" stop-color="#EE8969" stop-opacity="0"/>
</radialGradient>
<radialGradient id="paint9_radial_317_51117" cx="0" cy="0" r="1" gradientUnits="userSpaceOnUse" gradientTransform="translate(309 362) rotate(-155.674) scale(231.095 222.54)">
<stop stop-color="#3A2575" stop-opacity="0.6"/>
<stop offset="1" stop-color="#080349" stop-opacity="0"/>
</radialGradient>
<radialGradient id="paint10_radial_317_51117" cx="0" cy="0" r="1" gradientUnits="userSpaceOnUse" gradientTransform="translate(645.484 56.1457) rotate(-155.674) scale(142.474 137.2)">
<stop stop-color="#3A2575" stop-opacity="0.6"/>
<stop offset="1" stop-color="#080349" stop-opacity="0"/>
</radialGradient>
<clipPath id="clip0_317_51117">
<rect width="1800" height="760" fill="white"/>
</clipPath>
</defs>
</svg>
