<svg width="1232" height="356" viewBox="0 0 1232 356" fill="none" xmlns="http://www.w3.org/2000/svg">
<g clip-path="url(#clip0_632_28907)">
<rect width="1232" height="356" rx="24" fill="#23151E"/>
<path d="M837.975 533.42C933.758 626.071 1066.11 608.023 1133.59 493.109L1476.52 -90.8825C1544 -205.797 1521.05 -374.062 1425.27 -466.713L958.422 -918.292C862.638 -1010.94 730.288 -992.895 662.808 -877.981L319.879 -293.989C252.4 -179.075 275.345 -10.8104 371.128 81.8407L837.975 533.42Z" fill="url(#paint0_radial_632_28907)"/>
<path opacity="0.4" d="M-518.726 305.672C-311.847 654.884 91.3397 708.157 381.817 424.659C672.295 141.162 740.065 -371.75 533.186 -720.962L458.327 -847.325C251.448 -1196.54 -151.738 -1249.81 -442.216 -966.313C-732.693 -682.816 -800.463 -169.904 -593.585 179.308L-518.726 305.672Z" fill="url(#paint1_radial_632_28907)"/>
<circle opacity="0.12" cx="616" cy="240" r="440" stroke="#FFBE5C" stroke-width="2"/>
<circle opacity="0.12" cx="616" cy="240" r="570" stroke="#FFBE5C" stroke-width="2"/>
<circle opacity="0.12" cx="616" cy="240" r="506" stroke="#FFBE5C" stroke-width="2"/>
</g>
<defs>
<radialGradient id="paint0_radial_632_28907" cx="0" cy="0" r="1" gradientUnits="userSpaceOnUse" gradientTransform="translate(1437 -330) rotate(148.094) scale(730.34 921.411)">
<stop stop-color="#F5BE54" stop-opacity="0.59"/>
<stop offset="1" stop-color="#775B12" stop-opacity="0"/>
</radialGradient>
<radialGradient id="paint1_radial_632_28907" cx="0" cy="0" r="1" gradientUnits="userSpaceOnUse" gradientTransform="translate(-200.5 355.5) rotate(-8.91569) scale(732.349 732.624)">
<stop stop-color="#A25226"/>
<stop offset="0.848958" stop-color="#772B2B" stop-opacity="0"/>
</radialGradient>
<clipPath id="clip0_632_28907">
<rect width="1232" height="356" rx="24" fill="white"/>
</clipPath>
</defs>
</svg>
