<svg width="326" height="707" viewBox="0 0 326 707" fill="none" xmlns="http://www.w3.org/2000/svg">
<path fill-rule="evenodd" clip-rule="evenodd" d="M194.086 64.8716C194.086 74.1791 186.522 81.7433 177.215 81.7433C167.907 81.7433 160.343 74.1791 160.343 64.8716C160.343 55.5641 167.907 48 177.215 48C186.522 48 194.086 55.5641 194.086 64.8716ZM191.106 64.8716C191.106 72.5482 184.891 78.7626 177.215 78.7626C175.206 78.7626 173.706 78.0086 172.955 77.094C172.205 76.1794 171.994 74.6828 172.252 72.521L176.723 71.6341C180.808 70.8858 183.059 68.6132 183.865 64.5391C183.964 63.9687 184.076 63.3984 184.183 62.8578C184.227 62.6366 184.269 62.4203 184.31 62.211C184.429 61.5605 184.545 60.9418 184.651 60.3732L184.657 60.346V60.3448C184.77 59.7376 184.873 59.1881 184.959 58.7189C185.416 56.0702 185.044 54.1147 184.015 52.7542C188.248 55.1334 191.106 59.6663 191.106 64.8716ZM177.215 50.9807C169.538 50.9807 163.324 57.195 163.324 64.8716C163.324 70.0769 166.181 74.6099 170.414 76.989C169.385 75.6286 169.013 73.6731 169.471 71.0244C169.569 70.4853 169.687 69.8499 169.818 69.141C169.909 68.6471 170.007 68.1176 170.11 67.56C170.149 67.3589 170.19 67.1514 170.232 66.9392L170.236 66.9154L170.237 66.9132C170.343 66.3726 170.456 65.8022 170.555 65.2319C171.333 61.1301 173.583 58.8575 177.668 58.1092L182.177 57.2223C182.435 55.0605 182.224 53.5639 181.474 52.6493C180.724 51.7347 179.223 50.9807 177.215 50.9807ZM181.642 60.3264L178.252 60.9915C175.362 61.5458 174.028 62.8762 173.472 65.7585C173.343 66.4029 173.231 67.014 173.122 67.6047L173.028 68.1143L173.027 68.1177C172.944 68.56 172.861 69.0022 172.778 69.4169L176.14 68.7517C179.03 68.1974 180.392 66.8671 180.947 63.9848C181.069 63.3771 181.182 62.768 181.294 62.1588V62.1573L181.295 62.1557V62.154C181.407 61.5443 181.52 60.9346 181.642 60.3264Z" fill="white"/>
<path d="M59.3575 77.525V73.2115C59.3575 69.9581 58.9554 69.0077 57.7125 66.3026L51.2057 52.1192H46.5997L54.9343 70.2506V77.525H59.3575Z" fill="white"/>
<path d="M62.2454 64.4017L67.6555 52.1192H63.1592L57.7491 64.4017H62.2454Z" fill="white"/>
<path fill-rule="evenodd" clip-rule="evenodd" d="M108.451 77.8906C110.498 77.8906 112.179 76.9402 113.349 75.149L113.569 77.525H117.59V52.1192H113.24V61.2945C112.143 59.6496 110.534 58.7722 108.634 58.7722C104.43 58.7722 101.505 62.3181 101.505 68.4594C101.505 74.5275 104.357 77.8906 108.451 77.8906ZM109.73 62.2084C112.07 62.2084 113.24 64.0727 113.24 68.3131C113.24 72.5901 111.997 74.4544 109.547 74.4544C107.171 74.4544 106.002 72.6267 106.002 68.4594C106.002 64.1093 107.245 62.2084 109.73 62.2084Z" fill="white"/>
<path fill-rule="evenodd" clip-rule="evenodd" d="M135.173 76.2822V72.7363C133.82 73.6502 131.554 74.4544 129.434 74.4544C126.253 74.4544 125.047 72.9556 124.864 69.885H135.355V67.582C135.355 61.1849 132.541 58.7722 128.191 58.7722C122.89 58.7722 120.368 62.8299 120.368 68.3862C120.368 74.7834 123.512 77.8906 129.068 77.8906C131.846 77.8906 133.893 77.1595 135.173 76.2822ZM128.118 62.2084C130.274 62.2084 130.932 63.9996 130.932 66.3026V66.6682H124.864C124.974 63.7437 126.034 62.2084 128.118 62.2084Z" fill="white"/>
<path fill-rule="evenodd" clip-rule="evenodd" d="M80.45 64.9866C80.45 60.5269 78.1835 58.8453 73.5776 58.8453C70.7263 58.8453 68.4233 60.0517 67.1073 61.0021V64.7673C68.4964 63.6341 70.6166 62.3181 73.0658 62.3181C75.1494 62.3181 76.0999 63.0492 76.0999 65.0232V66.1929H75.4053C68.7523 66.1929 65.7913 68.3497 65.7913 72.188C65.7913 75.7338 68.0577 77.7809 71.4208 77.7809C73.9797 77.7809 75.0763 76.9402 75.9171 76.0628H76.0999C76.1364 76.5381 76.2827 77.1595 76.4289 77.525H80.6693C80.5231 76.0263 80.45 74.5275 80.45 73.0288V64.9866ZM76.0999 73.1384C75.5516 73.9426 74.528 74.6006 72.9927 74.6006C71.1649 74.6006 70.251 73.5405 70.251 71.9321C70.251 69.8119 71.7498 69.0808 75.4784 69.0808H76.0999V73.1384Z" fill="white"/>
<path d="M88.3454 64.3286C89.1504 63.3416 90.4294 62.5009 92.0014 62.5009C93.5364 62.5009 94.2314 63.1589 94.2314 64.548V77.525H98.5814V64.1093C98.5814 60.4538 97.1194 58.8453 93.5734 58.8453C90.9774 58.8453 89.4424 59.7958 88.5654 60.6731H88.3454L88.2365 59.1378H83.9958V77.525H88.3454V64.3286Z" fill="white"/>
<path d="M148.552 77.525H153.45L147.455 68.0573L152.646 59.1378H148.296L145.152 64.6942L141.643 59.1378H136.745L142.301 67.9476L136.525 77.525H140.948L144.64 71.3107L148.552 77.525Z" fill="white"/>
<path d="M210.897 77.8916C213.638 77.8916 215.503 76.9046 216.636 76.1369V72.5911C215.174 73.6512 213.565 74.4554 211.226 74.4554C207.205 74.4554 205.304 71.202 205.304 64.8414C205.304 58.298 207.131 55.1908 211.445 55.1908C213.455 55.1908 215.32 56.0681 216.636 56.9089V53.3631C215.466 52.5223 213.565 51.7546 211.226 51.7546C204.463 51.7546 200.807 56.7261 200.807 64.8414C200.807 73.176 204.609 77.8916 210.897 77.8916Z" fill="white"/>
<path d="M223.916 52.1202H219.566V77.526H223.916V52.1202Z" fill="white"/>
<path fill-rule="evenodd" clip-rule="evenodd" d="M226.832 68.3507C226.832 62.1729 230.158 58.7732 234.947 58.7732C239.736 58.7732 243.062 62.1729 243.062 68.3141C243.062 74.492 239.736 77.8916 234.947 77.8916C230.158 77.8916 226.832 74.492 226.832 68.3507ZM231.328 68.3507C231.328 72.5911 232.534 74.4554 234.947 74.4554C237.359 74.4554 238.566 72.5911 238.566 68.3141C238.566 64.0737 237.359 62.2094 234.947 62.2094C232.534 62.2094 231.328 64.0737 231.328 68.3507Z" fill="white"/>
<path d="M256.036 72.3352C255.231 73.3222 253.952 74.163 252.38 74.163C250.845 74.163 250.15 73.505 250.15 72.1159V59.1388H245.8V72.5545C245.8 76.2101 247.262 77.8185 250.808 77.8185C253.404 77.8185 254.939 76.868 255.816 75.9907H256.036L256.145 77.526H260.386V59.1388H256.036V72.3352Z" fill="white"/>
<path fill-rule="evenodd" clip-rule="evenodd" d="M275.159 75.15C273.989 76.9412 272.308 77.8916 270.261 77.8916C266.167 77.8916 263.315 74.5285 263.315 68.4604C263.315 62.3191 266.24 58.7732 270.444 58.7732C272.344 58.7732 273.953 59.6505 275.05 61.2955V52.1202H279.4V77.526H275.379L275.159 75.15ZM275.05 68.3141C275.05 64.0737 273.88 62.2094 271.54 62.2094C269.054 62.2094 267.812 64.1103 267.812 68.4604C267.812 72.6276 268.981 74.4554 271.357 74.4554C273.807 74.4554 275.05 72.5911 275.05 68.3141Z" fill="white"/>
<path d="M230.872 137.265C230.872 137.265 237.408 137.82 238.885 141.396H238.89C240.367 144.971 238.567 148.313 235.352 149.655C232.137 150.996 229.238 151.218 225.875 151.218C222.513 151.218 212.374 150.996 212.403 143.189H217.325C217.386 147.729 226.028 147.254 228.266 147.131C228.387 147.124 228.489 147.119 228.57 147.115C229.954 147.049 234.312 146.734 234.377 144.018C234.437 141.469 230.186 141.105 229.095 141.011C229.023 141.005 228.964 141 228.922 140.995C228.234 140.925 223.206 140.407 221.794 140.261C220.382 140.115 216.856 139.659 214.539 137.731C212.222 135.803 213.062 132.322 213.062 132.322C213.419 130.799 214.41 129.559 216.042 128.606C217.57 127.711 219.564 127.149 222.016 126.909C222.016 126.909 225.48 126.537 229.328 126.909C229.336 126.911 229.346 126.911 229.354 126.911C231.966 127.163 234.059 127.772 235.626 128.747C237.736 130.063 238.794 131.974 238.794 134.48H233.909C233.906 134.003 233.8 133.635 233.717 133.419C233.324 132.428 232.059 131.072 228.084 130.844C221.701 130.477 219.66 131.477 219.66 131.477C219.66 131.477 217.863 132.058 217.826 133.631C217.79 135.203 218.895 136.029 222.474 136.394L230.872 137.265Z" fill="white"/>
<path d="M102.351 137.157C103.794 140.701 105.398 144.643 105.757 145.526C106.98 148.532 109.864 147.991 109.864 147.991C109.861 148.028 109.577 151.138 106.049 151.138C106.049 151.138 105.85 151.154 105.529 151.102C102.647 150.765 101.541 147.695 101.271 146.946C101.254 146.901 101.241 146.864 101.231 146.837C101.231 146.837 100.06 143.961 98.758 140.76C97.315 137.216 95.711 133.273 95.352 132.39C94.129 129.385 91.245 129.926 91.245 129.926C91.248 129.888 91.532 126.779 95.06 126.779C95.06 126.779 95.259 126.763 95.579 126.814C98.461 127.152 99.568 130.221 99.838 130.971C99.855 131.016 99.868 131.052 99.878 131.079C99.878 131.079 101.046 133.95 102.347 137.147L102.351 137.157Z" fill="white"/>
<path d="M109.862 147.991V127.309H114.517V142.834C114.517 146.896 111.07 147.798 109.862 147.991Z" fill="white"/>
<path d="M119.172 150.608H142.45V146.607H123.828V140.864H141.048V136.862H123.828V131.31H142.45V127.309H119.172V150.608Z" fill="white"/>
<path d="M174.248 127.309H178.903V150.608H174.248V127.309Z" fill="white"/>
<path d="M188.209 142.151V127.309H183.566V142.742C183.566 144.406 184.104 145.95 185.02 147.256C186.66 149.591 189.526 151.142 192.797 151.142H195.218C198.49 151.142 201.356 149.473 202.995 147.139H193.527C190.576 147.061 188.206 144.858 188.206 142.151H188.209Z" fill="white"/>
<path d="M204.437 142.624C204.437 144.279 203.904 145.837 202.996 147.139H203.966C206.819 146.964 209.077 144.792 209.077 142.151V127.309H204.437V142.624Z" fill="white"/>
<path d="M86.587 135.095V150.61H91.243V129.928C91.243 129.928 86.587 130.437 86.587 135.095Z" fill="white"/>
<path fill-rule="evenodd" clip-rule="evenodd" d="M166.926 138.451C170.384 135.989 169.753 131.129 167.177 129.088C164.905 127.286 161.421 127.298 159.152 127.305C159.009 127.306 158.87 127.306 158.738 127.306H146.315V150.608H161.839C167.325 150.608 170.971 147.852 170.971 143.846C170.971 139.623 166.924 138.451 166.924 138.451H166.926ZM150.973 131.286H159.457C159.522 131.286 159.604 131.285 159.698 131.283C160.977 131.261 164.671 131.195 164.671 134.076C164.671 136.408 162.374 136.865 161.146 136.865H150.973V131.286ZM161.549 146.635C159.995 146.635 150.971 146.63 150.971 146.63V140.84H161.534L161.626 140.84C162.779 140.838 166.052 140.831 166.052 143.577C166.052 146.402 163.103 146.635 161.549 146.635Z" fill="white"/>
<path d="M146.537 201.615H141.959L136.019 212.447L130.044 201.615H125.466L133.992 216.361V226.075H138.011V216.361L146.537 201.615ZM160.174 201.615H142.353V205.459H149.272V226.075H153.29V205.459H160.174V201.615ZM162.447 213.426C162.447 212.168 163.635 211.574 164.998 211.574C166.43 211.574 167.653 212.203 168.282 213.566L171.462 211.784C170.239 209.477 167.863 208.15 164.998 208.15C161.434 208.15 158.603 210.211 158.603 213.496C158.603 219.75 168.003 218.003 168.003 221.113C168.003 222.511 166.71 223.07 165.033 223.07C163.111 223.07 161.713 222.126 161.154 220.554L157.904 222.441C159.022 224.957 161.538 226.529 165.033 226.529C168.806 226.529 171.846 224.642 171.846 221.148C171.846 214.684 162.447 216.606 162.447 213.426ZM188.127 208.604V211.085C186.8 209.268 184.738 208.15 182.012 208.15C177.26 208.15 173.312 212.133 173.312 217.339C173.312 222.511 177.26 226.529 182.012 226.529C184.738 226.529 186.8 225.411 188.127 223.559V226.075H191.901V208.604H188.127ZM182.606 222.93C179.462 222.93 177.086 220.589 177.086 217.339C177.086 214.09 179.462 211.749 182.606 211.749C185.751 211.749 188.127 214.09 188.127 217.339C188.127 220.589 185.751 222.93 182.606 222.93ZM206.677 208.604V217.968C206.677 221.532 204.721 223 202.24 223C199.863 223 198.327 221.602 198.327 218.947V208.604H194.552V219.331C194.552 223.874 197.349 226.529 201.262 226.529C203.638 226.529 205.525 225.656 206.677 223.839V226.075H210.452V208.604H206.677ZM217.24 211.539V208.604H213.467V226.075H217.24V217.269C217.24 213.356 220.141 212.203 222.622 212.378V208.289C220.42 208.289 218.288 209.163 217.24 211.539ZM236.661 208.604V217.968C236.661 221.532 234.705 223 232.224 223C229.848 223 228.31 221.602 228.31 218.947V208.604H224.537V219.331C224.537 223.874 227.332 226.529 231.246 226.529C233.621 226.529 235.509 225.656 236.661 223.839V226.075H240.438V208.604H236.661ZM247.018 213.426C247.018 212.168 248.208 211.574 249.568 211.574C250.998 211.574 252.218 212.203 252.848 213.566L256.028 211.784C254.808 209.477 252.428 208.15 249.568 208.15C245.998 208.15 243.168 210.211 243.168 213.496C243.168 219.75 252.568 218.003 252.568 221.113C252.568 222.511 251.278 223.07 249.598 223.07C247.678 223.07 246.278 222.126 245.718 220.554L242.468 222.441C243.588 224.957 246.108 226.529 249.598 226.529C253.378 226.529 256.418 224.642 256.418 221.148C256.418 214.684 247.018 216.606 247.018 213.426Z" fill="white"/>
<path fill-rule="evenodd" clip-rule="evenodd" d="M85.1307 201.644C89.2257 195.889 95.7507 192.675 98.8447 193.293C100.829 193.689 99.6257 195.837 98.1927 198.267C97.8187 198.901 97.4527 199.485 97.1227 200.011C96.1897 201.5 95.5537 202.515 95.8777 202.845C101.02 197.901 104.326 197.35 107.081 197.35C109.809 197.35 108.526 199.316 107.123 201.465L107.081 201.529C106.878 201.841 106.668 202.149 106.466 202.446C105.677 203.604 105.006 204.59 105.307 204.919C108.272 202.809 111.341 202.299 112.784 202.597C114.226 202.895 114.65 203.52 112.659 206.598L110.757 209.453L110.844 209.593C111.519 210.679 112.548 212.333 112.548 214.97C112.548 220.261 108.506 225.52 106.244 227.872C106.048 228.076 105.778 228.185 105.495 228.185H101.293C100.976 228.185 100.73 227.911 100.74 227.594C100.921 221.957 94.9357 222.189 90.9447 227.946C90.8427 228.093 90.6747 228.185 90.4957 228.185H86.5437C86.2597 228.185 85.9847 228.074 85.7957 227.861C84.2587 226.138 82.8567 223.221 82.5027 221.965C80.8127 224.573 76.1837 226.007 72.8757 223.775C68.9477 221.125 68.9727 216.617 70.6717 213.864L74.1237 215.826C73.6157 217.826 74.3677 219.204 75.8127 219.204C77.8987 219.204 78.7177 216.675 79.8887 213.06C80.9477 209.789 82.2957 205.627 85.1307 201.644ZM87.6587 216.009C88.8107 213.409 88.8107 210.889 87.6597 210.38C86.5087 209.871 84.6427 211.566 83.4907 214.167C83.2047 214.815 82.9887 215.458 82.8447 216.066H87.6337L87.6587 216.009ZM96.1397 210.38C97.2907 210.889 97.2907 213.409 96.1397 216.009L96.1147 216.066H91.3257C91.4697 215.458 91.6847 214.815 91.9717 214.167C93.1227 211.566 94.9887 209.871 96.1397 210.38Z" fill="white"/>
<path fill-rule="evenodd" clip-rule="evenodd" d="M120.762 306.816H129.19C131.715 306.816 133.877 306.319 135.674 305.323C137.48 304.327 138.86 302.898 139.815 301.036C140.779 299.174 141.26 296.948 141.26 294.357C141.26 291.775 140.783 289.556 139.827 287.703C138.872 285.849 137.504 284.428 135.723 283.44C133.95 282.444 131.829 281.947 129.36 281.947H120.762V306.816ZM128.971 302.918H125.267V285.845H129.105C130.788 285.845 132.197 286.16 133.331 286.792C134.472 287.415 135.334 288.358 135.917 289.621C136.5 290.876 136.792 292.455 136.792 294.357C136.792 296.26 136.5 297.846 135.917 299.117C135.334 300.38 134.464 301.332 133.306 301.971C132.149 302.603 130.703 302.918 128.971 302.918ZM143.979 288.164V306.816H148.375V288.164H143.979ZM151.528 313.811V288.164H155.851V291.248H156.106C156.333 290.795 156.652 290.313 157.065 289.803C157.478 289.285 158.037 288.844 158.741 288.48C159.445 288.107 160.344 287.921 161.437 287.921C162.878 287.921 164.177 288.289 165.335 289.026C166.501 289.755 167.424 290.836 168.104 292.269C168.792 293.693 169.136 295.442 169.136 297.515C169.136 299.563 168.8 301.303 168.128 302.736C167.456 304.169 166.541 305.262 165.384 306.015C164.226 306.768 162.915 307.144 161.449 307.144C160.38 307.144 159.494 306.966 158.79 306.61C158.085 306.254 157.519 305.825 157.09 305.323C156.669 304.813 156.341 304.331 156.106 303.878H155.924V313.811H151.528ZM155.839 297.49C155.839 298.696 156.009 299.753 156.349 300.66C156.697 301.566 157.195 302.275 157.842 302.785C158.498 303.287 159.292 303.538 160.223 303.538C161.194 303.538 162.008 303.279 162.664 302.76C163.319 302.234 163.813 301.518 164.145 300.611C164.485 299.696 164.655 298.656 164.655 297.49C164.655 296.333 164.489 295.304 164.157 294.406C163.825 293.507 163.331 292.803 162.676 292.293C162.02 291.783 161.202 291.528 160.223 291.528C159.284 291.528 158.486 291.775 157.83 292.269C157.175 292.762 156.677 293.455 156.337 294.345C156.005 295.236 155.839 296.284 155.839 297.49ZM175.929 306.816V281.947H171.533V306.816H175.929ZM187.218 307.181C185.396 307.181 183.818 306.78 182.482 305.979C181.146 305.177 180.11 304.056 179.373 302.615C178.644 301.174 178.28 299.49 178.28 297.563C178.28 295.636 178.644 293.948 179.373 292.499C180.11 291.05 181.146 289.925 182.482 289.123C183.818 288.322 185.396 287.921 187.218 287.921C189.039 287.921 190.618 288.322 191.954 289.123C193.29 289.925 194.322 291.05 195.051 292.499C195.787 293.948 196.156 295.636 196.156 297.563C196.156 299.49 195.787 301.174 195.051 302.615C194.322 304.056 193.29 305.177 191.954 305.979C190.618 306.78 189.039 307.181 187.218 307.181ZM187.242 303.659C188.23 303.659 189.056 303.388 189.72 302.846C190.383 302.295 190.877 301.558 191.201 300.635C191.533 299.712 191.699 298.684 191.699 297.551C191.699 296.409 191.533 295.377 191.201 294.454C190.877 293.523 190.383 292.783 189.72 292.232C189.056 291.682 188.23 291.406 187.242 291.406C186.23 291.406 185.388 291.682 184.716 292.232C184.052 292.783 183.555 293.523 183.223 294.454C182.899 295.377 182.737 296.409 182.737 297.551C182.737 298.684 182.899 299.712 183.223 300.635C183.555 301.558 184.052 302.295 184.716 302.846C185.388 303.388 186.23 303.659 187.242 303.659ZM201.506 306.015C202.664 306.768 203.976 307.144 205.441 307.144C206.51 307.144 207.396 306.966 208.101 306.61C208.805 306.254 209.372 305.825 209.801 305.323C210.23 304.813 210.558 304.331 210.784 303.878H211.051V306.816H215.375V281.947H210.966V291.248H210.784C210.558 290.795 210.238 290.313 209.825 289.803C209.412 289.285 208.853 288.844 208.149 288.48C207.445 288.107 206.546 287.921 205.453 287.921C204.02 287.921 202.721 288.289 201.555 289.026C200.389 289.755 199.462 290.836 198.774 292.269C198.094 293.693 197.754 295.442 197.754 297.515C197.754 299.563 198.09 301.303 198.762 302.736C199.434 304.169 200.349 305.262 201.506 306.015ZM209.048 302.785C208.392 303.287 207.599 303.538 206.668 303.538C205.704 303.538 204.891 303.279 204.227 302.76C203.571 302.234 203.073 301.518 202.733 300.611C202.401 299.696 202.235 298.656 202.235 297.49C202.235 296.333 202.401 295.304 202.733 294.406C203.065 293.507 203.559 292.803 204.215 292.293C204.87 291.783 205.688 291.528 206.668 291.528C207.615 291.528 208.412 291.775 209.06 292.269C209.716 292.762 210.209 293.455 210.541 294.345C210.881 295.236 211.051 296.284 211.051 297.49C211.051 298.696 210.881 299.753 210.541 300.66C210.201 301.566 209.703 302.275 209.048 302.785ZM226.828 307.181C225.006 307.181 223.427 306.78 222.091 305.979C220.756 305.177 219.719 304.056 218.983 302.615C218.254 301.174 217.89 299.49 217.89 297.563C217.89 295.636 218.254 293.948 218.983 292.499C219.719 291.05 220.756 289.925 222.091 289.123C223.427 288.322 225.006 287.921 226.828 287.921C228.649 287.921 230.228 288.322 231.564 289.123C232.899 289.925 233.932 291.05 234.66 292.499C235.397 293.948 235.765 295.636 235.765 297.563C235.765 299.49 235.397 301.174 234.66 302.615C233.932 304.056 232.899 305.177 231.564 305.979C230.228 306.78 228.649 307.181 226.828 307.181ZM226.852 303.659C227.84 303.659 228.665 303.388 229.329 302.846C229.993 302.295 230.487 301.558 230.811 300.635C231.143 299.712 231.309 298.684 231.309 297.551C231.309 296.409 231.143 295.377 230.811 294.454C230.487 293.523 229.993 292.783 229.329 292.232C228.665 291.682 227.84 291.406 226.852 291.406C225.84 291.406 224.998 291.682 224.326 292.232C223.662 292.783 223.164 293.523 222.832 294.454C222.508 295.377 222.347 296.409 222.347 297.551C222.347 298.684 222.508 299.712 222.832 300.635C223.164 301.558 223.662 302.295 224.326 302.846C224.998 303.388 225.84 303.659 226.852 303.659ZM241.468 305.954C242.804 306.772 244.403 307.181 246.265 307.181C247.828 307.181 249.188 306.897 250.345 306.331C251.503 305.756 252.418 304.963 253.09 303.951C253.762 302.931 254.15 301.761 254.256 300.441H250.054C249.924 301.113 249.686 301.684 249.337 302.153C248.989 302.623 248.556 302.983 248.038 303.234C247.528 303.477 246.949 303.598 246.301 303.598C245.387 303.598 244.589 303.356 243.909 302.87C243.237 302.376 242.715 301.676 242.343 300.769C241.97 299.854 241.784 298.761 241.784 297.49C241.784 296.235 241.97 295.159 242.343 294.26C242.723 293.361 243.253 292.673 243.933 292.196C244.614 291.71 245.403 291.467 246.301 291.467C247.362 291.467 248.208 291.771 248.84 292.378C249.479 292.977 249.884 293.726 250.054 294.624H254.256C254.159 293.28 253.762 292.107 253.066 291.103C252.369 290.091 251.434 289.31 250.26 288.759C249.095 288.2 247.755 287.921 246.241 287.921C244.419 287.921 242.841 288.33 241.505 289.148C240.177 289.957 239.149 291.091 238.42 292.548C237.692 293.997 237.327 295.669 237.327 297.563C237.327 299.449 237.683 301.117 238.396 302.566C239.116 304.007 240.141 305.137 241.468 305.954ZM143.955 281.952V285.248H148.383V281.952H143.955Z" fill="white"/>
<path fill-rule="evenodd" clip-rule="evenodd" d="M92.286 276.185H83.938C83.332 276.185 82.84 276.677 82.84 277.283V284.091H72.842C72.236 284.091 71.744 284.583 71.744 285.189V313.085C71.744 313.692 72.236 314.183 72.842 314.183H95.138C95.744 314.183 96.236 313.692 96.236 313.085V306.387H106.233C106.84 306.387 107.332 305.895 107.332 305.289V291.231C107.332 282.921 100.595 276.185 92.286 276.185ZM96.236 306.387V285.189C96.236 284.583 95.744 284.091 95.138 284.091H82.84V305.289C82.84 305.895 83.332 306.387 83.938 306.387H96.236Z" fill="white"/>
<mask id="mask0_4373_488178" style="mask-type:luminance" maskUnits="userSpaceOnUse" x="62" y="359" width="41" height="41">
<path d="M102.471 379.183C102.471 368.137 93.517 359.183 82.4714 359.183C71.4257 359.183 62.4714 368.137 62.4714 379.183C62.4714 390.228 71.4257 399.183 82.4714 399.183C93.517 399.183 102.471 390.228 102.471 379.183Z" fill="white"/>
</mask>
<g mask="url(#mask0_4373_488178)">
<path fill-rule="evenodd" clip-rule="evenodd" d="M102.471 359.185H62.4714V363.357C65.3684 362.457 68.5614 361.958 71.9164 361.958C85.8804 361.958 95.8054 369.339 95.8054 379.18C95.8054 389.022 85.8804 396.402 71.9164 396.402C68.5614 396.402 65.3684 395.904 62.4714 395.004V399.185H102.471V359.185ZM62.4714 385.733C65.2714 386.163 68.4544 386.403 71.9174 386.403C84.6294 386.403 93.5834 383.742 93.5834 379.18C93.5834 374.619 84.6294 371.958 71.9174 371.958C68.4544 371.958 65.2714 372.198 62.4714 372.628V385.733Z" fill="white"/>
</g>
<path d="M120.195 387.205C125.22 387.205 127.733 384.491 127.733 379.063V378.778C127.733 376.1 127.117 374.097 125.885 372.77C124.676 371.418 122.756 370.743 120.125 370.743H117.849V387.205H120.195ZM112.089 366.263H120.409C124.747 366.263 128.088 367.377 130.435 369.605C132.639 371.81 133.742 374.844 133.742 378.707V378.992C133.742 382.903 132.628 385.972 130.4 388.201C128.077 390.524 124.734 391.685 120.372 391.685H112.089V366.263Z" fill="white"/>
<path d="M141.822 392.076C140.021 392.076 138.563 391.638 137.449 390.761C136.217 389.789 135.6 388.378 135.6 386.53C135.6 384.467 136.501 382.927 138.302 381.907C139.914 381.007 142.237 380.556 145.271 380.556H147.369V379.81C147.369 378.624 147.144 377.759 146.694 377.214C146.267 376.669 145.485 376.396 144.347 376.396C142.522 376.396 141.467 377.273 141.182 379.027H136.311C136.454 376.941 137.319 375.33 138.907 374.192C140.353 373.173 142.273 372.663 144.667 372.663C147.061 372.663 148.934 373.184 150.285 374.227C151.731 375.365 152.454 377.143 152.454 379.561V391.685H147.44V389.445C146.184 391.199 144.311 392.076 141.822 392.076ZM143.351 388.485C144.513 388.485 145.473 388.189 146.231 387.596C146.99 387.004 147.369 386.198 147.369 385.178V383.614H145.378C143.814 383.614 142.628 383.815 141.822 384.218C141.04 384.621 140.649 385.297 140.649 386.245C140.649 387.738 141.55 388.485 143.351 388.485Z" fill="white"/>
<path d="M163.021 392.041C159.015 392.041 157.012 390.085 157.012 386.174V376.752H154.63V373.09H157.012V369.072H162.132V373.09H166.043V376.752H162.132V385.712C162.132 387.181 162.819 387.916 164.194 387.916C164.952 387.916 165.604 387.798 166.15 387.561V391.543C165.201 391.875 164.158 392.041 163.021 392.041Z" fill="white"/>
<path d="M174.168 392.076C172.367 392.076 170.909 391.638 169.795 390.761C168.562 389.789 167.946 388.378 167.946 386.53C167.946 384.467 168.847 382.927 170.648 381.907C172.26 381.007 174.583 380.556 177.617 380.556H179.715V379.81C179.715 378.624 179.49 377.759 179.039 377.214C178.613 376.669 177.83 376.396 176.693 376.396C174.867 376.396 173.813 377.273 173.528 379.027H168.657C168.799 376.941 169.665 375.33 171.253 374.192C172.699 373.173 174.619 372.663 177.013 372.663C179.407 372.663 181.279 373.184 182.63 374.227C184.076 375.365 184.799 377.143 184.799 379.561V391.685H179.786V389.445C178.53 391.199 176.657 392.076 174.168 392.076ZM175.697 388.485C176.859 388.485 177.819 388.189 178.577 387.596C179.336 387.004 179.715 386.198 179.715 385.178V383.614H177.724C176.159 383.614 174.974 383.815 174.168 384.218C173.386 384.621 172.995 385.297 172.995 386.245C172.995 387.738 173.896 388.485 175.697 388.485Z" fill="white"/>
<path d="M189.037 366.263H194.797V387.17H205.143V391.685H189.037V366.263Z" fill="white"/>
<path d="M216.076 392.076C213.185 392.076 210.874 391.235 209.143 389.552C207.294 387.845 206.37 385.534 206.37 382.618V382.334C206.37 379.442 207.294 377.095 209.143 375.294C210.945 373.54 213.208 372.663 215.934 372.663C218.518 372.663 220.628 373.41 222.263 374.903C224.088 376.562 225.001 378.968 225.001 382.121V383.543H211.596C211.668 385.107 212.094 386.316 212.876 387.17C213.682 387.999 214.796 388.414 216.219 388.414C218.447 388.414 219.739 387.549 220.094 385.818H224.965C224.657 387.833 223.733 389.386 222.192 390.476C220.675 391.543 218.636 392.076 216.076 392.076ZM219.988 380.378C219.822 377.605 218.471 376.218 215.934 376.218C214.773 376.218 213.813 376.586 213.054 377.321C212.319 378.032 211.857 379.051 211.668 380.378H219.988Z" fill="white"/>
<path d="M227.726 373.09H232.881V376.041C234.043 373.789 236.057 372.663 238.926 372.663C240.798 372.663 242.303 373.232 243.441 374.37C244.603 375.602 245.183 377.427 245.183 379.845V391.685H240.028V380.592C240.028 379.312 239.767 378.375 239.246 377.783C238.724 377.167 237.894 376.858 236.757 376.858C235.595 376.858 234.659 377.214 233.948 377.925C233.237 378.613 232.881 379.62 232.881 380.947V391.685H227.726V373.09Z" fill="white"/>
<path d="M255.707 392.076C253.195 392.076 251.239 391.543 249.84 390.476C248.442 389.41 247.694 387.869 247.599 385.854H252.4C252.543 386.755 252.851 387.418 253.325 387.845C253.799 388.272 254.581 388.485 255.672 388.485C257.615 388.485 258.586 387.81 258.586 386.458C258.586 385.818 258.303 385.344 257.734 385.036C257.165 384.704 256.193 384.444 254.818 384.254C252.306 383.851 250.552 383.247 249.556 382.441C248.489 381.611 247.956 380.284 247.956 378.458C247.956 376.633 248.715 375.175 250.232 374.085C251.535 373.137 253.229 372.663 255.315 372.663C257.472 372.663 259.215 373.09 260.543 373.943C261.941 374.891 262.759 376.384 262.996 378.423H258.267C258.125 377.641 257.829 377.072 257.378 376.716C256.928 376.361 256.252 376.183 255.352 376.183C254.522 376.183 253.87 376.361 253.396 376.716C252.946 377.072 252.72 377.534 252.72 378.103C252.72 378.695 252.968 379.134 253.466 379.418C253.988 379.703 254.937 379.94 256.312 380.13C258.753 380.461 260.543 381.018 261.68 381.801C262.913 382.725 263.529 384.112 263.529 385.961C263.529 387.952 262.841 389.469 261.466 390.512C260.115 391.555 258.196 392.076 255.707 392.076Z" fill="white"/>
<mask id="mask1_4373_488178" style="mask-type:luminance" maskUnits="userSpaceOnUse" x="105" y="444" width="116" height="45">
<path d="M220.124 444.183H105.875V488.183H220.124V444.183Z" fill="white"/>
</mask>
<g mask="url(#mask1_4373_488178)">
<mask id="mask2_4373_488178" style="mask-type:luminance" maskUnits="userSpaceOnUse" x="105" y="444" width="45" height="45">
<path d="M149.876 444.183H105.875V488.183H149.876V444.183Z" fill="white"/>
</mask>
<g mask="url(#mask2_4373_488178)">
<path fill-rule="evenodd" clip-rule="evenodd" d="M114.981 449.798C110.373 449.798 106.637 451.11 106.637 453.571V466.356C106.637 468.817 110.373 470.129 114.981 470.129C116.595 470.129 118.102 469.968 119.379 469.654V480.314C119.379 482.775 123.115 484.086 127.724 484.086C132.332 484.086 136.068 482.775 136.068 480.314V469.573C137.408 469.941 139.029 470.129 140.775 470.129C145.383 470.129 149.12 468.817 149.12 466.356V453.571C149.12 451.11 145.383 449.798 140.775 449.798C136.166 449.798 132.43 451.11 132.43 453.571V458.295H123.326V453.571C123.326 451.11 119.59 449.798 114.981 449.798ZM136.068 468.377L140.623 462.239H137.285L134.915 465.445C135.648 466.006 136.068 466.703 136.068 467.528V468.377ZM132.43 464.311V461.026H123.326V464.231C124.603 463.916 126.11 463.755 127.724 463.755C129.469 463.755 131.09 463.944 132.43 464.311ZM120.535 465.443L118.167 462.239H114.829L119.379 468.371V467.528C119.379 466.701 119.8 466.004 120.535 465.443ZM108.153 453.591C108.153 453.323 108.322 452.764 109.638 452.192C110.896 451.644 112.771 451.315 114.981 451.315C117.191 451.315 119.066 451.644 120.324 452.192C121.64 452.764 121.809 453.323 121.809 453.591C121.809 453.858 121.64 454.418 120.324 454.99C119.066 455.537 117.191 455.867 114.981 455.867C112.771 455.867 110.896 455.537 109.638 454.99C108.322 454.418 108.153 453.858 108.153 453.591ZM135.431 452.192C134.115 452.764 133.947 453.323 133.947 453.591C133.947 453.858 134.115 454.418 135.431 454.99C136.689 455.537 138.565 455.867 140.774 455.867C142.984 455.867 144.859 455.537 146.118 454.99C147.433 454.418 147.602 453.858 147.602 453.591C147.602 453.323 147.433 452.764 146.118 452.192C144.859 451.644 142.984 451.315 140.774 451.315C138.565 451.315 136.689 451.644 135.431 452.192ZM122.38 466.149C121.064 466.722 120.896 467.281 120.896 467.548C120.896 467.816 121.064 468.375 122.38 468.948C123.639 469.495 125.514 469.824 127.724 469.824C129.933 469.824 131.809 469.495 133.067 468.948C134.383 468.375 134.551 467.816 134.551 467.548C134.551 467.281 134.383 466.722 133.067 466.149C131.809 465.602 129.933 465.273 127.724 465.273C125.514 465.273 123.639 465.602 122.38 466.149Z" fill="white"/>
</g>
<path fill-rule="evenodd" clip-rule="evenodd" d="M211.192 455.107H202.182V477.258H212.844C216.781 477.258 219.706 474.5 219.706 470.729C219.706 468.178 218.292 466.242 216.057 465.256C217.093 464.232 217.721 462.879 217.721 461.306C217.721 457.717 214.946 455.107 211.192 455.107ZM206.15 458.413V464.199H210.861C212.459 464.199 213.753 462.904 213.753 461.306C213.753 459.708 212.459 458.413 210.861 458.413H206.15ZM206.15 473.952V467.505H212.515C214.295 467.505 215.737 468.948 215.737 470.729C215.737 472.509 214.295 473.952 212.515 473.952H206.15Z" fill="white"/>
<path d="M159.391 455.107H163.854L169.476 464.86L175.096 455.107H179.56L171.468 468.985V477.258H167.484V468.985L159.391 455.107Z" fill="white"/>
<path fill-rule="evenodd" clip-rule="evenodd" d="M181.132 455.107H188.736C195.349 455.107 199.812 459.404 199.812 466.183C199.812 472.961 195.349 477.258 188.736 477.258H181.132V455.107ZM185.099 473.952V458.413H188.405C192.862 458.413 195.845 461.23 195.845 466.183C195.845 471.135 192.862 473.952 188.405 473.952H185.099Z" fill="white"/>
</g>
<path fill-rule="evenodd" clip-rule="evenodd" d="M38.625 541.183L50.5 533.183L47.1446 548.802L40.6253 553.183L56.4375 563.808L50.5 573.183L38.625 565.183V541.183ZM73.3293 550.969L76.6247 553.183L60.8125 563.808L66.75 573.183L78.625 565.183V542.558L73.3293 550.969Z" fill="white"/>
<path fill-rule="evenodd" clip-rule="evenodd" d="M67.1877 553.182H61.5627L64.4753 539.624L55.9377 553.184H50.3127L53.9375 536.308H65.1878H77.8127L67.1877 553.182Z" fill="white"/>
<path fill-rule="evenodd" clip-rule="evenodd" d="M265.903 550.803H263.558V547.301H265.903V545.261C265.903 543.176 266.458 541.623 267.569 540.603C268.702 539.561 270.265 539.039 272.26 539.039C272.781 539.039 273.234 539.073 273.619 539.141C274.027 539.187 274.424 539.266 274.809 539.379V543.085C274.56 542.995 274.288 542.927 273.993 542.881C273.698 542.813 273.37 542.779 273.007 542.779C272.214 542.779 271.648 543.006 271.308 543.459C270.968 543.89 270.798 544.445 270.798 545.125V547.301H274.673L276.846 547.301V543.459H281.741V547.301H285.48V550.803H281.741V559.371C281.741 560.074 281.9 560.607 282.217 560.969C282.557 561.309 283.056 561.479 283.713 561.479C284.075 561.479 284.404 561.457 284.698 561.411C285.016 561.343 285.31 561.253 285.582 561.139V564.947C285.242 565.061 284.823 565.163 284.325 565.253C283.826 565.367 283.248 565.423 282.591 565.423C280.71 565.423 279.282 564.959 278.308 564.029C277.334 563.077 276.846 561.672 276.846 559.813V550.803H274.569L270.798 550.803V565.083H265.903V550.803ZM249.216 565.151C249.941 565.355 250.712 565.457 251.528 565.457C252.933 565.457 254.043 565.219 254.859 564.743C255.697 564.267 256.377 563.666 256.898 562.941V565.083H261.691V553.489C261.691 552.288 261.51 551.268 261.147 550.429C260.784 549.59 260.275 548.91 259.617 548.389C258.938 547.868 258.144 547.494 257.238 547.267C256.332 547.018 255.335 546.893 254.247 546.893C253.159 546.893 252.139 547.018 251.188 547.267C250.259 547.494 249.443 547.856 248.74 548.355C248.038 548.854 247.46 549.488 247.007 550.259C246.576 551.03 246.327 551.936 246.259 552.979H250.916C251.029 552.208 251.312 551.596 251.765 551.143C252.241 550.69 252.967 550.463 253.941 550.463C255.074 550.463 255.833 550.746 256.218 551.313C256.626 551.857 256.83 552.662 256.83 553.727V554.441H254.825C253.465 554.441 252.219 554.543 251.086 554.747C249.953 554.951 248.978 555.28 248.162 555.733C247.347 556.186 246.712 556.776 246.259 557.501C245.806 558.226 245.579 559.11 245.579 560.153C245.579 561.082 245.738 561.887 246.055 562.567C246.372 563.224 246.803 563.768 247.347 564.199C247.89 564.63 248.514 564.947 249.216 565.151ZM255.708 561.207C254.983 561.751 254.077 562.023 252.989 562.023C252.083 562.023 251.426 561.83 251.018 561.445C250.61 561.06 250.406 560.538 250.406 559.881C250.406 558.929 250.802 558.272 251.596 557.909C252.389 557.546 253.499 557.365 254.927 557.365H256.83V558.861C256.83 559.858 256.456 560.64 255.708 561.207ZM233.992 547.301H238.921V550.701C239.487 549.5 240.224 548.593 241.13 547.981C242.037 547.369 243.215 547.052 244.665 547.029V551.619C242.83 551.597 241.413 551.925 240.416 552.605C239.419 553.285 238.921 554.475 238.921 556.175V565.083H233.992V547.301ZM215.39 564.573C216.908 565.163 218.664 565.457 220.658 565.457C222.154 565.457 223.536 565.265 224.805 564.879C226.074 564.494 227.185 563.916 228.136 563.145C229.088 562.397 229.859 561.457 230.448 560.323C231.037 559.167 231.411 557.841 231.57 556.345H226.165C225.938 557.909 225.327 559.077 224.329 559.847C223.355 560.618 222.109 561.003 220.59 561.003C218.574 561.003 217.01 560.312 215.9 558.929C214.812 557.547 214.268 555.586 214.268 553.047V552.775C214.268 550.237 214.835 548.265 215.968 546.859C217.101 545.454 218.63 544.751 220.556 544.751C222.097 544.751 223.276 545.137 224.092 545.907C224.93 546.655 225.451 547.766 225.655 549.239H231.298C231.162 547.743 230.788 546.44 230.176 545.329C229.587 544.219 228.828 543.301 227.899 542.575C226.947 541.85 225.836 541.306 224.567 540.943C223.321 540.581 221.973 540.399 220.522 540.399C218.8 540.399 217.203 540.705 215.73 541.317C214.257 541.907 212.988 542.745 211.923 543.833C210.835 544.921 209.985 546.236 209.373 547.777C208.761 549.296 208.456 550.973 208.456 552.809V553.081C208.456 554.963 208.716 556.663 209.237 558.181C209.759 559.7 210.54 560.992 211.583 562.057C212.602 563.145 213.871 563.984 215.39 564.573ZM197.257 565.457C195.92 565.457 194.685 565.253 193.552 564.845C192.418 564.437 191.444 563.836 190.628 563.043C189.79 562.272 189.133 561.332 188.657 560.221C188.204 559.11 187.977 557.841 187.977 556.413V556.141C187.977 554.736 188.204 553.466 188.657 552.333C189.133 551.2 189.79 550.225 190.628 549.409C191.444 548.616 192.407 548.004 193.518 547.573C194.628 547.12 195.829 546.893 197.121 546.893C198.276 546.893 199.375 547.074 200.418 547.437C201.46 547.777 202.378 548.31 203.171 549.035C203.964 549.76 204.599 550.701 205.075 551.857C205.55 552.99 205.788 554.35 205.788 555.937V557.297H192.974C193.042 558.793 193.45 559.949 194.197 560.765C194.968 561.558 196.033 561.955 197.393 561.955C198.548 561.955 199.409 561.728 199.976 561.275C200.565 560.822 200.939 560.221 201.098 559.473H205.754C205.46 561.4 204.576 562.884 203.103 563.927C201.653 564.947 199.704 565.457 197.257 565.457ZM200.996 554.271C200.905 552.911 200.531 551.914 199.874 551.279C199.217 550.622 198.299 550.293 197.121 550.293C196.01 550.293 195.092 550.644 194.367 551.347C193.665 552.027 193.223 553.002 193.042 554.271H200.996ZM174.114 564.879C175.247 565.264 176.459 565.457 177.751 565.457C179.043 565.457 180.198 565.287 181.218 564.947C182.238 564.584 183.11 564.086 183.835 563.451C184.561 562.839 185.127 562.102 185.535 561.241C185.943 560.357 186.181 559.382 186.249 558.317H181.796C181.683 559.473 181.263 560.334 180.538 560.901C179.836 561.468 178.986 561.751 177.989 561.751C176.607 561.751 175.53 561.298 174.76 560.391C174.012 559.484 173.638 558.136 173.638 556.345V556.073C173.638 554.373 174.023 553.07 174.794 552.163C175.564 551.234 176.595 550.769 177.887 550.769C178.929 550.769 179.745 551.018 180.334 551.517C180.946 552.016 181.331 552.775 181.49 553.795H186.147C186.033 552.526 185.728 551.449 185.229 550.565C184.73 549.681 184.107 548.967 183.36 548.423C182.589 547.879 181.717 547.494 180.742 547.267C179.79 547.018 178.805 546.893 177.785 546.893C176.516 546.893 175.326 547.108 174.216 547.539C173.105 547.947 172.131 548.548 171.293 549.341C170.454 550.157 169.797 551.143 169.321 552.299C168.845 553.432 168.607 554.713 168.607 556.141V556.413C168.607 557.864 168.834 559.156 169.287 560.289C169.763 561.4 170.409 562.34 171.225 563.111C172.04 563.882 173.004 564.471 174.114 564.879ZM157.165 547.301H162.093V550.701C162.66 549.5 163.396 548.593 164.303 547.981C165.209 547.369 166.388 547.052 167.838 547.029V551.619C166.002 551.597 164.586 551.925 163.589 552.605C162.592 553.285 162.093 554.475 162.093 556.175V565.083H157.165V547.301ZM140.474 565.083C141.222 565.333 142.027 565.457 142.888 565.457C144.361 565.457 145.55 565.163 146.457 564.573C147.386 563.961 148.077 563.202 148.53 562.295V565.083H153.425V547.301H148.53V557.739C148.53 559.054 148.168 560.04 147.442 560.697C146.74 561.332 145.868 561.649 144.825 561.649C143.805 561.649 143.035 561.355 142.514 560.765C141.993 560.153 141.732 559.258 141.732 558.079V547.301H136.837V558.759C136.837 559.915 136.985 560.924 137.279 561.785C137.596 562.624 138.027 563.315 138.571 563.859C139.115 564.403 139.749 564.811 140.474 565.083ZM125.398 561.717C126.781 561.717 127.846 561.241 128.594 560.289C129.364 559.337 129.749 558.011 129.749 556.311V556.073C129.749 554.373 129.364 553.047 128.594 552.095C127.846 551.12 126.781 550.633 125.398 550.633C124.039 550.633 122.974 551.109 122.203 552.061C121.433 552.99 121.047 554.305 121.047 556.005V556.277C121.047 557.977 121.421 559.314 122.169 560.289C122.917 561.241 123.993 561.717 125.398 561.717ZM125.364 565.457C124.027 565.457 122.792 565.242 121.659 564.811C120.526 564.38 119.541 563.768 118.702 562.975C117.864 562.204 117.206 561.264 116.731 560.153C116.255 559.02 116.017 557.762 116.017 556.379V556.107C116.017 554.724 116.255 553.466 116.731 552.333C117.206 551.177 117.864 550.202 118.702 549.409C119.541 548.616 120.526 548.004 121.659 547.573C122.815 547.12 124.061 546.893 125.398 546.893C126.735 546.893 127.97 547.108 129.103 547.539C130.259 547.97 131.256 548.582 132.095 549.375C132.91 550.168 133.556 551.132 134.032 552.265C134.508 553.376 134.746 554.622 134.746 556.005V556.277C134.746 557.682 134.508 558.952 134.032 560.085C133.556 561.218 132.899 562.182 132.061 562.975C131.222 563.768 130.225 564.38 129.069 564.811C127.936 565.242 126.701 565.457 125.364 565.457ZM100.593 564.913C101.817 565.276 103.267 565.457 104.944 565.457C106.372 565.457 107.663 565.253 108.819 564.845C109.975 564.437 110.949 563.882 111.742 563.179C112.536 562.499 113.147 561.694 113.578 560.765C114.008 559.813 114.224 558.793 114.224 557.705C114.224 556.458 114.031 555.404 113.646 554.543C113.283 553.682 112.728 552.968 111.98 552.401C111.233 551.857 110.303 551.426 109.193 551.109C108.083 550.769 106.791 550.508 105.318 550.327C104.389 550.191 103.63 550.032 103.041 549.851C102.451 549.67 101.998 549.454 101.681 549.205C101.341 548.978 101.103 548.706 100.967 548.389C100.854 548.049 100.797 547.664 100.797 547.233C100.797 546.417 101.092 545.76 101.681 545.261C102.293 544.74 103.211 544.479 104.434 544.479C105.613 544.479 106.542 544.751 107.222 545.295C107.901 545.816 108.321 546.621 108.479 547.709H113.544C113.317 545.284 112.422 543.47 110.859 542.269C109.318 541.045 107.176 540.433 104.434 540.433C103.097 540.433 101.885 540.614 100.797 540.977C99.7095 541.34 98.7804 541.838 98.01 542.473C97.2395 543.13 96.639 543.901 96.2084 544.785C95.8005 545.669 95.5966 546.632 95.5966 547.675C95.5966 548.854 95.7552 549.862 96.0724 550.701C96.4124 551.54 96.9449 552.242 97.67 552.809C98.3725 553.398 99.2676 553.874 100.355 554.237C101.466 554.577 102.803 554.849 104.366 555.053C105.25 555.189 105.987 555.348 106.576 555.529C107.165 555.688 107.641 555.88 108.003 556.107C108.343 556.356 108.581 556.651 108.717 556.991C108.876 557.331 108.955 557.739 108.955 558.215C108.955 559.167 108.593 559.949 107.867 560.561C107.142 561.15 106.168 561.445 104.944 561.445C104.038 561.445 103.29 561.343 102.701 561.139C102.134 560.912 101.67 560.618 101.307 560.255C100.945 559.915 100.684 559.507 100.525 559.031C100.367 558.532 100.253 558.011 100.185 557.467H94.9167C94.9847 558.691 95.234 559.79 95.6646 560.765C96.0951 561.74 96.7183 562.578 97.5341 563.281C98.3499 563.984 99.3696 564.528 100.593 564.913Z" fill="white"/>
<path d="M72.3135 625.115H76.9317V634.895H81.2783V649.565H76.9325L76.9328 654.183L65.1243 654.183V649.565H70.4118L70.4222 639.313H60.9037V654.183L53.2971 654.183L49.3252 654.182V639.313H53.2971V628.918H60.9037V619.514L67.9669 619.514V614.183H72.3135V625.115Z" fill="white"/>
<path d="M276.675 639.308C275.695 639.174 274.753 639.145 273.85 639.222C272.967 639.279 272.169 639.423 271.459 639.654C270.767 639.865 270.19 640.173 269.729 640.576V649.568H264.225V634.639H269.384L269.614 637.781H269.672C270.267 636.993 270.901 636.349 271.574 635.85C272.265 635.35 273.034 634.976 273.879 634.726C274.725 634.476 275.656 634.351 276.675 634.351V639.308Z" fill="white"/>
<path d="M251.615 646.023C252.499 646.023 253.287 645.879 253.979 645.591C254.67 645.302 255.218 644.87 255.621 644.294C256.025 643.717 256.226 642.978 256.226 642.075C256.226 641.191 256.015 640.47 255.592 639.913C255.189 639.337 254.641 638.905 253.95 638.616C253.277 638.328 252.499 638.184 251.615 638.184C250.751 638.184 249.973 638.328 249.281 638.616C248.589 638.885 248.042 639.308 247.638 639.884C247.235 640.461 247.033 641.191 247.033 642.075C247.033 642.978 247.235 643.717 247.638 644.294C248.042 644.87 248.589 645.302 249.281 645.591C249.973 645.879 250.751 646.023 251.615 646.023ZM251.615 649.856C249.656 649.856 247.898 649.568 246.342 648.991C244.805 648.415 243.594 647.55 242.71 646.397C241.827 645.245 241.385 643.804 241.385 642.075C241.385 640.365 241.827 638.943 242.71 637.809C243.594 636.657 244.805 635.792 246.342 635.216C247.898 634.639 249.656 634.351 251.615 634.351C253.594 634.351 255.352 634.639 256.889 635.216C258.426 635.792 259.637 636.657 260.52 637.809C261.423 638.943 261.875 640.365 261.875 642.075C261.875 643.804 261.423 645.245 260.52 646.397C259.637 647.55 258.426 648.415 256.889 648.991C255.352 649.568 253.594 649.856 251.615 649.856Z" fill="white"/>
<path d="M226.168 638.415V634.639H239.511V638.415H226.168ZM228.474 631.498H233.949V643.833C233.949 644.582 234.122 645.129 234.468 645.475C234.833 645.821 235.429 645.994 236.255 645.994C236.812 645.994 237.34 645.927 237.84 645.792C238.339 645.639 238.801 645.418 239.223 645.129V648.876C238.628 649.203 237.946 649.443 237.177 649.596C236.409 649.769 235.544 649.856 234.583 649.856C233.104 649.856 231.913 649.654 231.01 649.251C230.126 648.828 229.482 648.203 229.079 647.377C228.676 646.532 228.474 645.504 228.474 644.294V631.498Z" fill="white"/>
<path d="M214.525 638.069C213.776 638.069 212.988 638.126 212.162 638.242C211.336 638.338 210.529 638.482 209.741 638.674C208.953 638.866 208.214 639.097 207.522 639.366V635.619C208.175 635.35 208.934 635.12 209.799 634.928C210.663 634.735 211.586 634.591 212.565 634.495C213.545 634.399 214.535 634.351 215.534 634.351C217.301 634.351 218.819 634.534 220.087 634.899C221.355 635.264 222.335 635.859 223.027 636.686C223.718 637.492 224.064 638.578 224.064 639.942V647.176C224.064 647.483 224.083 647.896 224.122 648.415C224.16 648.914 224.189 649.299 224.208 649.568H219.05C218.973 649.279 218.896 648.905 218.819 648.444C218.762 647.963 218.713 647.541 218.675 647.176L218.531 645.591V640.259C218.531 639.644 218.377 639.183 218.07 638.876C217.782 638.568 217.34 638.357 216.744 638.242C216.149 638.126 215.409 638.069 214.525 638.069ZM218.531 643.631L219.453 645.302C219.434 645.552 219.347 645.869 219.194 646.253C219.04 646.638 218.81 647.041 218.502 647.464C218.214 647.867 217.81 648.252 217.292 648.617C216.792 648.982 216.158 649.279 215.39 649.51C214.64 649.741 213.728 649.856 212.652 649.856C211.422 649.856 210.327 649.702 209.367 649.395C208.425 649.068 207.676 648.578 207.119 647.925C206.581 647.252 206.312 646.417 206.312 645.418C206.312 644.342 206.629 643.429 207.263 642.68C207.916 641.931 208.905 641.364 210.231 640.98C211.576 640.576 213.286 640.374 215.361 640.374H218.877V643.112H215.274C214.391 643.112 213.68 643.179 213.142 643.314C212.623 643.448 212.248 643.65 212.018 643.919C211.787 644.188 211.672 644.505 211.672 644.87C211.672 645.274 211.778 645.6 211.989 645.85C212.22 646.1 212.546 646.282 212.969 646.397C213.411 646.513 213.92 646.57 214.496 646.57C215.284 646.57 215.937 646.465 216.456 646.253C216.975 646.023 217.388 645.744 217.695 645.418C218.003 645.091 218.214 644.764 218.329 644.438C218.464 644.111 218.531 643.842 218.531 643.631Z" fill="white"/>
<path d="M204.853 639.308C203.873 639.174 202.931 639.145 202.028 639.222C201.144 639.279 200.347 639.423 199.636 639.654C198.945 639.865 198.368 640.173 197.907 640.576V649.568H192.403V634.639H197.561L197.792 637.781H197.85C198.445 636.993 199.079 636.349 199.752 635.85C200.443 635.35 201.212 634.976 202.057 634.726C202.902 634.476 203.834 634.351 204.853 634.351V639.308Z" fill="white"/>
<path d="M179.793 646.023C180.677 646.023 181.464 645.879 182.156 645.591C182.848 645.302 183.395 644.87 183.799 644.294C184.202 643.717 184.404 642.978 184.404 642.075C184.404 641.191 184.193 640.47 183.77 639.913C183.366 639.337 182.819 638.905 182.127 638.616C181.455 638.328 180.677 638.184 179.793 638.184C178.928 638.184 178.15 638.328 177.458 638.616C176.767 638.885 176.219 639.308 175.816 639.884C175.412 640.461 175.211 641.191 175.211 642.075C175.211 642.978 175.412 643.717 175.816 644.294C176.219 644.87 176.767 645.302 177.458 645.591C178.15 645.879 178.928 646.023 179.793 646.023ZM179.793 649.856C177.833 649.856 176.075 649.568 174.519 648.991C172.982 648.415 171.772 647.55 170.888 646.397C170.004 645.245 169.562 643.804 169.562 642.075C169.562 640.365 170.004 638.943 170.888 637.809C171.772 636.657 172.982 635.792 174.519 635.216C176.075 634.639 177.833 634.351 179.793 634.351C181.772 634.351 183.53 634.639 185.067 635.216C186.604 635.792 187.814 636.657 188.698 637.809C189.601 638.943 190.052 640.365 190.052 642.075C190.052 643.804 189.601 645.245 188.698 646.397C187.814 647.55 186.604 648.415 185.067 648.991C183.53 649.568 181.772 649.856 179.793 649.856Z" fill="white"/>
<path d="M155.157 638.386V634.639H168.471V638.386H155.157ZM157.52 649.568V634.812C157.52 633.467 157.846 632.343 158.5 631.44C159.153 630.518 160.085 629.827 161.295 629.365C162.525 628.904 163.994 628.674 165.704 628.674C166.55 628.674 167.203 628.703 167.664 628.76C168.125 628.799 168.538 628.856 168.903 628.933V632.622C168.673 632.545 168.346 632.478 167.923 632.42C167.501 632.343 166.972 632.305 166.338 632.305C165.685 632.305 165.099 632.391 164.58 632.564C164.081 632.718 163.687 632.977 163.399 633.343C163.13 633.688 162.995 634.169 162.995 634.783V649.568H157.52Z" fill="white"/>
<path d="M152.534 639.308C151.554 639.174 150.613 639.145 149.71 639.222C148.826 639.279 148.028 639.423 147.318 639.654C146.626 639.865 146.05 640.173 145.588 640.576V649.568H140.084V634.639H145.243L145.473 637.781H145.531C146.126 636.993 146.76 636.349 147.433 635.85C148.125 635.35 148.893 634.976 149.738 634.726C150.584 634.476 151.516 634.351 152.534 634.351V639.308Z" fill="white"/>
<path d="M129.232 649.856C126.523 649.856 124.313 649.548 122.604 648.934C120.913 648.319 119.674 647.435 118.886 646.282C118.098 645.11 117.704 643.708 117.704 642.075C117.704 640.845 117.935 639.75 118.396 638.789C118.876 637.829 119.558 637.022 120.442 636.368C121.345 635.696 122.421 635.197 123.67 634.87C124.919 634.524 126.321 634.351 127.877 634.351C129.491 634.351 130.913 634.553 132.143 634.956C133.391 635.341 134.41 635.917 135.197 636.686C135.985 637.435 136.523 638.376 136.811 639.51C137.119 640.624 137.119 641.921 136.811 643.4H120.673V640.317H133.814L131.451 641.729C131.605 641.037 131.634 640.442 131.537 639.942C131.461 639.423 131.268 639.001 130.961 638.674C130.654 638.328 130.241 638.078 129.722 637.925C129.222 637.752 128.646 637.665 127.993 637.665C127.243 637.665 126.571 637.761 125.975 637.954C125.399 638.126 124.909 638.395 124.506 638.76C124.121 639.106 123.824 639.548 123.612 640.086C123.401 640.624 123.295 641.249 123.295 641.959C123.295 642.92 123.478 643.717 123.843 644.351C124.227 644.966 124.871 645.427 125.774 645.735C126.677 646.023 127.935 646.167 129.549 646.167C130.356 646.167 131.124 646.129 131.854 646.052C132.604 645.975 133.315 645.869 133.987 645.735C134.679 645.581 135.351 645.379 136.004 645.129V648.789C135.332 649.058 134.65 649.27 133.958 649.423C133.286 649.577 132.565 649.683 131.797 649.741C131.028 649.817 130.173 649.856 129.232 649.856Z" fill="white"/>
<path d="M105.927 638.789C107.137 638.789 108.117 638.703 108.866 638.53C109.635 638.338 110.192 638.03 110.538 637.608C110.884 637.185 111.057 636.609 111.057 635.879C111.057 635.206 110.884 634.668 110.538 634.265C110.211 633.842 109.673 633.535 108.924 633.343C108.175 633.15 107.176 633.054 105.927 633.054H98.5781V628.933H106.157C108.598 628.933 110.596 629.164 112.152 629.625C113.727 630.086 114.89 630.816 115.639 631.815C116.388 632.795 116.763 634.092 116.763 635.706C116.763 637.377 116.359 638.741 115.552 639.798C114.765 640.855 113.583 641.642 112.008 642.161C110.432 642.661 108.473 642.91 106.129 642.91H98.5781V638.789H105.927ZM95.9268 628.933H101.575V649.568H95.9268V628.933Z" fill="white"/>
</svg>
