<svg xmlns="http://www.w3.org/2000/svg" width="600" height="190" fill="none"><path fill="#fff" fill-rule="evenodd" d="M216.34 47.556c0 11.17-9.077 20.247-20.247 20.247s-20.247-9.077-20.247-20.247 9.077-20.247 20.247-20.247 20.247 9.077 20.247 20.247Zm-3.577 0c0 9.213-7.457 16.67-16.67 16.67-2.411 0-4.211-.905-5.111-2.002-.901-1.098-1.154-2.894-.844-5.488l5.366-1.064c4.902-.898 7.603-3.626 8.57-8.515.118-.685.253-1.369.381-2.018l.153-.776c.143-.78.282-1.523.41-2.206l.006-.032v-.002c.136-.728.26-1.388.362-1.95.549-3.18.103-5.526-1.131-7.159 5.079 2.855 8.508 8.295 8.508 14.542Zm-16.67-16.67c-9.212 0-16.67 7.457-16.67 16.67 0 6.247 3.429 11.687 8.509 14.542-1.235-1.633-1.681-3.98-1.132-7.158.118-.647.259-1.41.416-2.26l.351-1.898c.046-.241.095-.49.146-.745l.005-.028.001-.003c.128-.649.263-1.333.381-2.018.934-4.922 3.635-7.65 8.537-8.548l5.411-1.064c.31-2.594.057-4.39-.843-5.488-.901-1.097-2.701-2.002-5.112-2.002Zm5.313 11.215-4.068.799c-3.468.665-5.069 2.261-5.736 5.72-.155.774-.29 1.507-.421 2.216l-.113.611v.005c-.1.53-.2 1.061-.3 1.559l4.035-.799c3.468-.665 5.103-2.261 5.77-5.72.146-.73.281-1.46.416-2.192v-.003l.001-.001v-.001c.135-.732.27-1.464.416-2.194Z" clip-rule="evenodd"/><path fill="#fff" d="M54.654 62.741v-5.176c0-3.905-.482-5.045-1.974-8.292l-7.809-17.021h-5.527l10.002 21.76v8.73h5.308Zm3.466-15.749 6.492-14.74h-5.395l-6.493 14.74h5.396Z"/><path fill="#fff" fill-rule="evenodd" d="M113.571 63.18c2.456 0 4.474-1.14 5.878-3.29l.263 2.851h4.826V32.252h-5.22v11.011c-1.317-1.974-3.247-3.027-5.528-3.027-5.045 0-8.555 4.256-8.555 11.626 0 7.282 3.422 11.318 8.336 11.318Zm1.535-18.82c2.808 0 4.212 2.237 4.212 7.326 0 5.133-1.492 7.37-4.431 7.37-2.852 0-4.256-2.193-4.256-7.194 0-5.22 1.492-7.502 4.475-7.502Zm30.533 16.89v-4.256c-1.623 1.097-4.343 2.062-6.887 2.062-3.817 0-5.265-1.798-5.484-5.484h12.59V50.81c0-7.677-3.378-10.573-8.598-10.573-6.361 0-9.388 4.87-9.388 11.538 0 7.677 3.773 11.406 10.441 11.406 3.334 0 5.791-.878 7.326-1.93Zm-8.467-16.89c2.589 0 3.378 2.15 3.378 4.913v.439h-7.282c.132-3.51 1.404-5.352 3.904-5.352Zm-57.205 3.334c0-5.352-2.72-7.37-8.248-7.37-3.421 0-6.185 1.448-7.765 2.588v4.519c1.667-1.36 4.212-2.94 7.151-2.94 2.5 0 3.641.878 3.641 3.247v1.404h-.833c-7.984 0-11.538 2.588-11.538 7.194 0 4.256 2.72 6.712 6.756 6.712 3.07 0 4.387-1.009 5.396-2.062h.22c.043.57.219 1.316.394 1.755h5.089a55.562 55.562 0 0 1-.263-5.396v-9.651Zm-5.22 9.783c-.659.965-1.887 1.755-3.73 1.755-2.193 0-3.29-1.273-3.29-3.203 0-2.544 1.799-3.422 6.273-3.422h.746v4.87Z" clip-rule="evenodd"/><path fill="#fff" d="M89.442 46.904c.966-1.184 2.501-2.193 4.387-2.193 1.843 0 2.677.79 2.677 2.456v15.574h5.22v-16.1c0-4.387-1.755-6.317-6.01-6.317-3.115 0-4.957 1.14-6.01 2.193h-.264l-.131-1.842h-5.089V62.74h5.22V46.904Zm72.253 15.837h5.879l-7.195-11.362 6.23-10.704h-5.221l-3.773 6.668-4.211-6.668h-5.879l6.669 10.572-6.932 11.494h5.308l4.431-7.458 4.694 7.458Zm74.819.44c3.29 0 5.528-1.184 6.888-2.106V56.82c-1.755 1.272-3.685 2.237-6.493 2.237-4.826 0-7.107-3.904-7.107-11.537 0-7.853 2.194-11.582 7.37-11.582 2.413 0 4.65 1.053 6.23 2.062v-4.255c-1.404-1.01-3.685-1.93-6.493-1.93-8.116 0-12.503 5.966-12.503 15.705 0 10.002 4.563 15.661 12.108 15.661Zm15.625-30.928h-5.221v30.49h5.221v-30.49Z"/><path fill="#fff" fill-rule="evenodd" d="M255.637 51.731c0-7.414 3.993-11.494 9.739-11.494 5.747 0 9.739 4.08 9.739 11.45 0 7.414-3.992 11.494-9.739 11.494-5.746 0-9.739-4.08-9.739-11.45Zm5.396 0c0 5.089 1.448 7.326 4.343 7.326 2.896 0 4.343-2.237 4.343-7.37 0-5.089-1.447-7.326-4.343-7.326-2.895 0-4.343 2.237-4.343 7.37Z" clip-rule="evenodd"/><path fill="#fff" d="M290.685 56.513c-.965 1.184-2.501 2.193-4.387 2.193-1.843 0-2.676-.79-2.676-2.456V40.676h-5.221v16.1c0 4.387 1.755 6.317 6.011 6.317 3.114 0 4.957-1.14 6.01-2.193h.263l.131 1.842h5.089V40.676h-5.22v15.837Z"/><path fill="#fff" fill-rule="evenodd" d="M313.635 59.89c-1.404 2.15-3.422 3.291-5.879 3.291-4.913 0-8.335-4.036-8.335-11.318 0-7.37 3.51-11.626 8.555-11.626 2.281 0 4.211 1.053 5.527 3.027v-11.01h5.221v30.488h-4.826l-.263-2.851Zm-.132-8.203c0-5.089-1.404-7.326-4.211-7.326-2.983 0-4.475 2.281-4.475 7.502 0 5 1.404 7.194 4.255 7.194 2.94 0 4.431-2.237 4.431-7.37Z" clip-rule="evenodd"/><path fill="#fff" d="M550.153 45.236s8.037.751 9.853 5.586h.006c1.817 4.835-.397 9.355-4.351 11.169-3.953 1.814-7.518 2.113-11.653 2.113-4.135 0-16.603-.299-16.568-10.856h6.053c.075 6.139 10.703 5.497 13.455 5.33l.374-.021c1.702-.09 7.061-.516 7.14-4.19.075-3.445-5.153-3.938-6.495-4.065l-.212-.021-8.766-.993c-1.737-.197-6.072-.815-8.921-3.422-2.85-2.606-1.817-7.314-1.817-7.314.439-2.06 1.658-3.737 3.664-5.026 1.88-1.21 4.332-1.97 7.348-2.295 0 0 4.258-.503 8.991 0a.106.106 0 0 0 .032.003c3.212.341 5.785 1.166 7.713 2.483 2.595 1.78 3.896 4.364 3.896 7.754h-6.008a4.476 4.476 0 0 0-.236-1.436c-.483-1.34-2.038-3.173-6.927-3.482-7.85-.496-10.359.856-10.359.856s-2.21.787-2.255 2.913c-.044 2.126 1.314 3.243 5.715 3.736l10.328 1.178Zm-158.045-.146 4.188 11.318c1.504 4.065 5.051 3.332 5.051 3.332-.004.051-.353 4.256-4.692 4.256 0 0-.244.022-.639-.048-3.544-.456-4.905-4.607-5.237-5.62l-.049-.147-3.041-8.219-4.188-11.318c-1.505-4.064-5.051-3.332-5.051-3.332.004-.051.353-4.256 4.691-4.256 0 0 .245-.022.64.048 3.544.456 4.905 4.607 5.237 5.62l.049.147 3.036 8.205.005.014Z"/><path fill="#fff" d="M401.344 59.74V31.772h5.725v20.995c0 5.493-4.24 6.712-5.725 6.973Zm11.449 3.54h28.625v-5.411h-22.9v-7.766h21.176v-5.411h-21.176v-7.509h22.9v-5.41h-28.625V63.28Zm67.728-31.508h5.725V63.28h-5.725V31.772Zm17.168 20.072V31.772h-5.709v20.87c0 2.25.662 4.339 1.787 6.105 2.017 3.158 5.541 5.255 9.564 5.255h2.977c4.024 0 7.548-2.256 9.564-5.414h-11.644a6.745 6.745 0 0 1-6.542-6.744h.003Zm19.956.639c0 2.238-.655 4.345-1.772 6.105h1.193c3.508-.235 6.285-3.173 6.285-6.744V31.772h-5.706v20.712ZM372.723 42.301v20.982h5.725V35.315s-5.725.688-5.725 6.986Z"/><path fill="#fff" fill-rule="evenodd" d="M471.517 46.84c4.252-3.329 3.476-9.902.309-12.661-2.795-2.438-7.078-2.422-9.869-2.411l-.51.001h-15.276V63.28h19.09c6.746 0 11.23-3.727 11.23-9.145 0-5.71-4.977-7.295-4.977-7.295h.003Zm-19.618-9.689h10.433c.08 0 .18-.001.296-.004 1.573-.03 6.116-.118 6.116 3.776 0 3.154-2.825 3.772-4.335 3.772h-12.51v-7.544Zm13.006 20.756-13.009-.006v-7.83h13.103c1.418-.004 5.443-.013 5.443 3.702 0 3.82-3.626 4.134-5.537 4.134Z" clip-rule="evenodd"/><path fill="#fff" d="M120.021 125.578a8.52 8.52 0 0 0-4.305-7.463l-17.868-10.312v5.86l15.327 8.844a3.533 3.533 0 0 1 1.767 3.064 3.537 3.537 0 0 1-1.767 3.064l-15.327 8.851v5.86l17.855-10.313a8.521 8.521 0 0 0 4.318-7.455Zm-1.73 16.273 15.321-8.844v-5.86l-17.856 10.312a8.616 8.616 0 0 0 0 14.919l17.856 10.312v-5.86l-15.321-8.844a3.54 3.54 0 0 1-1.761-3.064 3.548 3.548 0 0 1 1.761-3.064v-.007Z"/><path fill="#fff" fill-rule="evenodd" d="M163.816 121.669h-8.67v26.726h8.67c7.408 0 13.704-4.426 13.704-13.363 0-8.938-6.296-13.363-13.704-13.363Zm8.589 13.363c0 6.604-4.392 8.971-9.012 8.971h-3.191V126.02h3.191c4.62 0 9.012 2.407 9.012 9.012Zm7.12 3.742c0-5.726 4.204-9.93 10.057-9.93 5.853 0 10.057 4.204 10.057 9.93s-4.204 9.93-10.057 9.93c-5.853 0-10.057-4.204-10.057-9.93Zm15.387 0c0-3.473-2.138-5.88-5.303-5.88s-5.364 2.407-5.364 5.88 2.139 5.88 5.364 5.88 5.303-2.407 5.303-5.88Z" clip-rule="evenodd"/><path fill="#fff" d="M215.298 148.394h4.693l.014-19.243h-4.694v10.5c0 2.829-1.83 4.888-4.465 4.888-2.421 0-4.023-1.831-4.023-4.466v-10.922h-4.694v11.915c0 4.505 2.823 7.637 7.175 7.637 2.749 0 4.928-1.187 5.994-3.286v2.977Z"/><path fill="#fff" fill-rule="evenodd" d="M228.459 145.976v2.4H223.8v-27.49h4.659v10.573a6.79 6.79 0 0 1 5.653-2.635c5.686 0 9.085 4.023 9.085 9.93s-3.399 9.93-9.166 9.93a6.632 6.632 0 0 1-5.572-2.708Zm10.058-7.222c0-3.547-2.065-5.88-5.196-5.88-3.132 0-5.197 2.333-5.197 5.88 0 3.547 2.065 5.881 5.197 5.881 3.131 0 5.223-2.307 5.223-5.86l-.027-.021Z" clip-rule="evenodd"/><path fill="#fff" d="M250.717 120.904h-4.646l-.007 27.49h4.653v-27.49Z"/><path fill="#fff" fill-rule="evenodd" d="M272.337 141.984c-.725 4.084-4.312 6.705-9.045 6.705-6.303 0-9.816-4.961-9.816-10.004 0-5.042 3.131-9.856 9.433-9.856 6.451 0 9.387 4.694 9.387 9.28a15.73 15.73 0 0 1-.08 1.609h-14.235c.342 3.091 2.327 5.076 5.311 5.076 2.4 0 3.969-.993 4.465-2.823l4.58.013Zm-4.774-5.364h-9.465c.499-2.894 2.18-4.264 4.811-4.277a4.399 4.399 0 0 1 1.732.252 4.396 4.396 0 0 1 2.525 2.321c.245.536.38 1.115.397 1.704Z" clip-rule="evenodd"/><path fill="#fff" d="M287.671 121.359c-6.987 0-13.249 4.586-13.249 13.672 0 9.091 6.148 13.671 13.249 13.671 6.57 0 11.458-3.782 11.995-9.32h-5.042c-.456 2.917-3.286 4.928-6.953 4.928-4.654 0-8.167-3.212-8.167-9.279 0-6.068 3.513-9.32 8.167-9.32 3.593 0 6.416 2.025 6.798 4.968h5.27c-.724-5.538-5.612-9.32-12.068-9.32Zm15.054-.455h4.693v27.49h-4.693v-27.49Z"/><path fill="#fff" fill-rule="evenodd" d="M320.185 128.844c-5.854 0-10.058 4.204-10.058 9.93s4.197 9.93 10.058 9.93c5.86 0 10.057-4.204 10.057-9.93s-4.204-9.93-10.057-9.93Zm.026 4.05c3.165 0 5.304 2.407 5.304 5.88s-2.078 5.88-5.304 5.88c-3.225 0-5.363-2.407-5.363-5.88s2.199-5.88 5.363-5.88Z" clip-rule="evenodd"/><path fill="#fff" d="M350.624 148.394h-4.693v-2.977c-1.066 2.099-3.245 3.286-5.994 3.286-4.352 0-7.181-3.132-7.181-7.637v-11.915h4.693v10.922c0 2.635 1.603 4.466 4.023 4.466 2.635 0 4.466-2.059 4.466-4.888v-10.5h4.693l-.007 19.243Z"/><path fill="#fff" fill-rule="evenodd" d="M362.43 128.842c-5.692 0-9.092 4.05-9.092 9.93 0 5.861 3.4 9.93 9.139 9.884a6.665 6.665 0 0 0 5.579-2.682v2.42h4.693v-27.49h-4.666v10.574a6.797 6.797 0 0 0-5.653-2.636Zm.765 4.05c3.131 0 5.189 2.334 5.189 5.88 0 3.554-2.058 5.881-5.189 5.881-3.132 0-5.197-2.354-5.197-5.881 0-3.526 2.065-5.88 5.197-5.88Z" clip-rule="evenodd"/><path fill="#fff" d="M440.832 137.333v11.898h-4.759v-11.859l-9.323-16.11h5.305l6.671 12.015 6.787-12.015h4.564l-9.245 16.071Zm12.646-16.071h9.44c1.976 0 3.81.221 5.5.663 1.717.442 3.199 1.17 4.447 2.184 1.274 1.015 2.263 2.354 2.965 4.018.728 1.665 1.092 3.719 1.092 6.164 0 2.47-.364 4.642-1.092 6.514-.702 1.847-1.704 3.394-3.004 4.642-1.274 1.249-2.795 2.198-4.564 2.848-1.742.624-3.654.936-5.734.936h-9.05v-27.969Zm4.72 4.096v19.816h4.486c1.378 0 2.626-.208 3.745-.624a7.437 7.437 0 0 0 2.925-1.911c.833-.858 1.47-1.951 1.912-3.277.468-1.352.702-2.952.702-4.798 0-1.821-.221-3.316-.663-4.486-.442-1.197-1.066-2.146-1.873-2.848-.78-.702-1.716-1.183-2.808-1.443-1.093-.286-2.276-.429-3.55-.429h-4.876Zm23.203-4.096h9.518c3.329 0 5.865.52 7.607 1.56 1.743 1.04 2.614 2.796 2.614 5.266 0 1.015-.143 1.899-.429 2.653a5.536 5.536 0 0 1-1.249 1.911c-.52.52-1.157.95-1.911 1.288-.754.338-1.586.598-2.497.78 2.341.286 4.109.923 5.306 1.911 1.196.989 1.794 2.497 1.794 4.525 0 1.457-.286 2.705-.858 3.745a7.052 7.052 0 0 1-2.38 2.497c-1.014.624-2.21 1.092-3.589 1.404-1.378.286-2.873.429-4.486.429h-9.44v-27.969Zm4.72 4.096v7.45h5.032c1.561 0 2.822-.325 3.784-.975.963-.676 1.444-1.729 1.444-3.16 0-1.3-.442-2.171-1.327-2.613-.858-.468-2.08-.702-3.667-.702h-5.266Zm0 11.507v8.309h5.188c.885 0 1.691-.065 2.419-.195.728-.156 1.352-.39 1.872-.702a3.57 3.57 0 0 0 1.21-1.287c.286-.546.429-1.209.429-1.99 0-1.534-.507-2.6-1.522-3.198-.988-.625-2.587-.937-4.798-.937h-4.798Z"/></svg>