<svg width="600" height="322" fill="none" xmlns="http://www.w3.org/2000/svg"><path fill-rule="evenodd" clip-rule="evenodd" d="M217.262 68.747c0 11.446-9.302 20.748-20.747 20.748-11.446 0-20.748-9.302-20.748-20.748 0-11.445 9.302-20.747 20.748-20.747 11.445 0 20.747 9.302 20.747 20.747zm-3.665 0c0 9.44-7.642 17.082-17.082 17.082-2.47 0-4.315-.927-5.238-2.052-.923-1.124-1.182-2.965-.865-5.623l5.499-1.09c5.023-.92 7.791-3.716 8.782-8.726.121-.7.259-1.402.391-2.067.053-.272.106-.538.155-.796.148-.8.29-1.56.421-2.26l.006-.033v-.001c.14-.747.266-1.423.372-2 .562-3.257.105-5.662-1.16-7.335 5.205 2.926 8.719 8.5 8.719 14.901zm-17.082-17.082c-9.44 0-17.082 7.642-17.082 17.082 0 6.401 3.513 11.976 8.719 14.901-1.265-1.673-1.723-4.077-1.16-7.334.121-.663.265-1.445.427-2.316l.359-1.945.149-.763.006-.03.001-.002c.131-.665.269-1.366.391-2.068.956-5.044 3.724-7.838 8.747-8.759l5.545-1.09c.318-2.659.058-4.499-.865-5.624-.922-1.124-2.767-2.052-5.237-2.052zm5.444 11.493-4.169.818c-3.554.682-5.194 2.317-5.877 5.862a134.62 134.62 0 0 0-.431 2.27l-.116.627-.001.004c-.102.544-.204 1.088-.307 1.598l4.135-.818c3.554-.682 5.228-2.318 5.912-5.862.15-.747.288-1.497.426-2.246l.001-.002v-.003c.139-.75.277-1.5.427-2.248z" fill="#fff"/><path d="M51.583 84.308v-5.305c0-4-.494-5.17-2.023-8.496L41.56 53.065h-5.664l10.249 22.297v8.946h5.439zM55.134 68.17l6.653-15.105h-5.529L49.605 68.17h5.53z" fill="#fff"/><path fill-rule="evenodd" clip-rule="evenodd" d="M111.954 84.757c2.518 0 4.586-1.169 6.024-3.371l.27 2.922h4.945V53.065h-5.35V64.35c-1.348-2.023-3.326-3.102-5.664-3.102-5.169 0-8.766 4.36-8.766 11.912 0 7.462 3.507 11.598 8.541 11.598zm1.574-19.285c2.877 0 4.315 2.293 4.315 7.508 0 5.259-1.528 7.551-4.54 7.551-2.922 0-4.36-2.247-4.36-7.372 0-5.35 1.528-7.687 4.585-7.687zM144.815 82.78v-4.361c-1.663 1.124-4.451 2.112-7.058 2.112-3.911 0-5.394-1.843-5.619-5.619h12.902V72.08c0-7.866-3.462-10.833-8.811-10.833-6.518 0-9.62 4.99-9.62 11.822 0 7.867 3.866 11.688 10.699 11.688 3.416 0 5.933-.899 7.507-1.978zm-8.676-17.308c2.652 0 3.461 2.203 3.461 5.035v.45h-7.462c.135-3.597 1.439-5.485 4.001-5.485zM77.52 68.889c0-5.484-2.786-7.552-8.45-7.552-3.507 0-6.339 1.483-7.957 2.652v4.63c1.708-1.394 4.315-3.012 7.327-3.012 2.563 0 3.731.9 3.731 3.327v1.438h-.854c-8.181 0-11.822 2.652-11.822 7.372 0 4.36 2.787 6.878 6.922 6.878 3.147 0 4.496-1.034 5.53-2.113h.224c.045.585.225 1.349.405 1.799h5.214a56.912 56.912 0 0 1-.27-5.53v-9.89zm-5.349 10.024c-.674.99-1.933 1.798-3.82 1.798-2.248 0-3.372-1.303-3.372-3.281 0-2.608 1.843-3.507 6.428-3.507h.764v4.99z" fill="#fff"/><path d="M87.23 68.08c.99-1.214 2.563-2.248 4.496-2.248 1.888 0 2.742.81 2.742 2.517v15.959h5.35V67.81c0-4.495-1.799-6.473-6.16-6.473-3.191 0-5.079 1.168-6.158 2.247h-.27l-.134-1.888H81.88v22.612h5.35V68.08zM161.267 84.308h6.024l-7.372-11.643 6.383-10.969h-5.349l-3.866 6.833-4.316-6.833h-6.023l6.833 10.834-7.103 11.778h5.439l4.541-7.642 4.809 7.642zM237.934 84.758c3.371 0 5.664-1.213 7.058-2.157v-4.36c-1.799 1.303-3.776 2.292-6.653 2.292-4.945 0-7.283-4.001-7.283-11.823 0-8.046 2.248-11.867 7.552-11.867 2.473 0 4.765 1.078 6.384 2.112v-4.36c-1.439-1.034-3.776-1.978-6.653-1.978-8.317 0-12.812 6.114-12.812 16.093 0 10.25 4.675 16.048 12.407 16.048zM253.945 53.067h-5.35v31.242h5.35V53.067z" fill="#fff"/><path fill-rule="evenodd" clip-rule="evenodd" d="M257.529 73.026c0-7.597 4.091-11.778 9.98-11.778s9.979 4.18 9.979 11.733c0 7.597-4.09 11.777-9.979 11.777-5.889 0-9.98-4.18-9.98-11.732zm5.53 0c0 5.214 1.483 7.507 4.45 7.507s4.45-2.293 4.45-7.552c0-5.215-1.483-7.507-4.45-7.507s-4.45 2.292-4.45 7.552z" fill="#fff"/><path d="M293.442 77.925c-.989 1.214-2.562 2.248-4.495 2.248-1.888 0-2.742-.809-2.742-2.517V61.698h-5.349v16.497c0 4.495 1.798 6.473 6.158 6.473 3.192 0 5.08-1.168 6.159-2.247h.269l.135 1.888h5.215V61.698h-5.35v16.227z" fill="#fff"/><path fill-rule="evenodd" clip-rule="evenodd" d="M316.959 81.387c-1.438 2.203-3.506 3.371-6.024 3.371-5.034 0-8.541-4.135-8.541-11.597 0-7.553 3.597-11.913 8.766-11.913 2.338 0 4.316 1.079 5.664 3.102V53.067h5.349v31.242h-4.944l-.27-2.922zm-.135-8.406c0-5.215-1.438-7.507-4.315-7.507-3.057 0-4.585 2.337-4.585 7.686 0 5.125 1.438 7.373 4.36 7.373 3.012 0 4.54-2.293 4.54-7.552z" fill="#fff"/><path d="M553.604 66.638s8.037.683 9.853 5.08h.007c1.816 4.396-.398 8.506-4.351 10.156-3.954 1.65-7.519 1.922-11.654 1.922s-16.602-.272-16.567-9.873h6.052c.076 5.583 10.703 4.999 13.455 4.848.149-.009.274-.016.374-.02 1.702-.081 7.061-.469 7.141-3.81.074-3.133-5.154-3.581-6.496-3.696-.089-.008-.16-.014-.212-.02-.846-.086-7.029-.723-8.766-.903-1.736-.179-6.072-.74-8.921-3.111-2.85-2.37-1.816-6.651-1.816-6.651.439-1.873 1.657-3.398 3.664-4.57 1.879-1.1 4.332-1.792 7.347-2.087 0 0 4.258-.458 8.991 0a.12.12 0 0 0 .032.002c3.212.31 5.785 1.06 7.713 2.258 2.595 1.618 3.896 3.968 3.896 7.05h-6.008a3.717 3.717 0 0 0-.236-1.305c-.483-1.218-2.038-2.885-6.927-3.166-7.849-.452-10.359.779-10.359.779s-2.21.714-2.255 2.648c-.044 1.933 1.314 2.95 5.716 3.398l10.327 1.07zM395.559 66.505l4.188 10.292c1.505 3.696 5.051 3.03 5.051 3.03-.004.047-.353 3.87-4.691 3.87 0 0-.245.02-.64-.043-3.544-.415-4.905-4.19-5.237-5.111l-.049-.134-3.041-7.473-4.188-10.293c-1.504-3.696-5.051-3.03-5.051-3.03.004-.046.353-3.87 4.692-3.87 0 0 .244-.02.639.044 3.544.415 4.905 4.19 5.237 5.11l.049.134 3.036 7.462.005.012z" fill="#fff"/><path d="M404.795 79.828V54.394h5.725v19.092c0 4.996-4.24 6.104-5.725 6.341zM416.244 83.046h28.625v-4.92h-22.9v-7.063h21.176v-4.92h-21.176v-6.828h22.9v-4.92h-28.625v28.651zM483.972 54.394h5.725v28.652h-5.725V54.394zM501.14 72.647V54.394h-5.709v18.979c0 2.046.662 3.945 1.788 5.551 2.016 2.872 5.54 4.78 9.564 4.78h2.977c4.023 0 7.547-2.053 9.563-4.924h-11.644c-3.629-.096-6.542-2.805-6.542-6.133h.003zM521.096 73.228c0 2.035-.655 3.951-1.772 5.552h1.193c3.508-.215 6.285-2.886 6.285-6.133V54.394h-5.706v18.834zM376.174 63.97v19.079h5.725V57.616s-5.725.625-5.725 6.353z" fill="#fff"/><path fill-rule="evenodd" clip-rule="evenodd" d="M474.968 68.097c4.253-3.028 3.477-9.005.309-11.514-2.795-2.217-7.078-2.202-9.869-2.193l-.509.002h-15.277v28.654h19.09c6.746 0 11.231-3.39 11.231-8.316 0-5.192-4.978-6.633-4.978-6.633h.003zm-19.617-8.811h10.432c.081 0 .18-.002.297-.004 1.572-.028 6.115-.108 6.115 3.434 0 2.868-2.825 3.43-4.335 3.43h-12.509v-6.86zm13.005 18.874-13.009-.005v-7.12h13.103c1.418-.004 5.443-.012 5.443 3.366 0 3.473-3.626 3.76-5.537 3.76z" fill="#fff"/><path d="M103.37 149.213a9.459 9.459 0 0 0-4.776-8.279l-19.822-11.44v6.501l17.003 9.811a3.932 3.932 0 0 1 1.96 3.399 3.926 3.926 0 0 1-1.96 3.4l-17.004 9.818v6.501l19.808-11.44a9.455 9.455 0 0 0 4.791-8.271zM101.45 167.266l16.997-9.811v-6.501l-19.808 11.44a9.559 9.559 0 0 0 0 16.55l19.808 11.44v-6.501l-16.997-9.811a3.939 3.939 0 0 1-1.953-3.399 3.936 3.936 0 0 1 1.953-3.399v-.008z" fill="#fff"/><path fill-rule="evenodd" clip-rule="evenodd" d="M151.954 144.877h-9.618v29.648h9.618c8.219 0 15.203-4.909 15.203-14.824s-6.984-14.824-15.203-14.824zm9.528 14.824c0 7.327-4.872 9.952-9.997 9.952h-3.54v-19.949h3.54c5.125 0 9.997 2.67 9.997 9.997zM169.381 163.853c0-6.353 4.664-11.016 11.157-11.016 6.494 0 11.158 4.663 11.158 11.016 0 6.352-4.664 11.016-11.158 11.016-6.493 0-11.157-4.664-11.157-11.016zm17.071 0c0-3.853-2.373-6.524-5.884-6.524s-5.951 2.671-5.951 6.524 2.373 6.523 5.951 6.523c3.578 0 5.884-2.67 5.884-6.523z" fill="#fff"/><path d="M209.066 174.525h5.207l.015-21.348h-5.207v11.648c0 3.139-2.03 5.423-4.954 5.423-2.685 0-4.462-2.031-4.462-4.954v-12.117h-5.207v13.218c0 4.998 3.131 8.472 7.959 8.472 3.049 0 5.467-1.317 6.649-3.645v3.303z" fill="#fff"/><path fill-rule="evenodd" clip-rule="evenodd" d="M223.667 171.842v2.663h-5.169v-30.497h5.169v11.73a7.53 7.53 0 0 1 6.271-2.923c6.307 0 10.079 4.463 10.079 11.016s-3.772 11.016-10.168 11.016a7.374 7.374 0 0 1-6.182-3.005zm11.158-8.011c0-3.935-2.291-6.524-5.765-6.524-3.474 0-5.764 2.589-5.764 6.524s2.29 6.523 5.764 6.523 5.795-2.559 5.795-6.501l-.03-.022z" fill="#fff"/><path d="M248.359 144.028h-5.154l-.008 30.497h5.162v-30.497z" fill="#fff"/><path fill-rule="evenodd" clip-rule="evenodd" d="M272.343 167.414c-.803 4.53-4.783 7.438-10.034 7.438-6.992 0-10.89-5.504-10.89-11.098 0-5.593 3.474-10.934 10.466-10.934 7.156 0 10.413 5.207 10.413 10.295.001.596-.029 1.192-.089 1.785h-15.791c.379 3.429 2.581 5.631 5.891 5.631 2.663 0 4.403-1.101 4.954-3.132l5.08.015zm-5.296-5.951h-10.5c.553-3.21 2.419-4.73 5.338-4.745a4.902 4.902 0 0 1 3.582 1.284 4.882 4.882 0 0 1 1.58 3.461z" fill="#fff"/><path d="M289.354 144.533c-7.751 0-14.698 5.088-14.698 15.167 0 10.086 6.821 15.166 14.698 15.166 7.289 0 12.712-4.195 13.307-10.339h-5.594c-.505 3.236-3.644 5.467-7.713 5.467-5.162 0-9.06-3.563-9.06-10.294 0-6.732 3.898-10.339 9.06-10.339 3.987 0 7.118 2.246 7.542 5.511h5.847c-.804-6.144-6.226-10.339-13.389-10.339zM306.054 144.028h5.207v30.497h-5.207v-30.497z" fill="#fff"/><path fill-rule="evenodd" clip-rule="evenodd" d="M325.424 152.837c-6.494 0-11.157 4.663-11.157 11.016 0 6.352 4.656 11.016 11.157 11.016s11.157-4.664 11.157-11.016c0-6.353-4.664-11.016-11.157-11.016zm.03 4.492c3.511 0 5.883 2.671 5.883 6.524s-2.306 6.523-5.883 6.523c-3.578 0-5.951-2.67-5.951-6.523 0-3.853 2.44-6.524 5.951-6.524z" fill="#fff"/><path d="M359.193 174.525h-5.207v-3.303c-1.183 2.328-3.6 3.645-6.65 3.645-4.827 0-7.966-3.474-7.966-8.472v-13.218h5.206v12.117c0 2.923 1.778 4.954 4.463 4.954 2.924 0 4.954-2.284 4.954-5.423v-11.648h5.207l-.007 21.348z" fill="#fff"/><path fill-rule="evenodd" clip-rule="evenodd" d="M372.29 152.835c-6.315 0-10.087 4.493-10.087 11.016 0 6.501 3.772 11.016 10.139 10.964a7.38 7.38 0 0 0 6.188-2.976v2.686h5.207v-30.497h-5.177v11.73a7.539 7.539 0 0 0-6.27-2.923zm.848 4.492c3.473 0 5.757 2.589 5.757 6.524 0 3.942-2.284 6.523-5.757 6.523-3.474 0-5.765-2.611-5.765-6.523 0-3.913 2.291-6.524 5.765-6.524z" fill="#fff"/><path d="M453.329 162.251v13.174h-5.269v-13.131l-10.324-17.839h5.875l7.386 13.304 7.516-13.304h5.053l-10.237 17.796zM467.331 144.455h10.453c2.189 0 4.219.245 6.09.734 1.901.49 3.542 1.296 4.925 2.419 1.411 1.123 2.505 2.606 3.282 4.449.807 1.843 1.21 4.118 1.21 6.825 0 2.735-.403 5.14-1.21 7.213-.777 2.045-1.886 3.758-3.326 5.14-1.411 1.382-3.095 2.434-5.053 3.153-1.93.692-4.046 1.037-6.35 1.037h-10.021v-30.97zm5.227 4.535v21.943h4.967c1.526 0 2.908-.23 4.147-.691a8.233 8.233 0 0 0 3.239-2.117c.922-.95 1.627-2.159 2.117-3.628.518-1.497.777-3.268.777-5.313 0-2.016-.245-3.671-.734-4.967-.49-1.325-1.181-2.376-2.074-3.153-.863-.778-1.9-1.31-3.109-1.598-1.21-.317-2.52-.476-3.931-.476h-5.399zM498.25 144.455h10.54c3.685 0 6.493.576 8.422 1.728 1.93 1.152 2.894 3.095 2.894 5.831 0 1.123-.158 2.102-.475 2.937a6.135 6.135 0 0 1-1.382 2.117c-.576.576-1.281 1.051-2.116 1.425-.836.374-1.757.662-2.765.864 2.592.317 4.55 1.022 5.874 2.116 1.325 1.095 1.987 2.765 1.987 5.011 0 1.613-.316 2.995-.95 4.147a7.8 7.8 0 0 1-2.635 2.764c-1.123.691-2.447 1.209-3.974 1.555-1.526.317-3.181.475-4.967.475H498.25v-30.97zm5.227 4.535v8.25h5.572c1.727 0 3.124-.359 4.19-1.079 1.065-.749 1.598-1.915 1.598-3.499 0-1.44-.49-2.405-1.469-2.894-.95-.518-2.304-.778-4.06-.778h-5.831zm0 12.743v9.2h5.744c.98 0 1.872-.072 2.679-.216.806-.173 1.497-.432 2.073-.778a3.958 3.958 0 0 0 1.339-1.425c.317-.605.475-1.339.475-2.203 0-1.699-.562-2.879-1.685-3.542-1.094-.691-2.865-1.036-5.312-1.036h-5.313zM279.757 240.712h-5.629l-7.305 13.32-7.347-13.32h-5.629l10.484 18.133v11.945h4.942v-11.945l10.484-18.133zm16.77 0h-21.914v4.726h8.508v25.352h4.941v-25.352h8.465v-4.726zm2.795 14.523c0-1.547 1.461-2.277 3.137-2.277 1.762 0 3.265.773 4.039 2.449l3.91-2.191c-1.504-2.836-4.426-4.469-7.949-4.469-4.383 0-7.864 2.535-7.864 6.574 0 7.692 11.559 5.543 11.559 9.368 0 1.718-1.59 2.406-3.652 2.406-2.364 0-4.082-1.16-4.77-3.094l-3.996 2.32c1.375 3.094 4.469 5.028 8.766 5.028 4.64 0 8.379-2.321 8.379-6.617 0-7.95-11.559-5.586-11.559-9.497zm31.58-5.93v3.051c-1.633-2.234-4.168-3.609-7.52-3.609-5.844 0-10.699 4.898-10.699 11.301 0 6.359 4.855 11.301 10.699 11.301 3.352 0 5.887-1.375 7.52-3.653v3.094h4.64v-21.485h-4.64zm-6.789 17.618c-3.868 0-6.789-2.879-6.789-6.875s2.921-6.875 6.789-6.875c3.867 0 6.789 2.879 6.789 6.875s-2.922 6.875-6.789 6.875zm29.6-17.618v11.516c0 4.383-2.405 6.188-5.456 6.188-2.923 0-4.813-1.719-4.813-4.985v-12.719h-4.641v13.192c0 5.586 3.438 8.852 8.251 8.852 2.922 0 5.242-1.074 6.659-3.309v2.75h4.642v-21.485h-4.642zm12.99 3.61v-3.61h-4.641v21.485h4.641v-10.828c0-4.813 3.566-6.231 6.617-6.016v-5.027c-2.707 0-5.328 1.074-6.617 3.996zm23.882-3.61v11.516c0 4.383-2.406 6.188-5.457 6.188-2.921 0-4.812-1.719-4.812-4.985v-12.719h-4.641v13.192c0 5.586 3.438 8.852 8.25 8.852 2.922 0 5.243-1.074 6.66-3.309v2.75h4.641v-21.485h-4.641zm12.732 5.93c0-1.547 1.461-2.277 3.137-2.277 1.762 0 3.265.773 4.038 2.449l3.911-2.191c-1.504-2.836-4.426-4.469-7.949-4.469-4.383 0-7.864 2.535-7.864 6.574 0 7.692 11.558 5.543 11.558 9.368 0 1.718-1.589 2.406-3.651 2.406-2.364 0-4.083-1.16-4.77-3.094l-3.996 2.32c1.375 3.094 4.468 5.028 8.766 5.028 4.64 0 8.378-2.321 8.378-6.617 0-7.95-11.558-5.586-11.558-9.497z" fill="#fff"/><path fill-rule="evenodd" clip-rule="evenodd" d="M204.245 240.747c5.036-7.077 13.06-11.029 16.864-10.269 2.44.487.962 3.127-.801 6.116-.46.78-.911 1.499-1.315 2.145-1.148 1.831-1.93 3.08-1.531 3.484 6.323-6.079 10.388-6.757 13.776-6.757 3.355 0 1.777 2.418.051 5.061l-.051.079c-.25.383-.508.762-.757 1.128-.97 1.424-1.795 2.636-1.425 3.04 3.646-2.595 7.421-3.222 9.194-2.855 1.774.367 2.295 1.135-.153 4.92l-2.339 3.511.107.172c.83 1.335 2.096 3.37 2.096 6.612 0 6.506-4.97 12.974-7.752 15.865a1.273 1.273 0 0 1-.922.386h-5.168c-.389 0-.691-.338-.679-.727.222-6.932-7.137-6.646-12.045.432a.675.675 0 0 1-.552.295h-4.86c-.35 0-.688-.137-.92-.398-1.89-2.119-3.614-5.706-4.05-7.251-2.077 3.207-7.77 4.971-11.838 2.226-4.831-3.259-4.799-8.803-2.71-12.188l4.245 2.413c-.625 2.459.3 4.153 2.077 4.153 2.565.001 3.572-3.109 5.012-7.555 1.303-4.023 2.96-9.14 6.446-14.038zm3.11 17.665c1.415-3.197 1.415-6.297 0-6.923-1.415-.625-3.71 1.46-5.126 4.657a13.381 13.381 0 0 0-.794 2.336h5.889l.031-.07zm10.429-6.923c1.415.626 1.415 3.726-.001 6.923l-.031.07h-5.889c.177-.748.442-1.539.795-2.336 1.415-3.197 3.71-5.282 5.126-4.657z" fill="#fff"/></svg>