<svg xmlns="http://www.w3.org/2000/svg" width="326" height="317" fill="none"><path fill="#fff" fill-rule="evenodd" d="M200.307 40.247c0 11.17-9.077 20.248-20.247 20.248s-20.248-9.078-20.248-20.248c0-11.17 9.078-20.247 20.248-20.247 11.17 0 20.247 9.078 20.247 20.247Zm-3.577 0c0 9.213-7.458 16.67-16.67 16.67-2.411 0-4.211-.904-5.112-2.002-.9-1.097-1.153-2.893-.843-5.488l5.365-1.064c4.902-.898 7.604-3.626 8.571-8.515.118-.684.253-1.369.381-2.017.053-.266.104-.526.152-.777.144-.78.283-1.523.411-2.205l.006-.033v-.001c.136-.729.26-1.388.362-1.951.549-3.18.103-5.526-1.132-7.158 5.08 2.855 8.509 8.295 8.509 14.541Zm-16.67-16.67c-9.213 0-16.67 7.458-16.67 16.67 0 6.247 3.428 11.687 8.508 14.542-1.234-1.632-1.68-3.98-1.131-7.158.117-.647.259-1.41.416-2.26l.351-1.897c.046-.242.095-.49.145-.745l.006-.029.001-.003c.128-.648.263-1.333.381-2.017.934-4.923 3.635-7.65 8.537-8.548l5.411-1.064c.31-2.595.057-4.39-.844-5.489-.9-1.097-2.7-2.002-5.111-2.002Zm5.313 11.216-4.069.798c-3.468.665-5.068 2.262-5.735 5.72-.155.774-.29 1.507-.421 2.216l-.113.612-.001.004c-.099.53-.199 1.061-.299 1.56l4.035-.8c3.468-.664 5.102-2.26 5.769-5.72.147-.73.282-1.46.416-2.191l.001-.002v-.003l.001-.001c.135-.732.27-1.463.416-2.193Z" clip-rule="evenodd"/><path fill="#fff" d="M38.62 55.432v-5.176c0-3.904-.482-5.045-1.973-8.291l-7.809-17.022h-5.527l10.002 21.76v8.73h5.308ZM42.087 39.683l6.492-14.74h-5.396l-6.492 14.74h5.396Z"/><path fill="#fff" fill-rule="evenodd" d="M97.537 55.871c2.457 0 4.475-1.14 5.879-3.29l.263 2.851h4.826V24.943h-5.221v11.012c-1.316-1.975-3.246-3.027-5.527-3.027-5.045 0-8.555 4.255-8.555 11.625 0 7.282 3.422 11.318 8.335 11.318Zm1.536-18.82c2.807 0 4.211 2.238 4.211 7.326 0 5.133-1.491 7.37-4.43 7.37-2.852 0-4.256-2.193-4.256-7.194 0-5.22 1.492-7.502 4.475-7.502ZM129.606 53.941v-4.255c-1.623 1.096-4.343 2.062-6.888 2.062-3.816 0-5.264-1.8-5.483-5.484h12.59V43.5c0-7.677-3.378-10.572-8.598-10.572-6.361 0-9.388 4.87-9.388 11.537 0 7.677 3.773 11.406 10.441 11.406 3.334 0 5.79-.877 7.326-1.93Zm-8.467-16.89c2.588 0 3.378 2.15 3.378 4.914v.438h-7.282c.131-3.51 1.404-5.352 3.904-5.352ZM63.934 40.385c0-5.352-2.72-7.37-8.248-7.37-3.422 0-6.185 1.448-7.765 2.589v4.518c1.667-1.36 4.212-2.94 7.15-2.94 2.502 0 3.642.878 3.642 3.247v1.404h-.833c-7.985 0-11.538 2.588-11.538 7.195 0 4.255 2.72 6.712 6.756 6.712 3.07 0 4.387-1.01 5.396-2.062h.22c.043.57.218 1.316.394 1.755h5.089a55.562 55.562 0 0 1-.264-5.396v-9.652Zm-5.22 9.783c-.659.965-1.887 1.755-3.73 1.755-2.193 0-3.29-1.272-3.29-3.203 0-2.544 1.799-3.421 6.273-3.421h.746v4.87Z" clip-rule="evenodd"/><path fill="#fff" d="M73.41 39.596c.964-1.185 2.5-2.194 4.386-2.194 1.843 0 2.676.79 2.676 2.457v15.573h5.22v-16.1c0-4.386-1.754-6.317-6.01-6.317-3.114 0-4.957 1.14-6.01 2.194h-.263l-.131-1.843h-5.09v22.066h5.221V39.596ZM145.662 55.432h5.879l-7.195-11.362 6.229-10.704h-5.22l-3.773 6.668-4.211-6.668h-5.879l6.668 10.573-6.931 11.493h5.308l4.431-7.457 4.694 7.457ZM220.481 55.872c3.29 0 5.528-1.184 6.887-2.105V49.51c-1.754 1.273-3.685 2.238-6.492 2.238-4.826 0-7.107-3.905-7.107-11.538 0-7.852 2.193-11.581 7.37-11.581 2.413 0 4.65 1.052 6.229 2.061v-4.255c-1.403-1.009-3.685-1.93-6.492-1.93-8.116 0-12.503 5.966-12.503 15.705 0 10.002 4.562 15.661 12.108 15.661ZM236.106 24.945h-5.221v30.489h5.221v-30.49Z"/><path fill="#fff" fill-rule="evenodd" d="M239.604 44.422c0-7.413 3.992-11.493 9.739-11.493 5.747 0 9.739 4.08 9.739 11.45 0 7.414-3.992 11.493-9.739 11.493-5.747 0-9.739-4.08-9.739-11.45Zm5.396 0c0 5.09 1.448 7.327 4.343 7.327 2.896 0 4.343-2.238 4.343-7.37 0-5.09-1.447-7.326-4.343-7.326-2.895 0-4.343 2.237-4.343 7.37Z" clip-rule="evenodd"/><path fill="#fff" d="M274.652 49.204c-.965 1.185-2.501 2.194-4.387 2.194-1.843 0-2.676-.79-2.676-2.457V33.367h-5.221v16.1c0 4.387 1.755 6.318 6.01 6.318 3.115 0 4.958-1.14 6.01-2.194h.264l.131 1.843h5.089V33.368h-5.22v15.836Z"/><path fill="#fff" fill-rule="evenodd" d="M297.602 52.582c-1.404 2.15-3.422 3.29-5.879 3.29-4.913 0-8.335-4.036-8.335-11.318 0-7.37 3.509-11.625 8.554-11.625 2.282 0 4.212 1.053 5.528 3.027V24.945h5.22v30.489h-4.825l-.263-2.852Zm-.132-8.203c0-5.09-1.404-7.326-4.212-7.326-2.983 0-4.474 2.28-4.474 7.501 0 5.001 1.404 7.195 4.255 7.195 2.939 0 4.431-2.238 4.431-7.37Z" clip-rule="evenodd"/><path fill="#fff" d="M246.463 114.722s8.038.752 9.854 5.586h.006c1.816 4.835-.398 9.355-4.351 11.169-3.953 1.815-7.519 2.114-11.654 2.114-4.134 0-16.602-.299-16.567-10.857h6.053c.075 6.139 10.702 5.497 13.454 5.331l.375-.022c1.701-.089 7.06-.516 7.14-4.189.074-3.446-5.153-3.939-6.496-4.066a9.552 9.552 0 0 1-.212-.021c-.846-.095-7.029-.795-8.765-.993-1.737-.197-6.072-.815-8.922-3.421-2.85-2.607-1.816-7.315-1.816-7.315.439-2.059 1.657-3.736 3.664-5.025 1.88-1.21 4.332-1.971 7.347-2.295 0 0 4.259-.503 8.991 0a.12.12 0 0 0 .032.003c3.213.34 5.786 1.165 7.713 2.483 2.595 1.779 3.896 4.363 3.896 7.753h-6.008a4.446 4.446 0 0 0-.235-1.435c-.484-1.34-2.039-3.174-6.927-3.483-7.85-.496-10.359.857-10.359.857s-2.211.786-2.255 2.912c-.045 2.126 1.313 3.243 5.715 3.737l10.327 1.177ZM88.418 114.576l4.189 11.318c1.504 4.065 5.05 3.333 5.05 3.333-.004.05-.353 4.255-4.691 4.255 0 0-.245.023-.64-.047-3.543-.457-4.904-4.608-5.236-5.621a10.82 10.82 0 0 0-.05-.147L84 119.449c-1.774-4.793-3.748-10.124-4.189-11.319-1.504-4.064-5.05-3.332-5.05-3.332.004-.051.353-4.256 4.69-4.256 0 0 .246-.022.64.048 3.544.457 4.905 4.608 5.237 5.621l.05.147 3.035 8.205.005.013Z"/><path fill="#fff" d="M97.654 129.227v-27.968h5.725v20.994c0 5.494-4.24 6.713-5.725 6.974ZM109.103 132.766h28.625v-5.411h-22.9v-7.766h21.177v-5.411h-21.177v-7.508h22.9v-5.411h-28.625v31.507ZM176.831 101.259h5.725v31.507h-5.725v-31.507ZM194 121.33v-20.071h-5.709v20.87c0 2.25.661 4.338 1.787 6.105 2.016 3.157 5.54 5.255 9.564 5.255h2.977c4.023 0 7.547-2.257 9.564-5.414h-11.644a6.747 6.747 0 0 1-6.543-6.745H194ZM213.955 121.97c0 2.237-.655 4.344-1.771 6.105h1.193c3.508-.236 6.284-3.174 6.284-6.745v-20.071h-5.706v20.711ZM69.033 111.788v20.982h5.725v-27.969s-5.725.688-5.725 6.987Z"/><path fill="#fff" fill-rule="evenodd" d="M167.828 116.327c4.252-3.33 3.476-9.902.308-12.662-2.794-2.437-7.078-2.421-9.869-2.411l-.509.002h-15.276v31.51h19.09c6.745 0 11.23-3.727 11.23-9.144 0-5.71-4.978-7.295-4.978-7.295h.004Zm-19.618-9.689h10.432c.081 0 .181-.002.297-.004 1.572-.031 6.115-.119 6.115 3.776 0 3.154-2.824 3.771-4.335 3.771H148.21v-7.543Zm13.005 20.756c-1.911 0-13.008-.007-13.008-.007v-7.83H161.31c1.417-.003 5.443-.013 5.443 3.702 0 3.819-3.626 4.135-5.538 4.135Z" clip-rule="evenodd"/><path fill="#fff" d="M47.722 191.367a8.523 8.523 0 0 0-4.305-7.463L25.55 173.592v5.86l15.327 8.844a3.538 3.538 0 0 1 0 6.128l-15.327 8.851v5.86l17.855-10.313a8.517 8.517 0 0 0 4.318-7.455ZM45.992 207.64l15.32-8.844v-5.86l-17.854 10.312a8.616 8.616 0 0 0 0 14.919l17.855 10.312v-5.86l-15.321-8.844a3.541 3.541 0 0 1-1.76-3.064 3.548 3.548 0 0 1 1.76-3.064v-.007Z"/><path fill="#fff" fill-rule="evenodd" d="M91.517 187.458h-8.67v26.726h8.67c7.409 0 13.705-4.426 13.705-13.363 0-8.938-6.296-13.363-13.705-13.363Zm8.589 13.363c0 6.604-4.392 8.971-9.012 8.971h-3.191v-17.983h3.191c4.62 0 9.012 2.407 9.012 9.012ZM107.226 204.563c0-5.726 4.204-9.93 10.057-9.93 5.854 0 10.058 4.204 10.058 9.93s-4.204 9.93-10.058 9.93c-5.853 0-10.057-4.204-10.057-9.93Zm15.388 0c0-3.473-2.139-5.88-5.304-5.88-3.165 0-5.364 2.407-5.364 5.88s2.139 5.88 5.364 5.88 5.304-2.407 5.304-5.88Z" clip-rule="evenodd"/><path fill="#fff" d="M142.999 214.183h4.694l.013-19.243h-4.694v10.5c0 2.829-1.83 4.888-4.465 4.888-2.42 0-4.023-1.831-4.023-4.466V194.94h-4.693v11.915c0 4.505 2.822 7.637 7.174 7.637 2.749 0 4.928-1.187 5.994-3.286v2.977Z"/><path fill="#fff" fill-rule="evenodd" d="M156.161 211.765v2.4h-4.66v-27.49h4.66v10.573a6.787 6.787 0 0 1 5.652-2.635c5.686 0 9.085 4.023 9.085 9.93 0 5.908-3.399 9.93-9.166 9.93a6.632 6.632 0 0 1-5.571-2.708Zm10.057-7.222c0-3.546-2.065-5.88-5.196-5.88s-5.197 2.334-5.197 5.88c0 3.547 2.066 5.881 5.197 5.881 3.131 0 5.223-2.307 5.223-5.86l-.027-.021Z" clip-rule="evenodd"/><path fill="#fff" d="M178.418 186.693h-4.646l-.007 27.49h4.653v-27.49Z"/><path fill="#fff" fill-rule="evenodd" d="M200.038 207.773c-.724 4.084-4.311 6.705-9.045 6.705-6.303 0-9.816-4.961-9.816-10.003 0-5.043 3.131-9.857 9.434-9.857 6.45 0 9.387 4.694 9.387 9.28 0 .537-.027 1.074-.081 1.609h-14.234c.341 3.091 2.326 5.076 5.31 5.076 2.4 0 3.969-.993 4.465-2.823l4.58.013Zm-4.774-5.364h-9.465c.499-2.894 2.181-4.264 4.812-4.277a4.394 4.394 0 0 1 1.731.252 4.396 4.396 0 0 1 2.525 2.321c.245.536.38 1.116.397 1.704Z" clip-rule="evenodd"/><path fill="#fff" d="M215.372 187.148c-6.987 0-13.249 4.586-13.249 13.672 0 9.091 6.148 13.671 13.249 13.671 6.571 0 11.459-3.782 11.995-9.32h-5.042c-.456 2.917-3.286 4.928-6.953 4.928-4.653 0-8.167-3.211-8.167-9.279s3.514-9.32 8.167-9.32c3.594 0 6.416 2.025 6.799 4.968h5.27c-.724-5.538-5.612-9.32-12.069-9.32ZM230.426 186.693h4.693v27.49h-4.693v-27.49Z"/><path fill="#fff" fill-rule="evenodd" d="M247.886 194.633c-5.854 0-10.058 4.204-10.058 9.93s4.198 9.93 10.058 9.93c5.86 0 10.057-4.204 10.057-9.93s-4.204-9.93-10.057-9.93Zm.027 4.05c3.164 0 5.303 2.407 5.303 5.88s-2.078 5.88-5.303 5.88-5.364-2.407-5.364-5.88 2.199-5.88 5.364-5.88Z" clip-rule="evenodd"/><path fill="#fff" d="M278.325 214.183h-4.693v-2.977c-1.066 2.099-3.245 3.286-5.994 3.286-4.352 0-7.181-3.132-7.181-7.637V194.94h4.693v10.922c0 2.635 1.603 4.466 4.023 4.466 2.635 0 4.466-2.059 4.466-4.888v-10.5h4.693l-.007 19.243Z"/><path fill="#fff" fill-rule="evenodd" d="M290.131 194.632c-5.692 0-9.091 4.049-9.091 9.93 0 5.86 3.399 9.93 9.138 9.883a6.665 6.665 0 0 0 5.579-2.682v2.42h4.693v-27.49h-4.666v10.574a6.788 6.788 0 0 0-5.653-2.635Zm.765 4.049c3.131 0 5.189 2.334 5.189 5.881 0 3.553-2.058 5.88-5.189 5.88-3.131 0-5.197-2.354-5.197-5.88 0-3.527 2.066-5.881 5.197-5.881Z" clip-rule="evenodd"/><path fill="#fff" d="M139.381 284.55v11.898h-4.759v-11.859l-9.323-16.11h5.305l6.671 12.014 6.787-12.014h4.564l-9.245 16.071ZM152.026 268.479h9.441c1.976 0 3.81.221 5.5.663 1.716.442 3.199 1.17 4.447 2.184 1.274 1.014 2.263 2.354 2.965 4.018.728 1.665 1.092 3.719 1.092 6.164 0 2.47-.364 4.642-1.092 6.514-.702 1.847-1.704 3.394-3.004 4.642-1.274 1.248-2.796 2.198-4.564 2.848-1.742.624-3.654.936-5.734.936h-9.051v-27.969Zm4.721 4.095v19.817h4.486c1.378 0 2.626-.208 3.744-.624a7.433 7.433 0 0 0 2.926-1.911c.832-.859 1.47-1.951 1.912-3.277.468-1.353.702-2.952.702-4.798 0-1.821-.221-3.316-.663-4.486-.442-1.197-1.067-2.146-1.873-2.848-.78-.702-1.716-1.183-2.808-1.443-1.093-.286-2.276-.43-3.55-.43h-4.876ZM179.95 268.479h9.518c3.329 0 5.865.52 7.607 1.56s2.614 2.796 2.614 5.266c0 1.014-.143 1.899-.43 2.653a5.534 5.534 0 0 1-1.248 1.911c-.52.52-1.157.949-1.911 1.287-.754.339-1.587.599-2.497.781 2.341.286 4.109.923 5.305 1.911 1.197.988 1.795 2.497 1.795 4.525 0 1.456-.286 2.705-.858 3.745a7.069 7.069 0 0 1-2.38 2.497c-1.014.624-2.21 1.092-3.589 1.404-1.378.286-2.873.429-4.486.429h-9.44v-27.969Zm4.72 4.095v7.451h5.032c1.561 0 2.822-.325 3.784-.975.962-.676 1.443-1.729 1.443-3.16 0-1.3-.442-2.171-1.326-2.613-.858-.468-2.08-.703-3.667-.703h-5.266Zm0 11.508v8.309h5.188c.885 0 1.691-.065 2.419-.195.728-.156 1.352-.39 1.872-.702.52-.338.924-.767 1.21-1.287.286-.547.429-1.21.429-1.99 0-1.534-.507-2.6-1.522-3.199-.988-.624-2.587-.936-4.798-.936h-4.798Z"/></svg>