<svg xmlns="http://www.w3.org/2000/svg" fill="none" viewBox="0 0 1080 100"><path fill="#fff" fill-rule="evenodd" d="M227.19 50c0 11.17-9.08 20.25-20.25 20.25S186.7 61.17 186.7 50a20.26 20.26 0 0 1 20.25-20.25A20.26 20.26 0 0 1 227.2 50Zm-3.58 0c0 9.21-7.46 16.67-16.67 16.67-2.41 0-4.21-.9-5.11-2-.9-1.1-1.15-2.9-.84-5.5l5.36-1.05c4.9-.9 7.6-3.63 8.57-8.52a85.07 85.07 0 0 1 .53-2.8l.41-2.2.01-.03.36-1.96c.55-3.17.1-5.52-1.13-7.15A16.66 16.66 0 0 1 223.61 50Zm-16.67-16.67a16.66 16.66 0 0 0-8.16 31.21c-1.24-1.63-1.68-3.98-1.13-7.16l.41-2.26.35-1.9.15-.74v-.03c.13-.65.27-1.33.39-2.02.93-4.92 3.63-7.65 8.53-8.55l5.42-1.06c.3-2.6.05-4.4-.85-5.49-.9-1.1-2.7-2-5.1-2Zm5.31 11.22-4.07.8c-3.46.66-5.06 2.26-5.73 5.71a134.8 134.8 0 0 0-.42 2.22l-.11.61-.3 1.56 4.03-.8c3.47-.66 5.1-2.26 5.77-5.71.15-.73.28-1.46.42-2.2l.41-2.2Z" clip-rule="evenodd"/><path fill="#fff" d="M65.5 65.18v-5.17c0-3.9-.48-5.05-1.97-8.3L55.72 34.7h-5.53l10 21.77v8.72h5.31Zm3.47-15.75 6.49-14.73h-5.4l-6.49 14.73h5.4Z"/><path fill="#fff" fill-rule="evenodd" d="M124.42 65.62a6.78 6.78 0 0 0 5.88-3.29l.26 2.86h4.83v-30.5h-5.22v11.02a6.44 6.44 0 0 0-5.53-3.03c-5.05 0-8.56 4.26-8.56 11.63 0 7.28 3.43 11.31 8.34 11.31Zm1.53-18.82c2.81 0 4.22 2.24 4.22 7.33 0 5.13-1.5 7.37-4.44 7.37-2.85 0-4.25-2.2-4.25-7.2 0-5.21 1.5-7.5 4.47-7.5Zm30.54 16.9v-4.26a13.31 13.31 0 0 1-6.9 2.06c-3.8 0-5.26-1.8-5.47-5.48h12.59v-2.77c0-7.68-3.38-10.57-8.6-10.57-6.36 0-9.39 4.87-9.39 11.54 0 7.67 3.77 11.4 10.44 11.4 3.33 0 5.8-.87 7.33-1.93Zm-8.47-16.9c2.59 0 3.38 2.15 3.38 4.92v.43h-7.28c.13-3.5 1.4-5.35 3.9-5.35Zm-57.2 3.34c0-5.36-2.73-7.37-8.25-7.37-3.43 0-6.19 1.44-7.77 2.59v4.51c1.67-1.36 4.21-2.94 7.15-2.94 2.5 0 3.64.88 3.64 3.25v1.4h-.83c-7.98 0-11.54 2.6-11.54 7.2 0 4.26 2.72 6.71 6.76 6.71 3.07 0 4.39-1 5.4-2.06h.21a7 7 0 0 0 .4 1.76h5.09a55.53 55.53 0 0 1-.27-5.4v-9.65Zm-5.23 9.78c-.65.96-1.88 1.75-3.73 1.75-2.19 0-3.29-1.27-3.29-3.2 0-2.54 1.8-3.42 6.28-3.42h.74v4.87Z" clip-rule="evenodd"/><path fill="#fff" d="M100.29 49.35a5.71 5.71 0 0 1 4.39-2.2c1.84 0 2.67.8 2.67 2.46v15.57h5.22v-16.1c0-4.38-1.75-6.31-6-6.31-3.12 0-4.96 1.14-6.02 2.2h-.26l-.13-1.85h-5.1v22.06h5.23V49.35Zm72.25 15.83h5.88l-7.2-11.36 6.24-10.7h-5.22l-3.78 6.67-4.2-6.67h-5.89l6.67 10.57-6.93 11.5h5.3l4.44-7.46 4.7 7.46Zm74.82.44c3.3 0 5.53-1.18 6.89-2.1v-4.26a10.41 10.41 0 0 1-6.5 2.24c-4.82 0-7.1-3.9-7.1-11.54 0-7.85 2.2-11.58 7.37-11.58 2.41 0 4.65 1.05 6.23 2.06V36.2a11.3 11.3 0 0 0-6.5-1.93c-8.1 0-12.5 5.96-12.5 15.7 0 10 4.57 15.66 12.11 15.66ZM263 34.7h-5.22v30.49H263v-30.5Z"/><path fill="#fff" fill-rule="evenodd" d="M266.49 54.17c0-7.4 3.99-11.49 9.73-11.49 5.75 0 9.74 4.08 9.74 11.45 0 7.41-3.99 11.5-9.74 11.5-5.74 0-9.74-4.09-9.74-11.46Zm5.4 0c0 5.1 1.44 7.33 4.33 7.33s4.35-2.24 4.35-7.37c0-5.09-1.45-7.33-4.35-7.33s-4.34 2.24-4.34 7.37Z" clip-rule="evenodd"/><path fill="#fff" d="M301.53 58.96a5.72 5.72 0 0 1-4.38 2.19c-1.85 0-2.68-.79-2.68-2.46V43.12h-5.22v16.1c0 4.39 1.75 6.32 6 6.32 3.12 0 4.97-1.14 6.02-2.2h.26l.13 1.85h5.1V43.12h-5.23v15.84Z"/><path fill="#fff" fill-rule="evenodd" d="M324.48 62.33a6.77 6.77 0 0 1-5.88 3.3c-4.9 0-8.33-4.04-8.33-11.32 0-7.37 3.5-11.63 8.55-11.63a6.44 6.44 0 0 1 5.53 3.03V34.7h5.22v30.49h-4.82l-.27-2.86Zm-.13-8.2c0-5.09-1.4-7.33-4.21-7.33-2.98 0-4.47 2.29-4.47 7.5 0 5 1.4 7.2 4.25 7.2 2.94 0 4.43-2.24 4.43-7.37Z" clip-rule="evenodd"/><path fill="#fff" d="M561 47.68s8.04.75 9.85 5.59h.01c1.82 4.83-.4 9.35-4.35 11.16-3.95 1.82-7.52 2.12-11.65 2.12-4.14 0-16.6-.3-16.57-10.86h6.05c.08 6.14 10.7 5.5 13.45 5.33l.38-.02c1.7-.09 7.06-.52 7.14-4.19.07-3.45-5.15-3.94-6.5-4.07l-.2-.02-8.77-.99c-1.74-.2-6.08-.81-8.93-3.42-2.85-2.6-1.81-7.32-1.81-7.32a7.8 7.8 0 0 1 3.66-5.02c1.88-1.21 4.33-1.97 7.35-2.3 0 0 4.26-.5 9 0h.02c3.22.35 5.79 1.17 7.72 2.5 2.6 1.77 3.9 4.35 3.9 7.74h-6.02a4.45 4.45 0 0 0-.23-1.43c-.48-1.34-2.04-3.18-6.93-3.48-7.85-.5-10.36.85-10.36.85s-2.2.79-2.25 2.91c-.05 2.13 1.31 3.25 5.71 3.74L561 47.68Zm-158.04-.15 4.18 11.32c1.5 4.07 5.05 3.33 5.05 3.33 0 .05-.35 4.26-4.69 4.26 0 0-.24.02-.64-.05-3.54-.46-4.9-4.6-5.23-5.62l-.05-.15-3.04-8.21-4.2-11.32c-1.5-4.07-5.04-3.34-5.04-3.34 0-.05.35-4.25 4.69-4.25 0 0 .24-.02.64.05 3.54.45 4.9 4.6 5.23 5.62l.05.14 3.04 8.21v.01Zm9.24 14.65V34.22h5.72V55.2c0 5.5-4.24 6.71-5.73 6.97Zm11.44 3.54h28.63v-5.4h-22.9v-7.77h21.17v-5.41h-21.17v-7.51h22.9v-5.41h-28.63v31.5Zm67.73-31.5h5.72v31.5h-5.72v-31.5Zm17.17 20.07V34.22h-5.71v20.87a11.33 11.33 0 0 0 11.35 11.36h2.98c4.02 0 7.54-2.26 9.56-5.42h-11.64a6.75 6.75 0 0 1-6.55-6.74Zm19.95.64c0 2.23-.65 4.34-1.77 6.1h1.2a6.76 6.76 0 0 0 6.28-6.74V34.22h-5.7v20.7ZM383.57 44.74v20.99h5.72V37.76s-5.72.69-5.72 6.99Z"/><path fill="#fff" fill-rule="evenodd" d="M482.37 49.28c4.25-3.33 3.47-9.9.3-12.66-2.8-2.43-7.08-2.42-9.87-2.4h-15.78v31.5h19.09c6.74 0 11.23-3.72 11.23-9.14 0-5.71-4.98-7.3-4.98-7.3Zm-19.62-9.69h10.73c1.57-.03 6.11-.12 6.11 3.78 0 3.15-2.82 3.77-4.33 3.77h-12.51V39.6Zm13 20.76h-13V52.5h13.1c1.41 0 5.44 0 5.44 3.7 0 3.83-3.63 4.14-5.54 4.14Z" clip-rule="evenodd"/><path fill="#fff" d="M647.68 40.33a8.52 8.52 0 0 0-4.3-7.46L625.5 22.56v5.86l15.33 8.84a3.54 3.54 0 0 1 1.77 3.07 3.54 3.54 0 0 1-1.77 3.06l-15.33 8.85v5.86l17.86-10.31a8.53 8.53 0 0 0 4.32-7.46Zm-1.73 16.27 15.32-8.84V41.9L643.4 52.21a8.61 8.61 0 0 0-4.3 7.46 8.61 8.61 0 0 0 4.3 7.46l17.86 10.31v-5.86l-15.32-8.84a3.54 3.54 0 0 1-1.3-4.83 3.55 3.55 0 0 1 1.3-1.3Z"/><path fill="#fff" fill-rule="evenodd" d="M691.47 36.42h-8.67v26.73h8.67c7.41 0 13.7-4.43 13.7-13.36 0-8.94-6.29-13.37-13.7-13.37Zm8.6 13.37c0 6.6-4.4 8.97-9.02 8.97h-3.2V40.78h3.2c4.62 0 9.01 2.4 9.01 9Zm7.11 3.74c0-5.73 4.2-9.93 10.06-9.93 5.85 0 10.06 4.2 10.06 9.93s-4.2 9.93-10.06 9.93c-5.85 0-10.06-4.2-10.06-9.93Zm15.39 0c0-3.48-2.14-5.88-5.3-5.88-3.17 0-5.37 2.4-5.37 5.88s2.14 5.88 5.37 5.88 5.3-2.4 5.3-5.88Z" clip-rule="evenodd"/><path fill="#fff" d="M742.95 63.15h4.7l.01-19.24h-4.7v10.5c0 2.83-1.82 4.88-4.46 4.88-2.42 0-4.02-1.83-4.02-4.46V43.9h-4.7v11.91c0 4.5 2.83 7.64 7.18 7.64 2.75 0 4.93-1.19 6-3.29v2.98Z"/><path fill="#fff" fill-rule="evenodd" d="M756.12 60.73v2.4h-4.66V35.64h4.66v10.57a6.79 6.79 0 0 1 5.65-2.63c5.68 0 9.08 4.02 9.08 9.93s-3.4 9.93-9.16 9.93a6.64 6.64 0 0 1-5.57-2.71Zm10.05-7.22c0-3.55-2.06-5.88-5.2-5.88s-5.19 2.33-5.19 5.88c0 3.54 2.07 5.88 5.2 5.88 3.13 0 5.22-2.3 5.22-5.86l-.03-.02Z" clip-rule="evenodd"/><path fill="#fff" d="M778.37 35.66h-4.64l-.01 27.49h4.65v-27.5Z"/><path fill="#fff" fill-rule="evenodd" d="M800 56.74c-.73 4.08-4.32 6.7-9.05 6.7-6.3 0-9.82-4.96-9.82-10s3.13-9.86 9.44-9.86c6.45 0 9.38 4.7 9.38 9.28 0 .54-.02 1.08-.08 1.61h-14.23c.34 3.1 2.32 5.08 5.3 5.08 2.4 0 3.98-1 4.47-2.82H800Zm-4.78-5.37h-9.47c.5-2.89 2.19-4.26 4.82-4.27a4.4 4.4 0 0 1 4.25 2.57c.25.54.38 1.11.4 1.7Z" clip-rule="evenodd"/><path fill="#fff" d="M815.33 36.11c-6.99 0-13.25 4.59-13.25 13.67 0 9.1 6.15 13.68 13.25 13.68 6.57 0 11.46-3.79 12-9.32h-5.05c-.46 2.91-3.29 4.92-6.95 4.92-4.66 0-8.17-3.2-8.17-9.28s3.51-9.32 8.17-9.32c3.6 0 6.41 2.03 6.8 4.97h5.27c-.73-5.54-5.62-9.32-12.07-9.32Zm15.05-.45h4.7v27.49h-4.7v-27.5Z"/><path fill="#fff" fill-rule="evenodd" d="M847.84 43.6c-5.85 0-10.06 4.2-10.06 9.93s4.2 9.93 10.06 9.93 10.06-4.2 10.06-9.93-4.2-9.93-10.06-9.93Zm.03 4.05c3.16 0 5.3 2.4 5.3 5.88s-2.08 5.88-5.3 5.88-5.37-2.4-5.37-5.88 2.2-5.88 5.37-5.88Z" clip-rule="evenodd"/><path fill="#fff" d="M878.28 63.15h-4.7v-2.98c-1.06 2.1-3.24 3.29-5.99 3.29-4.35 0-7.18-3.13-7.18-7.64V43.91h4.7v10.92c0 2.63 1.6 4.46 4.02 4.46 2.63 0 4.46-2.06 4.46-4.88V43.9h4.7v19.24Z"/><path fill="#fff" fill-rule="evenodd" d="M890.09 43.6c-5.7 0-9.1 4.05-9.1 9.93 0 5.86 3.4 9.93 9.14 9.88a6.65 6.65 0 0 0 5.58-2.68v2.42h4.7v-27.5h-4.67v10.58a6.8 6.8 0 0 0-5.65-2.63Zm.76 4.05c3.13 0 5.2 2.33 5.2 5.88s-2.07 5.88-5.2 5.88c-3.13 0-5.2-2.36-5.2-5.88 0-3.53 2.07-5.88 5.2-5.88Z" clip-rule="evenodd"/><path fill="#fff" d="M968.49 52.09v11.9h-4.76V52.13l-9.32-16.11h5.3l6.67 12.01 6.79-12.01h4.56l-9.24 16.07Zm12.64-16.07h9.44c1.98 0 3.81.22 5.5.66 1.72.44 3.2 1.17 4.45 2.18a10 10 0 0 1 2.97 4.02 15.53 15.53 0 0 1 1.09 6.16c0 2.47-.37 4.65-1.09 6.52a12.57 12.57 0 0 1-7.57 7.49 16.9 16.9 0 0 1-5.74.94h-9.05V36Zm4.72 4.1v19.8h4.49c1.38 0 2.63-.2 3.75-.62a7.45 7.45 0 0 0 2.92-1.9 8.47 8.47 0 0 0 1.91-3.28c.47-1.36.7-2.96.7-4.8 0-1.82-.22-3.32-.66-4.49a6.81 6.81 0 0 0-1.87-2.85 6.3 6.3 0 0 0-2.81-1.44c-1.1-.29-2.28-.43-3.55-.43h-4.88Zm23.21-4.1h9.52c3.32 0 5.86.52 7.6 1.56 1.74 1.04 2.62 2.8 2.62 5.26a7.6 7.6 0 0 1-.43 2.65 5.69 5.69 0 0 1-1.25 1.92c-.52.52-1.16.95-1.91 1.28-.76.34-1.59.6-2.5.78 2.34.29 4.11.93 5.31 1.91 1.19 1 1.79 2.5 1.79 4.53 0 1.46-.29 2.7-.86 3.75a6.98 6.98 0 0 1-2.38 2.5 11.7 11.7 0 0 1-3.59 1.4c-1.37.28-2.87.43-4.48.43h-9.44V36.02Zm4.72 4.1v7.44h5.03c1.56 0 2.82-.32 3.78-.97.97-.68 1.45-1.73 1.45-3.16 0-1.3-.45-2.17-1.33-2.62a7.79 7.79 0 0 0-3.67-.7h-5.26Zm0 11.5v8.3h5.19c.88 0 1.69-.06 2.41-.19a6.14 6.14 0 0 0 1.88-.7c.52-.34.92-.77 1.21-1.29.28-.54.43-1.2.43-1.99 0-1.53-.51-2.6-1.53-3.2-.98-.62-2.58-.93-4.79-.93h-4.8Z"/></svg>