<svg width="326" height="463" fill="none" xmlns="http://www.w3.org/2000/svg"><path fill-rule="evenodd" clip-rule="evenodd" d="M201.229 69.132c0 11.446-9.302 20.747-20.747 20.747-11.446 0-20.748-9.301-20.748-20.747s9.302-20.747 20.748-20.747c11.445 0 20.747 9.302 20.747 20.747zm-3.665 0c0 9.44-7.642 17.082-17.082 17.082-2.471 0-4.316-.927-5.238-2.052-.923-1.125-1.182-2.965-.865-5.623l5.498-1.09c5.024-.921 7.792-3.716 8.783-8.726a88.82 88.82 0 0 1 .39-2.067c.054-.272.107-.538.156-.796.148-.8.29-1.56.421-2.26l.006-.033v-.002c.14-.746.266-1.422.371-1.999.563-3.257.106-5.662-1.159-7.335 5.205 2.926 8.719 8.5 8.719 14.901zM180.482 52.05c-9.441 0-17.082 7.642-17.082 17.082 0 6.401 3.513 11.975 8.719 14.901-1.266-1.673-1.723-4.078-1.16-7.335l.426-2.316.36-1.944c.047-.247.098-.502.149-.763l.006-.03v-.002c.132-.665.27-1.367.391-2.068.957-5.044 3.725-7.839 8.748-8.759l5.545-1.09c.317-2.659.058-4.5-.865-5.624-.922-1.125-2.767-2.052-5.237-2.052zm5.444 11.493-4.169.818c-3.554.681-5.194 2.317-5.878 5.862-.159.792-.297 1.544-.431 2.27l-.115.627-.001.004c-.102.544-.205 1.088-.307 1.598l4.135-.818c3.554-.682 5.228-2.318 5.912-5.862.15-.748.288-1.497.426-2.246v-.002l.001-.002v-.002c.138-.75.277-1.5.427-2.247z" fill="#fff"/><path d="M35.55 84.692v-5.304c0-4-.495-5.17-2.023-8.496L25.525 53.45h-5.664l10.25 22.297v8.945h5.439zM39.101 68.554l6.653-15.104h-5.53l-6.652 15.104h5.53z" fill="#fff"/><path fill-rule="evenodd" clip-rule="evenodd" d="M95.921 85.142c2.518 0 4.585-1.169 6.024-3.372l.27 2.922h4.944V53.45h-5.349v11.283c-1.349-2.023-3.326-3.101-5.664-3.101-5.17 0-8.766 4.36-8.766 11.912 0 7.462 3.507 11.598 8.541 11.598zm1.573-19.285c2.878 0 4.316 2.293 4.316 7.507 0 5.26-1.528 7.552-4.54 7.552-2.922 0-4.36-2.247-4.36-7.372 0-5.35 1.528-7.687 4.585-7.687zM128.782 83.164v-4.36c-1.664 1.123-4.451 2.112-7.058 2.112-3.911 0-5.394-1.843-5.619-5.619h12.901v-2.832c0-7.867-3.461-10.833-8.81-10.833-6.519 0-9.62 4.99-9.62 11.822 0 7.867 3.866 11.688 10.698 11.688 3.417 0 5.934-.9 7.508-1.978zm-8.676-17.307c2.652 0 3.461 2.203 3.461 5.035v.45h-7.462c.135-3.597 1.438-5.485 4.001-5.485zM61.487 69.273c0-5.484-2.787-7.551-8.45-7.551-3.507 0-6.339 1.483-7.957 2.652v4.63c1.708-1.394 4.315-3.012 7.327-3.012 2.562 0 3.731.899 3.731 3.326v1.439h-.854c-8.181 0-11.822 2.652-11.822 7.372 0 4.36 2.786 6.878 6.922 6.878 3.147 0 4.495-1.034 5.53-2.113h.224c.045.585.225 1.349.405 1.798h5.214a56.914 56.914 0 0 1-.27-5.529v-9.89zm-5.349 10.025c-.674.989-1.933 1.798-3.82 1.798-2.248 0-3.372-1.303-3.372-3.282 0-2.607 1.843-3.506 6.428-3.506h.764v4.99z" fill="#fff"/><path d="M71.197 68.464c.99-1.213 2.563-2.247 4.495-2.247 1.889 0 2.743.809 2.743 2.517v15.958h5.349V68.195c0-4.496-1.798-6.473-6.159-6.473-3.191 0-5.08 1.168-6.158 2.247h-.27l-.135-1.888h-5.214v22.611h5.35V68.464zM145.234 84.692h6.024l-7.372-11.642 6.383-10.969h-5.349l-3.866 6.833-4.316-6.833h-6.023l6.832 10.834-7.102 11.777h5.439l4.54-7.642 4.81 7.642zM221.901 85.143c3.371 0 5.664-1.214 7.057-2.158v-4.36c-1.798 1.303-3.776 2.293-6.653 2.293-4.944 0-7.282-4.001-7.282-11.823 0-8.047 2.248-11.868 7.552-11.868 2.472 0 4.765 1.08 6.383 2.113v-4.36c-1.438-1.034-3.776-1.978-6.653-1.978-8.316 0-12.811 6.113-12.811 16.093 0 10.25 4.675 16.048 12.407 16.048zM237.911 53.451h-5.349v31.242h5.349V53.451z" fill="#fff"/><path fill-rule="evenodd" clip-rule="evenodd" d="M241.496 73.41c0-7.597 4.091-11.777 9.98-11.777s9.979 4.18 9.979 11.732c0 7.597-4.09 11.778-9.979 11.778-5.889 0-9.98-4.18-9.98-11.733zm5.529 0c0 5.215 1.484 7.508 4.451 7.508 2.967 0 4.45-2.293 4.45-7.553 0-5.214-1.483-7.507-4.45-7.507s-4.451 2.293-4.451 7.552z" fill="#fff"/><path d="M277.409 78.31c-.989 1.214-2.562 2.248-4.495 2.248-1.888 0-2.742-.81-2.742-2.518V62.082h-5.35V78.58c0 4.495 1.799 6.473 6.159 6.473 3.192 0 5.08-1.169 6.159-2.248h.269l.135 1.888h5.215v-22.61h-5.35V78.31z" fill="#fff"/><path fill-rule="evenodd" clip-rule="evenodd" d="M300.926 81.772c-1.439 2.202-3.507 3.371-6.024 3.371-5.035 0-8.541-4.136-8.541-11.598 0-7.552 3.596-11.912 8.766-11.912 2.337 0 4.315 1.079 5.664 3.101V53.451h5.349v31.242h-4.945l-.269-2.921zm-.135-8.407c0-5.214-1.439-7.507-4.316-7.507-3.056 0-4.585 2.338-4.585 7.687 0 5.125 1.439 7.373 4.361 7.373 3.012 0 4.54-2.293 4.54-7.553z" fill="#fff"/><path d="M246.463 142.818s8.038.683 9.854 5.079h.006c1.816 4.397-.398 8.507-4.351 10.157-3.953 1.649-7.519 1.922-11.654 1.922-4.134 0-16.602-.273-16.567-9.873h6.053c.075 5.582 10.702 4.998 13.454 4.847.149-.008.275-.015.375-.019 1.701-.081 7.06-.469 7.14-3.809.074-3.134-5.153-3.583-6.496-3.698a6.701 6.701 0 0 1-.212-.019c-.846-.087-7.029-.723-8.765-.903-1.737-.179-6.072-.741-8.922-3.111-2.85-2.371-1.816-6.652-1.816-6.652.439-1.872 1.657-3.398 3.664-4.57 1.88-1.1 4.332-1.792 7.347-2.087 0 0 4.259-.457 8.991 0a.12.12 0 0 0 .032.003c3.213.31 5.786 1.059 7.713 2.258 2.595 1.618 3.896 3.968 3.896 7.05h-6.008a3.72 3.72 0 0 0-.235-1.305c-.484-1.218-2.039-2.886-6.927-3.166-7.85-.452-10.359.778-10.359.778s-2.211.715-2.255 2.649c-.045 1.933 1.313 2.949 5.715 3.398l10.327 1.071zM88.418 142.685l4.189 10.292c1.504 3.696 5.05 3.03 5.05 3.03-.004.046-.353 3.87-4.691 3.87 0 0-.245.02-.64-.043-3.543-.416-4.904-4.19-5.236-5.112l-.05-.133-3.04-7.474-4.189-10.292c-1.504-3.696-5.05-3.03-5.05-3.03.004-.047.353-3.87 4.69-3.87 0 0 .246-.02.64.043 3.544.415 4.905 4.19 5.237 5.111l.05.134 3.035 7.461.005.013z" fill="#fff"/><path d="M97.654 156.007v-25.433h5.725v19.092c0 4.995-4.24 6.104-5.725 6.341zM109.103 159.226h28.625v-4.921h-22.9v-7.062h21.177v-4.921h-21.177v-6.827h22.9v-4.921h-28.625v28.652zM176.831 130.574h5.725v28.652h-5.725v-28.652zM194 148.826v-18.252h-5.709v18.979c0 2.046.661 3.945 1.787 5.551 2.016 2.871 5.54 4.779 9.564 4.779h2.977c4.023 0 7.547-2.052 9.564-4.924h-11.644c-3.629-.095-6.543-2.804-6.543-6.133H194zM213.955 149.408c0 2.035-.655 3.951-1.771 5.551h1.193c3.508-.214 6.284-2.885 6.284-6.133v-18.252h-5.706v18.834zM69.033 140.149v19.08h5.725v-25.433s-5.725.625-5.725 6.353z" fill="#fff"/><path fill-rule="evenodd" clip-rule="evenodd" d="M167.828 144.276c4.252-3.027 3.476-9.004.308-11.514-2.794-2.216-7.078-2.201-9.869-2.192l-.509.001h-15.276v28.655h19.09c6.745 0 11.23-3.389 11.23-8.316 0-5.192-4.978-6.634-4.978-6.634h.004zm-19.618-8.81h10.432c.081 0 .181-.002.297-.004 1.572-.028 6.115-.108 6.115 3.434 0 2.868-2.824 3.429-4.335 3.429H148.21v-6.859zm13.005 18.874-13.008-.006v-7.12H161.31c1.417-.003 5.443-.012 5.443 3.366 0 3.474-3.626 3.76-5.538 3.76z" fill="#fff"/><path d="M35.116 219.695a9.456 9.456 0 0 0-4.776-8.278l-19.822-11.44v6.501l17.003 9.811a3.924 3.924 0 0 1 1.435 5.361 3.932 3.932 0 0 1-1.435 1.437l-17.003 9.819v6.501l19.808-11.44a9.456 9.456 0 0 0 4.79-8.272zM33.197 237.749l16.996-9.811v-6.501l-19.808 11.44a9.551 9.551 0 0 0-4.775 8.275 9.553 9.553 0 0 0 4.775 8.275l19.808 11.44v-6.501l-16.996-9.811a3.937 3.937 0 0 1 0-6.799v-.007z" fill="#fff"/><path fill-rule="evenodd" clip-rule="evenodd" d="M83.7 215.359h-9.618v29.649H83.7c8.22 0 15.204-4.91 15.204-14.825s-6.985-14.824-15.204-14.824zm9.528 14.824c0 7.327-4.872 9.953-9.997 9.953h-3.54v-19.95h3.54c5.125 0 9.997 2.671 9.997 9.997zM101.127 234.335c0-6.352 4.664-11.016 11.157-11.016 6.494 0 11.158 4.664 11.158 11.016s-4.664 11.016-11.158 11.016c-6.493 0-11.157-4.664-11.157-11.016zm17.071 0c0-3.853-2.373-6.523-5.884-6.523s-5.95 2.67-5.95 6.523c0 3.853 2.372 6.523 5.95 6.523 3.578 0 5.884-2.67 5.884-6.523z" fill="#fff"/><path d="M140.813 245.007h5.206l.015-21.347h-5.207v11.648c0 3.139-2.03 5.422-4.953 5.422-2.686 0-4.463-2.03-4.463-4.954V223.66h-5.207v13.217c0 4.999 3.131 8.472 7.959 8.472 3.049 0 5.467-1.316 6.65-3.644v3.302z" fill="#fff"/><path fill-rule="evenodd" clip-rule="evenodd" d="M155.414 242.324v2.663h-5.17V214.49h5.17v11.73a7.53 7.53 0 0 1 6.27-2.923c6.308 0 10.079 4.463 10.079 11.016s-3.771 11.016-10.168 11.016a7.355 7.355 0 0 1-6.181-3.005zm11.157-8.011c0-3.935-2.291-6.523-5.765-6.523-3.473 0-5.764 2.588-5.764 6.523 0 3.935 2.291 6.524 5.764 6.524 3.474 0 5.795-2.559 5.795-6.501l-.03-.023z" fill="#fff"/><path d="M180.105 214.51h-5.154l-.008 30.497h5.162V214.51z" fill="#fff"/><path fill-rule="evenodd" clip-rule="evenodd" d="M204.089 237.896c-.803 4.53-4.783 7.439-10.034 7.439-6.992 0-10.89-5.505-10.89-11.098 0-5.594 3.474-10.934 10.466-10.934 7.156 0 10.414 5.206 10.414 10.294 0 .596-.03 1.192-.09 1.785h-15.791c.379 3.429 2.581 5.631 5.891 5.631 2.663 0 4.403-1.101 4.954-3.132l5.08.015zm-5.296-5.95h-10.5c.554-3.211 2.419-4.731 5.338-4.746a4.884 4.884 0 0 1 3.582 1.284 4.882 4.882 0 0 1 1.58 3.462z" fill="#fff"/><path d="M221.1 215.016c-7.75 0-14.698 5.087-14.698 15.166 0 10.086 6.821 15.167 14.698 15.167 7.29 0 12.712-4.196 13.307-10.34h-5.593c-.506 3.236-3.645 5.468-7.714 5.468-5.162 0-9.06-3.563-9.06-10.295 0-6.732 3.898-10.339 9.06-10.339 3.987 0 7.119 2.246 7.543 5.512h5.846c-.803-6.144-6.226-10.339-13.389-10.339zM237.801 214.51h5.206v30.497h-5.206V214.51z" fill="#fff"/><path fill-rule="evenodd" clip-rule="evenodd" d="M257.17 223.319c-6.494 0-11.157 4.664-11.157 11.016s4.656 11.016 11.157 11.016 11.157-4.664 11.157-11.016-4.663-11.016-11.157-11.016zm.03 4.493c3.511 0 5.883 2.67 5.883 6.523 0 3.853-2.305 6.523-5.883 6.523s-5.951-2.67-5.951-6.523c0-3.853 2.44-6.523 5.951-6.523z" fill="#fff"/><path d="M290.939 245.007h-5.207v-3.302c-1.183 2.328-3.6 3.644-6.65 3.644-4.827 0-7.966-3.473-7.966-8.472V223.66h5.207v12.116c0 2.924 1.777 4.954 4.462 4.954 2.924 0 4.954-2.283 4.954-5.422V223.66h5.207l-.007 21.347z" fill="#fff"/><path fill-rule="evenodd" clip-rule="evenodd" d="M304.036 223.317c-6.315 0-10.086 4.493-10.086 11.016 0 6.501 3.771 11.016 10.138 10.964a7.378 7.378 0 0 0 6.188-2.975v2.685h5.207V214.51h-5.177v11.73a7.536 7.536 0 0 0-6.27-2.923zm.848 4.493c3.473 0 5.757 2.588 5.757 6.523 0 3.943-2.284 6.524-5.757 6.524-3.474 0-5.765-2.611-5.765-6.524 0-3.912 2.291-6.523 5.765-6.523z" fill="#fff"/><path d="M136.847 318.661v13.174h-5.27v-13.131l-10.323-17.839h5.874l7.386 13.304 7.516-13.304h5.054l-10.237 17.796zM150.849 300.865h10.453c2.188 0 4.218.245 6.09.735 1.901.489 3.542 1.295 4.924 2.418 1.411 1.123 2.505 2.606 3.283 4.449.806 1.843 1.209 4.118 1.209 6.825 0 2.736-.403 5.14-1.209 7.213-.778 2.045-1.886 3.758-3.326 5.14-1.411 1.383-3.096 2.434-5.054 3.154-1.929.691-4.046 1.036-6.349 1.036h-10.021v-30.97zm5.226 4.536v21.942h4.968c1.526 0 2.908-.23 4.146-.691a8.237 8.237 0 0 0 3.24-2.117c.921-.95 1.627-2.159 2.116-3.628.519-1.497.778-3.268.778-5.313 0-2.015-.245-3.671-.735-4.967-.489-1.325-1.18-2.376-2.073-3.153-.864-.778-1.9-1.31-3.11-1.598-1.209-.317-2.52-.475-3.931-.475h-5.399zM181.768 300.865h10.539c3.686 0 6.494.576 8.423 1.728 1.929 1.152 2.894 3.096 2.894 5.831 0 1.123-.158 2.102-.475 2.937a6.14 6.14 0 0 1-1.382 2.117c-.576.576-1.282 1.051-2.117 1.425-.835.375-1.756.663-2.764.864 2.591.317 4.549 1.022 5.874 2.117 1.325 1.094 1.987 2.764 1.987 5.01 0 1.613-.317 2.995-.95 4.147a7.81 7.81 0 0 1-2.635 2.764c-1.123.691-2.448 1.21-3.974 1.555-1.526.317-3.182.475-4.967.475h-10.453v-30.97zm5.226 4.536v8.25h5.572c1.728 0 3.125-.36 4.19-1.08 1.066-.749 1.598-1.915 1.598-3.499 0-1.44-.489-2.404-1.468-2.894-.951-.518-2.304-.777-4.061-.777h-5.831zm0 12.742v9.2h5.745c.979 0 1.872-.072 2.678-.216.806-.173 1.497-.432 2.073-.777a3.96 3.96 0 0 0 1.339-1.426c.317-.604.476-1.339.476-2.203 0-1.699-.562-2.879-1.685-3.542-1.094-.691-2.865-1.036-5.313-1.036h-5.313zM142.757 382.163h-5.629l-7.305 13.32-7.347-13.32h-5.629l10.484 18.133v11.945h4.942v-11.945l10.484-18.133zm16.77 0h-21.914v4.726h8.508v25.352h4.941v-25.352h8.465v-4.726zm2.795 14.523c0-1.546 1.461-2.277 3.137-2.277 1.762 0 3.265.774 4.039 2.449l3.91-2.191c-1.504-2.836-4.426-4.469-7.949-4.469-4.383 0-7.864 2.535-7.864 6.574 0 7.692 11.559 5.543 11.559 9.368 0 1.719-1.59 2.406-3.652 2.406-2.364 0-4.082-1.16-4.77-3.094l-3.996 2.32c1.375 3.094 4.469 5.028 8.766 5.028 4.64 0 8.379-2.32 8.379-6.617 0-7.95-11.559-5.586-11.559-9.497zm31.58-5.929v3.05c-1.633-2.234-4.168-3.609-7.52-3.609-5.844 0-10.699 4.899-10.699 11.301 0 6.36 4.855 11.301 10.699 11.301 3.352 0 5.887-1.375 7.52-3.652v3.093h4.64v-21.484h-4.64zm-6.789 17.617c-3.868 0-6.789-2.879-6.789-6.875s2.921-6.875 6.789-6.875c3.867 0 6.789 2.879 6.789 6.875s-2.922 6.875-6.789 6.875zm29.6-17.617v11.515c0 4.383-2.405 6.188-5.456 6.188-2.923 0-4.813-1.719-4.813-4.984v-12.719h-4.641v13.191c0 5.586 3.438 8.852 8.251 8.852 2.922 0 5.242-1.074 6.659-3.309v2.75h4.642v-21.484h-4.642zm12.99 3.609v-3.609h-4.641v21.484h4.641v-10.828c0-4.813 3.566-6.23 6.617-6.016v-5.027c-2.707 0-5.328 1.074-6.617 3.996zm23.882-3.609v11.515c0 4.383-2.406 6.188-5.457 6.188-2.921 0-4.812-1.719-4.812-4.984v-12.719h-4.641v13.191c0 5.586 3.438 8.852 8.25 8.852 2.922 0 5.243-1.074 6.66-3.309v2.75h4.641v-21.484h-4.641zm12.732 5.929c0-1.546 1.461-2.277 3.137-2.277 1.762 0 3.265.774 4.038 2.449l3.911-2.191c-1.504-2.836-4.426-4.469-7.949-4.469-4.383 0-7.864 2.535-7.864 6.574 0 7.692 11.558 5.543 11.558 9.368 0 1.719-1.589 2.406-3.651 2.406-2.364 0-4.083-1.16-4.77-3.094l-3.996 2.32c1.375 3.094 4.468 5.028 8.766 5.028 4.64 0 8.378-2.32 8.378-6.617 0-7.95-11.558-5.586-11.558-9.497z" fill="#fff"/><path fill-rule="evenodd" clip-rule="evenodd" d="M67.245 382.198c5.036-7.077 13.06-11.029 16.864-10.269 2.44.487.962 3.128-.801 6.116-.46.78-.91 1.499-1.316 2.145-1.147 1.831-1.93 3.08-1.53 3.484 6.323-6.079 10.388-6.756 13.776-6.756 3.355 0 1.777 2.417.052 5.06l-.052.079c-.25.383-.508.762-.757 1.128-.97 1.424-1.795 2.636-1.425 3.04 3.646-2.595 7.42-3.222 9.194-2.855 1.774.367 2.295 1.136-.153 4.92l-2.34 3.511.108.173c.83 1.334 2.096 3.369 2.096 6.611 0 6.506-4.97 12.974-7.752 15.866a1.271 1.271 0 0 1-.922.385h-5.168c-.39 0-.69-.337-.679-.727.222-6.931-7.138-6.646-12.045.433a.678.678 0 0 1-.552.294h-4.86c-.35 0-.688-.137-.92-.398-1.89-2.119-3.615-5.706-4.05-7.251-2.077 3.207-7.77 4.971-11.838 2.227-4.83-3.259-4.8-8.803-2.71-12.188l4.244 2.412c-.624 2.46.301 4.154 2.078 4.154 2.565 0 3.572-3.11 5.012-7.556 1.303-4.022 2.96-9.139 6.446-14.038zm3.11 17.665c1.415-3.197 1.415-6.297 0-6.923-1.415-.625-3.71 1.46-5.126 4.657a13.494 13.494 0 0 0-.794 2.336h5.889l.03-.07zm10.429-6.923c1.415.626 1.415 3.726 0 6.923l-.032.07h-5.889c.177-.748.442-1.539.795-2.336 1.415-3.197 3.71-5.282 5.126-4.657z" fill="#fff"/></svg>