<svg xmlns="http://www.w3.org/2000/svg" width="1080" height="100" fill="none"><path fill="#fff" fill-rule="evenodd" d="M227.188 50c0 11.17-9.077 20.247-20.247 20.247s-20.248-9.078-20.248-20.248c0-11.17 9.078-20.247 20.248-20.247 11.17 0 20.247 9.078 20.247 20.247Zm-3.577 0c0 9.212-7.458 16.67-16.67 16.67-2.411 0-4.211-.905-5.112-2.003-.9-1.097-1.153-2.894-.843-5.488l5.365-1.064c4.902-.898 7.604-3.626 8.571-8.515.118-.684.253-1.369.381-2.017.053-.266.104-.526.152-.777.144-.78.283-1.523.41-2.205l.007-.033v-.001c.136-.729.259-1.388.362-1.952.549-3.178.103-5.525-1.132-7.158 5.08 2.856 8.509 8.295 8.509 14.542Zm-16.67-16.671c-9.213 0-16.671 7.458-16.671 16.67 0 6.247 3.429 11.687 8.509 14.542-1.234-1.632-1.681-3.98-1.132-7.158.118-.647.259-1.41.417-2.26l.35-1.897.146-.745.006-.029v-.003c.129-.648.264-1.333.382-2.017.934-4.923 3.635-7.65 8.537-8.548l5.411-1.065c.31-2.594.057-4.39-.844-5.488-.9-1.097-2.701-2.002-5.111-2.002Zm5.313 11.216-4.069.798c-3.468.665-5.069 2.262-5.736 5.72a134.8 134.8 0 0 0-.42 2.216l-.113.612-.001.004c-.1.53-.199 1.061-.299 1.559l4.035-.798c3.468-.665 5.102-2.262 5.769-5.721.147-.73.281-1.46.416-2.191l.001-.002v-.004c.135-.732.27-1.463.417-2.193Z" clip-rule="evenodd"/><path fill="#fff" d="M65.502 65.184v-5.176c0-3.905-.483-5.045-1.974-8.291l-7.81-17.022h-5.527l10.003 21.76v8.73h5.308ZM68.968 49.435l6.492-14.74h-5.396l-6.492 14.74h5.395Z"/><path fill="#fff" fill-rule="evenodd" d="M124.418 65.623c2.457 0 4.475-1.14 5.879-3.29l.263 2.852h4.826v-30.49h-5.221v11.011c-1.316-1.974-3.246-3.027-5.527-3.027-5.045 0-8.555 4.256-8.555 11.626 0 7.282 3.422 11.318 8.335 11.318Zm1.536-18.82c2.807 0 4.211 2.238 4.211 7.326 0 5.133-1.491 7.37-4.431 7.37-2.851 0-4.255-2.193-4.255-7.194 0-5.22 1.492-7.502 4.475-7.502ZM156.487 63.693v-4.255c-1.623 1.096-4.343 2.061-6.888 2.061-3.816 0-5.264-1.798-5.483-5.483h12.59v-2.764c0-7.677-3.378-10.573-8.598-10.573-6.361 0-9.388 4.87-9.388 11.538 0 7.677 3.772 11.406 10.441 11.406 3.334 0 5.79-.877 7.326-1.93Zm-8.467-16.89c2.588 0 3.378 2.15 3.378 4.914v.438h-7.282c.131-3.51 1.403-5.352 3.904-5.352ZM90.814 50.137c0-5.352-2.72-7.37-8.247-7.37-3.422 0-6.186 1.448-7.765 2.589v4.518c1.667-1.36 4.211-2.94 7.15-2.94 2.501 0 3.642.878 3.642 3.247v1.404h-.834c-7.984 0-11.537 2.588-11.537 7.195 0 4.255 2.72 6.712 6.756 6.712 3.07 0 4.387-1.01 5.396-2.062h.219c.044.57.22 1.316.395 1.755h5.089a55.532 55.532 0 0 1-.264-5.396v-9.652Zm-5.22 9.783c-.658.965-1.886 1.755-3.729 1.755-2.193 0-3.29-1.272-3.29-3.203 0-2.544 1.799-3.421 6.273-3.421h.746v4.87Z" clip-rule="evenodd"/><path fill="#fff" d="M100.29 49.348c.965-1.185 2.501-2.194 4.387-2.194 1.843 0 2.676.79 2.676 2.457v15.574h5.221v-16.1c0-4.388-1.755-6.318-6.011-6.318-3.114 0-4.957 1.14-6.01 2.194h-.263l-.131-1.843h-5.09v22.066h5.221V49.349ZM172.543 65.184h5.878l-7.194-11.362 6.229-10.704h-5.22l-3.773 6.668-4.211-6.668h-5.879l6.668 10.573-6.931 11.493h5.308l4.431-7.457 4.694 7.458ZM247.362 65.624c3.29 0 5.527-1.184 6.887-2.105v-4.256c-1.754 1.273-3.685 2.238-6.492 2.238-4.826 0-7.107-3.905-7.107-11.538 0-7.853 2.193-11.581 7.37-11.581 2.413 0 4.65 1.052 6.229 2.061v-4.255c-1.403-1.009-3.685-1.93-6.492-1.93-8.116 0-12.503 5.966-12.503 15.705 0 10.002 4.562 15.661 12.108 15.661ZM262.987 34.697h-5.221v30.489h5.221v-30.49Z"/><path fill="#fff" fill-rule="evenodd" d="M266.485 54.175c0-7.414 3.992-11.494 9.739-11.494 5.747 0 9.739 4.08 9.739 11.45 0 7.413-3.992 11.493-9.739 11.493-5.747 0-9.739-4.08-9.739-11.45Zm5.396 0c0 5.088 1.448 7.326 4.343 7.326s4.343-2.238 4.343-7.37c0-5.09-1.448-7.327-4.343-7.327s-4.343 2.238-4.343 7.37Z" clip-rule="evenodd"/><path fill="#fff" d="M301.533 58.956c-.966 1.185-2.501 2.194-4.387 2.194-1.843 0-2.676-.79-2.676-2.457V43.119h-5.221v16.1c0 4.387 1.755 6.318 6.01 6.318 3.115 0 4.957-1.141 6.01-2.194h.264l.131 1.843h5.089V43.119h-5.22v15.837Z"/><path fill="#fff" fill-rule="evenodd" d="M324.482 62.334c-1.403 2.15-3.421 3.29-5.878 3.29-4.913 0-8.335-4.036-8.335-11.318 0-7.37 3.509-11.625 8.554-11.625 2.281 0 4.212 1.053 5.528 3.027V34.697h5.22v30.489h-4.825l-.264-2.852Zm-.131-8.203c0-5.09-1.404-7.327-4.212-7.327-2.983 0-4.474 2.282-4.474 7.502 0 5.001 1.403 7.195 4.255 7.195 2.939 0 4.431-2.238 4.431-7.37Z" clip-rule="evenodd"/><path fill="#fff" d="M561 47.68s8.038.75 9.854 5.586h.006c1.816 4.834-.398 9.354-4.351 11.168-3.953 1.815-7.519 2.114-11.653 2.114-4.135 0-16.603-.3-16.568-10.857h6.053c.075 6.139 10.702 5.497 13.454 5.33l.375-.021c1.701-.09 7.06-.516 7.14-4.189.075-3.446-5.153-3.939-6.496-4.066l-.212-.02c-.846-.096-7.029-.796-8.765-.994-1.737-.197-6.072-.815-8.922-3.421-2.85-2.607-1.816-7.315-1.816-7.315.439-2.059 1.657-3.736 3.664-5.025 1.88-1.21 4.332-1.97 7.347-2.295 0 0 4.259-.503 8.992 0 .009.003.022.003.031.003 3.213.34 5.786 1.165 7.713 2.483 2.596 1.779 3.896 4.363 3.896 7.753h-6.008a4.454 4.454 0 0 0-.235-1.435c-.483-1.34-2.039-3.174-6.927-3.483-7.85-.496-10.359.857-10.359.857s-2.211.786-2.255 2.912c-.045 2.126 1.313 3.243 5.715 3.737L561 47.679ZM402.956 47.533l4.188 11.318c1.504 4.065 5.05 3.333 5.05 3.333-.004.05-.353 4.255-4.691 4.255 0 0-.245.023-.639-.047-3.544-.457-4.905-4.608-5.237-5.62l-.049-.148-3.041-8.218-4.189-11.319c-1.504-4.064-5.05-3.332-5.05-3.332.004-.05.353-4.256 4.691-4.256 0 0 .245-.022.639.048 3.544.457 4.905 4.608 5.237 5.62l.049.148 3.037 8.205.005.013Z"/><path fill="#fff" d="M412.191 62.184V34.216h5.725V55.21c0 5.494-4.239 6.713-5.725 6.974ZM423.641 65.723h28.625v-5.41h-22.9v-7.767h21.176v-5.411h-21.176v-7.508h22.9v-5.411h-28.625v31.507ZM491.368 34.216h5.725v31.507h-5.725V34.216ZM508.537 54.287V34.216h-5.709v20.87c0 2.25.661 4.338 1.787 6.105 2.017 3.157 5.541 5.255 9.564 5.255h2.977c4.023 0 7.547-2.257 9.564-5.414h-11.644a6.745 6.745 0 0 1-6.542-6.745h.003ZM528.493 54.927c0 2.237-.656 4.345-1.772 6.105h1.193c3.508-.236 6.284-3.174 6.284-6.745V34.216h-5.705v20.71ZM383.57 44.745v20.982h5.725V37.758s-5.725.688-5.725 6.987Z"/><path fill="#fff" fill-rule="evenodd" d="M482.365 49.284c4.252-3.33 3.476-9.902.308-12.662-2.794-2.437-7.078-2.421-9.869-2.41h-15.785v31.511h19.09c6.746 0 11.23-3.727 11.23-9.144 0-5.71-4.977-7.295-4.977-7.295h.003Zm-19.618-9.69h10.432l.297-.003c1.573-.03 6.115-.12 6.115 3.776 0 3.154-2.824 3.771-4.335 3.771h-12.509v-7.543Zm13.005 20.757c-1.911 0-13.008-.007-13.008-.007v-7.83H475.847c1.418-.003 5.443-.013 5.443 3.702 0 3.82-3.626 4.135-5.538 4.135Z" clip-rule="evenodd"/><path fill="#fff" d="M647.677 40.331a8.52 8.52 0 0 0-4.304-7.462l-17.869-10.312v5.86l15.327 8.844a3.535 3.535 0 0 1 1.767 3.064 3.541 3.541 0 0 1-1.767 3.064l-15.327 8.85v5.86l17.855-10.312a8.525 8.525 0 0 0 4.318-7.456ZM645.947 56.605l15.321-8.844v-5.86l-17.855 10.312a8.61 8.61 0 0 0-4.304 7.46 8.61 8.61 0 0 0 4.304 7.459l17.855 10.312v-5.86l-15.321-8.844a3.545 3.545 0 0 1-1.289-4.831 3.546 3.546 0 0 1 1.289-1.297v-.007Z"/><path fill="#fff" fill-rule="evenodd" d="M691.472 36.423h-8.67v26.725h8.67c7.409 0 13.705-4.425 13.705-13.362 0-8.938-6.296-13.363-13.705-13.363Zm8.589 13.363c0 6.604-4.392 8.97-9.012 8.97h-3.191V40.775h3.191c4.62 0 9.012 2.407 9.012 9.012ZM707.181 53.528c0-5.726 4.204-9.93 10.057-9.93 5.854 0 10.058 4.204 10.058 9.93s-4.204 9.93-10.058 9.93c-5.853 0-10.057-4.204-10.057-9.93Zm15.388 0c0-3.473-2.139-5.88-5.304-5.88-3.165 0-5.364 2.407-5.364 5.88s2.139 5.88 5.364 5.88 5.304-2.407 5.304-5.88Z" clip-rule="evenodd"/><path fill="#fff" d="M742.954 63.148h4.694l.013-19.243h-4.693v10.5c0 2.83-1.831 4.888-4.466 4.888-2.42 0-4.023-1.83-4.023-4.466V43.905h-4.693V55.82c0 4.505 2.822 7.636 7.174 7.636 2.749 0 4.928-1.186 5.994-3.285v2.977Z"/><path fill="#fff" fill-rule="evenodd" d="M756.116 60.73v2.4h-4.66V35.64h4.66v10.573a6.79 6.79 0 0 1 5.652-2.635c5.686 0 9.085 4.023 9.085 9.93s-3.399 9.93-9.165 9.93a6.639 6.639 0 0 1-5.572-2.709Zm10.057-7.222c0-3.547-2.065-5.88-5.196-5.88s-5.197 2.333-5.197 5.88c0 3.547 2.066 5.88 5.197 5.88 3.131 0 5.223-2.306 5.223-5.86l-.027-.02Z" clip-rule="evenodd"/><path fill="#fff" d="M778.373 35.658h-4.646l-.007 27.49h4.653v-27.49Z"/><path fill="#fff" fill-rule="evenodd" d="M799.993 56.738c-.724 4.084-4.311 6.705-9.045 6.705-6.303 0-9.816-4.962-9.816-10.004s3.131-9.856 9.434-9.856c6.45 0 9.387 4.694 9.387 9.28 0 .537-.027 1.074-.081 1.609h-14.234c.342 3.091 2.326 5.076 5.31 5.076 2.4 0 3.969-.993 4.465-2.823l4.58.013Zm-4.774-5.364h-9.465c.499-2.894 2.181-4.264 4.812-4.278a4.408 4.408 0 0 1 4.257 2.574c.244.536.379 1.115.396 1.704Z" clip-rule="evenodd"/><path fill="#fff" d="M815.327 36.113c-6.987 0-13.249 4.586-13.249 13.671 0 9.092 6.148 13.672 13.249 13.672 6.571 0 11.459-3.782 11.995-9.32h-5.042c-.456 2.917-3.286 4.928-6.953 4.928-4.653 0-8.167-3.212-8.167-9.28s3.514-9.32 8.167-9.32c3.594 0 6.416 2.025 6.799 4.969h5.27c-.724-5.538-5.612-9.32-12.069-9.32ZM830.381 35.658h4.693v27.49h-4.693v-27.49Z"/><path fill="#fff" fill-rule="evenodd" d="M847.841 43.598c-5.854 0-10.058 4.204-10.058 9.93s4.198 9.93 10.058 9.93c5.86 0 10.057-4.204 10.057-9.93s-4.204-9.93-10.057-9.93Zm.027 4.05c3.164 0 5.303 2.407 5.303 5.88s-2.078 5.88-5.303 5.88-5.364-2.407-5.364-5.88 2.199-5.88 5.364-5.88Z" clip-rule="evenodd"/><path fill="#fff" d="M878.281 63.148h-4.694v-2.977c-1.066 2.099-3.245 3.285-5.994 3.285-4.352 0-7.181-3.13-7.181-7.636V43.905h4.693v10.922c0 2.635 1.603 4.466 4.023 4.466 2.635 0 4.466-2.059 4.466-4.888v-10.5h4.693l-.006 19.243Z"/><path fill="#fff" fill-rule="evenodd" d="M890.087 43.596c-5.693 0-9.092 4.05-9.092 9.93 0 5.86 3.399 9.93 9.138 9.883a6.653 6.653 0 0 0 5.579-2.681v2.42h4.693v-27.49h-4.666V46.23a6.795 6.795 0 0 0-5.652-2.635Zm.764 4.05c3.131 0 5.19 2.334 5.19 5.88 0 3.554-2.059 5.88-5.19 5.88-3.131 0-5.196-2.353-5.196-5.88 0-3.526 2.065-5.88 5.196-5.88Z" clip-rule="evenodd"/><path fill="#fff" d="M968.489 52.087v11.898h-4.76V52.126l-9.323-16.11h5.305l6.671 12.014 6.788-12.014h4.564l-9.245 16.071ZM981.134 36.016h9.44c1.977 0 3.81.22 5.5.663 1.717.442 3.199 1.17 4.446 2.184 1.28 1.014 2.26 2.354 2.97 4.018.72 1.665 1.09 3.72 1.09 6.164 0 2.47-.37 4.642-1.09 6.514-.71 1.847-1.71 3.394-3.01 4.642-1.272 1.249-2.793 2.198-4.562 2.848-1.742.624-3.654.936-5.734.936h-9.05v-27.97Zm4.72 4.096v19.816h4.486c1.378 0 2.627-.208 3.745-.624a7.447 7.447 0 0 0 2.926-1.911c.832-.859 1.469-1.95 1.911-3.277.468-1.352.702-2.952.702-4.798 0-1.82-.221-3.316-.663-4.486-.442-1.197-1.066-2.146-1.872-2.848-.781-.702-1.717-1.183-2.809-1.443-1.092-.286-2.276-.43-3.55-.43h-4.876ZM1009.06 36.016h9.52c3.32 0 5.86.52 7.6 1.56 1.74 1.04 2.62 2.796 2.62 5.266 0 1.014-.15 1.899-.43 2.653a5.687 5.687 0 0 1-1.25 1.911c-.52.52-1.16.95-1.91 1.288-.76.338-1.59.598-2.5.78 2.34.286 4.11.923 5.31 1.911 1.19.988 1.79 2.497 1.79 4.525 0 1.457-.29 2.705-.86 3.745a6.98 6.98 0 0 1-2.38 2.497c-1.01.624-2.21 1.092-3.59 1.404-1.37.286-2.87.43-4.48.43h-9.44v-27.97Zm4.72 4.096v7.45h5.03c1.56 0 2.82-.325 3.78-.975.97-.676 1.45-1.73 1.45-3.16 0-1.3-.45-2.171-1.33-2.613-.86-.468-2.08-.702-3.67-.702h-5.26Zm0 11.507v8.31h5.19c.88 0 1.69-.066 2.41-.196.73-.156 1.36-.39 1.88-.702.52-.338.92-.767 1.21-1.287.28-.546.43-1.21.43-1.99 0-1.534-.51-2.6-1.53-3.198-.98-.625-2.58-.937-4.79-.937h-4.8Z"/></svg>