<svg width="326" height="631" viewBox="0 0 326 631" fill="none" xmlns="http://www.w3.org/2000/svg">
<path fill-rule="evenodd" clip-rule="evenodd" d="M194.087 64.8716C194.087 74.1791 186.522 81.7433 177.215 81.7433C167.907 81.7433 160.343 74.1791 160.343 64.8716C160.343 55.5641 167.907 48 177.215 48C186.522 48 194.087 55.5641 194.087 64.8716ZM191.106 64.8716C191.106 72.5482 184.891 78.7626 177.215 78.7626C175.206 78.7626 173.706 78.0086 172.956 77.094C172.205 76.1794 171.994 74.6828 172.253 72.521L176.724 71.6341C180.808 70.8858 183.059 68.6132 183.865 64.539C183.964 63.9687 184.076 63.3984 184.183 62.8578C184.227 62.6366 184.269 62.4203 184.31 62.211C184.43 61.5605 184.545 60.9418 184.652 60.3732L184.657 60.346L184.657 60.3448C184.77 59.7376 184.873 59.1881 184.959 58.7189C185.416 56.0702 185.044 54.1147 184.016 52.7542C188.249 55.1333 191.106 59.6663 191.106 64.8716ZM177.215 50.9807C169.538 50.9807 163.324 57.195 163.324 64.8716C163.324 70.0769 166.181 74.6099 170.414 76.989C169.385 75.6286 169.014 73.6731 169.471 71.0244C169.569 70.4853 169.687 69.8499 169.818 69.141C169.909 68.6471 170.007 68.1176 170.11 67.56C170.149 67.3589 170.19 67.1514 170.232 66.9392L170.236 66.9154L170.237 66.9132C170.344 66.3726 170.456 65.8022 170.555 65.2319C171.333 61.1301 173.584 58.8575 177.668 58.1092L182.177 57.2223C182.435 55.0605 182.224 53.5639 181.474 52.6493C180.724 51.7347 179.224 50.9807 177.215 50.9807ZM181.642 60.3264L178.252 60.9915C175.362 61.5458 174.028 62.8761 173.472 65.7585C173.343 66.4029 173.231 67.014 173.122 67.6047L173.028 68.1143L173.027 68.1177C172.944 68.56 172.861 69.0022 172.778 69.4169L176.14 68.7517C179.03 68.1974 180.392 66.8671 180.948 63.9847C181.069 63.3771 181.182 62.768 181.294 62.1588L181.295 62.1573L181.295 62.1557L181.295 62.1548L181.295 62.154C181.408 61.5443 181.52 60.9346 181.642 60.3264Z" fill="white"/>
<path d="M59.3574 77.525V73.2115C59.3574 69.9581 58.9553 69.0077 57.7124 66.3026L51.2056 52.1192H46.5996L54.9342 70.2506V77.525H59.3574Z" fill="white"/>
<path d="M62.2452 64.4017L67.6554 52.1192H63.1591L57.7489 64.4017H62.2452Z" fill="white"/>
<path fill-rule="evenodd" clip-rule="evenodd" d="M108.451 77.8906C110.498 77.8906 112.18 76.9402 113.349 75.149L113.569 77.525H117.59V52.1192H113.24V61.2945C112.143 59.6495 110.535 58.7722 108.634 58.7722C104.43 58.7722 101.506 62.3181 101.506 68.4594C101.506 74.5275 104.357 77.8906 108.451 77.8906ZM109.73 62.2084C112.07 62.2084 113.24 64.0727 113.24 68.3131C113.24 72.5901 111.997 74.4544 109.548 74.4544C107.172 74.4544 106.002 72.6266 106.002 68.4594C106.002 64.1093 107.245 62.2084 109.73 62.2084Z" fill="white"/>
<path fill-rule="evenodd" clip-rule="evenodd" d="M135.173 76.2822V72.7363C133.82 73.6502 131.554 74.4544 129.434 74.4544C126.253 74.4544 125.047 72.9556 124.864 69.885H135.356V67.582C135.356 61.1849 132.541 58.7722 128.191 58.7722C122.89 58.7722 120.368 62.8298 120.368 68.3862C120.368 74.7834 123.512 77.8906 129.068 77.8906C131.846 77.8906 133.893 77.1595 135.173 76.2822ZM128.118 62.2084C130.274 62.2084 130.932 63.9996 130.932 66.3026V66.6681H124.864C124.974 63.7437 126.034 62.2084 128.118 62.2084Z" fill="white"/>
<path fill-rule="evenodd" clip-rule="evenodd" d="M80.4497 64.9866C80.4497 60.5269 78.1833 58.8453 73.5773 58.8453C70.726 58.8453 68.4231 60.0517 67.1071 61.0021V64.7673C68.4962 63.6341 70.6164 62.3181 73.0656 62.3181C75.1492 62.3181 76.0997 63.0492 76.0997 65.0232V66.1929H75.4051C68.7521 66.1929 65.7911 68.3497 65.7911 72.188C65.7911 75.7338 68.0575 77.7809 71.4206 77.7809C73.9794 77.7809 75.0761 76.9402 75.9169 76.0628H76.0997C76.1362 76.5381 76.2824 77.1595 76.4286 77.525H80.669C80.5228 76.0263 80.4497 74.5275 80.4497 73.0288V64.9866ZM76.0997 73.1384C75.5513 73.9426 74.5278 74.6006 72.9925 74.6006C71.1647 74.6006 70.2508 73.5405 70.2508 71.9321C70.2508 69.8119 71.7496 69.0808 75.4782 69.0808H76.0997V73.1384Z" fill="white"/>
<path d="M88.3456 64.3286C89.1499 63.3416 90.4293 62.5009 92.0012 62.5009C93.5365 62.5009 94.231 63.1588 94.231 64.5479V77.525H98.5811V64.1093C98.5811 60.4538 97.1189 58.8453 93.573 58.8453C90.9776 58.8453 89.4423 59.7958 88.565 60.6731H88.3456L88.236 59.1378H83.9956V77.525H88.3456V64.3286Z" fill="white"/>
<path d="M148.552 77.525H153.45L147.455 68.0572L152.646 59.1378H148.296L145.152 64.6942L141.643 59.1378H136.745L142.301 67.9476L136.525 77.525H140.949L144.641 71.3107L148.552 77.525Z" fill="white"/>
<path d="M210.897 77.8916C213.638 77.8916 215.503 76.9046 216.636 76.1369V72.5911C215.174 73.6512 213.565 74.4554 211.226 74.4554C207.205 74.4554 205.304 71.202 205.304 64.8414C205.304 58.298 207.132 55.1908 211.445 55.1908C213.456 55.1908 215.32 56.0681 216.636 56.9089V53.363C215.466 52.5223 213.565 51.7546 211.226 51.7546C204.463 51.7546 200.808 56.7261 200.808 64.8414C200.808 73.176 204.609 77.8916 210.897 77.8916Z" fill="white"/>
<path d="M223.916 52.1202H219.566V77.526H223.916V52.1202Z" fill="white"/>
<path fill-rule="evenodd" clip-rule="evenodd" d="M226.832 68.3507C226.832 62.1729 230.158 58.7732 234.947 58.7732C239.736 58.7732 243.062 62.1729 243.062 68.3141C243.062 74.492 239.736 77.8916 234.947 77.8916C230.158 77.8916 226.832 74.492 226.832 68.3507ZM231.328 68.3507C231.328 72.5911 232.534 74.4554 234.947 74.4554C237.36 74.4554 238.566 72.5911 238.566 68.3141C238.566 64.0737 237.36 62.2094 234.947 62.2094C232.534 62.2094 231.328 64.0737 231.328 68.3507Z" fill="white"/>
<path d="M256.036 72.3352C255.232 73.3222 253.952 74.163 252.38 74.163C250.845 74.163 250.15 73.505 250.15 72.1159V59.1388H245.8V72.5545C245.8 76.21 247.263 77.8185 250.808 77.8185C253.404 77.8185 254.939 76.868 255.817 75.9907H256.036L256.146 77.526H260.386V59.1388H256.036V72.3352Z" fill="white"/>
<path fill-rule="evenodd" clip-rule="evenodd" d="M275.159 75.1499C273.99 76.9412 272.308 77.8916 270.261 77.8916C266.167 77.8916 263.315 74.5285 263.315 68.4603C263.315 62.3191 266.24 58.7732 270.444 58.7732C272.345 58.7732 273.953 59.6505 275.05 61.2955V52.1202H279.4V77.526H275.379L275.159 75.1499ZM275.05 68.3141C275.05 64.0737 273.88 62.2094 271.54 62.2094C269.055 62.2094 267.812 64.1103 267.812 68.4603C267.812 72.6276 268.982 74.4554 271.358 74.4554C273.807 74.4554 275.05 72.5911 275.05 68.3141Z" fill="white"/>
<path d="M230.873 137.266C230.873 137.266 237.409 137.821 238.886 141.396H238.891C240.368 144.972 238.567 148.314 235.352 149.656C232.138 150.997 229.238 151.219 225.876 151.219C222.514 151.219 212.375 150.997 212.403 143.19H217.325C217.387 147.73 226.029 147.255 228.267 147.132C228.388 147.125 228.49 147.12 228.571 147.116C229.955 147.05 234.313 146.735 234.377 144.019C234.438 141.47 230.187 141.106 229.095 141.012C229.023 141.006 228.965 141.001 228.923 140.996C228.235 140.926 223.207 140.408 221.795 140.262C220.382 140.116 216.857 139.659 214.54 137.732C212.222 135.804 213.063 132.323 213.063 132.323C213.42 130.8 214.41 129.56 216.042 128.606C217.571 127.712 219.565 127.15 222.017 126.909C222.017 126.909 225.48 126.538 229.329 126.909C229.337 126.912 229.347 126.912 229.355 126.912C231.967 127.164 234.059 127.773 235.627 128.748C237.737 130.063 238.795 131.975 238.795 134.481H233.909C233.907 134.003 233.801 133.636 233.718 133.42C233.325 132.429 232.06 131.073 228.085 130.845C221.701 130.478 219.661 131.478 219.661 131.478C219.661 131.478 217.863 132.059 217.827 133.632C217.791 135.204 218.895 136.03 222.475 136.395L230.873 137.266Z" fill="white"/>
<path d="M102.352 137.158C103.794 140.701 105.399 144.644 105.758 145.527C106.981 148.533 109.865 147.991 109.865 147.991C109.861 148.029 109.578 151.138 106.05 151.138C106.05 151.138 105.851 151.155 105.53 151.103C102.648 150.766 101.541 147.696 101.271 146.947C101.255 146.902 101.242 146.865 101.231 146.838C101.231 146.837 100.061 143.962 98.7583 140.761C97.316 137.217 95.7113 133.274 95.3526 132.391C94.1292 129.385 91.2454 129.927 91.2454 129.927C91.2488 129.889 91.5326 126.78 95.0603 126.78C95.0603 126.78 95.2594 126.763 95.5802 126.815C98.462 127.153 99.5689 130.222 99.839 130.971C99.8552 131.016 99.8684 131.053 99.8788 131.08C99.8788 131.081 101.047 133.951 102.348 137.148L102.352 137.158Z" fill="white"/>
<path d="M109.862 147.991V127.309H114.518V142.834C114.518 146.897 111.07 147.798 109.862 147.991Z" fill="white"/>
<path d="M119.173 150.609H142.45V146.607H123.828V140.864H141.049V136.863H123.828V131.311H142.45V127.309H119.173V150.609Z" fill="white"/>
<path d="M174.249 127.309H178.904V150.609H174.249V127.309Z" fill="white"/>
<path d="M188.21 142.152V127.309H183.567V142.743C183.567 144.407 184.105 145.951 185.021 147.257C186.66 149.592 189.526 151.143 192.798 151.143H195.219C198.491 151.143 201.356 149.474 202.996 147.139H193.527C190.576 147.062 188.207 144.859 188.207 142.152H188.21Z" fill="white"/>
<path d="M204.438 142.625C204.438 144.28 203.905 145.838 202.997 147.139H203.967C206.82 146.965 209.078 144.793 209.078 142.152V127.309H204.438V142.625Z" fill="white"/>
<path d="M86.5879 135.096V150.611H91.2434V129.929C91.2434 129.929 86.5879 130.438 86.5879 135.096Z" fill="white"/>
<path fill-rule="evenodd" clip-rule="evenodd" d="M166.927 138.452C170.385 135.99 169.754 131.13 167.178 129.089C164.905 127.287 161.422 127.298 159.152 127.306C159.009 127.307 158.871 127.307 158.738 127.307H146.316V150.609H161.839C167.325 150.609 170.972 147.853 170.972 143.847C170.972 139.624 166.924 138.452 166.924 138.452H166.927ZM150.974 131.287H159.457C159.523 131.287 159.604 131.286 159.699 131.284C160.977 131.262 164.672 131.196 164.672 134.076C164.672 136.409 162.375 136.866 161.146 136.866H150.974V131.287ZM161.55 146.636C159.995 146.636 150.971 146.631 150.971 146.631V140.841H161.534L161.627 140.841C162.779 140.838 166.053 140.831 166.053 143.578C166.053 146.403 163.104 146.636 161.55 146.636Z" fill="white"/>
<path d="M59.005 212.252C59.0142 210.886 58.6593 209.542 57.9767 208.359C57.2942 207.176 56.3088 206.196 55.1218 205.52L39.002 196.217V201.503L52.8293 209.482C53.3141 209.762 53.7165 210.165 53.9963 210.65C54.2761 211.136 54.4234 211.686 54.4234 212.246C54.4234 212.806 54.2761 213.356 53.9963 213.841C53.7165 214.327 53.3141 214.73 52.8293 215.01L39.002 222.994V228.281L55.1097 218.978C56.298 218.304 57.2853 217.326 57.97 216.144C58.6546 214.961 59.0119 213.618 59.005 212.252Z" fill="white"/>
<path d="M57.4443 226.933L71.2656 218.955V213.668L55.1579 222.971C53.9772 223.653 52.997 224.634 52.3155 225.816C51.6339 226.997 51.2751 228.336 51.2751 229.7C51.2751 231.064 51.6339 232.403 52.3155 233.585C52.997 234.766 53.9772 235.747 55.1579 236.429L71.2656 245.732V240.446L57.4443 232.467C56.961 232.186 56.5601 231.782 56.2814 231.297C56.0028 230.812 55.8561 230.262 55.8561 229.703C55.8561 229.144 56.0028 228.594 56.2814 228.109C56.5601 227.624 56.961 227.221 57.4443 226.939V226.933Z" fill="white"/>
<path fill-rule="evenodd" clip-rule="evenodd" d="M98.5133 208.726H90.6923V232.836H98.5133C105.197 232.836 110.877 228.844 110.877 220.781C110.877 212.718 105.197 208.726 98.5133 208.726ZM106.262 220.781C106.262 226.739 102.3 228.874 98.1322 228.874H95.253V212.651H98.1322C102.3 212.651 106.262 214.823 106.262 220.781Z" fill="white"/>
<path fill-rule="evenodd" clip-rule="evenodd" d="M112.685 224.157C112.685 218.991 116.477 215.199 121.758 215.199C127.039 215.199 130.831 218.991 130.831 224.157C130.831 229.323 127.039 233.115 121.758 233.115C116.477 233.115 112.685 229.323 112.685 224.157ZM126.567 224.157C126.567 221.024 124.637 218.852 121.782 218.852C118.927 218.852 116.943 221.024 116.943 224.157C116.943 227.29 118.873 229.462 121.782 229.462C124.692 229.462 126.567 227.29 126.567 224.157Z" fill="white"/>
<path d="M144.957 232.835H149.191L149.203 215.476H144.969V224.948C144.969 227.5 143.318 229.357 140.941 229.357C138.757 229.357 137.311 227.706 137.311 225.329V215.476H133.077V226.224C133.077 230.289 135.624 233.114 139.549 233.114C142.029 233.114 143.995 232.043 144.957 230.15V232.835Z" fill="white"/>
<path fill-rule="evenodd" clip-rule="evenodd" d="M156.83 230.654V232.819H152.627V208.019H156.83V217.558C157.428 216.783 158.203 216.163 159.091 215.749C159.978 215.335 160.951 215.141 161.929 215.181C167.059 215.181 170.125 218.81 170.125 224.139C170.125 229.468 167.059 233.097 161.857 233.097C160.883 233.129 159.917 232.924 159.041 232.498C158.165 232.072 157.406 231.439 156.83 230.654ZM165.903 224.139C165.903 220.939 164.04 218.834 161.216 218.834C158.391 218.834 156.528 220.939 156.528 224.139C156.528 227.339 158.391 229.444 161.216 229.444C164.04 229.444 165.928 227.363 165.928 224.157L165.903 224.139Z" fill="white"/>
<path d="M176.91 208.036H172.718L172.712 232.835H176.91V208.036Z" fill="white"/>
<path fill-rule="evenodd" clip-rule="evenodd" d="M196.413 227.053C195.76 230.737 192.524 233.102 188.253 233.102C182.568 233.102 179.398 228.626 179.398 224.077C179.398 219.528 182.223 215.185 187.909 215.185C193.727 215.185 196.377 219.419 196.377 223.557C196.377 224.042 196.353 224.526 196.304 225.008H183.463C183.771 227.797 185.562 229.587 188.253 229.587C190.419 229.587 191.834 228.692 192.282 227.041L196.413 227.053ZM192.106 222.214H183.568C184.018 219.603 185.535 218.367 187.909 218.355C188.439 218.326 188.97 218.403 189.471 218.582C189.971 218.761 190.43 219.039 190.822 219.399C191.213 219.759 191.528 220.193 191.749 220.676C191.969 221.16 192.091 221.683 192.106 222.214Z" fill="white"/>
<path d="M210.246 208.446C203.944 208.446 198.294 212.584 198.294 220.78C198.294 228.982 203.841 233.113 210.246 233.113C216.174 233.113 220.584 229.702 221.067 224.705H216.519C216.107 227.336 213.555 229.151 210.246 229.151C206.048 229.151 202.879 226.254 202.879 220.78C202.879 215.306 206.048 212.372 210.246 212.372C213.488 212.372 216.035 214.199 216.38 216.854H221.134C220.481 211.858 216.071 208.446 210.246 208.446Z" fill="white"/>
<path d="M223.827 208.036H228.061V232.835H223.827V208.036Z" fill="white"/>
<path fill-rule="evenodd" clip-rule="evenodd" d="M239.578 215.199C234.298 215.199 230.505 218.991 230.505 224.157C230.505 229.323 234.291 233.115 239.578 233.115C244.865 233.115 248.651 229.323 248.651 224.157C248.651 218.991 244.859 215.199 239.578 215.199ZM239.602 218.852C242.457 218.852 244.387 221.024 244.387 224.157C244.387 227.29 242.512 229.462 239.602 229.462C236.693 229.462 234.763 227.29 234.763 224.157C234.763 221.024 236.747 218.852 239.602 218.852Z" fill="white"/>
<path d="M267.039 232.835H262.804V230.15C261.843 232.043 259.877 233.114 257.397 233.114C253.471 233.114 250.919 230.289 250.919 226.224V215.476H255.153V225.329C255.153 227.706 256.598 229.357 258.782 229.357C261.159 229.357 262.81 227.5 262.81 224.948V215.476H267.045L267.039 232.835Z" fill="white"/>
<path fill-rule="evenodd" clip-rule="evenodd" d="M277.689 215.197C272.554 215.197 269.487 218.851 269.487 224.155C269.487 229.442 272.554 233.114 277.731 233.071C278.703 233.106 279.67 232.904 280.546 232.483C281.423 232.061 282.184 231.433 282.764 230.652V232.835H286.998V208.036H282.788V217.574C282.19 216.8 281.415 216.18 280.528 215.766C279.64 215.352 278.667 215.157 277.689 215.197ZM278.379 218.851C281.203 218.851 283.06 220.956 283.06 224.155C283.06 227.361 281.203 229.46 278.379 229.46C275.554 229.46 273.691 227.337 273.691 224.155C273.691 220.974 275.554 218.851 278.379 218.851Z" fill="white"/>
<path d="M146.538 299.13H141.961L136.02 309.962L130.045 299.13H125.468L133.994 313.876V323.59H138.012V313.876L146.538 299.13ZM160.176 299.13H142.355V302.974H149.273V323.59H153.292V302.974H160.176V299.13ZM162.448 310.941C162.448 309.683 163.636 309.089 164.999 309.089C166.432 309.089 167.655 309.718 168.284 311.081L171.463 309.298C170.24 306.992 167.864 305.664 164.999 305.664C161.435 305.664 158.605 307.726 158.605 311.011C158.605 317.265 168.004 315.518 168.004 318.628C168.004 320.026 166.711 320.585 165.034 320.585C163.112 320.585 161.714 319.641 161.155 318.069L157.906 319.956C159.024 322.472 161.54 324.044 165.034 324.044C168.808 324.044 171.848 322.157 171.848 318.663C171.848 312.199 162.448 314.12 162.448 310.941ZM188.129 306.119V308.599C186.801 306.783 184.739 305.664 182.014 305.664C177.262 305.664 173.313 309.648 173.313 314.854C173.313 320.026 177.262 324.044 182.014 324.044C184.739 324.044 186.801 322.926 188.129 321.074V323.59H191.902V306.119H188.129ZM182.608 320.445C179.463 320.445 177.087 318.104 177.087 314.854C177.087 311.605 179.463 309.263 182.608 309.263C185.753 309.263 188.129 311.605 188.129 314.854C188.129 318.104 185.753 320.445 182.608 320.445ZM206.679 306.119V315.483C206.679 319.047 204.723 320.515 202.242 320.515C199.865 320.515 198.328 319.117 198.328 316.462V306.119H194.554V316.846C194.554 321.388 197.35 324.044 201.264 324.044C203.639 324.044 205.527 323.171 206.679 321.354V323.59H210.453V306.119H206.679ZM217.242 309.054V306.119H213.468V323.59H217.242V314.784C217.242 310.871 220.142 309.718 222.623 309.892V305.804C220.421 305.804 218.29 306.678 217.242 309.054ZM236.662 306.119V315.483C236.662 319.047 234.706 320.515 232.225 320.515C229.849 320.515 228.312 319.117 228.312 316.462V306.119H224.538V316.846C224.538 321.388 227.334 324.044 231.247 324.044C233.623 324.044 235.51 323.171 236.662 321.354V323.59H240.437V306.119H236.662ZM247.016 310.941C247.016 309.683 248.204 309.089 249.567 309.089C251 309.089 252.222 309.718 252.851 311.081L256.032 309.298C254.808 306.992 252.432 305.664 249.567 305.664C246.003 305.664 243.173 307.726 243.173 311.011C243.173 317.265 252.571 315.518 252.571 318.628C252.571 320.026 251.279 320.585 249.602 320.585C247.68 320.585 246.282 319.641 245.724 318.069L242.474 319.956C243.592 322.472 246.107 324.044 249.602 324.044C253.375 324.044 256.415 322.157 256.415 318.663C256.415 312.199 247.016 314.12 247.016 310.941Z" fill="white"/>
<path fill-rule="evenodd" clip-rule="evenodd" d="M85.1322 299.159C89.2277 293.404 95.7527 290.19 98.8462 290.808C100.83 291.204 99.6278 293.351 98.1944 295.782C97.8205 296.416 97.4541 297 97.1248 297.526C96.192 299.015 95.5555 300.03 95.8798 300.359C101.022 295.415 104.328 294.865 107.083 294.865C109.811 294.865 108.528 296.831 107.125 298.98L107.083 299.044C106.88 299.356 106.669 299.664 106.467 299.961C105.679 301.119 105.007 302.105 105.308 302.433C108.273 300.323 111.343 299.814 112.785 300.112C114.227 300.41 114.651 301.035 112.661 304.113L110.758 306.968L110.845 307.108C111.521 308.193 112.55 309.848 112.55 312.485C112.55 317.776 108.508 323.035 106.246 325.386C106.05 325.59 105.779 325.7 105.496 325.7H101.294C100.977 325.7 100.732 325.425 100.742 325.109C100.922 319.472 94.9374 319.704 90.9466 325.46C90.8446 325.608 90.6765 325.7 90.4973 325.7H86.5458C86.2613 325.7 85.9864 325.589 85.797 325.376C84.2605 323.653 82.8582 320.736 82.5043 319.48C80.8148 322.088 76.1859 323.522 72.8775 321.29C68.949 318.64 68.9747 314.132 70.6733 311.379L74.1253 313.341C73.6173 315.341 74.3698 316.719 75.8147 316.719C77.9008 316.719 78.7196 314.19 79.8905 310.575C80.9498 307.303 82.2974 303.142 85.1322 299.159ZM87.6609 313.524C88.8121 310.924 88.8122 308.403 87.6613 307.894C86.5103 307.386 84.6441 309.081 83.4929 311.682C83.2062 312.329 82.9907 312.972 82.8468 313.581H87.6358L87.6609 313.524ZM96.1418 307.894C97.2928 308.403 97.2926 310.924 96.1415 313.524L96.1162 313.581H91.3273C91.4712 312.972 91.6866 312.329 91.9735 311.682C93.1245 309.081 94.9908 307.386 96.1418 307.894Z" fill="white"/>
<path fill-rule="evenodd" clip-rule="evenodd" d="M120.762 401.333H129.19C131.715 401.333 133.877 400.835 135.674 399.839C137.48 398.843 138.86 397.414 139.815 395.552C140.779 393.69 141.26 391.464 141.26 388.874C141.26 386.291 140.783 384.073 139.827 382.219C138.872 380.365 137.504 378.944 135.723 377.957C133.95 376.961 131.829 376.463 129.36 376.463H120.762V401.333ZM128.971 397.435H125.267V380.361H129.105C130.788 380.361 132.197 380.677 133.331 381.308C134.472 381.932 135.334 382.875 135.917 384.138C136.5 385.392 136.792 386.971 136.792 388.874C136.792 390.776 136.5 392.363 135.917 393.634C135.334 394.897 134.464 395.848 133.306 396.488C132.149 397.119 130.703 397.435 128.971 397.435ZM143.979 382.68V401.333H148.375V382.68H143.979ZM151.528 408.327V382.68H155.851V385.765H156.106C156.333 385.311 156.652 384.83 157.065 384.32C157.478 383.802 158.037 383.36 158.741 382.996C159.445 382.624 160.344 382.437 161.437 382.437C162.878 382.437 164.177 382.806 165.335 383.543C166.501 384.271 167.424 385.352 168.104 386.785C168.792 388.21 169.136 389.958 169.136 392.031C169.136 394.079 168.8 395.82 168.128 397.253C167.456 398.686 166.541 399.778 165.384 400.531C164.226 401.284 162.915 401.661 161.449 401.661C160.38 401.661 159.494 401.483 158.79 401.126C158.085 400.77 157.519 400.341 157.09 399.839C156.669 399.329 156.341 398.847 156.106 398.394H155.924V408.327H151.528ZM155.839 392.007C155.839 393.213 156.009 394.269 156.349 395.176C156.697 396.083 157.195 396.791 157.842 397.301C158.498 397.803 159.292 398.054 160.223 398.054C161.194 398.054 162.008 397.795 162.664 397.277C163.319 396.751 163.813 396.034 164.145 395.127C164.485 394.213 164.655 393.172 164.655 392.007C164.655 390.849 164.489 389.821 164.157 388.922C163.825 388.024 163.331 387.319 162.676 386.809C162.02 386.299 161.202 386.044 160.223 386.044C159.284 386.044 158.486 386.291 157.83 386.785C157.175 387.279 156.677 387.971 156.337 388.861C156.005 389.752 155.839 390.8 155.839 392.007ZM175.929 401.333V376.463H171.533V401.333H175.929ZM187.218 401.697C185.396 401.697 183.818 401.296 182.482 400.495C181.146 399.693 180.11 398.572 179.373 397.131C178.644 395.69 178.28 394.006 178.28 392.079C178.28 390.153 178.644 388.465 179.373 387.016C180.11 385.566 181.146 384.441 182.482 383.64C183.818 382.838 185.396 382.437 187.218 382.437C189.039 382.437 190.618 382.838 191.954 383.64C193.29 384.441 194.322 385.566 195.051 387.016C195.787 388.465 196.156 390.153 196.156 392.079C196.156 394.006 195.787 395.69 195.051 397.131C194.322 398.572 193.29 399.693 191.954 400.495C190.618 401.296 189.039 401.697 187.218 401.697ZM187.242 398.175C188.23 398.175 189.056 397.904 189.72 397.362C190.383 396.811 190.877 396.075 191.201 395.152C191.533 394.229 191.699 393.201 191.699 392.067C191.699 390.926 191.533 389.894 191.201 388.971C190.877 388.04 190.383 387.299 189.72 386.748C189.056 386.198 188.23 385.923 187.242 385.923C186.23 385.923 185.388 386.198 184.716 386.748C184.052 387.299 183.555 388.04 183.223 388.971C182.899 389.894 182.737 390.926 182.737 392.067C182.737 393.201 182.899 394.229 183.223 395.152C183.555 396.075 184.052 396.811 184.716 397.362C185.388 397.904 186.23 398.175 187.242 398.175ZM201.506 400.531C202.664 401.284 203.976 401.661 205.441 401.661C206.51 401.661 207.396 401.483 208.101 401.126C208.805 400.77 209.372 400.341 209.801 399.839C210.23 399.329 210.558 398.847 210.784 398.394H211.051V401.333H215.375V376.463H210.966V385.765H210.784C210.558 385.311 210.238 384.83 209.825 384.32C209.412 383.802 208.853 383.36 208.149 382.996C207.445 382.624 206.546 382.437 205.453 382.437C204.02 382.437 202.721 382.806 201.555 383.543C200.389 384.271 199.462 385.352 198.774 386.785C198.094 388.21 197.754 389.958 197.754 392.031C197.754 394.079 198.09 395.82 198.762 397.253C199.434 398.686 200.349 399.778 201.506 400.531ZM209.048 397.301C208.392 397.803 207.599 398.054 206.668 398.054C205.704 398.054 204.891 397.795 204.227 397.277C203.571 396.751 203.073 396.034 202.733 395.127C202.401 394.213 202.235 393.172 202.235 392.007C202.235 390.849 202.401 389.821 202.733 388.922C203.065 388.024 203.559 387.319 204.215 386.809C204.87 386.299 205.688 386.044 206.668 386.044C207.615 386.044 208.412 386.291 209.06 386.785C209.716 387.279 210.209 387.971 210.541 388.861C210.881 389.752 211.051 390.8 211.051 392.007C211.051 393.213 210.881 394.269 210.541 395.176C210.201 396.083 209.703 396.791 209.048 397.301ZM226.828 401.697C225.006 401.697 223.427 401.296 222.091 400.495C220.756 399.693 219.719 398.572 218.983 397.131C218.254 395.69 217.89 394.006 217.89 392.079C217.89 390.153 218.254 388.465 218.983 387.016C219.719 385.566 220.756 384.441 222.091 383.64C223.427 382.838 225.006 382.437 226.828 382.437C228.649 382.437 230.228 382.838 231.564 383.64C232.899 384.441 233.932 385.566 234.66 387.016C235.397 388.465 235.765 390.153 235.765 392.079C235.765 394.006 235.397 395.69 234.66 397.131C233.932 398.572 232.899 399.693 231.564 400.495C230.228 401.296 228.649 401.697 226.828 401.697ZM226.852 398.175C227.84 398.175 228.665 397.904 229.329 397.362C229.993 396.811 230.487 396.075 230.811 395.152C231.143 394.229 231.309 393.201 231.309 392.067C231.309 390.926 231.143 389.894 230.811 388.971C230.487 388.04 229.993 387.299 229.329 386.748C228.665 386.198 227.84 385.923 226.852 385.923C225.84 385.923 224.998 386.198 224.326 386.748C223.662 387.299 223.164 388.04 222.832 388.971C222.508 389.894 222.347 390.926 222.347 392.067C222.347 393.201 222.508 394.229 222.832 395.152C223.164 396.075 223.662 396.811 224.326 397.362C224.998 397.904 225.84 398.175 226.852 398.175ZM241.468 400.471C242.804 401.288 244.403 401.697 246.265 401.697C247.828 401.697 249.188 401.414 250.345 400.847C251.503 400.272 252.418 399.479 253.09 398.467C253.762 397.447 254.15 396.277 254.256 394.957H250.054C249.924 395.629 249.686 396.2 249.337 396.67C248.989 397.139 248.556 397.499 248.038 397.75C247.528 397.993 246.949 398.115 246.301 398.115C245.387 398.115 244.589 397.872 243.909 397.386C243.237 396.892 242.715 396.192 242.343 395.285C241.97 394.371 241.784 393.278 241.784 392.007C241.784 390.752 241.97 389.675 242.343 388.776C242.723 387.878 243.253 387.19 243.933 386.712C244.614 386.226 245.403 385.983 246.301 385.983C247.362 385.983 248.208 386.287 248.84 386.894C249.479 387.493 249.884 388.242 250.054 389.141H254.256C254.159 387.797 253.762 386.623 253.066 385.619C252.369 384.607 251.434 383.826 250.26 383.275C249.095 382.717 247.755 382.437 246.241 382.437C244.419 382.437 242.841 382.846 241.505 383.664C240.177 384.474 239.149 385.607 238.42 387.064C237.692 388.513 237.327 390.185 237.327 392.079C237.327 393.966 237.683 395.633 238.396 397.083C239.116 398.524 240.141 399.653 241.468 400.471ZM143.955 376.469V379.764H148.383V376.469H143.955Z" fill="white"/>
<path fill-rule="evenodd" clip-rule="evenodd" d="M92.2857 370.701H83.9381C83.3316 370.701 82.8398 371.193 82.8398 371.799V378.607H72.8424C72.2359 378.607 71.7441 379.099 71.7441 379.706V407.602C71.7441 408.208 72.2359 408.7 72.8424 408.7H95.1377C95.7443 408.7 96.236 408.208 96.236 407.602V400.903H106.233C106.84 400.903 107.332 400.412 107.332 399.805V385.747C107.332 377.437 100.595 370.701 92.2857 370.701ZM96.236 400.903V379.706C96.236 379.099 95.7443 378.607 95.1377 378.607H82.8398V399.805C82.8398 400.412 83.3316 400.903 83.9381 400.903H96.236Z" fill="white"/>
<g clip-path="url(#clip0_2403_75925)">
<path fill-rule="evenodd" clip-rule="evenodd" d="M101.125 453.701H61.125V457.873C64.0221 456.973 67.2155 456.475 70.5705 456.475C84.5345 456.475 94.4593 463.855 94.4593 473.697C94.4593 483.538 84.5345 490.919 70.5705 490.919C67.2155 490.919 64.0221 490.42 61.125 489.52V493.701H101.125V453.701ZM61.125 480.249C63.9248 480.679 67.1084 480.919 70.5709 480.919C83.2836 480.919 92.2375 478.259 92.2375 473.697C92.2375 469.135 83.2836 466.475 70.5709 466.475C67.1084 466.475 63.9248 466.714 61.125 467.144V480.249Z" fill="white"/>
</g>
<path d="M118.849 481.721C123.874 481.721 126.387 479.007 126.387 473.579V473.295C126.387 470.616 125.77 468.613 124.538 467.286C123.329 465.935 121.409 465.259 118.778 465.259H116.502V481.721H118.849ZM110.742 460.779H119.062C123.4 460.779 126.742 461.893 129.089 464.122C131.293 466.326 132.395 469.36 132.395 473.224V473.508C132.395 477.419 131.281 480.489 129.053 482.717C126.73 485.04 123.388 486.201 119.027 486.201H110.742V460.779Z" fill="white"/>
<path d="M140.477 486.593C138.675 486.593 137.217 486.154 136.103 485.277C134.871 484.305 134.254 482.895 134.254 481.046C134.254 478.984 135.155 477.443 136.957 476.424C138.568 475.523 140.891 475.073 143.925 475.073H146.023V474.326C146.023 473.141 145.798 472.276 145.348 471.73C144.921 471.185 144.139 470.913 143.001 470.913C141.176 470.913 140.121 471.79 139.837 473.544H134.965C135.108 471.458 135.973 469.846 137.561 468.708C139.007 467.689 140.927 467.179 143.321 467.179C145.715 467.179 147.588 467.701 148.939 468.744C150.385 469.882 151.108 471.659 151.108 474.077V486.201H146.094V483.961C144.838 485.716 142.965 486.593 140.477 486.593ZM142.005 483.001C143.167 483.001 144.127 482.705 144.885 482.113C145.644 481.52 146.023 480.714 146.023 479.695V478.13H144.032C142.468 478.13 141.283 478.332 140.477 478.735C139.694 479.138 139.303 479.813 139.303 480.761C139.303 482.255 140.204 483.001 142.005 483.001Z" fill="white"/>
<path d="M161.674 486.557C157.668 486.557 155.665 484.601 155.665 480.69V471.268H153.283V467.606H155.665V463.588H160.785V467.606H164.696V471.268H160.785V480.228C160.785 481.698 161.472 482.433 162.847 482.433C163.606 482.433 164.257 482.314 164.803 482.077V486.059C163.854 486.391 162.812 486.557 161.674 486.557Z" fill="white"/>
<path d="M172.822 486.593C171.021 486.593 169.563 486.154 168.449 485.277C167.216 484.305 166.6 482.895 166.6 481.046C166.6 478.984 167.501 477.443 169.302 476.424C170.914 475.523 173.237 475.073 176.271 475.073H178.369V474.326C178.369 473.141 178.144 472.276 177.693 471.73C177.267 471.185 176.485 470.913 175.347 470.913C173.522 470.913 172.467 471.79 172.182 473.544H167.311C167.453 471.458 168.319 469.846 169.907 468.708C171.353 467.689 173.273 467.179 175.667 467.179C178.061 467.179 179.933 467.701 181.285 468.744C182.73 469.882 183.453 471.659 183.453 474.077V486.201H178.44V483.961C177.184 485.716 175.311 486.593 172.822 486.593ZM174.351 483.001C175.513 483.001 176.473 482.705 177.231 482.113C177.99 481.52 178.369 480.714 178.369 479.695V478.13H176.378C174.813 478.13 173.628 478.332 172.822 478.735C172.04 479.138 171.649 479.813 171.649 480.761C171.649 482.255 172.55 483.001 174.351 483.001Z" fill="white"/>
<path d="M187.691 460.779H193.451V481.686H203.797V486.201H187.691V460.779Z" fill="white"/>
<path d="M214.731 486.593C211.839 486.593 209.528 485.751 207.797 484.068C205.948 482.361 205.024 480.05 205.024 477.135V476.85C205.024 473.959 205.948 471.612 207.797 469.81C209.599 468.056 211.862 467.179 214.588 467.179C217.172 467.179 219.282 467.926 220.917 469.419C222.742 471.079 223.655 473.484 223.655 476.637V478.059H210.251C210.322 479.624 210.748 480.833 211.531 481.686C212.337 482.516 213.451 482.93 214.873 482.93C217.101 482.93 218.393 482.065 218.748 480.335H223.619C223.311 482.35 222.387 483.902 220.846 484.993C219.329 486.059 217.291 486.593 214.731 486.593ZM218.642 474.895C218.476 472.122 217.125 470.735 214.588 470.735C213.427 470.735 212.467 471.102 211.708 471.837C210.974 472.548 210.511 473.567 210.322 474.895H218.642Z" fill="white"/>
<path d="M226.38 467.606H231.535V470.557C232.697 468.305 234.712 467.179 237.58 467.179C239.452 467.179 240.958 467.748 242.095 468.886C243.257 470.119 243.838 471.944 243.838 474.361V486.201H238.682V475.108C238.682 473.828 238.421 472.892 237.9 472.299C237.378 471.683 236.549 471.375 235.411 471.375C234.249 471.375 233.313 471.73 232.602 472.441C231.891 473.129 231.535 474.136 231.535 475.464V486.201H226.38V467.606Z" fill="white"/>
<path d="M254.36 486.593C251.848 486.593 249.892 486.059 248.494 484.993C247.095 483.926 246.348 482.385 246.254 480.37H251.054C251.196 481.271 251.504 481.935 251.978 482.361C252.452 482.788 253.234 483.001 254.325 483.001C256.268 483.001 257.24 482.326 257.24 480.975C257.24 480.335 256.956 479.861 256.387 479.553C255.818 479.221 254.846 478.96 253.471 478.77C250.959 478.367 249.205 477.763 248.209 476.957C247.143 476.127 246.609 474.8 246.609 472.975C246.609 471.15 247.368 469.692 248.885 468.602C250.188 467.653 251.883 467.179 253.969 467.179C256.126 467.179 257.868 467.606 259.196 468.459C260.594 469.407 261.412 470.901 261.649 472.939H256.92C256.778 472.157 256.482 471.588 256.031 471.233C255.581 470.877 254.905 470.699 254.005 470.699C253.175 470.699 252.523 470.877 252.049 471.233C251.599 471.588 251.374 472.05 251.374 472.619C251.374 473.212 251.622 473.65 252.12 473.935C252.642 474.219 253.59 474.456 254.965 474.646C257.406 474.978 259.196 475.535 260.334 476.317C261.566 477.241 262.182 478.628 262.182 480.477C262.182 482.468 261.495 483.985 260.12 485.028C258.769 486.071 256.849 486.593 254.36 486.593Z" fill="white"/>
<g clip-path="url(#clip1_2403_75925)">
<g clip-path="url(#clip2_2403_75925)">
<path fill-rule="evenodd" clip-rule="evenodd" d="M114.982 544.314C110.373 544.314 106.637 545.626 106.637 548.087V560.873C106.637 563.334 110.373 564.646 114.982 564.646C116.595 564.646 118.102 564.485 119.379 564.17V574.83C119.379 577.291 123.115 578.603 127.724 578.603C132.332 578.603 136.069 577.291 136.069 574.83V564.09C137.408 564.457 139.029 564.646 140.775 564.646C145.384 564.646 149.12 563.334 149.12 560.873V548.087C149.12 545.626 145.384 544.314 140.775 544.314C136.166 544.314 132.43 545.626 132.43 548.087V552.811H123.326V548.087C123.326 545.626 119.59 544.314 114.982 544.314ZM136.069 562.894L140.623 556.756H137.285L134.915 559.962C135.648 560.523 136.069 561.219 136.069 562.045V562.894ZM132.43 558.828V555.542H123.326V558.747C124.603 558.433 126.11 558.272 127.724 558.272C129.47 558.272 131.09 558.46 132.43 558.828ZM120.536 559.959L118.167 556.756H114.83L119.379 562.887V562.045C119.379 561.218 119.801 560.521 120.536 559.959ZM108.154 548.107C108.154 547.84 108.322 547.281 109.638 546.708C110.896 546.161 112.771 545.831 114.981 545.831C117.191 545.831 119.066 546.161 120.325 546.708C121.64 547.281 121.809 547.84 121.809 548.107C121.809 548.375 121.64 548.934 120.325 549.506C119.066 550.054 117.191 550.383 114.981 550.383C112.771 550.383 110.896 550.054 109.638 549.506C108.322 548.934 108.154 548.375 108.154 548.107ZM135.431 546.708C134.115 547.281 133.947 547.84 133.947 548.107C133.947 548.375 134.115 548.934 135.431 549.506C136.689 550.054 138.565 550.383 140.774 550.383C142.984 550.383 144.859 550.054 146.118 549.506C147.434 548.934 147.602 548.375 147.602 548.107C147.602 547.84 147.434 547.281 146.118 546.708C144.859 546.161 142.984 545.831 140.774 545.831C138.565 545.831 136.689 546.161 135.431 546.708ZM122.38 560.666C121.065 561.238 120.896 561.797 120.896 562.065C120.896 562.332 121.065 562.892 122.38 563.464C123.639 564.011 125.514 564.341 127.724 564.341C129.933 564.341 131.809 564.011 133.067 563.464C134.383 562.892 134.551 562.332 134.551 562.065C134.551 561.797 134.383 561.238 133.067 560.666C131.809 560.118 129.933 559.789 127.724 559.789C125.514 559.789 123.639 560.118 122.38 560.666Z" fill="white"/>
</g>
<path fill-rule="evenodd" clip-rule="evenodd" d="M211.191 549.623H202.182V571.775H212.844C216.781 571.775 219.705 569.017 219.705 565.245C219.705 562.694 218.292 560.758 216.057 559.772C217.093 558.748 217.721 557.395 217.721 555.822C217.721 552.233 214.946 549.623 211.191 549.623ZM206.149 552.929V558.715H210.861C212.458 558.715 213.753 557.42 213.753 555.822C213.753 554.225 212.458 552.929 210.861 552.929H206.149ZM206.149 568.469V562.021H212.514C214.294 562.021 215.737 563.465 215.737 565.245C215.737 567.025 214.294 568.469 212.514 568.469H206.149Z" fill="white"/>
<path d="M159.391 549.623H163.854L169.475 559.376L175.095 549.623H179.559L171.467 563.501V571.775H167.483V563.501L159.391 549.623Z" fill="white"/>
<path fill-rule="evenodd" clip-rule="evenodd" d="M181.131 549.623H188.735C195.348 549.623 199.811 553.921 199.811 560.699C199.811 567.477 195.348 571.775 188.735 571.775H181.131V549.623ZM185.098 568.469V552.929H188.405C192.861 552.929 195.844 555.747 195.844 560.699C195.844 565.651 192.861 568.469 188.405 568.469H185.098Z" fill="white"/>
</g>
<defs>
<clipPath id="clip0_2403_75925">
<rect x="61.125" y="453.699" width="39.9999" height="39.9999" rx="20" fill="white"/>
</clipPath>
<clipPath id="clip1_2403_75925">
<rect width="114.249" height="44.0002" fill="white" transform="translate(105.875 538.699)"/>
</clipPath>
<clipPath id="clip2_2403_75925">
<rect width="44.0002" height="44.0002" fill="white" transform="translate(105.875 538.699)"/>
</clipPath>
</defs>
</svg>
