<svg width="600" height="314" viewBox="0 0 600 314" fill="none" xmlns="http://www.w3.org/2000/svg">
<path fill-rule="evenodd" clip-rule="evenodd" d="M232.174 64.8716C232.174 74.1791 224.61 81.7433 215.303 81.7433C205.995 81.7433 198.431 74.1791 198.431 64.8716C198.431 55.5641 205.995 48 215.303 48C224.61 48 232.174 55.5641 232.174 64.8716ZM229.194 64.8716C229.194 72.5482 222.979 78.7626 215.303 78.7626C213.294 78.7626 211.794 78.0086 211.044 77.094C210.293 76.1794 210.082 74.6828 210.34 72.521L214.812 71.6341C218.896 70.8858 221.147 68.6132 221.953 64.539C222.052 63.9687 222.164 63.3984 222.271 62.8578C222.315 62.6366 222.357 62.4203 222.398 62.211C222.517 61.5605 222.633 60.9418 222.739 60.3732L222.745 60.346L222.745 60.3448C222.858 59.7376 222.961 59.1881 223.047 58.7189C223.504 56.0702 223.132 54.1147 222.104 52.7542C226.336 55.1333 229.194 59.6663 229.194 64.8716ZM215.303 50.9807C207.626 50.9807 201.412 57.195 201.412 64.8716C201.412 70.0769 204.269 74.6099 208.502 76.989C207.473 75.6286 207.101 73.6731 207.559 71.0244C207.657 70.4853 207.775 69.8499 207.906 69.141C207.997 68.6471 208.095 68.1176 208.198 67.56C208.237 67.3589 208.278 67.1514 208.32 66.9392L208.324 66.9154L208.325 66.9132C208.431 66.3726 208.544 65.8022 208.643 65.2319C209.421 61.1301 211.671 58.8575 215.756 58.1092L220.265 57.2223C220.523 55.0605 220.312 53.5639 219.562 52.6493C218.812 51.7347 217.312 50.9807 215.303 50.9807ZM219.73 60.3264L216.34 60.9915C213.45 61.5458 212.116 62.8761 211.56 65.7585C211.431 66.4029 211.319 67.014 211.21 67.6047L211.116 68.1143L211.115 68.1177C211.032 68.56 210.949 69.0022 210.866 69.4169L214.228 68.7517C217.118 68.1974 218.48 66.8671 219.035 63.9847C219.157 63.3771 219.27 62.768 219.382 62.1588L219.382 62.1573L219.383 62.1557L219.383 62.1548L219.383 62.154C219.496 61.5443 219.608 60.9346 219.73 60.3264Z" fill="white"/>
<path d="M97.4453 77.525V73.2115C97.4453 69.9581 97.0432 69.0077 95.8003 66.3026L89.2935 52.1192H84.6875L93.0221 70.2506V77.525H97.4453Z" fill="white"/>
<path d="M100.333 64.4017L105.743 52.1192H101.247L95.8368 64.4017H100.333Z" fill="white"/>
<path fill-rule="evenodd" clip-rule="evenodd" d="M146.539 77.8906C148.586 77.8906 150.268 76.9402 151.437 75.149L151.657 77.525H155.678V52.1192H151.328V61.2945C150.231 59.6495 148.623 58.7722 146.722 58.7722C142.518 58.7722 139.593 62.3181 139.593 68.4594C139.593 74.5275 142.445 77.8906 146.539 77.8906ZM147.818 62.2084C150.158 62.2084 151.328 64.0727 151.328 68.3131C151.328 72.5901 150.085 74.4544 147.636 74.4544C145.259 74.4544 144.09 72.6266 144.09 68.4594C144.09 64.1093 145.333 62.2084 147.818 62.2084Z" fill="white"/>
<path fill-rule="evenodd" clip-rule="evenodd" d="M173.261 76.2822V72.7363C171.908 73.6502 169.642 74.4544 167.522 74.4544C164.341 74.4544 163.135 72.9556 162.952 69.885H173.444V67.582C173.444 61.1849 170.629 58.7722 166.279 58.7722C160.978 58.7722 158.456 62.8298 158.456 68.3862C158.456 74.7834 161.6 77.8906 167.156 77.8906C169.934 77.8906 171.981 77.1595 173.261 76.2822ZM166.206 62.2084C168.362 62.2084 169.02 63.9996 169.02 66.3026V66.6681H162.952C163.062 63.7437 164.122 62.2084 166.206 62.2084Z" fill="white"/>
<path fill-rule="evenodd" clip-rule="evenodd" d="M118.538 64.9866C118.538 60.5269 116.271 58.8453 111.665 58.8453C108.814 58.8453 106.511 60.0517 105.195 61.0021V64.7673C106.584 63.6341 108.704 62.3181 111.153 62.3181C113.237 62.3181 114.188 63.0492 114.188 65.0232V66.1929H113.493C106.84 66.1929 103.879 68.3497 103.879 72.188C103.879 75.7338 106.145 77.7809 109.508 77.7809C112.067 77.7809 113.164 76.9402 114.005 76.0628H114.188C114.224 76.5381 114.37 77.1595 114.517 77.525H118.757C118.611 76.0263 118.538 74.5275 118.538 73.0288V64.9866ZM114.188 73.1384C113.639 73.9426 112.616 74.6006 111.08 74.6006C109.253 74.6006 108.339 73.5405 108.339 71.9321C108.339 69.8119 109.837 69.0808 113.566 69.0808H114.188V73.1384Z" fill="white"/>
<path d="M126.434 64.3286C127.238 63.3416 128.517 62.5009 130.089 62.5009C131.624 62.5009 132.319 63.1588 132.319 64.5479V77.525H136.669V64.1093C136.669 60.4538 135.207 58.8453 131.661 58.8453C129.066 58.8453 127.53 59.7958 126.653 60.6731H126.434L126.324 59.1378H122.083V77.525H126.434V64.3286Z" fill="white"/>
<path d="M186.64 77.525H191.538L185.543 68.0572L190.734 59.1378H186.384L183.24 64.6942L179.731 59.1378H174.833L180.389 67.9476L174.613 77.525H179.036L182.729 71.3107L186.64 77.525Z" fill="white"/>
<path d="M248.985 77.8916C251.726 77.8916 253.591 76.9046 254.724 76.1369V72.5911C253.262 73.6512 251.653 74.4554 249.314 74.4554C245.293 74.4554 243.392 71.202 243.392 64.8414C243.392 58.298 245.219 55.1908 249.533 55.1908C251.544 55.1908 253.408 56.0681 254.724 56.9089V53.363C253.554 52.5223 251.653 51.7546 249.314 51.7546C242.551 51.7546 238.895 56.7261 238.895 64.8414C238.895 73.176 242.697 77.8916 248.985 77.8916Z" fill="white"/>
<path d="M262.004 52.1202H257.654V77.526H262.004V52.1202Z" fill="white"/>
<path fill-rule="evenodd" clip-rule="evenodd" d="M264.92 68.3507C264.92 62.1729 268.246 58.7732 273.035 58.7732C277.824 58.7732 281.15 62.1729 281.15 68.3141C281.15 74.492 277.824 77.8916 273.035 77.8916C268.246 77.8916 264.92 74.492 264.92 68.3507ZM269.416 68.3507C269.416 72.5911 270.622 74.4554 273.035 74.4554C275.447 74.4554 276.654 72.5911 276.654 68.3141C276.654 64.0737 275.447 62.2094 273.035 62.2094C270.622 62.2094 269.416 64.0737 269.416 68.3507Z" fill="white"/>
<path d="M294.124 72.3352C293.32 73.3222 292.04 74.163 290.468 74.163C288.933 74.163 288.238 73.505 288.238 72.1159V59.1388H283.888V72.5545C283.888 76.21 285.351 77.8185 288.896 77.8185C291.492 77.8185 293.027 76.868 293.904 75.9907H294.124L294.233 77.526H298.474V59.1388H294.124V72.3352Z" fill="white"/>
<path fill-rule="evenodd" clip-rule="evenodd" d="M313.247 75.1499C312.077 76.9412 310.396 77.8916 308.349 77.8916C304.255 77.8916 301.403 74.5285 301.403 68.4603C301.403 62.3191 304.328 58.7732 308.532 58.7732C310.433 58.7732 312.041 59.6505 313.138 61.2955V52.1202H317.488V77.526H313.467L313.247 75.1499ZM313.138 68.3141C313.138 64.0737 311.968 62.2094 309.628 62.2094C307.143 62.2094 305.9 64.1103 305.9 68.4603C305.9 72.6276 307.069 74.4554 309.446 74.4554C311.895 74.4554 313.138 72.5911 313.138 68.3141Z" fill="white"/>
<path d="M506.771 63.1564C506.771 63.1564 513.307 63.7118 514.784 67.2871H514.789C516.266 70.8624 514.466 74.2047 511.251 75.5463C508.036 76.8879 505.137 77.1091 501.774 77.1091C498.412 77.1091 488.273 76.8879 488.302 69.0806H493.224C493.285 73.6203 501.927 73.1456 504.165 73.0226C504.286 73.016 504.388 73.0104 504.469 73.0066C505.853 72.9407 510.211 72.6253 510.276 69.9091C510.337 67.3609 506.085 66.9962 504.994 66.9025C504.922 66.8963 504.864 66.8914 504.821 66.887C504.133 66.8164 499.105 66.2986 497.693 66.1526C496.281 66.0067 492.756 65.5501 490.438 63.6224C488.121 61.6947 488.961 58.2136 488.961 58.2136C489.318 56.6907 490.309 55.4503 491.941 54.4971C493.469 53.6027 495.464 53.0401 497.915 52.8C497.915 52.8 501.379 52.4282 505.227 52.8C505.235 52.8024 505.245 52.8024 505.253 52.8024C507.865 53.0542 509.958 53.6639 511.525 54.6383C513.636 55.954 514.693 57.8652 514.693 60.3719H509.808C509.805 59.8941 509.699 59.5269 509.616 59.3104C509.223 58.3195 507.958 56.9638 503.983 56.7354C497.6 56.3683 495.559 57.3686 495.559 57.3686C495.559 57.3686 493.762 57.95 493.725 59.5222C493.689 61.0945 494.794 61.9207 498.373 62.2855L506.771 63.1564Z" fill="white"/>
<path d="M378.25 63.0483C379.693 66.5921 381.297 70.5348 381.656 71.4178C382.879 74.4234 385.763 73.8821 385.763 73.8821C385.76 73.9195 385.476 77.029 381.948 77.029C381.948 77.029 381.749 77.0455 381.428 76.9937C378.547 76.6562 377.44 73.5865 377.17 72.8374C377.153 72.7925 377.14 72.7559 377.13 72.7288C377.13 72.7277 375.96 69.8522 374.657 66.6513C373.214 63.1075 371.61 59.1647 371.251 58.2817C370.028 55.276 367.144 55.8174 367.144 55.8174C367.147 55.7798 367.431 52.6705 370.959 52.6705C370.959 52.6705 371.158 52.654 371.479 52.7058C374.36 53.0433 375.467 56.1129 375.737 56.8621C375.754 56.907 375.767 56.9436 375.777 56.9707C375.777 56.9718 376.945 59.8413 378.246 63.0383L378.25 63.0483Z" fill="white"/>
<path d="M385.761 73.8821V53.2001H390.416V68.7251C390.416 72.7876 386.969 73.6891 385.761 73.8821Z" fill="white"/>
<path d="M395.071 76.4994H418.349V72.4981H399.727V66.7551H416.947V62.7538H399.727V57.2014H418.349V53.2001H395.071V76.4994Z" fill="white"/>
<path d="M450.147 53.2001H454.803V76.4994H450.147V53.2001Z" fill="white"/>
<path d="M464.108 68.0425V53.2001H459.466V68.6333C459.466 70.2974 460.004 71.8414 460.919 73.1477C462.559 75.4826 465.425 77.0337 468.696 77.0337H471.117C474.389 77.0337 477.255 75.3649 478.895 73.03H469.426C466.475 72.9524 464.106 70.7493 464.106 68.0425H464.108Z" fill="white"/>
<path d="M480.336 68.5156C480.336 70.1703 479.803 71.7284 478.895 73.03H479.865C482.718 72.8559 484.976 70.6834 484.976 68.0425V53.2001H480.336V68.5156Z" fill="white"/>
<path d="M362.486 60.9862V76.5019H367.142V55.8198C367.142 55.8198 362.486 56.3282 362.486 60.9862Z" fill="white"/>
<path fill-rule="evenodd" clip-rule="evenodd" d="M442.825 64.3426C446.283 61.8806 445.652 57.0202 443.076 54.9796C440.804 53.1772 437.32 53.1891 435.051 53.1968C434.908 53.1973 434.77 53.1978 434.637 53.1978H422.214V76.4995H437.738C443.224 76.4995 446.87 73.7433 446.87 69.7373C446.87 65.5148 442.823 64.3426 442.823 64.3426H442.825ZM426.872 57.1779H435.356C435.421 57.1779 435.503 57.1765 435.597 57.1748C436.876 57.1522 440.57 57.087 440.57 59.9671C440.57 62.2996 438.273 62.7562 437.045 62.7562H426.872V57.1779ZM437.448 72.5264C435.894 72.5264 426.87 72.5217 426.87 72.5217V66.7316H437.433L437.525 66.7315C438.678 66.729 441.951 66.7221 441.951 69.469C441.951 72.2934 439.003 72.5264 437.448 72.5264Z" fill="white"/>
<path d="M80.089 142.779C80.0982 141.413 79.7433 140.07 79.0607 138.886C78.3782 137.703 77.3927 136.723 76.2057 136.047L60.0859 126.744V132.031L73.9133 140.009C74.398 140.289 74.8005 140.693 75.0803 141.178C75.3601 141.663 75.5074 142.213 75.5074 142.773C75.5074 143.333 75.3601 143.884 75.0803 144.369C74.8005 144.854 74.398 145.257 73.9133 145.537L60.0859 153.522V158.808L76.1936 149.505C77.382 148.831 78.3693 147.853 79.054 146.671C79.7386 145.489 80.0959 144.145 80.089 142.779Z" fill="white"/>
<path d="M78.5283 157.46L92.3495 149.482V144.195L76.2418 153.498C75.0612 154.181 74.081 155.162 73.3994 156.343C72.7179 157.524 72.3591 158.864 72.3591 160.227C72.3591 161.591 72.7179 162.931 73.3994 164.112C74.081 165.293 75.0612 166.274 76.2418 166.957L92.3495 176.259V170.973L78.5283 162.995C78.045 162.713 77.6441 162.309 77.3654 161.824C77.0868 161.339 76.9401 160.79 76.9401 160.23C76.9401 159.671 77.0868 159.121 77.3654 158.636C77.6441 158.151 78.045 157.748 78.5283 157.466V157.46Z" fill="white"/>
<path fill-rule="evenodd" clip-rule="evenodd" d="M119.597 139.253H111.776V163.363H119.597C126.281 163.363 131.961 159.371 131.961 151.308C131.961 143.245 126.281 139.253 119.597 139.253ZM127.346 151.308C127.346 157.266 123.384 159.401 119.216 159.401H116.337V143.179H119.216C123.384 143.179 127.346 145.35 127.346 151.308Z" fill="white"/>
<path fill-rule="evenodd" clip-rule="evenodd" d="M133.769 154.684C133.769 149.519 137.561 145.726 142.842 145.726C148.123 145.726 151.915 149.519 151.915 154.684C151.915 159.85 148.123 163.642 142.842 163.642C137.561 163.642 133.769 159.85 133.769 154.684ZM147.651 154.684C147.651 151.551 145.721 149.38 142.866 149.38C140.011 149.38 138.027 151.551 138.027 154.684C138.027 157.817 139.957 159.989 142.866 159.989C145.776 159.989 147.651 157.817 147.651 154.684Z" fill="white"/>
<path d="M166.041 163.363H170.275L170.287 146.003H166.053V155.475C166.053 158.028 164.402 159.885 162.025 159.885C159.841 159.885 158.395 158.233 158.395 155.856V146.003H154.161V156.752C154.161 160.816 156.708 163.641 160.633 163.641C163.113 163.641 165.079 162.57 166.041 160.677V163.363Z" fill="white"/>
<path fill-rule="evenodd" clip-rule="evenodd" d="M177.914 161.181V163.346H173.711V138.547H177.914V148.085C178.512 147.31 179.287 146.69 180.175 146.276C181.062 145.863 182.035 145.668 183.013 145.708C188.143 145.708 191.209 149.338 191.209 154.666C191.209 159.995 188.143 163.625 182.941 163.625C181.967 163.657 181.001 163.451 180.125 163.025C179.249 162.599 178.49 161.966 177.914 161.181ZM186.987 154.666C186.987 151.467 185.124 149.362 182.3 149.362C179.475 149.362 177.612 151.467 177.612 154.666C177.612 157.866 179.475 159.971 182.3 159.971C185.124 159.971 187.012 157.89 187.012 154.685L186.987 154.666Z" fill="white"/>
<path d="M197.994 138.563H193.802L193.796 163.363H197.994V138.563Z" fill="white"/>
<path fill-rule="evenodd" clip-rule="evenodd" d="M217.497 157.58C216.844 161.264 213.608 163.629 209.337 163.629C203.652 163.629 200.482 159.153 200.482 154.604C200.482 150.056 203.307 145.713 208.993 145.713C214.811 145.713 217.461 149.947 217.461 154.084C217.461 154.569 217.437 155.053 217.388 155.536H204.547C204.855 158.324 206.646 160.115 209.337 160.115C211.503 160.115 212.918 159.219 213.366 157.568L217.497 157.58ZM213.19 152.741H204.652C205.102 150.13 206.619 148.894 208.993 148.882C209.523 148.853 210.054 148.93 210.555 149.109C211.055 149.289 211.514 149.566 211.906 149.926C212.297 150.286 212.612 150.72 212.833 151.204C213.053 151.687 213.175 152.21 213.19 152.741Z" fill="white"/>
<path d="M231.33 138.974C225.028 138.974 219.378 143.111 219.378 151.307C219.378 159.509 224.925 163.64 231.33 163.64C237.258 163.64 241.668 160.229 242.151 155.233H237.603C237.191 157.864 234.639 159.678 231.33 159.678C227.132 159.678 223.963 156.781 223.963 151.307C223.963 145.833 227.132 142.899 231.33 142.899C234.572 142.899 237.119 144.726 237.464 147.381H242.218C241.565 142.385 237.155 138.974 231.33 138.974Z" fill="white"/>
<path d="M244.911 138.563H249.145V163.363H244.911V138.563Z" fill="white"/>
<path fill-rule="evenodd" clip-rule="evenodd" d="M260.662 145.726C255.382 145.726 251.589 149.519 251.589 154.684C251.589 159.85 255.375 163.642 260.662 163.642C265.949 163.642 269.735 159.85 269.735 154.684C269.735 149.519 265.943 145.726 260.662 145.726ZM260.686 149.38C263.541 149.38 265.471 151.551 265.471 154.684C265.471 157.817 263.596 159.989 260.686 159.989C257.777 159.989 255.847 157.817 255.847 154.684C255.847 151.551 257.831 149.38 260.686 149.38Z" fill="white"/>
<path d="M288.122 163.363H283.888V160.677C282.927 162.57 280.961 163.641 278.481 163.641C274.555 163.641 272.003 160.816 272.003 156.752V146.003H276.237V155.856C276.237 158.233 277.682 159.885 279.866 159.885C282.243 159.885 283.894 158.028 283.894 155.475V146.003H288.129L288.122 163.363Z" fill="white"/>
<path fill-rule="evenodd" clip-rule="evenodd" d="M298.773 145.725C293.638 145.725 290.571 149.378 290.571 154.683C290.571 159.969 293.638 163.641 298.815 163.599C299.787 163.633 300.754 163.431 301.63 163.01C302.507 162.588 303.268 161.96 303.848 161.179V163.363H308.082V138.563H303.872V148.102C303.274 147.327 302.499 146.707 301.612 146.293C300.724 145.88 299.751 145.685 298.773 145.725ZM299.463 149.378C302.287 149.378 304.144 151.483 304.144 154.683C304.144 157.889 302.287 159.987 299.463 159.987C296.638 159.987 294.775 157.864 294.775 154.683C294.775 151.501 296.638 149.378 299.463 149.378Z" fill="white"/>
<path d="M430.036 142.415H425.459L419.519 153.247L413.543 142.415H408.966L417.492 157.161V166.875H421.51V157.161L430.036 142.415ZM443.674 142.415H425.853V146.259H432.772V166.875H436.79V146.259H443.674V142.415ZM445.946 154.226C445.946 152.968 447.134 152.374 448.497 152.374C449.93 152.374 451.153 153.003 451.782 154.366L454.961 152.584C453.738 150.277 451.362 148.95 448.497 148.95C444.933 148.95 442.103 151.011 442.103 154.296C442.103 160.55 451.502 158.803 451.502 161.913C451.502 163.311 450.209 163.87 448.532 163.87C446.61 163.87 445.213 162.926 444.653 161.354L441.404 163.241C442.522 165.757 445.038 167.329 448.532 167.329C452.306 167.329 455.346 165.442 455.346 161.948C455.346 155.484 445.946 157.406 445.946 154.226ZM471.627 149.404V151.885C470.299 150.068 468.237 148.95 465.512 148.95C460.76 148.95 456.811 152.933 456.811 158.139C456.811 163.311 460.76 167.329 465.512 167.329C468.237 167.329 470.299 166.211 471.627 164.359V166.875H475.4V149.404H471.627ZM466.106 163.73C462.961 163.73 460.585 161.389 460.585 158.139C460.585 154.89 462.961 152.549 466.106 152.549C469.251 152.549 471.627 154.89 471.627 158.139C471.627 161.389 469.251 163.73 466.106 163.73ZM490.177 149.404V158.768C490.177 162.332 488.221 163.8 485.74 163.8C483.363 163.8 481.826 162.402 481.826 159.747V149.404H478.052V160.131C478.052 164.674 480.848 167.329 484.762 167.329C487.137 167.329 489.025 166.456 490.177 164.639V166.875H493.951V149.404H490.177ZM500.74 152.339V149.404H496.966V166.875H500.74V158.069C500.74 154.156 503.64 153.003 506.121 153.178V149.089C503.919 149.089 501.788 149.963 500.74 152.339ZM520.16 149.404V158.768C520.16 162.332 518.204 163.8 515.723 163.8C513.348 163.8 511.81 162.402 511.81 159.747V149.404H508.036V160.131C508.036 164.674 510.832 167.329 514.745 167.329C517.121 167.329 519.008 166.456 520.16 164.639V166.875H523.935V149.404H520.16ZM530.514 154.226C530.514 152.968 531.703 152.374 533.065 152.374C534.498 152.374 535.72 153.003 536.349 154.366L539.53 152.584C538.306 150.277 535.93 148.95 533.065 148.95C529.501 148.95 526.671 151.011 526.671 154.296C526.671 160.55 536.07 158.803 536.07 161.913C536.07 163.311 534.777 163.87 533.1 163.87C531.178 163.87 529.78 162.926 529.222 161.354L525.972 163.241C527.09 165.757 529.605 167.329 533.1 167.329C536.873 167.329 539.913 165.442 539.913 161.948C539.913 155.484 530.514 157.406 530.514 154.226Z" fill="white"/>
<path fill-rule="evenodd" clip-rule="evenodd" d="M368.63 142.444C372.726 136.689 379.251 133.475 382.344 134.093C384.328 134.489 383.126 136.637 381.692 139.067C381.319 139.701 380.952 140.285 380.623 140.811C379.69 142.3 379.054 143.315 379.378 143.645C384.52 138.701 387.826 138.15 390.581 138.15C393.309 138.15 392.026 140.116 390.623 142.265L390.581 142.329C390.378 142.641 390.168 142.949 389.965 143.246C389.177 144.404 388.505 145.39 388.806 145.719C391.771 143.609 394.841 143.099 396.283 143.397C397.725 143.695 398.149 144.32 396.159 147.398L394.256 150.253L394.343 150.393C395.019 151.479 396.048 153.133 396.048 155.77C396.048 161.061 392.006 166.32 389.744 168.672C389.548 168.876 389.277 168.985 388.994 168.985H384.792C384.475 168.985 384.23 168.711 384.24 168.394C384.42 162.757 378.435 162.989 374.445 168.746C374.343 168.893 374.175 168.985 373.995 168.985H370.044C369.759 168.985 369.484 168.874 369.295 168.661C367.759 166.938 366.356 164.021 366.002 162.765C364.313 165.373 359.684 166.807 356.376 164.575C352.447 161.925 352.473 157.417 354.171 154.664L357.623 156.626C357.115 158.626 357.868 160.004 359.313 160.004C361.399 160.004 362.218 157.475 363.389 153.86C364.448 150.589 365.795 146.427 368.63 142.444ZM371.159 156.809C372.31 154.209 372.31 151.689 371.159 151.18C370.008 150.671 368.142 152.366 366.991 154.967C366.704 155.615 366.489 156.258 366.345 156.866H371.134L371.159 156.809ZM379.64 151.18C380.791 151.689 380.791 154.209 379.64 156.809L379.614 156.866H374.825C374.969 156.258 375.185 155.615 375.472 154.967C376.623 152.366 378.489 150.671 379.64 151.18Z" fill="white"/>
<path fill-rule="evenodd" clip-rule="evenodd" d="M53.7617 254.891H62.1895C64.7154 254.891 66.877 254.394 68.6743 253.398C70.4797 252.402 71.86 250.973 72.8153 249.111C73.7787 247.249 74.2604 245.023 74.2604 242.432C74.2604 239.85 73.7828 237.631 72.8275 235.778C71.8722 233.924 70.504 232.503 68.7229 231.515C66.9499 230.519 64.8288 230.021 62.3595 230.021H53.7617V254.891ZM61.9709 250.993H58.2671V233.92H62.1045C63.7884 233.92 65.1971 234.235 66.3305 234.867C67.4721 235.49 68.3343 236.433 68.9172 237.696C69.5001 238.951 69.7915 240.53 69.7915 242.432C69.7915 244.335 69.5001 245.921 68.9172 247.192C68.3343 248.455 67.464 249.407 66.3063 250.046C65.1486 250.678 63.7034 250.993 61.9709 250.993ZM76.979 236.239V254.891H81.375V236.239H76.979ZM84.5277 261.886V236.239H88.8509V239.323H89.1059C89.3326 238.87 89.6523 238.388 90.0652 237.878C90.4781 237.36 91.0367 236.919 91.7411 236.555C92.4454 236.182 93.3441 235.996 94.437 235.996C95.8781 235.996 97.1775 236.364 98.3352 237.101C99.501 237.83 100.424 238.911 101.104 240.343C101.792 241.768 102.136 243.517 102.136 245.589C102.136 247.638 101.8 249.378 101.128 250.811C100.456 252.244 99.5414 253.337 98.3837 254.09C97.226 254.843 95.9145 255.219 94.4492 255.219C93.3805 255.219 92.494 255.041 91.7897 254.685C91.0853 254.329 90.5186 253.9 90.0895 253.398C89.6685 252.888 89.3407 252.406 89.1059 251.953H88.9237V261.886H84.5277ZM88.8387 245.565C88.8387 246.771 89.0087 247.828 89.3488 248.735C89.6969 249.641 90.1948 250.35 90.8424 250.86C91.4982 251.362 92.2916 251.613 93.2226 251.613C94.1941 251.613 95.0078 251.354 95.6635 250.835C96.3193 250.309 96.8131 249.593 97.1451 248.686C97.4851 247.771 97.6551 246.731 97.6551 245.565C97.6551 244.407 97.4891 243.379 97.1572 242.481C96.8253 241.582 96.3314 240.878 95.6757 240.368C95.0199 239.858 94.2022 239.603 93.2226 239.603C92.2835 239.603 91.4861 239.85 90.8303 240.343C90.1745 240.837 89.6766 241.529 89.3366 242.42C89.0047 243.311 88.8387 244.359 88.8387 245.565ZM108.929 254.891V230.021H104.533V254.891H108.929ZM120.218 255.256C118.396 255.256 116.818 254.855 115.482 254.053C114.146 253.252 113.11 252.131 112.373 250.69C111.644 249.249 111.28 247.565 111.28 245.638C111.28 243.711 111.644 242.023 112.373 240.574C113.11 239.125 114.146 238 115.482 237.198C116.818 236.397 118.396 235.996 120.218 235.996C122.039 235.996 123.618 236.397 124.954 237.198C126.29 238 127.322 239.125 128.051 240.574C128.787 242.023 129.156 243.711 129.156 245.638C129.156 247.565 128.787 249.249 128.051 250.69C127.322 252.131 126.29 253.252 124.954 254.053C123.618 254.855 122.039 255.256 120.218 255.256ZM120.242 251.734C121.23 251.734 122.056 251.463 122.72 250.92C123.383 250.37 123.877 249.633 124.201 248.71C124.533 247.787 124.699 246.759 124.699 245.626C124.699 244.484 124.533 243.452 124.201 242.529C123.877 241.598 123.383 240.858 122.72 240.307C122.056 239.757 121.23 239.481 120.242 239.481C119.23 239.481 118.388 239.757 117.716 240.307C117.052 240.858 116.555 241.598 116.223 242.529C115.899 243.452 115.737 244.484 115.737 245.626C115.737 246.759 115.899 247.787 116.223 248.71C116.555 249.633 117.052 250.37 117.716 250.92C118.388 251.463 119.23 251.734 120.242 251.734ZM134.506 254.09C135.664 254.843 136.976 255.219 138.441 255.219C139.51 255.219 140.396 255.041 141.101 254.685C141.805 254.329 142.372 253.9 142.801 253.398C143.23 252.888 143.558 252.406 143.784 251.953H144.051V254.891H148.375V230.021H143.966V239.323H143.784C143.558 238.87 143.238 238.388 142.825 237.878C142.412 237.36 141.853 236.919 141.149 236.555C140.445 236.182 139.546 235.996 138.453 235.996C137.02 235.996 135.721 236.364 134.555 237.101C133.389 237.83 132.462 238.911 131.774 240.343C131.094 241.768 130.754 243.517 130.754 245.589C130.754 247.638 131.09 249.378 131.762 250.811C132.434 252.244 133.349 253.337 134.506 254.09ZM142.048 250.86C141.392 251.362 140.599 251.613 139.668 251.613C138.704 251.613 137.891 251.354 137.227 250.835C136.571 250.309 136.073 249.593 135.733 248.686C135.401 247.771 135.235 246.731 135.235 245.565C135.235 244.407 135.401 243.379 135.733 242.481C136.065 241.582 136.559 240.878 137.215 240.368C137.87 239.858 138.688 239.603 139.668 239.603C140.615 239.603 141.412 239.85 142.06 240.343C142.716 240.837 143.209 241.529 143.541 242.42C143.881 243.311 144.051 244.359 144.051 245.565C144.051 246.771 143.881 247.828 143.541 248.735C143.201 249.641 142.703 250.35 142.048 250.86ZM159.828 255.256C158.006 255.256 156.427 254.855 155.091 254.053C153.756 253.252 152.719 252.131 151.983 250.69C151.254 249.249 150.89 247.565 150.89 245.638C150.89 243.711 151.254 242.023 151.983 240.574C152.719 239.125 153.756 238 155.091 237.198C156.427 236.397 158.006 235.996 159.828 235.996C161.649 235.996 163.228 236.397 164.564 237.198C165.899 238 166.932 239.125 167.66 240.574C168.397 242.023 168.765 243.711 168.765 245.638C168.765 247.565 168.397 249.249 167.66 250.69C166.932 252.131 165.899 253.252 164.564 254.053C163.228 254.855 161.649 255.256 159.828 255.256ZM159.852 251.734C160.84 251.734 161.665 251.463 162.329 250.92C162.993 250.37 163.487 249.633 163.811 248.71C164.143 247.787 164.309 246.759 164.309 245.626C164.309 244.484 164.143 243.452 163.811 242.529C163.487 241.598 162.993 240.858 162.329 240.307C161.665 239.757 160.84 239.481 159.852 239.481C158.84 239.481 157.998 239.757 157.326 240.307C156.662 240.858 156.164 241.598 155.832 242.529C155.508 243.452 155.347 244.484 155.347 245.626C155.347 246.759 155.508 247.787 155.832 248.71C156.164 249.633 156.662 250.37 157.326 250.92C157.998 251.463 158.84 251.734 159.852 251.734ZM174.468 254.029C175.804 254.847 177.403 255.256 179.265 255.256C180.828 255.256 182.188 254.972 183.345 254.406C184.503 253.831 185.418 253.037 186.09 252.026C186.762 251.005 187.15 249.836 187.256 248.516H183.054C182.924 249.188 182.686 249.759 182.337 250.228C181.989 250.698 181.556 251.058 181.038 251.309C180.528 251.552 179.949 251.673 179.301 251.673C178.387 251.673 177.589 251.43 176.909 250.945C176.237 250.451 175.715 249.751 175.343 248.844C174.97 247.929 174.784 246.836 174.784 245.565C174.784 244.31 174.97 243.234 175.343 242.335C175.723 241.436 176.253 240.748 176.933 240.271C177.614 239.785 178.403 239.542 179.301 239.542C180.362 239.542 181.208 239.846 181.84 240.453C182.479 241.052 182.884 241.801 183.054 242.699H187.256C187.159 241.355 186.762 240.182 186.066 239.178C185.369 238.166 184.434 237.384 183.26 236.834C182.095 236.275 180.755 235.996 179.241 235.996C177.419 235.996 175.841 236.405 174.505 237.223C173.177 238.032 172.149 239.166 171.42 240.623C170.692 242.072 170.327 243.744 170.327 245.638C170.327 247.524 170.683 249.192 171.396 250.641C172.116 252.082 173.141 253.212 174.468 254.029ZM76.9551 230.027V233.322H81.383V230.027H76.9551Z" fill="white"/>
<path fill-rule="evenodd" clip-rule="evenodd" d="M25.2857 224.26H16.9381C16.3316 224.26 15.8398 224.751 15.8398 225.358V232.166H5.84242C5.23586 232.166 4.74414 232.658 4.74414 233.264V261.16C4.74414 261.767 5.23586 262.258 5.84242 262.258H28.1377C28.7443 262.258 29.236 261.767 29.236 261.16V254.462H39.2334C39.84 254.462 40.3317 253.97 40.3317 253.364V239.306C40.3317 230.996 33.5954 224.26 25.2857 224.26ZM29.236 254.462V233.264C29.236 232.658 28.7443 232.166 28.1377 232.166H15.8398V253.364C15.8398 253.97 16.3316 254.462 16.9381 254.462H29.236Z" fill="white"/>
<g clip-path="url(#clip0_2403_75876)">
<path fill-rule="evenodd" clip-rule="evenodd" d="M272.256 223.26H232.256V227.432C235.153 226.532 238.346 226.033 241.701 226.033C255.665 226.033 265.59 233.414 265.59 243.255C265.59 253.097 255.665 260.477 241.701 260.477C238.346 260.477 235.153 259.979 232.256 259.079V263.26H272.256V223.26ZM232.256 249.808C235.056 250.238 238.239 250.478 241.702 250.478C254.414 250.478 263.368 247.817 263.368 243.255C263.368 238.694 254.414 236.033 241.702 236.033C238.239 236.033 235.056 236.273 232.256 236.703V249.808Z" fill="white"/>
</g>
<path d="M289.98 251.28C295.005 251.28 297.517 248.566 297.517 243.138V242.853C297.517 240.175 296.901 238.172 295.669 236.845C294.46 235.493 292.54 234.818 289.909 234.818H287.633V251.28H289.98ZM281.873 230.338H290.193C294.531 230.338 297.873 231.452 300.22 233.68C302.424 235.885 303.526 238.919 303.526 242.782V243.067C303.526 246.978 302.412 250.047 300.184 252.276C297.861 254.599 294.519 255.76 290.157 255.76H281.873V230.338Z" fill="white"/>
<path d="M311.607 256.151C309.806 256.151 308.348 255.713 307.234 254.836C306.002 253.864 305.385 252.453 305.385 250.605C305.385 248.542 306.286 247.002 308.087 245.982C309.699 245.082 312.022 244.631 315.056 244.631H317.154V243.885C317.154 242.699 316.929 241.834 316.479 241.289C316.052 240.744 315.27 240.471 314.132 240.471C312.307 240.471 311.252 241.348 310.967 243.102H306.096C306.239 241.016 307.104 239.405 308.692 238.267C310.138 237.248 312.058 236.738 314.452 236.738C316.846 236.738 318.719 237.259 320.07 238.302C321.516 239.44 322.239 241.218 322.239 243.636V255.76H317.225V253.52C315.969 255.274 314.096 256.151 311.607 256.151ZM313.136 252.56C314.298 252.56 315.258 252.264 316.016 251.671C316.775 251.079 317.154 250.273 317.154 249.253V247.689H315.163C313.599 247.689 312.413 247.89 311.607 248.293C310.825 248.696 310.434 249.372 310.434 250.32C310.434 251.813 311.335 252.56 313.136 252.56Z" fill="white"/>
<path d="M332.805 256.116C328.799 256.116 326.796 254.16 326.796 250.249V240.827H324.414V237.165H326.796V233.147H331.916V237.165H335.827V240.827H331.916V249.787C331.916 251.256 332.603 251.991 333.978 251.991C334.736 251.991 335.388 251.873 335.934 251.636V255.618C334.985 255.95 333.942 256.116 332.805 256.116Z" fill="white"/>
<path d="M343.953 256.151C342.152 256.151 340.694 255.713 339.58 254.836C338.347 253.864 337.731 252.453 337.731 250.605C337.731 248.542 338.632 247.002 340.433 245.982C342.045 245.082 344.368 244.631 347.402 244.631H349.5V243.885C349.5 242.699 349.275 241.834 348.824 241.289C348.398 240.744 347.615 240.471 346.478 240.471C344.652 240.471 343.598 241.348 343.313 243.102H338.442C338.584 241.016 339.45 239.405 341.038 238.267C342.484 237.248 344.404 236.738 346.798 236.738C349.192 236.738 351.064 237.259 352.415 238.302C353.861 239.44 354.584 241.218 354.584 243.636V255.76H349.571V253.52C348.315 255.274 346.442 256.151 343.953 256.151ZM345.482 252.56C346.644 252.56 347.604 252.264 348.362 251.671C349.121 251.079 349.5 250.273 349.5 249.253V247.689H347.509C345.944 247.689 344.759 247.89 343.953 248.293C343.171 248.696 342.78 249.372 342.78 250.32C342.78 251.813 343.681 252.56 345.482 252.56Z" fill="white"/>
<path d="M358.822 230.338H364.582V251.245H374.928V255.76H358.822V230.338Z" fill="white"/>
<path d="M385.861 256.151C382.97 256.151 380.659 255.31 378.928 253.627C377.079 251.92 376.155 249.609 376.155 246.693V246.409C376.155 243.517 377.079 241.17 378.928 239.369C380.73 237.615 382.993 236.738 385.719 236.738C388.303 236.738 390.413 237.485 392.048 238.978C393.873 240.637 394.786 243.043 394.786 246.196V247.618H381.381C381.453 249.182 381.879 250.391 382.661 251.245C383.467 252.074 384.581 252.489 386.004 252.489C388.232 252.489 389.524 251.624 389.879 249.893H394.75C394.442 251.908 393.518 253.461 391.977 254.551C390.46 255.618 388.421 256.151 385.861 256.151ZM389.773 244.453C389.607 241.68 388.256 240.293 385.719 240.293C384.558 240.293 383.598 240.661 382.839 241.396C382.104 242.107 381.642 243.126 381.453 244.453H389.773Z" fill="white"/>
<path d="M397.511 237.165H402.666V240.116C403.828 237.864 405.842 236.738 408.711 236.738C410.583 236.738 412.088 237.307 413.226 238.445C414.388 239.677 414.968 241.502 414.968 243.92V255.76H409.813V244.667C409.813 243.387 409.552 242.45 409.031 241.858C408.509 241.242 407.679 240.933 406.542 240.933C405.38 240.933 404.444 241.289 403.733 242C403.022 242.688 402.666 243.695 402.666 245.022V255.76H397.511V237.165Z" fill="white"/>
<path d="M425.491 256.151C422.979 256.151 421.023 255.618 419.624 254.551C418.226 253.485 417.479 251.944 417.384 249.929H422.184C422.327 250.83 422.635 251.493 423.109 251.92C423.583 252.347 424.365 252.56 425.456 252.56C427.399 252.56 428.371 251.885 428.371 250.533C428.371 249.893 428.087 249.419 427.518 249.111C426.949 248.779 425.977 248.519 424.602 248.329C422.09 247.926 420.336 247.322 419.34 246.516C418.273 245.686 417.74 244.359 417.74 242.533C417.74 240.708 418.499 239.25 420.016 238.16C421.319 237.212 423.014 236.738 425.1 236.738C427.257 236.738 428.999 237.165 430.327 238.018C431.725 238.966 432.543 240.459 432.78 242.498H428.051C427.909 241.716 427.613 241.147 427.162 240.791C426.712 240.436 426.036 240.258 425.136 240.258C424.306 240.258 423.654 240.436 423.18 240.791C422.73 241.147 422.504 241.609 422.504 242.178C422.504 242.77 422.753 243.209 423.251 243.493C423.773 243.778 424.721 244.015 426.096 244.205C428.537 244.536 430.327 245.093 431.464 245.876C432.697 246.8 433.313 248.187 433.313 250.036C433.313 252.027 432.626 253.544 431.251 254.587C429.9 255.63 427.98 256.151 425.491 256.151Z" fill="white"/>
<g clip-path="url(#clip1_2403_75876)">
<g clip-path="url(#clip2_2403_75876)">
<path fill-rule="evenodd" clip-rule="evenodd" d="M490.112 226.873C485.504 226.873 481.768 228.185 481.768 230.646V243.431C481.768 245.892 485.504 247.204 490.112 247.204C491.726 247.204 493.233 247.043 494.51 246.729V257.389C494.51 259.85 498.246 261.161 502.855 261.161C507.463 261.161 511.199 259.85 511.199 257.389V246.648C512.539 247.016 514.16 247.204 515.906 247.204C520.514 247.204 524.251 245.892 524.251 243.431V230.646C524.251 228.185 520.514 226.873 515.906 226.873C511.297 226.873 507.561 228.185 507.561 230.646V235.37H498.457V230.646C498.457 228.185 494.721 226.873 490.112 226.873ZM511.199 245.452L515.754 239.314H512.416L510.046 242.52C510.779 243.081 511.199 243.778 511.199 244.603V245.452ZM507.561 241.386V238.101H498.457V241.306C499.734 240.991 501.241 240.83 502.855 240.83C504.6 240.83 506.221 241.019 507.561 241.386ZM495.666 242.518L493.298 239.314H489.96L494.51 245.446V244.603C494.51 243.776 494.931 243.079 495.666 242.518ZM483.284 230.666C483.284 230.398 483.453 229.839 484.769 229.267C486.027 228.719 487.902 228.39 490.112 228.39C492.322 228.39 494.197 228.719 495.455 229.267C496.771 229.839 496.94 230.398 496.94 230.666C496.94 230.933 496.771 231.493 495.455 232.065C494.197 232.612 492.322 232.942 490.112 232.942C487.902 232.942 486.027 232.612 484.769 232.065C483.453 231.493 483.284 230.933 483.284 230.666ZM510.562 229.267C509.246 229.839 509.078 230.398 509.078 230.666C509.078 230.933 509.246 231.493 510.562 232.065C511.82 232.612 513.696 232.942 515.905 232.942C518.115 232.942 519.99 232.612 521.249 232.065C522.564 231.493 522.733 230.933 522.733 230.666C522.733 230.398 522.564 229.839 521.249 229.267C519.99 228.719 518.115 228.39 515.905 228.39C513.696 228.39 511.82 228.719 510.562 229.267ZM497.511 243.224C496.195 243.797 496.027 244.356 496.027 244.623C496.027 244.891 496.195 245.45 497.511 246.023C498.77 246.57 500.645 246.899 502.855 246.899C505.064 246.899 506.94 246.57 508.198 246.023C509.514 245.45 509.682 244.891 509.682 244.623C509.682 244.356 509.514 243.797 508.198 243.224C506.94 242.677 505.064 242.348 502.855 242.348C500.645 242.348 498.77 242.677 497.511 243.224Z" fill="white"/>
</g>
<path fill-rule="evenodd" clip-rule="evenodd" d="M586.322 232.182H577.312V254.333H587.975C591.912 254.333 594.836 251.575 594.836 247.804C594.836 245.253 593.423 243.317 591.188 242.331C592.224 241.307 592.852 239.954 592.852 238.381C592.852 234.792 590.076 232.182 586.322 232.182ZM581.28 235.488V241.274H585.991C587.589 241.274 588.884 239.979 588.884 238.381C588.884 236.783 587.589 235.488 585.991 235.488H581.28ZM581.28 251.027V244.58H587.645C589.425 244.58 590.868 246.023 590.868 247.804C590.868 249.584 589.425 251.027 587.645 251.027H581.28Z" fill="white"/>
<path d="M534.521 232.182H538.985L544.606 241.935L550.226 232.182H554.69L546.598 246.06V254.333H542.614V246.06L534.521 232.182Z" fill="white"/>
<path fill-rule="evenodd" clip-rule="evenodd" d="M556.262 232.182H563.866C570.479 232.182 574.942 236.479 574.942 243.258C574.942 250.036 570.479 254.333 563.866 254.333H556.262V232.182ZM560.229 251.027V235.488H563.535C567.992 235.488 570.975 238.305 570.975 243.258C570.975 248.21 567.992 251.027 563.535 251.027H560.229Z" fill="white"/>
</g>
<defs>
<clipPath id="clip0_2403_75876">
<rect x="232.256" y="223.258" width="39.9999" height="39.9999" rx="20" fill="white"/>
</clipPath>
<clipPath id="clip1_2403_75876">
<rect width="114.249" height="44.0002" fill="white" transform="translate(481.006 221.258)"/>
</clipPath>
<clipPath id="clip2_2403_75876">
<rect width="44.0002" height="44.0002" fill="white" transform="translate(481.006 221.258)"/>
</clipPath>
</defs>
</svg>
