<svg width="1080" height="190" fill="none" xmlns="http://www.w3.org/2000/svg"><path fill-rule="evenodd" clip-rule="evenodd" d="M277.78 53.5c0 11.445-9.302 20.747-20.748 20.747-11.445 0-20.747-9.302-20.747-20.748 0-11.445 9.302-20.747 20.747-20.747 11.446 0 20.748 9.302 20.748 20.747zm-3.666 0c0 9.44-7.642 17.081-17.082 17.081-2.47 0-4.315-.927-5.237-2.052-.923-1.124-1.183-2.965-.865-5.623l5.498-1.09c5.023-.92 7.791-3.716 8.782-8.726.122-.701.26-1.402.391-2.067l.156-.796c.147-.8.29-1.56.42-2.26l.007-.033v-.001c.14-.747.266-1.423.371-2 .563-3.257.105-5.662-1.16-7.335 5.206 2.926 8.719 8.5 8.719 14.901zm-17.082-17.083c-9.44 0-17.082 7.642-17.082 17.082 0 6.401 3.514 11.976 8.719 14.901-1.265-1.673-1.722-4.077-1.16-7.335.121-.662.266-1.444.427-2.316l.359-1.944.15-.763.006-.03v-.002c.131-.665.27-1.366.391-2.068.957-5.044 3.725-7.838 8.748-8.759l5.545-1.09c.317-2.659.058-4.499-.865-5.624-.923-1.124-2.768-2.052-5.238-2.052zm5.445 11.493-4.169.818c-3.554.681-5.194 2.317-5.878 5.862-.159.792-.297 1.544-.431 2.27l-.116.627v.004c-.103.544-.205 1.088-.307 1.598l4.135-.818c3.553-.682 5.228-2.318 5.911-5.862.15-.748.289-1.497.427-2.246v-.002l.001-.002v-.002c.138-.75.277-1.5.427-2.247z" fill="#fff"/><path d="M112.101 69.06v-5.305c0-4-.495-5.17-2.023-8.496l-8.002-17.442h-5.664l10.249 22.297v8.946h5.44zM115.652 52.922l6.653-15.105h-5.529l-6.653 15.105h5.529z" fill="#fff"/><path fill-rule="evenodd" clip-rule="evenodd" d="M172.472 69.509c2.517 0 4.585-1.169 6.024-3.371l.269 2.921h4.945V37.817h-5.349V49.1c-1.349-2.022-3.327-3.101-5.664-3.101-5.17 0-8.766 4.36-8.766 11.912 0 7.462 3.506 11.598 8.541 11.598zm1.573-19.285c2.877 0 4.316 2.293 4.316 7.507 0 5.26-1.529 7.553-4.54 7.553-2.922 0-4.361-2.248-4.361-7.373 0-5.35 1.529-7.687 4.585-7.687zM205.332 67.531v-4.36c-1.663 1.123-4.45 2.113-7.057 2.113-3.911 0-5.395-1.844-5.619-5.62h12.901v-2.832c0-7.866-3.461-10.833-8.811-10.833-6.518 0-9.619 4.99-9.619 11.822 0 7.867 3.865 11.688 10.698 11.688 3.417 0 5.934-.9 7.507-1.978zm-8.675-17.307c2.652 0 3.461 2.203 3.461 5.035v.45h-7.462c.135-3.597 1.438-5.485 4.001-5.485zM138.038 53.64c0-5.483-2.787-7.551-8.451-7.551-3.506 0-6.338 1.483-7.956 2.652v4.63c1.708-1.394 4.315-3.012 7.327-3.012 2.562 0 3.731.9 3.731 3.327v1.438h-.854c-8.182 0-11.823 2.652-11.823 7.372 0 4.36 2.787 6.878 6.923 6.878 3.147 0 4.495-1.034 5.529-2.113h.225a7.08 7.08 0 0 0 .404 1.799h5.215a56.851 56.851 0 0 1-.27-5.53v-9.89zm-5.349 10.025c-.674.99-1.933 1.798-3.821 1.798-2.248 0-3.372-1.303-3.372-3.281 0-2.608 1.844-3.507 6.429-3.507h.764v4.99z" fill="#fff"/><path d="M147.748 52.832c.989-1.214 2.562-2.248 4.495-2.248 1.888 0 2.742.81 2.742 2.517V69.06h5.35V52.561c0-4.495-1.798-6.473-6.159-6.473-3.191 0-5.079 1.168-6.158 2.247h-.27l-.135-1.888h-5.214V69.06h5.349V52.832zM221.785 69.06h6.024l-7.373-11.643 6.384-10.969h-5.35l-3.866 6.833-4.315-6.833h-6.024l6.833 10.834-7.102 11.778h5.439l4.54-7.643 4.81 7.642zM298.452 69.51c3.371 0 5.664-1.214 7.057-2.157v-4.36c-1.798 1.303-3.776 2.292-6.653 2.292-4.945 0-7.282-4.001-7.282-11.823 0-8.046 2.247-11.867 7.552-11.867 2.472 0 4.765 1.078 6.383 2.112v-4.36c-1.438-1.034-3.776-1.978-6.653-1.978-8.316 0-12.811 6.114-12.811 16.093 0 10.25 4.675 16.048 12.407 16.048zM314.462 37.819h-5.349V69.06h5.349V37.819z" fill="#fff"/><path fill-rule="evenodd" clip-rule="evenodd" d="M318.047 57.778c0-7.597 4.091-11.778 9.98-11.778 5.888 0 9.979 4.18 9.979 11.733 0 7.597-4.091 11.777-9.979 11.777-5.889 0-9.98-4.18-9.98-11.732zm5.529 0c0 5.214 1.484 7.507 4.451 7.507 2.966 0 4.45-2.293 4.45-7.552 0-5.215-1.484-7.508-4.45-7.508-2.967 0-4.451 2.293-4.451 7.553z" fill="#fff"/><path d="M353.96 62.677c-.989 1.214-2.562 2.248-4.495 2.248-1.888 0-2.742-.81-2.742-2.517V46.449h-5.35v16.498c0 4.495 1.798 6.473 6.159 6.473 3.191 0 5.079-1.168 6.158-2.247h.27l.135 1.888h5.214V46.449h-5.349v16.228z" fill="#fff"/><path fill-rule="evenodd" clip-rule="evenodd" d="M377.477 66.139c-1.439 2.203-3.507 3.371-6.024 3.371-5.035 0-8.541-4.135-8.541-11.598 0-7.552 3.596-11.912 8.766-11.912 2.337 0 4.315 1.079 5.664 3.102V37.819h5.349V69.06h-4.945l-.269-2.922zm-.135-8.406c0-5.215-1.439-7.508-4.316-7.508-3.057 0-4.585 2.338-4.585 7.687 0 5.125 1.439 7.373 4.36 7.373 3.012 0 4.541-2.293 4.541-7.552z" fill="#fff"/><path d="M614.12 51.39s8.037.683 9.853 5.08h.006c1.816 4.396-.397 8.506-4.351 10.156-3.953 1.65-7.519 1.922-11.653 1.922-4.135 0-16.603-.272-16.568-9.873h6.053c.075 5.582 10.703 4.999 13.455 4.848.148-.009.274-.016.374-.02 1.701-.081 7.061-.469 7.14-3.81.075-3.133-5.153-3.581-6.495-3.697-.089-.007-.161-.013-.213-.019-.846-.086-7.029-.723-8.765-.903-1.737-.18-6.072-.74-8.922-3.111-2.849-2.37-1.816-6.651-1.816-6.651.439-1.873 1.657-3.398 3.664-4.57 1.88-1.1 4.332-1.792 7.347-2.088 0 0 4.259-.457 8.992 0a.116.116 0 0 0 .032.003c3.212.31 5.785 1.06 7.712 2.258 2.596 1.618 3.897 3.968 3.897 7.05h-6.009a3.721 3.721 0 0 0-.235-1.305c-.483-1.218-2.039-2.885-6.927-3.166-7.85-.452-10.359.779-10.359.779s-2.211.714-2.255 2.648c-.045 1.933 1.313 2.95 5.715 3.398l10.328 1.07zM456.075 51.257l4.188 10.292c1.504 3.696 5.051 3.03 5.051 3.03-.005.047-.354 3.87-4.692 3.87 0 0-.245.02-.639-.043-3.544-.415-4.905-4.19-5.237-5.111l-.049-.134-3.041-7.474-4.188-10.292c-1.505-3.696-5.051-3.03-5.051-3.03.004-.046.353-3.87 4.691-3.87 0 0 .245-.02.639.044 3.544.415 4.905 4.19 5.238 5.11l.048.134 3.037 7.462.005.012z" fill="#fff"/><path d="M465.311 64.58V39.145h5.725v19.092c0 4.995-4.24 6.104-5.725 6.341zM476.76 67.798h28.625v-4.92h-22.9v-7.063h21.176v-4.92h-21.176v-6.828h22.9v-4.92H476.76v28.651zM544.488 39.146h5.725v28.652h-5.725V39.146zM561.656 57.398V39.146h-5.709v18.979c0 2.046.661 3.945 1.787 5.551 2.017 2.872 5.541 4.779 9.564 4.779h2.977c4.024 0 7.548-2.052 9.564-4.923h-11.644c-3.629-.096-6.542-2.805-6.542-6.134h.003zM581.612 57.98c0 2.035-.656 3.951-1.772 5.552h1.193c3.508-.214 6.285-2.886 6.285-6.134V39.146h-5.706V57.98zM436.689 48.721v19.08h5.725V42.368s-5.725.625-5.725 6.353z" fill="#fff"/><path fill-rule="evenodd" clip-rule="evenodd" d="M535.484 52.849c4.252-3.028 3.476-9.005.308-11.514-2.794-2.217-7.078-2.202-9.869-2.193l-.509.002h-15.276v28.654h19.09c6.746 0 11.23-3.39 11.23-8.316 0-5.192-4.977-6.633-4.977-6.633h.003zm-19.618-8.811h10.432c.081 0 .181-.002.297-.004 1.573-.028 6.115-.108 6.115 3.434 0 2.868-2.824 3.43-4.335 3.43h-12.509v-6.86zm13.006 18.874-13.009-.005v-7.12H528.966c1.418-.004 5.443-.012 5.443 3.366 0 3.473-3.626 3.76-5.537 3.76z" fill="#fff"/><path d="M703.221 42.773a9.45 9.45 0 0 0-4.775-8.278l-19.823-11.44v6.5l17.004 9.812a3.927 3.927 0 0 1 0 6.798l-17.004 9.819v6.5l19.808-11.44a9.456 9.456 0 0 0 4.79-8.27zM701.302 60.827l16.996-9.811v-6.501l-19.808 11.44a9.555 9.555 0 0 0-4.774 8.275 9.559 9.559 0 0 0 4.774 8.275l19.808 11.44v-6.501l-16.996-9.811a3.94 3.94 0 0 1-1.953-3.4 3.931 3.931 0 0 1 1.953-3.399v-.007z" fill="#fff"/><path fill-rule="evenodd" clip-rule="evenodd" d="M751.805 38.437h-9.617v29.649h9.617c8.22 0 15.204-4.91 15.204-14.825s-6.984-14.824-15.204-14.824zm9.529 14.824c0 7.327-4.872 9.953-9.997 9.953h-3.541v-19.95h3.541c5.125 0 9.997 2.67 9.997 9.997zM769.232 57.413c0-6.352 4.664-11.016 11.158-11.016 6.493 0 11.157 4.664 11.157 11.016S786.883 68.43 780.39 68.43c-6.494 0-11.158-4.664-11.158-11.016zm17.071 0c0-3.853-2.373-6.523-5.883-6.523-3.511 0-5.951 2.67-5.951 6.523 0 3.853 2.373 6.524 5.951 6.524 3.577 0 5.883-2.67 5.883-6.524z" fill="#fff"/><path d="M808.918 68.085h5.207l.015-21.347h-5.207v11.648c0 3.139-2.031 5.422-4.954 5.422-2.685 0-4.463-2.03-4.463-4.953V46.737h-5.207v13.217c0 4.999 3.132 8.472 7.959 8.472 3.05 0 5.467-1.316 6.65-3.644v3.302z" fill="#fff"/><path fill-rule="evenodd" clip-rule="evenodd" d="M823.519 65.402v2.663h-5.17V37.57h5.17v11.73a7.523 7.523 0 0 1 6.27-2.924c6.308 0 10.079 4.463 10.079 11.016s-3.771 11.016-10.168 11.016a7.36 7.36 0 0 1-6.181-3.005zm11.157-8.01c0-3.936-2.291-6.524-5.764-6.524-3.474 0-5.765 2.588-5.765 6.523 0 3.935 2.291 6.524 5.765 6.524 3.473 0 5.794-2.56 5.794-6.501l-.03-.023z" fill="#fff"/><path d="M848.211 37.589h-5.155l-.007 30.496h5.162V37.59z" fill="#fff"/><path fill-rule="evenodd" clip-rule="evenodd" d="M872.195 60.974c-.804 4.53-4.783 7.439-10.035 7.439-6.991 0-10.889-5.505-10.889-11.098 0-5.594 3.474-10.934 10.466-10.934 7.155 0 10.413 5.206 10.413 10.294 0 .596-.029 1.192-.089 1.785h-15.792c.38 3.43 2.581 5.631 5.891 5.631 2.663 0 4.404-1.1 4.954-3.131l5.081.014zm-5.296-5.95h-10.501c.554-3.21 2.42-4.73 5.339-4.746a4.89 4.89 0 0 1 4.722 2.855c.271.595.421 1.238.44 1.89z" fill="#fff"/><path d="M889.206 38.094c-7.751 0-14.698 5.087-14.698 15.166 0 10.086 6.821 15.167 14.698 15.167 7.289 0 12.712-4.196 13.307-10.34h-5.594c-.506 3.236-3.645 5.468-7.713 5.468-5.163 0-9.06-3.563-9.06-10.295 0-6.731 3.897-10.339 9.06-10.339 3.986 0 7.118 2.246 7.542 5.512h5.846c-.803-6.144-6.225-10.34-13.388-10.34zM905.906 37.589h5.207v30.496h-5.207V37.59z" fill="#fff"/><path fill-rule="evenodd" clip-rule="evenodd" d="M925.275 46.397c-6.493 0-11.157 4.664-11.157 11.016s4.656 11.016 11.157 11.016 11.158-4.664 11.158-11.016-4.664-11.016-11.158-11.016zm.03 4.493c3.511 0 5.884 2.67 5.884 6.523 0 3.853-2.306 6.524-5.884 6.524-3.578 0-5.95-2.67-5.95-6.524 0-3.853 2.439-6.523 5.95-6.523z" fill="#fff"/><path d="M959.044 68.085h-5.207v-3.302c-1.182 2.328-3.6 3.644-6.649 3.644-4.828 0-7.967-3.473-7.967-8.472V46.738h5.207v12.117c0 2.923 1.778 4.953 4.463 4.953 2.923 0 4.954-2.283 4.954-5.422V46.738h5.207l-.008 21.347z" fill="#fff"/><path fill-rule="evenodd" clip-rule="evenodd" d="M972.141 46.395c-6.315 0-10.086 4.493-10.086 11.016 0 6.501 3.771 11.016 10.138 10.964a7.38 7.38 0 0 0 6.189-2.975v2.685h5.207V37.59h-5.177v11.73a7.537 7.537 0 0 0-6.271-2.924zm.848 4.493c3.474 0 5.757 2.589 5.757 6.523 0 3.943-2.283 6.524-5.757 6.524-3.473 0-5.764-2.611-5.764-6.524 0-3.912 2.291-6.523 5.764-6.523z" fill="#fff"/><path d="M371.972 147.757v13.174h-5.27V147.8l-10.323-17.839h5.874l7.386 13.304 7.516-13.304h5.054l-10.237 17.796zM385.974 129.961h10.453c2.188 0 4.218.245 6.09.734 1.901.49 3.542 1.296 4.924 2.419 1.411 1.123 2.505 2.606 3.283 4.449.806 1.843 1.209 4.118 1.209 6.825 0 2.735-.403 5.14-1.209 7.213-.778 2.045-1.886 3.758-3.326 5.14-1.411 1.382-3.096 2.433-5.054 3.153-1.929.691-4.046 1.037-6.349 1.037h-10.021v-30.97zm5.226 4.535v21.943h4.968c1.526 0 2.908-.231 4.146-.691a8.247 8.247 0 0 0 3.24-2.117c.921-.95 1.627-2.16 2.116-3.628.519-1.497.778-3.268.778-5.313 0-2.016-.245-3.671-.735-4.967-.489-1.325-1.18-2.376-2.073-3.153-.864-.778-1.9-1.311-3.11-1.599-1.209-.316-2.52-.475-3.931-.475H391.2zM416.893 129.961h10.539c3.686 0 6.494.576 8.423 1.728 1.929 1.152 2.894 3.095 2.894 5.831 0 1.123-.158 2.102-.475 2.937a6.15 6.15 0 0 1-1.382 2.117c-.576.575-1.282 1.051-2.117 1.425-.835.374-1.756.662-2.764.864 2.591.317 4.549 1.022 5.874 2.116 1.325 1.095 1.987 2.765 1.987 5.011 0 1.612-.317 2.995-.95 4.146a7.812 7.812 0 0 1-2.635 2.765c-1.123.691-2.448 1.209-3.974 1.555-1.526.317-3.182.475-4.967.475h-10.453v-30.97zm5.226 4.535v8.25h5.572c1.728 0 3.125-.36 4.19-1.08 1.066-.748 1.598-1.914 1.598-3.498 0-1.44-.489-2.405-1.468-2.894-.951-.519-2.304-.778-4.061-.778h-5.831zm0 12.742v9.201h5.745c.979 0 1.872-.072 2.678-.216.806-.173 1.497-.432 2.073-.778a3.949 3.949 0 0 0 1.339-1.425c.317-.605.476-1.339.476-2.203 0-1.699-.562-2.88-1.685-3.542-1.094-.691-2.865-1.037-5.313-1.037h-5.313zM588.503 134.272h-5.629l-7.305 13.321-7.347-13.321h-5.629l10.484 18.133v11.946h4.942v-11.946l10.484-18.133zm16.77 0h-21.914v4.727h8.508v25.352h4.941v-25.352h8.465v-4.727zm2.795 14.524c0-1.547 1.461-2.278 3.137-2.278 1.762 0 3.266.774 4.039 2.45l3.91-2.192c-1.504-2.836-4.426-4.469-7.949-4.469-4.383 0-7.864 2.536-7.864 6.575 0 7.691 11.559 5.543 11.559 9.367 0 1.719-1.59 2.406-3.652 2.406-2.364 0-4.082-1.16-4.77-3.093l-3.996 2.32c1.375 3.094 4.469 5.027 8.766 5.027 4.641 0 8.379-2.32 8.379-6.617 0-7.949-11.559-5.586-11.559-9.496zm31.58-5.93v3.051c-1.633-2.234-4.168-3.61-7.52-3.61-5.844 0-10.699 4.899-10.699 11.301 0 6.36 4.855 11.301 10.699 11.301 3.352 0 5.887-1.375 7.52-3.652v3.094h4.64v-21.485h-4.64zm-6.789 17.618c-3.867 0-6.789-2.879-6.789-6.876 0-3.996 2.922-6.875 6.789-6.875 3.867 0 6.789 2.879 6.789 6.875 0 3.997-2.922 6.876-6.789 6.876zm29.6-17.618v11.516c0 4.383-2.405 6.187-5.456 6.187-2.923 0-4.813-1.718-4.813-4.984v-12.719h-4.641v13.192c0 5.586 3.438 8.851 8.251 8.851 2.922 0 5.242-1.074 6.659-3.308v2.75h4.642v-21.485h-4.642zm12.99 3.61v-3.61h-4.641v21.485h4.641v-10.829c0-4.812 3.566-6.23 6.617-6.015v-5.028c-2.707 0-5.328 1.075-6.617 3.997zm23.882-3.61v11.516c0 4.383-2.406 6.187-5.457 6.187-2.921 0-4.812-1.718-4.812-4.984v-12.719h-4.641v13.192c0 5.586 3.438 8.851 8.25 8.851 2.922 0 5.243-1.074 6.66-3.308v2.75h4.641v-21.485h-4.641zm12.732 5.93c0-1.547 1.461-2.278 3.137-2.278 1.762 0 3.265.774 4.038 2.45l3.911-2.192c-1.504-2.836-4.426-4.469-7.949-4.469-4.383 0-7.864 2.536-7.864 6.575 0 7.691 11.558 5.543 11.558 9.367 0 1.719-1.589 2.406-3.651 2.406-2.364 0-4.083-1.16-4.77-3.093l-3.996 2.32c1.375 3.094 4.468 5.027 8.766 5.027 4.64 0 8.378-2.32 8.378-6.617 0-7.949-11.558-5.586-11.558-9.496z" fill="#fff"/><path fill-rule="evenodd" clip-rule="evenodd" d="M512.991 134.307c5.036-7.077 13.06-11.029 16.864-10.269 2.44.487.962 3.128-.801 6.117-.46.779-.91 1.498-1.315 2.144-1.148 1.831-1.93 3.08-1.531 3.485 6.323-6.08 10.388-6.757 13.776-6.757 3.355 0 1.777 2.417.052 5.061l-.052.078c-.25.384-.508.763-.757 1.128-.97 1.424-1.795 2.636-1.425 3.04 3.646-2.594 7.421-3.221 9.194-2.855 1.774.367 2.295 1.136-.153 4.921l-2.339 3.51.107.173c.83 1.334 2.096 3.369 2.096 6.612 0 6.506-4.97 12.973-7.752 15.865a1.27 1.27 0 0 1-.922.385h-5.167c-.39 0-.692-.337-.679-.727.221-6.931-7.138-6.646-12.046.433a.676.676 0 0 1-.552.294h-4.86c-.349 0-.688-.136-.92-.397-1.89-2.12-3.614-5.706-4.05-7.252-2.077 3.208-7.769 4.972-11.838 2.227-4.831-3.259-4.799-8.803-2.71-12.188l4.245 2.412c-.625 2.46.3 4.154 2.077 4.154 2.565 0 3.572-3.109 5.012-7.555 1.303-4.023 2.96-9.14 6.446-14.039zm3.11 17.666c1.415-3.198 1.415-6.297 0-6.923-1.415-.626-3.71 1.459-5.126 4.657a13.54 13.54 0 0 0-.794 2.335h5.889l.031-.069zm10.429-6.923c1.415.626 1.415 3.725-.001 6.923l-.031.069h-5.889c.177-.748.442-1.538.795-2.335 1.415-3.198 3.71-5.283 5.126-4.657z" fill="#fff"/></svg>