<svg width="206" height="144" fill="none" xmlns="http://www.w3.org/2000/svg"><path clip-rule="evenodd" d="M34.736 25.483a1.12 1.12 0 0 1 1.128-1.109h134.13c.623 0 1.128.497 1.128 1.109v92.134a1.12 1.12 0 0 1-1.128 1.109H35.864a1.118 1.118 0 0 1-1.128-1.109V25.483z" stroke="#fff" stroke-opacity=".39" stroke-width=".786"/><path opacity=".1" fill-rule="evenodd" clip-rule="evenodd" d="M34.736 54.9h136.386v.555H34.736V54.9z" fill="#fff"/><path opacity=".6" d="M105.83 88.062H49.869a2.359 2.359 0 1 0 0 4.717h55.961a2.359 2.359 0 1 0 0-4.717zM156.129 77.054H49.869a2.359 2.359 0 1 0 0 4.718h106.26a2.359 2.359 0 1 0 0-4.718zM156.129 66.046H49.869a2.359 2.359 0 0 0 0 4.718h106.26a2.359 2.359 0 1 0 0-4.718z" fill="#fff"/><path d="M99.467 36.168H52.24a3.931 3.931 0 1 0 0 7.863h47.227a3.931 3.931 0 0 0 0-7.863z" fill="#fff"/><path d="M154.559 36.168h-10.501a3.931 3.931 0 0 0 0 7.863h10.501a3.931 3.931 0 0 0 0-7.863z" fill="#FFBE5C"/></svg>