<svg width="28" height="25" viewBox="0 0 28 25" fill="none" xmlns="http://www.w3.org/2000/svg">
<path fill-rule="evenodd" clip-rule="evenodd" d="M22 2H6C3.79086 2 2 3.79086 2 6V14C2 16.2091 3.79086 18 6 18H22C24.2091 18 26 16.2091 26 14V6C26 3.79086 24.2091 2 22 2ZM6 0C2.68629 0 0 2.68629 0 6V14C0 17.3137 2.68629 20 6 20H11.5C12.3284 20 13 20.6716 13 21.5C13 22.3284 12.3284 23 11.5 23H7C6.44771 23 6 23.4477 6 24C6 24.5523 6.44771 25 7 25H14H21C21.5523 25 22 24.5523 22 24C22 23.4477 21.5523 23 21 23H16.5C15.6716 23 15 22.3284 15 21.5C15 20.6716 15.6716 20 16.5 20H22C25.3137 20 28 17.3137 28 14V6C28 2.68629 25.3137 0 22 0H6Z" fill="#7B47CF"/>
</svg>
