<svg fill="none" xmlns="http://www.w3.org/2000/svg" viewBox="0 0 26 30"><path d="M9.7 14.3a1 1 0 0 0-1.4 1.4l2.97 2.98a1 1 0 0 0 1.41 0l5.96-5.95a1 1 0 0 0-1.42-1.41l-5.24 5.24L9.7 14.3Z" fill="#FFBE5C"/><path fill-rule="evenodd" clip-rule="evenodd" d="M15.99 1.26a7.92 7.92 0 0 0-5.97 0L2.6 4.3A4 4 0 0 0 .83 5.79a4 4 0 0 0-.71 2.18v5.86c0 6.98 5.05 13.47 11.93 15.37a3.6 3.6 0 0 0 1.9 0c6.88-1.9 11.93-8.39 11.93-15.37l.01-5.86a4 4 0 0 0-.72-2.19 4.03 4.03 0 0 0-1.75-1.48l-7.43-3.04ZM3.35 6.16l7.43-3.05a5.92 5.92 0 0 1 4.45 0l7.43 3.04c.29.12.6.38.86.75.25.38.37.77.37 1.07l-.01 5.85c0 6.06-4.42 11.78-10.47 13.45-.26.08-.56.08-.83 0-6.04-1.67-10.46-7.4-10.46-13.44V7.97c0-.3.12-.7.37-1.07a2 2 0 0 1 .86-.75Z" fill="#FFBE5C"/></svg>