<svg fill="none" xmlns="http://www.w3.org/2000/svg" viewBox="0 0 28 28"><path fill-rule="evenodd" clip-rule="evenodd" d="M2 10.1c0-3.15.64-5.1 1.82-6.28C5 2.64 6.95 2 10.1 2h7.8c3.15 0 5.1.64 6.28 1.82C25.36 5 26 6.95 26 10.1v7.8c0 3.15-.64 5.1-1.82 6.28C23 25.36 21.05 26 17.9 26a1 1 0 1 0 0 2c3.35 0 5.95-.66 7.7-2.4 1.74-1.75 2.4-4.35 2.4-7.7v-7.8c0-3.35-.66-5.95-2.4-7.7C23.84.67 21.24 0 17.9 0h-7.8C6.75 0 4.15.66 2.4 2.4.67 4.16 0 6.76 0 10.1a1 1 0 1 0 2 0Zm0 9.1c0-1.4.29-2.12.68-2.52.4-.4 1.12-.68 2.52-.68h3.6c1.4 0 2.12.29 2.52.68.4.4.68 1.12.68 2.52v3.6c0 1.4-.29 2.12-.68 2.52-.4.4-1.12.68-2.52.68H5.2c-1.4 0-2.12-.29-2.52-.68-.4-.4-.68-1.12-.68-2.52v-3.6ZM5.2 14c-1.6 0-2.98.31-3.93 1.27C.3 16.22 0 17.6 0 19.2v3.6c0 1.6.31 2.98 1.27 3.93C2.22 27.7 3.6 28 5.2 28h3.6c1.6 0 2.98-.31 3.93-1.27.96-.95 1.27-2.33 1.27-3.93v-3.6c0-1.6-.31-2.98-1.27-3.93C11.78 14.3 10.4 14 8.8 14H5.2Zm11-8a1 1 0 1 0 0 2h2.39l-4.3 4.3a1 1 0 0 0 1.42 1.4L20 9.42V12a1 1 0 1 0 2 0V7a1 1 0 0 0-1-1h-4.8Z" fill="#FFBE5C"/></svg>