<svg width="200" height="200" viewBox="0 0 200 200" fill="none" xmlns="http://www.w3.org/2000/svg">
<path fill-rule="evenodd" clip-rule="evenodd" d="M165.362 165.355C203.307 127.409 203.307 65.8887 165.362 27.9441L138.077 55.2297C160.376 78.3811 160.283 115.053 137.669 137.668C115.054 160.282 78.3821 160.375 55.2307 138.076L27.9526 165.355C65.8973 203.298 127.418 203.298 165.362 165.355Z" fill="url(#paint0_radial_3512_9317)"/>
<mask id="mask0_3512_9317" style="mask-type:alpha" maskUnits="userSpaceOnUse" x="0" y="0" width="200" height="200">
<path fill-rule="evenodd" clip-rule="evenodd" d="M28.4585 28.4585C-4.62639 61.5433 -8.86375 112.552 15.7464 150.228L15.7446 150.23C17.4946 153.009 18.3697 154.398 18.8743 155.699C20.0419 158.707 20.2096 161.19 19.4569 164.329C19.1317 165.685 18.3006 167.511 16.6383 171.162C11.0905 183.35 9.89144 192.412 14.1058 196.626C25.9988 208.52 64.0837 189.717 126.905 126.896C189.726 64.075 208.529 25.9901 196.635 14.0971C192.421 9.88318 183.361 11.0816 171.175 16.6281C167.507 18.2974 165.673 19.1319 164.309 19.4576C161.188 20.2027 158.721 20.0378 155.726 18.8838C154.434 18.3856 153.054 17.5232 150.325 15.8101C112.64 -8.87103 61.5718 -4.6549 28.4585 28.4585ZM108.949 108.942C131.83 86.0609 147.26 64.3926 136.647 53.7791C113.549 30.6814 76.2753 30.5062 53.3939 53.3876C30.5124 76.2691 30.6876 113.543 53.7854 136.64C64.3988 147.254 86.0671 131.824 108.949 108.942Z" fill="#FF3377"/>
</mask>
<g mask="url(#mask0_3512_9317)">
<path fill-rule="evenodd" clip-rule="evenodd" d="M28.4585 28.4585C-4.62639 61.5433 -8.86375 112.552 15.7464 150.228L15.7446 150.23C17.4946 153.009 18.3697 154.398 18.8743 155.699C20.0419 158.707 20.2096 161.19 19.4569 164.329C19.1317 165.685 18.3006 167.511 16.6383 171.162C11.0905 183.35 9.89144 192.412 14.1058 196.626C25.9988 208.52 64.0837 189.717 126.905 126.896C189.726 64.075 208.529 25.9901 196.635 14.0971C192.421 9.88318 183.361 11.0816 171.175 16.6281C167.507 18.2974 165.673 19.1319 164.309 19.4576C161.188 20.2027 158.721 20.0378 155.726 18.8838C154.434 18.3856 153.054 17.5232 150.325 15.8101C112.64 -8.87103 61.5718 -4.6549 28.4585 28.4585ZM108.949 108.942C131.83 86.0609 147.26 64.3926 136.647 53.7791C113.549 30.6814 76.2753 30.5062 53.3939 53.3876C30.5124 76.2691 30.6876 113.543 53.7854 136.64C64.3988 147.254 86.0671 131.824 108.949 108.942Z" fill="#FF3377"/>
<g filter="url(#filter0_f_3512_9317)">
<path d="M30.5274 141.195C10.3018 110.195 13.7843 68.226 40.9752 41.0039C68.1957 13.7519 110.179 10.2876 141.153 30.6108C143.381 32.0112 144.511 32.7175 145.57 33.126C148.031 34.0755 150.058 34.2113 152.623 33.598C153.744 33.3303 155.251 32.6435 158.266 31.2699C168.281 26.7064 182.332 16.905 187.263 21.8414C194.836 29.4231 172.045 68.8401 120.415 120.529C68.7855 172.218 29.4138 196.503 21.8407 188.922C16.9096 183.985 26.7006 168.449 31.2599 158.42C32.6261 155.416 33.3092 153.913 33.5765 152.797C34.1952 150.215 34.0574 148.172 33.0977 145.697C32.6829 144.627 31.9638 143.484 30.5255 141.197L30.5274 141.195Z" fill="#FFFF00"/>
</g>
</g>
<defs>
<filter id="filter0_f_3512_9317" x="-45.9871" y="-45.9852" width="298.243" height="299.841" filterUnits="userSpaceOnUse" color-interpolation-filters="sRGB">
<feFlood flood-opacity="0" result="BackgroundImageFix"/>
<feBlend mode="normal" in="SourceGraphic" in2="BackgroundImageFix" result="shape"/>
<feGaussianBlur stdDeviation="31.7867" result="effect1_foregroundBlur_3512_9317"/>
</filter>
<radialGradient id="paint0_radial_3512_9317" cx="0" cy="0" r="1" gradientUnits="userSpaceOnUse" gradientTransform="translate(96.4393 97.8923) rotate(45) scale(95.8791)">
<stop offset="0.646153" stop-color="#FFFF00"/>
<stop offset="1" stop-color="#FF3377"/>
</radialGradient>
</defs>
</svg>
