<svg width="600" height="472" viewBox="0 0 600 472" fill="none" xmlns="http://www.w3.org/2000/svg">
<path fill-rule="evenodd" clip-rule="evenodd" d="M232.173 64.8716C232.173 74.1791 224.609 81.7433 215.302 81.7433C205.994 81.7433 198.43 74.1791 198.43 64.8716C198.43 55.5641 205.994 48 215.302 48C224.609 48 232.173 55.5641 232.173 64.8716ZM229.193 64.8716C229.193 72.5482 222.978 78.7626 215.302 78.7626C213.293 78.7626 211.793 78.0086 211.042 77.094C210.292 76.1794 210.081 74.6828 210.339 72.521L214.81 71.6341C218.895 70.8858 221.146 68.6132 221.952 64.5391C222.051 63.9687 222.163 63.3984 222.27 62.8578C222.314 62.6366 222.356 62.4203 222.397 62.211C222.516 61.5605 222.632 60.9418 222.738 60.3732L222.744 60.346V60.3448C222.857 59.7376 222.96 59.1881 223.046 58.7189C223.503 56.0702 223.131 54.1147 222.102 52.7542C226.335 55.1334 229.193 59.6663 229.193 64.8716ZM215.302 50.9807C207.625 50.9807 201.411 57.195 201.411 64.8716C201.411 70.0769 204.268 74.6099 208.501 76.989C207.472 75.6286 207.1 73.6731 207.558 71.0244C207.656 70.4853 207.774 69.8499 207.905 69.141C207.996 68.6471 208.094 68.1176 208.197 67.56C208.236 67.3589 208.277 67.1514 208.319 66.9392L208.323 66.9154L208.324 66.9132C208.43 66.3726 208.543 65.8022 208.642 65.2319C209.42 61.1301 211.67 58.8575 215.755 58.1092L220.264 57.2223C220.522 55.0605 220.311 53.5639 219.561 52.6493C218.811 51.7347 217.31 50.9807 215.302 50.9807ZM219.729 60.3264L216.339 60.9915C213.449 61.5458 212.115 62.8762 211.559 65.7585C211.43 66.4029 211.318 67.014 211.209 67.6047L211.115 68.1143L211.114 68.1177C211.031 68.56 210.948 69.0022 210.865 69.4169L214.227 68.7517C217.117 68.1974 218.479 66.8671 219.034 63.9848C219.156 63.3771 219.269 62.768 219.381 62.1588V62.1573L219.382 62.1557V62.154C219.494 61.5443 219.607 60.9346 219.729 60.3264Z" fill="white"/>
<path d="M97.4446 77.525V73.2115C97.4446 69.9581 97.0425 69.0077 95.7996 66.3026L89.2928 52.1192H84.6868L93.0214 70.2506V77.525H97.4446Z" fill="white"/>
<path d="M100.332 64.4017L105.743 52.1192H101.246L95.8362 64.4017H100.332Z" fill="white"/>
<path fill-rule="evenodd" clip-rule="evenodd" d="M146.538 77.8906C148.585 77.8906 150.266 76.9402 151.436 75.149L151.656 77.525H155.677V52.1192H151.327V61.2945C150.23 59.6496 148.621 58.7722 146.721 58.7722C142.517 58.7722 139.592 62.3181 139.592 68.4594C139.592 74.5275 142.444 77.8906 146.538 77.8906ZM147.817 62.2084C150.157 62.2084 151.327 64.0727 151.327 68.3131C151.327 72.5901 150.084 74.4544 147.634 74.4544C145.258 74.4544 144.089 72.6267 144.089 68.4594C144.089 64.1093 145.332 62.2084 147.817 62.2084Z" fill="white"/>
<path fill-rule="evenodd" clip-rule="evenodd" d="M173.26 76.2822V72.7363C171.907 73.6502 169.641 74.4544 167.521 74.4544C164.34 74.4544 163.134 72.9556 162.951 69.885H173.442V67.582C173.442 61.1849 170.628 58.7722 166.278 58.7722C160.977 58.7722 158.455 62.8299 158.455 68.3862C158.455 74.7834 161.599 77.8906 167.155 77.8906C169.933 77.8906 171.98 77.1595 173.26 76.2822ZM166.205 62.2084C168.361 62.2084 169.019 63.9996 169.019 66.3026V66.6682H162.951C163.061 63.7437 164.121 62.2084 166.205 62.2084Z" fill="white"/>
<path fill-rule="evenodd" clip-rule="evenodd" d="M118.537 64.9866C118.537 60.5269 116.27 58.8453 111.665 58.8453C108.813 58.8453 106.51 60.0517 105.194 61.0021V64.7673C106.583 63.6341 108.704 62.3181 111.153 62.3181C113.236 62.3181 114.187 63.0492 114.187 65.0232V66.1929H113.492C106.839 66.1929 103.878 68.3497 103.878 72.188C103.878 75.7338 106.145 77.7809 109.508 77.7809C112.067 77.7809 113.163 76.9402 114.004 76.0628H114.187C114.223 76.5381 114.37 77.1595 114.516 77.525H118.756C118.61 76.0263 118.537 74.5275 118.537 73.0288V64.9866ZM114.187 73.1384C113.639 73.9426 112.615 74.6006 111.08 74.6006C109.252 74.6006 108.338 73.5405 108.338 71.9321C108.338 69.8119 109.837 69.0808 113.565 69.0808H114.187V73.1384Z" fill="white"/>
<path d="M126.432 64.3286C127.237 63.3416 128.516 62.5009 130.088 62.5009C131.623 62.5009 132.318 63.1589 132.318 64.548V77.525H136.668V64.1093C136.668 60.4538 135.206 58.8453 131.66 58.8453C129.064 58.8453 127.529 59.7958 126.652 60.6731H126.432L126.323 59.1378H122.083V77.525H126.432V64.3286Z" fill="white"/>
<path d="M186.639 77.525H191.537L185.542 68.0573L190.733 59.1378H186.383L183.239 64.6942L179.73 59.1378H174.832L180.388 67.9476L174.612 77.525H179.035L182.727 71.3107L186.639 77.525Z" fill="white"/>
<path d="M248.984 77.8916C251.725 77.8916 253.59 76.9046 254.723 76.1369V72.5911C253.261 73.6512 251.652 74.4554 249.313 74.4554C245.292 74.4554 243.391 71.202 243.391 64.8414C243.391 58.298 245.218 55.1908 249.532 55.1908C251.542 55.1908 253.407 56.0681 254.723 56.9089V53.3631C253.553 52.5223 251.652 51.7546 249.313 51.7546C242.55 51.7546 238.894 56.7261 238.894 64.8414C238.894 73.176 242.696 77.8916 248.984 77.8916Z" fill="white"/>
<path d="M262.003 52.1202H257.653V77.526H262.003V52.1202Z" fill="white"/>
<path fill-rule="evenodd" clip-rule="evenodd" d="M264.919 68.3507C264.919 62.1729 268.245 58.7732 273.034 58.7732C277.823 58.7732 281.149 62.1729 281.149 68.3141C281.149 74.492 277.823 77.8916 273.034 77.8916C268.245 77.8916 264.919 74.492 264.919 68.3507ZM269.415 68.3507C269.415 72.5911 270.621 74.4554 273.034 74.4554C275.446 74.4554 276.653 72.5911 276.653 68.3141C276.653 64.0737 275.446 62.2094 273.034 62.2094C270.621 62.2094 269.415 64.0737 269.415 68.3507Z" fill="white"/>
<path d="M294.123 72.3352C293.318 73.3222 292.039 74.163 290.467 74.163C288.932 74.163 288.237 73.505 288.237 72.1159V59.1388H283.887V72.5545C283.887 76.2101 285.349 77.8185 288.895 77.8185C291.491 77.8185 293.026 76.868 293.903 75.9907H294.123L294.232 77.526H298.473V59.1388H294.123V72.3352Z" fill="white"/>
<path fill-rule="evenodd" clip-rule="evenodd" d="M313.246 75.15C312.076 76.9412 310.395 77.8916 308.348 77.8916C304.254 77.8916 301.402 74.5285 301.402 68.4604C301.402 62.3191 304.327 58.7732 308.531 58.7732C310.431 58.7732 312.04 59.6505 313.137 61.2955V52.1202H317.487V77.526H313.466L313.246 75.15ZM313.137 68.3141C313.137 64.0737 311.967 62.2094 309.627 62.2094C307.141 62.2094 305.899 64.1103 305.899 68.4604C305.899 72.6276 307.068 74.4554 309.444 74.4554C311.894 74.4554 313.137 72.5911 313.137 68.3141Z" fill="white"/>
<path d="M506.772 63.156C506.772 63.156 513.308 63.7116 514.785 67.2869H514.79C516.267 70.8622 514.467 74.2043 511.252 75.5459C508.037 76.8875 505.138 77.1089 501.775 77.1089C498.413 77.1089 488.274 76.8876 488.303 69.0804H493.225C493.286 73.6201 501.928 73.1453 504.166 73.0224C504.287 73.0157 504.389 73.01 504.47 73.0063C505.854 72.9404 510.212 72.625 510.277 69.9088C510.337 67.3605 506.086 66.9959 504.995 66.9023C504.923 66.8961 504.864 66.8911 504.822 66.8867C504.134 66.8161 499.106 66.2982 497.694 66.1523C496.282 66.0064 492.756 65.5498 490.439 63.6222C488.122 61.6945 488.962 58.2133 488.962 58.2133C489.319 56.6905 490.31 55.4501 491.942 54.4968C493.47 53.6024 495.464 53.0398 497.916 52.7997C497.916 52.7997 501.38 52.4278 505.228 52.7997C505.236 52.8021 505.246 52.8022 505.254 52.8022C507.866 53.054 509.959 53.6636 511.526 54.638C513.636 55.9538 514.694 57.865 514.694 60.3717H509.809C509.806 59.8939 509.7 59.5267 509.617 59.3102C509.224 58.3192 507.959 56.9635 503.984 56.7352C497.601 56.368 495.56 57.3682 495.56 57.3682C495.56 57.3682 493.763 57.9497 493.726 59.522C493.69 61.0943 494.795 61.9204 498.374 62.2852L506.772 63.156Z" fill="white"/>
<path d="M378.251 63.048C379.694 66.5918 381.298 70.5344 381.657 71.4174C382.88 74.4231 385.764 73.8817 385.764 73.8817C385.761 73.9192 385.477 77.0287 381.949 77.0287C381.949 77.0287 381.75 77.0451 381.429 76.9933C378.547 76.6558 377.441 73.5862 377.171 72.837C377.154 72.7921 377.141 72.7556 377.131 72.7284C377.131 72.7284 375.96 69.8519 374.658 66.6509C373.215 63.1071 371.611 59.1644 371.252 58.2814C370.029 55.2757 367.145 55.817 367.145 55.817C367.148 55.7795 367.432 52.6701 370.96 52.6701C370.96 52.6701 371.159 52.6537 371.479 52.7054C374.361 53.043 375.468 56.1126 375.738 56.8618C375.755 56.9067 375.768 56.9432 375.778 56.9704C375.778 56.9704 376.946 59.841 378.247 63.0379L378.251 63.048Z" fill="white"/>
<path d="M385.762 73.8817V53.1997H390.417V68.7248C390.417 72.7873 386.97 73.6887 385.762 73.8817Z" fill="white"/>
<path d="M395.072 76.4991H418.35V72.4978H399.728V66.7547H416.948V62.7534H399.728V57.201H418.35V53.1997H395.072V76.4991Z" fill="white"/>
<path d="M450.148 53.1997H454.803V76.4991H450.148V53.1997Z" fill="white"/>
<path d="M464.109 68.0422V53.1997H459.466V68.633C459.466 70.297 460.004 71.8411 460.92 73.1474C462.56 75.4823 465.426 77.0334 468.697 77.0334H471.118C474.39 77.0334 477.256 75.3646 478.895 73.0297H469.427C466.476 72.952 464.106 70.749 464.106 68.0422H464.109Z" fill="white"/>
<path d="M480.337 68.5153C480.337 70.1699 479.804 71.7281 478.896 73.0297H479.866C482.719 72.8555 484.977 70.6831 484.977 68.0422V53.1997H480.337V68.5153Z" fill="white"/>
<path d="M362.487 60.986V76.5015H367.143V55.8195C367.143 55.8195 362.487 56.328 362.487 60.986Z" fill="white"/>
<path fill-rule="evenodd" clip-rule="evenodd" d="M442.826 64.3424C446.284 61.8804 445.653 57.02 443.077 54.9793C440.805 53.177 437.321 53.1889 435.052 53.1966C434.909 53.1971 434.77 53.1976 434.638 53.1976H422.215V76.4993H437.739C443.225 76.4993 446.871 73.7431 446.871 69.7371C446.871 65.5145 442.824 64.3424 442.824 64.3424H442.826ZM426.873 57.1777H435.357C435.422 57.1777 435.504 57.1762 435.598 57.1746C436.877 57.152 440.571 57.0867 440.571 59.9668C440.571 62.2993 438.274 62.756 437.046 62.756H426.873V57.1777ZM437.449 72.5262C435.895 72.5262 426.871 72.5215 426.871 72.5215V66.7314H437.434L437.526 66.7312C438.679 66.7288 441.952 66.7218 441.952 69.4687C441.952 72.2932 439.003 72.5262 437.449 72.5262Z" fill="white"/>
<path d="M169.781 133.656H165.203L159.263 144.489L153.288 133.656H148.71L157.236 148.402V158.116H161.255V148.402L169.781 133.656ZM183.418 133.656H165.597V137.5H172.516V158.116H176.534V137.5H183.418V133.656ZM185.691 145.467C185.691 144.209 186.879 143.615 188.242 143.615C189.674 143.615 190.897 144.244 191.526 145.607L194.706 143.825C193.483 141.518 191.107 140.191 188.242 140.191C184.678 140.191 181.847 142.252 181.847 145.537C181.847 151.791 191.247 150.044 191.247 153.154C191.247 154.552 189.954 155.111 188.277 155.111C186.355 155.111 184.957 154.168 184.398 152.595L181.148 154.482C182.266 156.998 184.782 158.57 188.277 158.57C192.05 158.57 195.09 156.683 195.09 153.189C195.09 146.725 185.691 148.647 185.691 145.467ZM211.371 140.645V143.126C210.044 141.309 207.982 140.191 205.256 140.191C200.504 140.191 196.556 144.174 196.556 149.38C196.556 154.552 200.504 158.57 205.256 158.57C207.982 158.57 210.044 157.452 211.371 155.6V158.116H215.145V140.645H211.371ZM205.85 154.971C202.706 154.971 200.33 152.63 200.33 149.38C200.33 146.131 202.706 143.79 205.85 143.79C208.995 143.79 211.371 146.131 211.371 149.38C211.371 152.63 208.995 154.971 205.85 154.971ZM229.921 140.645V150.009C229.921 153.574 227.965 155.041 225.484 155.041C223.107 155.041 221.571 153.643 221.571 150.988V140.645H217.796V151.372C217.796 155.915 220.593 158.57 224.506 158.57C226.882 158.57 228.769 157.697 229.921 155.88V158.116H233.696V140.645H229.921ZM240.484 143.58V140.645H236.711V158.116H240.484V149.311C240.484 145.397 243.385 144.244 245.866 144.419V140.33C243.664 140.33 241.532 141.204 240.484 143.58ZM259.905 140.645V150.009C259.905 153.574 257.949 155.041 255.468 155.041C253.092 155.041 251.554 153.643 251.554 150.988V140.645H247.781V151.372C247.781 155.915 250.576 158.57 254.49 158.57C256.865 158.57 258.753 157.697 259.905 155.88V158.116H263.682V140.645H259.905ZM270.262 145.467C270.262 144.209 271.452 143.615 272.812 143.615C274.242 143.615 275.462 144.244 276.092 145.607L279.272 143.825C278.052 141.518 275.672 140.191 272.812 140.191C269.242 140.191 266.412 142.252 266.412 145.537C266.412 151.791 275.812 150.044 275.812 153.154C275.812 154.552 274.522 155.111 272.842 155.111C270.922 155.111 269.522 154.168 268.962 152.595L265.712 154.482C266.832 156.998 269.352 158.57 272.842 158.57C276.622 158.57 279.662 156.683 279.662 153.189C279.662 146.725 270.262 148.647 270.262 145.467Z" fill="white"/>
<path fill-rule="evenodd" clip-rule="evenodd" d="M108.375 133.685C112.47 127.93 118.995 124.716 122.089 125.334C124.073 125.73 122.87 127.878 121.437 130.308C121.063 130.942 120.697 131.527 120.367 132.052C119.434 133.541 118.798 134.557 119.122 134.886C124.264 129.942 127.57 129.391 130.325 129.391C133.053 129.391 131.77 131.357 130.367 133.506L130.325 133.57C130.122 133.882 129.912 134.19 129.71 134.488C128.921 135.645 128.25 136.631 128.551 136.96C131.516 134.85 134.585 134.34 136.028 134.638C137.47 134.936 137.894 135.562 135.903 138.639L134.001 141.494L134.088 141.635C134.763 142.72 135.792 144.374 135.792 147.011C135.792 152.302 131.75 157.561 129.488 159.913C129.292 160.117 129.022 160.226 128.739 160.226H124.537C124.22 160.226 123.974 159.952 123.984 159.635C124.165 153.998 118.18 154.23 114.189 159.987C114.087 160.134 113.919 160.226 113.74 160.226H109.788C109.504 160.226 109.229 160.115 109.04 159.903C107.503 158.179 106.101 155.262 105.747 154.006C104.057 156.614 99.4277 158.049 96.1197 155.817C92.1917 153.166 92.2167 148.658 93.9157 145.905L97.3677 147.867C96.8597 149.867 97.6117 151.245 99.0567 151.245C101.143 151.245 101.962 148.716 103.133 145.101C104.192 141.83 105.54 137.669 108.375 133.685ZM110.903 148.05C112.055 145.45 112.055 142.93 110.904 142.421C109.753 141.912 107.887 143.607 106.735 146.208C106.449 146.856 106.233 147.499 106.089 148.107H110.878L110.903 148.05ZM119.384 142.421C120.535 142.93 120.535 145.45 119.384 148.05L119.359 148.107H114.57C114.714 147.499 114.929 146.856 115.216 146.208C116.367 143.607 118.233 141.912 119.384 142.421Z" fill="white"/>
<path fill-rule="evenodd" clip-rule="evenodd" d="M373.68 157.374H382.108C384.633 157.374 386.795 156.877 388.592 155.881C390.398 154.885 391.778 153.456 392.733 151.594C393.697 149.732 394.178 147.506 394.178 144.915C394.178 142.333 393.701 140.114 392.745 138.261C391.79 136.407 390.422 134.986 388.641 133.998C386.868 133.002 384.747 132.505 382.278 132.505H373.68V157.374ZM381.889 153.476H378.185V136.403H382.023C383.706 136.403 385.115 136.718 386.249 137.35C387.39 137.973 388.252 138.916 388.835 140.179C389.418 141.434 389.71 143.013 389.71 144.915C389.71 146.818 389.418 148.404 388.835 149.675C388.252 150.938 387.382 151.89 386.224 152.529C385.067 153.161 383.621 153.476 381.889 153.476ZM396.897 138.722V157.374H401.293V138.722H396.897ZM404.446 164.369V138.722H408.769V141.806H409.024C409.251 141.353 409.57 140.871 409.983 140.361C410.396 139.843 410.955 139.402 411.659 139.038C412.363 138.665 413.262 138.479 414.355 138.479C415.796 138.479 417.095 138.847 418.253 139.584C419.419 140.313 420.342 141.394 421.022 142.827C421.71 144.251 422.054 146 422.054 148.073C422.054 150.121 421.718 151.861 421.046 153.294C420.374 154.727 419.459 155.82 418.302 156.573C417.144 157.326 415.833 157.702 414.367 157.702C413.298 157.702 412.412 157.524 411.708 157.168C411.003 156.812 410.437 156.383 410.008 155.881C409.587 155.371 409.259 154.889 409.024 154.436H408.842V164.369H404.446ZM408.757 148.048C408.757 149.254 408.927 150.311 409.267 151.218C409.615 152.124 410.113 152.833 410.76 153.343C411.416 153.845 412.21 154.096 413.141 154.096C414.112 154.096 414.926 153.837 415.582 153.318C416.237 152.792 416.731 152.076 417.063 151.169C417.403 150.254 417.573 149.214 417.573 148.048C417.573 146.891 417.407 145.862 417.075 144.964C416.743 144.065 416.249 143.361 415.594 142.851C414.938 142.341 414.12 142.086 413.141 142.086C412.202 142.086 411.404 142.333 410.748 142.827C410.093 143.32 409.595 144.013 409.255 144.903C408.923 145.794 408.757 146.842 408.757 148.048ZM428.847 157.374V132.505H424.451V157.374H428.847ZM440.136 157.739C438.314 157.739 436.736 157.338 435.4 156.537C434.064 155.735 433.028 154.614 432.291 153.173C431.562 151.732 431.198 150.048 431.198 148.121C431.198 146.194 431.562 144.506 432.291 143.057C433.028 141.608 434.064 140.483 435.4 139.681C436.736 138.88 438.314 138.479 440.136 138.479C441.957 138.479 443.536 138.88 444.872 139.681C446.208 140.483 447.24 141.608 447.969 143.057C448.705 144.506 449.074 146.194 449.074 148.121C449.074 150.048 448.705 151.732 447.969 153.173C447.24 154.614 446.208 155.735 444.872 156.537C443.536 157.338 441.957 157.739 440.136 157.739ZM440.16 154.217C441.148 154.217 441.974 153.946 442.638 153.404C443.301 152.853 443.795 152.116 444.119 151.193C444.451 150.27 444.617 149.242 444.617 148.109C444.617 146.967 444.451 145.935 444.119 145.012C443.795 144.081 443.301 143.341 442.638 142.79C441.974 142.24 441.148 141.964 440.16 141.964C439.148 141.964 438.306 142.24 437.634 142.79C436.97 143.341 436.473 144.081 436.141 145.012C435.817 145.935 435.655 146.967 435.655 148.109C435.655 149.242 435.817 150.27 436.141 151.193C436.473 152.116 436.97 152.853 437.634 153.404C438.306 153.946 439.148 154.217 440.16 154.217ZM454.424 156.573C455.582 157.326 456.894 157.702 458.359 157.702C459.428 157.702 460.314 157.524 461.019 157.168C461.723 156.812 462.29 156.383 462.719 155.881C463.148 155.371 463.476 154.889 463.702 154.436H463.969V157.374H468.293V132.505H463.884V141.806H463.702C463.476 141.353 463.156 140.871 462.743 140.361C462.33 139.843 461.771 139.402 461.067 139.038C460.363 138.665 459.464 138.479 458.371 138.479C456.938 138.479 455.639 138.847 454.473 139.584C453.307 140.313 452.38 141.394 451.692 142.827C451.012 144.251 450.672 146 450.672 148.073C450.672 150.121 451.008 151.861 451.68 153.294C452.352 154.727 453.267 155.82 454.424 156.573ZM461.966 153.343C461.31 153.845 460.517 154.096 459.586 154.096C458.622 154.096 457.809 153.837 457.145 153.318C456.489 152.792 455.991 152.076 455.651 151.169C455.319 150.254 455.153 149.214 455.153 148.048C455.153 146.891 455.319 145.862 455.651 144.964C455.983 144.065 456.477 143.361 457.133 142.851C457.788 142.341 458.606 142.086 459.586 142.086C460.533 142.086 461.33 142.333 461.978 142.827C462.634 143.32 463.127 144.013 463.459 144.903C463.799 145.794 463.969 146.842 463.969 148.048C463.969 149.254 463.799 150.311 463.459 151.218C463.119 152.124 462.621 152.833 461.966 153.343ZM479.746 157.739C477.924 157.739 476.345 157.338 475.009 156.537C473.674 155.735 472.637 154.614 471.901 153.173C471.172 151.732 470.808 150.048 470.808 148.121C470.808 146.194 471.172 144.506 471.901 143.057C472.637 141.608 473.674 140.483 475.009 139.681C476.345 138.88 477.924 138.479 479.746 138.479C481.567 138.479 483.146 138.88 484.482 139.681C485.817 140.483 486.85 141.608 487.578 143.057C488.315 144.506 488.683 146.194 488.683 148.121C488.683 150.048 488.315 151.732 487.578 153.173C486.85 154.614 485.817 155.735 484.482 156.537C483.146 157.338 481.567 157.739 479.746 157.739ZM479.77 154.217C480.758 154.217 481.583 153.946 482.247 153.404C482.911 152.853 483.405 152.116 483.729 151.193C484.061 150.27 484.227 149.242 484.227 148.109C484.227 146.967 484.061 145.935 483.729 145.012C483.405 144.081 482.911 143.341 482.247 142.79C481.583 142.24 480.758 141.964 479.77 141.964C478.758 141.964 477.916 142.24 477.244 142.79C476.58 143.341 476.082 144.081 475.75 145.012C475.426 145.935 475.265 146.967 475.265 148.109C475.265 149.242 475.426 150.27 475.75 151.193C476.082 152.116 476.58 152.853 477.244 153.404C477.916 153.946 478.758 154.217 479.77 154.217ZM494.386 156.512C495.722 157.33 497.321 157.739 499.183 157.739C500.746 157.739 502.106 157.455 503.263 156.889C504.421 156.314 505.336 155.521 506.008 154.509C506.68 153.489 507.068 152.319 507.174 150.999H502.972C502.842 151.671 502.604 152.242 502.255 152.711C501.907 153.181 501.474 153.541 500.956 153.792C500.446 154.035 499.867 154.156 499.219 154.156C498.305 154.156 497.507 153.914 496.827 153.428C496.155 152.934 495.633 152.234 495.261 151.327C494.888 150.412 494.702 149.319 494.702 148.048C494.702 146.793 494.888 145.717 495.261 144.818C495.641 143.919 496.171 143.231 496.851 142.754C497.532 142.268 498.321 142.025 499.219 142.025C500.28 142.025 501.126 142.329 501.758 142.936C502.397 143.535 502.802 144.284 502.972 145.182H507.174C507.077 143.838 506.68 142.665 505.984 141.661C505.287 140.649 504.352 139.868 503.178 139.317C502.013 138.758 500.673 138.479 499.159 138.479C497.337 138.479 495.759 138.888 494.423 139.706C493.095 140.515 492.067 141.649 491.338 143.106C490.61 144.555 490.245 146.227 490.245 148.121C490.245 150.007 490.601 151.675 491.314 153.124C492.034 154.565 493.059 155.695 494.386 156.512ZM396.873 132.51V135.806H401.301V132.51H396.873Z" fill="white"/>
<path fill-rule="evenodd" clip-rule="evenodd" d="M345.204 126.743H336.856C336.25 126.743 335.758 127.235 335.758 127.841V134.649H325.76C325.154 134.649 324.662 135.141 324.662 135.747V163.643C324.662 164.25 325.154 164.741 325.76 164.741H348.056C348.662 164.741 349.154 164.25 349.154 163.643V156.945H359.151C359.758 156.945 360.25 156.453 360.25 155.847V141.789C360.25 133.479 353.513 126.743 345.204 126.743ZM349.154 156.945V135.747C349.154 135.141 348.662 134.649 348.056 134.649H335.758V155.847C335.758 156.453 336.25 156.945 336.856 156.945H349.154Z" fill="white"/>
<mask id="mask0_4373_487957" style="mask-type:luminance" maskUnits="userSpaceOnUse" x="119" y="211" width="41" height="41">
<path d="M159.847 231.741C159.847 220.696 150.893 211.741 139.847 211.741C128.801 211.741 119.847 220.696 119.847 231.741C119.847 242.787 128.801 251.741 139.847 251.741C150.893 251.741 159.847 242.787 159.847 231.741Z" fill="white"/>
</mask>
<g mask="url(#mask0_4373_487957)">
<path fill-rule="evenodd" clip-rule="evenodd" d="M159.847 211.743H119.847V215.915C122.744 215.015 125.937 214.516 129.292 214.516C143.256 214.516 153.181 221.897 153.181 231.738C153.181 241.58 143.256 248.96 129.292 248.96C125.937 248.96 122.744 248.462 119.847 247.562V251.743H159.847V211.743ZM119.847 238.291C122.647 238.721 125.83 238.961 129.293 238.961C142.005 238.961 150.959 236.3 150.959 231.738C150.959 227.177 142.005 224.516 129.293 224.516C125.83 224.516 122.647 224.756 119.847 225.186V238.291Z" fill="white"/>
</g>
<path d="M177.571 239.763C182.596 239.763 185.108 237.049 185.108 231.621V231.336C185.108 228.658 184.492 226.655 183.26 225.328C182.051 223.976 180.131 223.301 177.5 223.301H175.224V239.763H177.571ZM169.464 218.821H177.784C182.122 218.821 185.464 219.935 187.811 222.163C190.015 224.368 191.117 227.402 191.117 231.265V231.55C191.117 235.461 190.003 238.53 187.775 240.759C185.452 243.082 182.11 244.243 177.748 244.243H169.464V218.821Z" fill="white"/>
<path d="M199.198 244.634C197.397 244.634 195.939 244.196 194.825 243.319C193.593 242.347 192.976 240.936 192.976 239.088C192.976 237.025 193.877 235.485 195.678 234.465C197.29 233.565 199.613 233.114 202.647 233.114H204.745V232.368C204.745 231.182 204.52 230.317 204.07 229.772C203.643 229.227 202.861 228.954 201.723 228.954C199.898 228.954 198.843 229.831 198.558 231.585H193.687C193.83 229.499 194.695 227.888 196.283 226.75C197.729 225.731 199.649 225.221 202.043 225.221C204.437 225.221 206.31 225.742 207.661 226.785C209.107 227.923 209.83 229.701 209.83 232.119V244.243H204.816V242.003C203.56 243.757 201.687 244.634 199.198 244.634ZM200.727 241.043C201.889 241.043 202.849 240.747 203.607 240.154C204.366 239.562 204.745 238.756 204.745 237.736V236.172H202.754C201.19 236.172 200.004 236.373 199.198 236.776C198.416 237.179 198.025 237.855 198.025 238.803C198.025 240.296 198.926 241.043 200.727 241.043Z" fill="white"/>
<path d="M220.396 244.599C216.39 244.599 214.387 242.643 214.387 238.732V229.31H212.005V225.648H214.387V221.63H219.507V225.648H223.418V229.31H219.507V238.27C219.507 239.739 220.194 240.474 221.569 240.474C222.327 240.474 222.979 240.356 223.525 240.119V244.101C222.576 244.433 221.533 244.599 220.396 244.599Z" fill="white"/>
<path d="M231.544 244.634C229.743 244.634 228.285 244.196 227.171 243.319C225.938 242.347 225.322 240.936 225.322 239.088C225.322 237.025 226.223 235.485 228.024 234.465C229.636 233.565 231.959 233.114 234.993 233.114H237.091V232.368C237.091 231.182 236.866 230.317 236.415 229.772C235.989 229.227 235.206 228.954 234.069 228.954C232.243 228.954 231.189 229.831 230.904 231.585H226.033C226.175 229.499 227.041 227.888 228.629 226.75C230.075 225.731 231.995 225.221 234.389 225.221C236.783 225.221 238.655 225.742 240.006 226.785C241.452 227.923 242.175 229.701 242.175 232.119V244.243H237.162V242.003C235.906 243.757 234.033 244.634 231.544 244.634ZM233.073 241.043C234.235 241.043 235.195 240.747 235.953 240.154C236.712 239.562 237.091 238.756 237.091 237.736V236.172H235.1C233.535 236.172 232.35 236.373 231.544 236.776C230.762 237.179 230.371 237.855 230.371 238.803C230.371 240.296 231.272 241.043 233.073 241.043Z" fill="white"/>
<path d="M246.413 218.821H252.173V239.728H262.519V244.243H246.413V218.821Z" fill="white"/>
<path d="M273.452 244.634C270.561 244.634 268.25 243.793 266.519 242.11C264.67 240.403 263.746 238.092 263.746 235.176V234.892C263.746 232 264.67 229.653 266.519 227.852C268.321 226.098 270.584 225.221 273.31 225.221C275.894 225.221 278.004 225.968 279.639 227.461C281.464 229.12 282.377 231.526 282.377 234.679V236.101H268.972C269.044 237.665 269.47 238.874 270.252 239.728C271.058 240.557 272.172 240.972 273.595 240.972C275.823 240.972 277.115 240.107 277.47 238.376H282.341C282.033 240.391 281.109 241.944 279.568 243.034C278.051 244.101 276.012 244.634 273.452 244.634ZM277.364 232.936C277.198 230.163 275.847 228.776 273.31 228.776C272.149 228.776 271.189 229.144 270.43 229.879C269.695 230.59 269.233 231.609 269.044 232.936H277.364Z" fill="white"/>
<path d="M285.102 225.648H290.257V228.599C291.419 226.347 293.433 225.221 296.302 225.221C298.174 225.221 299.679 225.79 300.817 226.928C301.979 228.16 302.559 229.985 302.559 232.403V244.243H297.404V233.15C297.404 231.87 297.143 230.933 296.622 230.341C296.1 229.725 295.27 229.416 294.133 229.416C292.971 229.416 292.035 229.772 291.324 230.483C290.613 231.171 290.257 232.178 290.257 233.505V244.243H285.102V225.648Z" fill="white"/>
<path d="M313.082 244.634C310.57 244.634 308.614 244.101 307.215 243.034C305.817 241.968 305.07 240.427 304.975 238.412H309.775C309.918 239.313 310.226 239.976 310.7 240.403C311.174 240.83 311.956 241.043 313.047 241.043C314.99 241.043 315.962 240.368 315.962 239.016C315.962 238.376 315.678 237.902 315.109 237.594C314.54 237.262 313.568 237.002 312.193 236.812C309.681 236.409 307.927 235.805 306.931 234.999C305.864 234.169 305.331 232.842 305.331 231.016C305.331 229.191 306.09 227.733 307.607 226.643C308.91 225.695 310.605 225.221 312.691 225.221C314.848 225.221 316.59 225.648 317.918 226.501C319.316 227.449 320.134 228.942 320.371 230.981H315.642C315.5 230.199 315.204 229.63 314.753 229.274C314.303 228.919 313.627 228.741 312.727 228.741C311.897 228.741 311.245 228.919 310.771 229.274C310.321 229.63 310.095 230.092 310.095 230.661C310.095 231.253 310.344 231.692 310.842 231.976C311.364 232.261 312.312 232.498 313.687 232.688C316.128 233.019 317.918 233.576 319.055 234.359C320.288 235.283 320.904 236.67 320.904 238.519C320.904 240.51 320.217 242.027 318.842 243.07C317.491 244.113 315.571 244.634 313.082 244.634Z" fill="white"/>
<mask id="mask1_4373_487957" style="mask-type:luminance" maskUnits="userSpaceOnUse" x="365" y="209" width="116" height="45">
<path d="M480.153 209.741H365.904V253.742H480.153V209.741Z" fill="white"/>
</mask>
<g mask="url(#mask1_4373_487957)">
<mask id="mask2_4373_487957" style="mask-type:luminance" maskUnits="userSpaceOnUse" x="365" y="209" width="45" height="45">
<path d="M409.904 209.741H365.904V253.742H409.904V209.741Z" fill="white"/>
</mask>
<g mask="url(#mask2_4373_487957)">
<path fill-rule="evenodd" clip-rule="evenodd" d="M375.01 215.356C370.402 215.356 366.666 216.668 366.666 219.129V231.914C366.666 234.375 370.402 235.687 375.01 235.687C376.624 235.687 378.131 235.526 379.408 235.212V245.872C379.408 248.333 383.144 249.644 387.753 249.644C392.361 249.644 396.097 248.333 396.097 245.872V235.131C397.437 235.499 399.058 235.687 400.804 235.687C405.412 235.687 409.149 234.375 409.149 231.914V219.129C409.149 216.668 405.412 215.356 400.804 215.356C396.195 215.356 392.459 216.668 392.459 219.129V223.853H383.355V219.129C383.355 216.668 379.619 215.356 375.01 215.356ZM396.097 233.935L400.652 227.797H397.314L394.944 231.003C395.677 231.564 396.097 232.261 396.097 233.086V233.935ZM392.459 229.869V226.584H383.355V229.789C384.632 229.474 386.139 229.313 387.753 229.313C389.498 229.313 391.119 229.502 392.459 229.869ZM380.564 231.001L378.196 227.797H374.858L379.408 233.929V233.086C379.408 232.259 379.829 231.562 380.564 231.001ZM368.182 219.149C368.182 218.881 368.351 218.322 369.667 217.75C370.925 217.202 372.8 216.873 375.01 216.873C377.22 216.873 379.095 217.202 380.353 217.75C381.669 218.322 381.838 218.881 381.838 219.149C381.838 219.416 381.669 219.976 380.353 220.548C379.095 221.095 377.22 221.425 375.01 221.425C372.8 221.425 370.925 221.095 369.667 220.548C368.351 219.976 368.182 219.416 368.182 219.149ZM395.46 217.75C394.144 218.322 393.976 218.881 393.976 219.149C393.976 219.416 394.144 219.976 395.46 220.548C396.718 221.095 398.594 221.425 400.803 221.425C403.013 221.425 404.888 221.095 406.147 220.548C407.462 219.976 407.631 219.416 407.631 219.149C407.631 218.881 407.462 218.322 406.147 217.75C404.888 217.202 403.013 216.873 400.803 216.873C398.594 216.873 396.718 217.202 395.46 217.75ZM382.409 231.707C381.093 232.28 380.925 232.839 380.925 233.106C380.925 233.374 381.093 233.933 382.409 234.506C383.668 235.053 385.543 235.382 387.753 235.382C389.962 235.382 391.838 235.053 393.096 234.506C394.412 233.933 394.58 233.374 394.58 233.106C394.58 232.839 394.412 232.28 393.096 231.707C391.838 231.16 389.962 230.831 387.753 230.831C385.543 230.831 383.668 231.16 382.409 231.707Z" fill="white"/>
</g>
<path fill-rule="evenodd" clip-rule="evenodd" d="M471.22 220.665H462.21V242.816H472.873C476.81 242.816 479.734 240.058 479.734 236.287C479.734 233.736 478.321 231.8 476.086 230.814C477.122 229.79 477.75 228.437 477.75 226.864C477.75 223.275 474.974 220.665 471.22 220.665ZM466.178 223.971V229.757H470.889C472.487 229.757 473.782 228.462 473.782 226.864C473.782 225.266 472.487 223.971 470.889 223.971H466.178ZM466.178 239.51V233.063H472.543C474.323 233.063 475.766 234.506 475.766 236.287C475.766 238.067 474.323 239.51 472.543 239.51H466.178Z" fill="white"/>
<path d="M419.419 220.665H423.883L429.504 230.418L435.124 220.665H439.588L431.496 234.543V242.816H427.512V234.543L419.419 220.665Z" fill="white"/>
<path fill-rule="evenodd" clip-rule="evenodd" d="M441.16 220.665H448.764C455.377 220.665 459.84 224.962 459.84 231.741C459.84 238.519 455.377 242.816 448.764 242.816H441.16V220.665ZM445.127 239.51V223.971H448.433C452.89 223.971 455.873 226.788 455.873 231.741C455.873 236.693 452.89 239.51 448.433 239.51H445.127Z" fill="white"/>
</g>
<path fill-rule="evenodd" clip-rule="evenodd" d="M175.625 306.742L187.5 298.742L184.145 314.361L177.625 318.742L193.438 329.367L187.5 338.742L175.625 330.742V306.742ZM210.329 316.527L213.625 318.742L197.812 329.367L203.75 338.742L215.625 330.742V308.117L210.329 316.527Z" fill="white"/>
<path fill-rule="evenodd" clip-rule="evenodd" d="M204.188 318.741H198.563L201.475 305.183L192.938 318.742H187.313L190.937 301.867H202.188H214.813L204.188 318.741Z" fill="white"/>
<path fill-rule="evenodd" clip-rule="evenodd" d="M402.903 316.362H400.558V312.86H402.903V310.82C402.903 308.734 403.458 307.182 404.569 306.162C405.702 305.119 407.265 304.598 409.259 304.598C409.781 304.598 410.234 304.632 410.619 304.7C411.027 304.745 411.423 304.824 411.809 304.938V308.644C411.559 308.553 411.288 308.485 410.993 308.44C410.698 308.372 410.37 308.338 410.007 308.338C409.214 308.338 408.648 308.564 408.308 309.018C407.968 309.448 407.798 310.004 407.798 310.684V312.86H411.673L413.846 312.86V309.018H418.741V312.86H422.48V316.362H418.741V324.93C418.741 325.632 418.9 326.165 419.217 326.528C419.557 326.868 420.055 327.038 420.713 327.038C421.075 327.038 421.404 327.015 421.698 326.97C422.016 326.902 422.31 326.811 422.582 326.698V330.506C422.242 330.619 421.823 330.721 421.324 330.812C420.826 330.925 420.248 330.982 419.591 330.982C417.71 330.982 416.282 330.517 415.308 329.588C414.334 328.636 413.846 327.23 413.846 325.372V316.362H411.569L407.798 316.362V330.642H402.903V316.362ZM386.216 330.71C386.941 330.914 387.712 331.016 388.527 331.016C389.932 331.016 391.043 330.778 391.859 330.302C392.697 329.826 393.377 329.225 393.898 328.5V330.642H398.691V319.048C398.691 317.846 398.51 316.826 398.147 315.988C397.784 315.149 397.274 314.469 396.617 313.948C395.937 313.426 395.144 313.052 394.238 312.826C393.331 312.576 392.334 312.452 391.247 312.452C390.159 312.452 389.139 312.576 388.187 312.826C387.258 313.052 386.443 313.415 385.74 313.914C385.038 314.412 384.46 315.047 384.007 315.818C383.576 316.588 383.327 317.495 383.259 318.538H387.916C388.029 317.767 388.312 317.155 388.765 316.702C389.241 316.248 389.966 316.022 390.941 316.022C392.074 316.022 392.833 316.305 393.218 316.872C393.626 317.416 393.83 318.22 393.83 319.286V320H391.825C390.465 320 389.219 320.102 388.086 320.306C386.952 320.51 385.978 320.838 385.162 321.292C384.346 321.745 383.712 322.334 383.259 323.06C382.806 323.785 382.579 324.669 382.579 325.712C382.579 326.641 382.738 327.446 383.055 328.126C383.372 328.783 383.803 329.327 384.346 329.758C384.89 330.188 385.513 330.506 386.216 330.71ZM392.708 326.766C391.983 327.31 391.077 327.582 389.989 327.582C389.083 327.582 388.425 327.389 388.018 327.004C387.61 326.618 387.406 326.097 387.406 325.44C387.406 324.488 387.802 323.83 388.595 323.468C389.388 323.105 390.499 322.924 391.927 322.924H393.83V324.42C393.83 325.417 393.456 326.199 392.708 326.766ZM370.992 312.86H375.921V316.26C376.487 315.058 377.224 314.152 378.13 313.54C379.036 312.928 380.215 312.61 381.665 312.588V317.178C379.83 317.155 378.413 317.484 377.416 318.164C376.419 318.844 375.921 320.034 375.921 321.734V330.642H370.992V312.86ZM352.39 330.132C353.908 330.721 355.664 331.016 357.658 331.016C359.154 331.016 360.536 330.823 361.805 330.438C363.074 330.052 364.185 329.474 365.136 328.704C366.088 327.956 366.859 327.015 367.448 325.882C368.037 324.726 368.411 323.4 368.569 321.904H363.165C362.938 323.468 362.326 324.635 361.329 325.406C360.355 326.176 359.109 326.562 357.59 326.562C355.573 326.562 354.01 325.87 352.899 324.488C351.812 323.105 351.268 321.144 351.268 318.606V318.334C351.268 315.795 351.834 313.823 352.967 312.418C354.1 311.012 355.63 310.31 357.556 310.31C359.097 310.31 360.276 310.695 361.091 311.466C361.93 312.214 362.451 313.324 362.655 314.798H368.297C368.162 313.302 367.788 311.998 367.176 310.888C366.587 309.777 365.827 308.859 364.898 308.134C363.947 307.408 362.836 306.864 361.567 306.502C360.321 306.139 358.973 305.958 357.522 305.958C355.8 305.958 354.202 306.264 352.73 306.876C351.257 307.465 349.988 308.304 348.922 309.392C347.835 310.48 346.985 311.794 346.373 313.336C345.761 314.854 345.455 316.532 345.455 318.368V318.64C345.455 320.521 345.716 322.221 346.237 323.74C346.758 325.258 347.54 326.55 348.583 327.616C349.602 328.704 350.871 329.542 352.39 330.132ZM334.256 331.016C332.919 331.016 331.684 330.812 330.551 330.404C329.418 329.996 328.444 329.395 327.628 328.602C326.79 327.831 326.133 326.89 325.657 325.78C325.203 324.669 324.977 323.4 324.977 321.972V321.7C324.977 320.294 325.203 319.025 325.657 317.892C326.133 316.758 326.79 315.784 327.628 314.968C328.444 314.174 329.407 313.562 330.517 313.132C331.628 312.678 332.829 312.452 334.121 312.452C335.276 312.452 336.375 312.633 337.418 312.996C338.46 313.336 339.378 313.868 340.171 314.594C340.964 315.319 341.599 316.26 342.074 317.416C342.55 318.549 342.788 319.909 342.788 321.496V322.856H329.974C330.042 324.352 330.449 325.508 331.197 326.324C331.968 327.117 333.033 327.514 334.392 327.514C335.548 327.514 336.409 327.287 336.976 326.834C337.565 326.38 337.939 325.78 338.097 325.032H342.754C342.46 326.958 341.576 328.443 340.103 329.486C338.653 330.506 336.704 331.016 334.256 331.016ZM337.995 319.83C337.905 318.47 337.531 317.472 336.874 316.838C336.217 316.18 335.299 315.852 334.121 315.852C333.01 315.852 332.092 316.203 331.367 316.906C330.665 317.586 330.223 318.56 330.042 319.83H337.995ZM311.114 330.438C312.247 330.823 313.459 331.016 314.751 331.016C316.043 331.016 317.198 330.846 318.218 330.506C319.238 330.143 320.11 329.644 320.835 329.01C321.56 328.398 322.127 327.661 322.535 326.8C322.943 325.916 323.181 324.941 323.249 323.876H318.796C318.683 325.032 318.263 325.893 317.538 326.46C316.836 327.026 315.986 327.31 314.989 327.31C313.606 327.31 312.53 326.856 311.76 325.95C311.012 325.043 310.638 323.694 310.638 321.904V321.632C310.638 319.932 311.023 318.628 311.794 317.722C312.564 316.792 313.595 316.328 314.887 316.328C315.929 316.328 316.745 316.577 317.334 317.076C317.946 317.574 318.331 318.334 318.49 319.354H323.147C323.033 318.084 322.727 317.008 322.229 316.124C321.73 315.24 321.107 314.526 320.359 313.982C319.589 313.438 318.717 313.052 317.742 312.826C316.79 312.576 315.805 312.452 314.785 312.452C313.516 312.452 312.326 312.667 311.216 313.098C310.105 313.506 309.131 314.106 308.293 314.9C307.454 315.716 306.797 316.702 306.321 317.858C305.845 318.991 305.607 320.272 305.607 321.7V321.972C305.607 323.422 305.834 324.714 306.287 325.848C306.763 326.958 307.409 327.899 308.225 328.67C309.04 329.44 310.003 330.03 311.114 330.438ZM294.165 312.86H299.093V316.26C299.66 315.058 300.396 314.152 301.303 313.54C302.209 312.928 303.388 312.61 304.838 312.588V317.178C303.002 317.155 301.586 317.484 300.589 318.164C299.592 318.844 299.093 320.034 299.093 321.734V330.642H294.165V312.86ZM277.474 330.642C278.222 330.891 279.026 331.016 279.888 331.016C281.36 331.016 282.55 330.721 283.457 330.132C284.386 329.52 285.077 328.76 285.53 327.854V330.642H290.425V312.86H285.53V323.298C285.53 324.612 285.168 325.598 284.442 326.256C283.74 326.89 282.867 327.208 281.825 327.208C280.805 327.208 280.035 326.913 279.514 326.324C278.992 325.712 278.732 324.816 278.732 323.638V312.86H273.837V324.318C273.837 325.474 273.984 326.482 274.279 327.344C274.596 328.182 275.027 328.874 275.571 329.418C276.115 329.962 276.749 330.37 277.474 330.642ZM262.398 327.276C263.781 327.276 264.846 326.8 265.593 325.848C266.364 324.896 266.749 323.57 266.749 321.87V321.632C266.749 319.932 266.364 318.606 265.593 317.654C264.846 316.679 263.781 316.192 262.398 316.192C261.039 316.192 259.974 316.668 259.203 317.62C258.433 318.549 258.047 319.864 258.047 321.564V321.836C258.047 323.536 258.421 324.873 259.169 325.848C259.917 326.8 260.993 327.276 262.398 327.276ZM262.364 331.016C261.027 331.016 259.792 330.8 258.659 330.37C257.526 329.939 256.54 329.327 255.702 328.534C254.864 327.763 254.206 326.822 253.731 325.712C253.255 324.578 253.017 323.32 253.017 321.938V321.666C253.017 320.283 253.255 319.025 253.731 317.892C254.206 316.736 254.864 315.761 255.702 314.968C256.54 314.174 257.526 313.562 258.659 313.132C259.815 312.678 261.061 312.452 262.398 312.452C263.735 312.452 264.97 312.667 266.103 313.098C267.259 313.528 268.256 314.14 269.095 314.934C269.91 315.727 270.556 316.69 271.032 317.824C271.508 318.934 271.746 320.181 271.746 321.564V321.836C271.746 323.241 271.508 324.51 271.032 325.644C270.556 326.777 269.899 327.74 269.061 328.534C268.222 329.327 267.225 329.939 266.069 330.37C264.936 330.8 263.701 331.016 262.364 331.016ZM237.593 330.472C238.817 330.834 240.267 331.016 241.944 331.016C243.372 331.016 244.663 330.812 245.819 330.404C246.975 329.996 247.949 329.44 248.742 328.738C249.535 328.058 250.147 327.253 250.578 326.324C251.008 325.372 251.224 324.352 251.224 323.264C251.224 322.017 251.031 320.963 250.646 320.102C250.283 319.24 249.728 318.526 248.98 317.96C248.232 317.416 247.303 316.985 246.193 316.668C245.083 316.328 243.791 316.067 242.318 315.886C241.389 315.75 240.63 315.591 240.041 315.41C239.451 315.228 238.998 315.013 238.681 314.764C238.341 314.537 238.103 314.265 237.967 313.948C237.854 313.608 237.797 313.222 237.797 312.792C237.797 311.976 238.092 311.318 238.681 310.82C239.293 310.298 240.21 310.038 241.434 310.038C242.613 310.038 243.542 310.31 244.221 310.854C244.901 311.375 245.321 312.18 245.479 313.268H250.544C250.317 310.842 249.422 309.029 247.859 307.828C246.318 306.604 244.176 305.992 241.434 305.992C240.097 305.992 238.885 306.173 237.797 306.536C236.709 306.898 235.78 307.397 235.01 308.032C234.239 308.689 233.639 309.46 233.208 310.344C232.8 311.228 232.596 312.191 232.596 313.234C232.596 314.412 232.755 315.421 233.072 316.26C233.412 317.098 233.945 317.801 234.67 318.368C235.372 318.957 236.268 319.433 237.355 319.796C238.466 320.136 239.803 320.408 241.366 320.612C242.25 320.748 242.986 320.906 243.576 321.088C244.165 321.246 244.641 321.439 245.003 321.666C245.343 321.915 245.581 322.21 245.717 322.55C245.876 322.89 245.955 323.298 245.955 323.774C245.955 324.726 245.592 325.508 244.867 326.12C244.142 326.709 243.168 327.004 241.944 327.004C241.038 327.004 240.29 326.902 239.701 326.698C239.134 326.471 238.67 326.176 238.307 325.814C237.944 325.474 237.684 325.066 237.525 324.59C237.367 324.091 237.253 323.57 237.185 323.026H231.917C231.985 324.25 232.234 325.349 232.664 326.324C233.095 327.298 233.718 328.137 234.534 328.84C235.35 329.542 236.369 330.086 237.593 330.472Z" fill="white"/>
<path d="M209.313 390.674H213.932V400.453H218.278V415.123H213.933L213.933 419.742L202.124 419.742V415.123H207.412L207.422 404.872H197.904V419.742L190.297 419.742L186.325 419.74V404.872H190.297V394.477H197.904V385.073L204.967 385.073V379.742H209.313V390.674Z" fill="white"/>
<path d="M413.675 404.867C412.695 404.732 411.753 404.703 410.85 404.78C409.967 404.838 409.169 404.982 408.459 405.212C407.767 405.424 407.19 405.731 406.729 406.135V415.126H401.225V400.198H406.384L406.614 403.339H406.672C407.267 402.551 407.901 401.908 408.574 401.408C409.265 400.909 410.034 400.534 410.879 400.284C411.725 400.035 412.656 399.91 413.675 399.91V404.867Z" fill="white"/>
<path d="M388.615 411.581C389.499 411.581 390.287 411.437 390.979 411.149C391.67 410.861 392.218 410.429 392.621 409.852C393.025 409.276 393.226 408.536 393.226 407.633C393.226 406.749 393.015 406.029 392.592 405.472C392.189 404.895 391.641 404.463 390.95 404.175C390.277 403.887 389.499 403.743 388.615 403.743C387.751 403.743 386.973 403.887 386.281 404.175C385.589 404.444 385.042 404.866 384.638 405.443C384.235 406.019 384.033 406.749 384.033 407.633C384.033 408.536 384.235 409.276 384.638 409.852C385.042 410.429 385.589 410.861 386.281 411.149C386.973 411.437 387.751 411.581 388.615 411.581ZM388.615 415.414C386.656 415.414 384.898 415.126 383.342 414.55C381.805 413.973 380.594 413.109 379.71 411.956C378.827 410.803 378.385 409.362 378.385 407.633C378.385 405.923 378.827 404.501 379.71 403.368C380.594 402.215 381.805 401.351 383.342 400.774C384.898 400.198 386.656 399.91 388.615 399.91C390.594 399.91 392.352 400.198 393.889 400.774C395.426 401.351 396.637 402.215 397.52 403.368C398.423 404.501 398.875 405.923 398.875 407.633C398.875 409.362 398.423 410.803 397.52 411.956C396.637 413.109 395.426 413.973 393.889 414.55C392.352 415.126 390.594 415.414 388.615 415.414Z" fill="white"/>
<path d="M363.168 403.973V400.198H376.511V403.973H363.168ZM365.474 397.057H370.949V409.391C370.949 410.14 371.122 410.688 371.468 411.034C371.833 411.38 372.429 411.553 373.255 411.553C373.812 411.553 374.34 411.485 374.84 411.351C375.339 411.197 375.801 410.976 376.223 410.688V414.434C375.628 414.761 374.946 415.001 374.177 415.155C373.409 415.328 372.544 415.414 371.583 415.414C370.104 415.414 368.913 415.213 368.01 414.809C367.126 414.386 366.482 413.762 366.079 412.936C365.676 412.09 365.474 411.063 365.474 409.852V397.057Z" fill="white"/>
<path d="M351.525 403.627C350.776 403.627 349.988 403.685 349.162 403.8C348.336 403.896 347.529 404.04 346.741 404.232C345.953 404.425 345.214 404.655 344.522 404.924V401.178C345.175 400.909 345.934 400.678 346.799 400.486C347.663 400.294 348.586 400.15 349.565 400.054C350.545 399.958 351.535 399.91 352.534 399.91C354.301 399.91 355.819 400.092 357.087 400.457C358.355 400.822 359.335 401.418 360.027 402.244C360.718 403.051 361.064 404.136 361.064 405.501V412.734C361.064 413.041 361.083 413.455 361.122 413.973C361.16 414.473 361.189 414.857 361.208 415.126H356.05C355.973 414.838 355.896 414.463 355.819 414.002C355.762 413.522 355.713 413.099 355.675 412.734L355.531 411.149V405.818C355.531 405.203 355.377 404.742 355.07 404.434C354.782 404.127 354.34 403.915 353.744 403.8C353.149 403.685 352.409 403.627 351.525 403.627ZM355.531 409.189L356.453 410.861C356.434 411.111 356.347 411.428 356.194 411.812C356.04 412.196 355.81 412.6 355.502 413.022C355.214 413.426 354.81 413.81 354.292 414.175C353.792 414.54 353.158 414.838 352.39 415.068C351.64 415.299 350.728 415.414 349.652 415.414C348.422 415.414 347.327 415.261 346.367 414.953C345.425 414.627 344.676 414.137 344.119 413.483C343.581 412.811 343.312 411.975 343.312 410.976C343.312 409.9 343.629 408.988 344.263 408.238C344.916 407.489 345.905 406.922 347.231 406.538C348.576 406.135 350.286 405.933 352.361 405.933H355.877V408.671H352.274C351.391 408.671 350.68 408.738 350.142 408.872C349.623 409.007 349.248 409.209 349.018 409.478C348.787 409.747 348.672 410.064 348.672 410.429C348.672 410.832 348.778 411.159 348.989 411.408C349.22 411.658 349.546 411.841 349.969 411.956C350.411 412.071 350.92 412.129 351.496 412.129C352.284 412.129 352.937 412.023 353.456 411.812C353.975 411.581 354.388 411.303 354.695 410.976C355.003 410.65 355.214 410.323 355.329 409.996C355.464 409.67 355.531 409.401 355.531 409.189Z" fill="white"/>
<path d="M341.853 404.867C340.873 404.732 339.931 404.703 339.028 404.78C338.144 404.838 337.347 404.982 336.636 405.212C335.945 405.424 335.368 405.731 334.907 406.135V415.126H329.403V400.198H334.561L334.792 403.339H334.85C335.445 402.551 336.079 401.908 336.752 401.408C337.443 400.909 338.212 400.534 339.057 400.284C339.902 400.035 340.834 399.91 341.853 399.91V404.867Z" fill="white"/>
<path d="M316.793 411.581C317.677 411.581 318.464 411.437 319.156 411.149C319.848 410.861 320.395 410.429 320.799 409.852C321.202 409.276 321.404 408.536 321.404 407.633C321.404 406.749 321.193 406.029 320.77 405.472C320.366 404.895 319.819 404.463 319.127 404.175C318.455 403.887 317.677 403.743 316.793 403.743C315.928 403.743 315.15 403.887 314.458 404.175C313.767 404.444 313.219 404.866 312.816 405.443C312.412 406.019 312.211 406.749 312.211 407.633C312.211 408.536 312.412 409.276 312.816 409.852C313.219 410.429 313.767 410.861 314.458 411.149C315.15 411.437 315.928 411.581 316.793 411.581ZM316.793 415.414C314.833 415.414 313.075 415.126 311.519 414.55C309.982 413.973 308.772 413.109 307.888 411.956C307.004 410.803 306.562 409.362 306.562 407.633C306.562 405.923 307.004 404.501 307.888 403.368C308.772 402.215 309.982 401.351 311.519 400.774C313.075 400.198 314.833 399.91 316.793 399.91C318.772 399.91 320.53 400.198 322.067 400.774C323.604 401.351 324.814 402.215 325.698 403.368C326.601 404.501 327.052 405.923 327.052 407.633C327.052 409.362 326.601 410.803 325.698 411.956C324.814 413.109 323.604 413.973 322.067 414.55C320.53 415.126 318.772 415.414 316.793 415.414Z" fill="white"/>
<path d="M292.157 403.944V400.198H305.471V403.944H292.157ZM294.52 415.126V400.371C294.52 399.026 294.846 397.902 295.5 396.999C296.153 396.077 297.085 395.385 298.295 394.924C299.525 394.463 300.994 394.232 302.704 394.232C303.55 394.232 304.203 394.261 304.664 394.319C305.125 394.357 305.538 394.415 305.903 394.492V398.181C305.673 398.104 305.346 398.036 304.923 397.979C304.501 397.902 303.972 397.863 303.338 397.863C302.685 397.863 302.099 397.95 301.58 398.123C301.081 398.277 300.687 398.536 300.399 398.901C300.13 399.247 299.995 399.727 299.995 400.342V415.126H294.52Z" fill="white"/>
<path d="M289.534 404.867C288.554 404.732 287.613 404.703 286.71 404.78C285.826 404.838 285.028 404.982 284.318 405.212C283.626 405.424 283.05 405.731 282.588 406.135V415.126H277.084V400.198H282.243L282.473 403.339H282.531C283.126 402.551 283.76 401.908 284.433 401.408C285.125 400.909 285.893 400.534 286.738 400.284C287.584 400.035 288.516 399.91 289.534 399.91V404.867Z" fill="white"/>
<path d="M266.232 415.414C263.523 415.414 261.313 415.107 259.604 414.492C257.913 413.877 256.674 412.993 255.886 411.841C255.098 410.669 254.704 409.266 254.704 407.633C254.704 406.404 254.935 405.308 255.396 404.348C255.876 403.387 256.558 402.58 257.442 401.927C258.345 401.255 259.421 400.755 260.67 400.428C261.919 400.083 263.321 399.91 264.877 399.91C266.491 399.91 267.913 400.111 269.143 400.515C270.391 400.899 271.41 401.475 272.197 402.244C272.985 402.993 273.523 403.935 273.811 405.068C274.119 406.183 274.119 407.479 273.811 408.959H257.673V405.875H270.814L268.451 407.287C268.605 406.596 268.634 406 268.537 405.501C268.461 404.982 268.268 404.559 267.961 404.232C267.654 403.887 267.241 403.637 266.722 403.483C266.222 403.31 265.646 403.224 264.993 403.224C264.243 403.224 263.571 403.32 262.975 403.512C262.399 403.685 261.909 403.954 261.506 404.319C261.121 404.665 260.824 405.107 260.612 405.645C260.401 406.183 260.295 406.807 260.295 407.518C260.295 408.478 260.478 409.276 260.843 409.91C261.227 410.525 261.871 410.986 262.774 411.293C263.677 411.581 264.935 411.725 266.549 411.725C267.356 411.725 268.124 411.687 268.854 411.61C269.604 411.533 270.315 411.428 270.987 411.293C271.679 411.139 272.351 410.938 273.004 410.688V414.348C272.332 414.617 271.65 414.828 270.958 414.982C270.286 415.136 269.565 415.241 268.797 415.299C268.028 415.376 267.173 415.414 266.232 415.414Z" fill="white"/>
<path d="M242.927 404.348C244.137 404.348 245.117 404.261 245.866 404.088C246.635 403.896 247.192 403.589 247.538 403.166C247.884 402.744 248.057 402.167 248.057 401.437C248.057 400.765 247.884 400.227 247.538 399.823C247.211 399.401 246.673 399.093 245.924 398.901C245.175 398.709 244.176 398.613 242.927 398.613H235.578V394.492H243.157C245.598 394.492 247.596 394.722 249.152 395.183C250.727 395.644 251.89 396.375 252.639 397.374C253.388 398.353 253.763 399.65 253.763 401.264C253.763 402.936 253.359 404.3 252.552 405.356C251.765 406.413 250.583 407.201 249.008 407.72C247.432 408.219 245.473 408.469 243.129 408.469H235.578V404.348H242.927ZM232.927 394.492H238.575V415.126H232.927V394.492Z" fill="white"/>
</svg>
