<svg width="1080" height="190" viewBox="0 0 1080 190" fill="none" xmlns="http://www.w3.org/2000/svg">
<path fill-rule="evenodd" clip-rule="evenodd" d="M209.76 50.5005C209.76 59.808 202.196 67.3722 192.889 67.3722C183.581 67.3722 176.017 59.808 176.017 50.5005C176.017 41.193 183.581 33.6289 192.889 33.6289C202.196 33.6289 209.76 41.193 209.76 50.5005ZM206.78 50.5005C206.78 58.1771 200.565 64.3915 192.889 64.3915C190.88 64.3915 189.38 63.6375 188.629 62.7229C187.879 61.8083 187.668 60.3117 187.926 58.1499L192.397 57.263C196.482 56.5147 198.733 54.2421 199.539 50.168C199.638 49.5976 199.75 49.0273 199.857 48.4867C199.901 48.2655 199.943 48.0492 199.984 47.8399C200.103 47.1894 200.219 46.5707 200.325 46.0021L200.331 45.9749L200.331 45.9737C200.444 45.3665 200.547 44.817 200.633 44.3478C201.09 41.6991 200.718 39.7436 199.689 38.3831C203.922 40.7623 206.78 45.2952 206.78 50.5005ZM192.889 36.6096C185.212 36.6096 178.998 42.8239 178.998 50.5005C178.998 55.7058 181.855 60.2388 186.088 62.6179C185.059 61.2575 184.687 59.302 185.145 56.6533C185.243 56.1142 185.361 55.4788 185.492 54.7699C185.583 54.276 185.681 53.7465 185.784 53.1889C185.823 52.9878 185.864 52.7803 185.906 52.5681L185.91 52.5443L185.911 52.5421C186.017 52.0015 186.13 51.4311 186.229 50.8608C187.007 46.759 189.257 44.4864 193.342 43.7381L197.851 42.8512C198.109 40.6894 197.898 39.1928 197.148 38.2782C196.398 37.3636 194.897 36.6096 192.889 36.6096ZM197.316 45.9553L193.926 46.6204C191.036 47.1747 189.702 48.5051 189.146 51.3874C189.017 52.0318 188.905 52.6429 188.796 53.2336L188.702 53.7432L188.701 53.7466C188.618 54.1889 188.535 54.6311 188.452 55.0458L191.814 54.3806C194.704 53.8263 196.066 52.496 196.621 49.6137C196.743 49.006 196.856 48.3969 196.968 47.7877L196.968 47.7862L196.969 47.7846L196.969 47.7837L196.969 47.7829C197.081 47.1732 197.194 46.5635 197.316 45.9553Z" fill="white"/>
<path d="M75.0312 63.1539V58.8404C75.0312 55.587 74.6291 54.6366 73.3862 51.9315L66.8794 37.7481H62.2734L70.608 55.8795V63.1539H75.0312Z" fill="white"/>
<path d="M77.9191 50.0306L83.3292 37.7481H78.8329L73.4228 50.0306H77.9191Z" fill="white"/>
<path fill-rule="evenodd" clip-rule="evenodd" d="M124.125 63.5195C126.172 63.5195 127.853 62.5691 129.023 60.7779L129.243 63.1539H133.264V37.7481H128.914V46.9234C127.817 45.2785 126.208 44.4011 124.308 44.4011C120.104 44.4011 117.179 47.947 117.179 54.0883C117.179 60.1564 120.031 63.5195 124.125 63.5195ZM125.404 47.8373C127.744 47.8373 128.914 49.7016 128.914 53.942C128.914 58.219 127.671 60.0833 125.221 60.0833C122.845 60.0833 121.676 58.2556 121.676 54.0883C121.676 49.7382 122.919 47.8373 125.404 47.8373Z" fill="white"/>
<path fill-rule="evenodd" clip-rule="evenodd" d="M150.847 61.9111V58.3652C149.494 59.2791 147.228 60.0833 145.108 60.0833C141.927 60.0833 140.721 58.5845 140.538 55.5139H151.029V53.2109C151.029 46.8138 148.215 44.4011 143.865 44.4011C138.564 44.4011 136.042 48.4588 136.042 54.0151C136.042 60.4123 139.186 63.5195 144.742 63.5195C147.52 63.5195 149.567 62.7884 150.847 61.9111ZM143.792 47.8373C145.948 47.8373 146.606 49.6285 146.606 51.9315V52.2971H140.538C140.648 49.3726 141.708 47.8373 143.792 47.8373Z" fill="white"/>
<path fill-rule="evenodd" clip-rule="evenodd" d="M96.1236 50.6155C96.1236 46.1558 93.8571 44.4742 89.2512 44.4742C86.3999 44.4742 84.0969 45.6806 82.7809 46.631V50.3962C84.17 49.263 86.2902 47.947 88.7394 47.947C90.823 47.947 91.7735 48.6781 91.7735 50.6521V51.8218H91.0789C84.4259 51.8218 81.4649 53.9786 81.4649 57.8169C81.4649 61.3627 83.7313 63.4098 87.0944 63.4098C89.6533 63.4098 90.7499 62.5691 91.5907 61.6917H91.7735C91.81 62.167 91.9563 62.7884 92.1025 63.1539H96.3429C96.1967 61.6552 96.1236 60.1564 96.1236 58.6577V50.6155ZM91.7735 58.7673C91.2252 59.5715 90.2016 60.2295 88.6663 60.2295C86.8385 60.2295 85.9246 59.1694 85.9246 57.561C85.9246 55.4408 87.4234 54.7097 91.152 54.7097H91.7735V58.7673Z" fill="white"/>
<path d="M104.019 49.9575C104.824 48.9705 106.103 48.1298 107.675 48.1298C109.21 48.1298 109.905 48.7878 109.905 50.1769V63.1539H114.255V49.7382C114.255 46.0827 112.793 44.4742 109.247 44.4742C106.651 44.4742 105.116 45.4247 104.239 46.302H104.019L103.91 44.7667H99.6694V63.1539H104.019V49.9575Z" fill="white"/>
<path d="M164.226 63.1539H169.124L163.129 53.6862L168.32 44.7667H163.97L160.826 50.3231L157.317 44.7667H152.419L157.975 53.5765L152.199 63.1539H156.622L160.314 56.9396L164.226 63.1539Z" fill="white"/>
<path d="M226.571 63.5205C229.312 63.5205 231.177 62.5335 232.31 61.7658V58.22C230.848 59.2801 229.239 60.0843 226.9 60.0843C222.879 60.0843 220.978 56.8309 220.978 50.4703C220.978 43.9269 222.805 40.8197 227.119 40.8197C229.129 40.8197 230.994 41.697 232.31 42.5378V38.992C231.14 38.1512 229.239 37.3835 226.9 37.3835C220.137 37.3835 216.481 42.355 216.481 50.4703C216.481 58.8049 220.283 63.5205 226.571 63.5205Z" fill="white"/>
<path d="M239.59 37.7491H235.24V63.1549H239.59V37.7491Z" fill="white"/>
<path fill-rule="evenodd" clip-rule="evenodd" d="M242.506 53.9796C242.506 47.8018 245.832 44.4021 250.621 44.4021C255.41 44.4021 258.736 47.8018 258.736 53.943C258.736 60.1209 255.41 63.5205 250.621 63.5205C245.832 63.5205 242.506 60.1209 242.506 53.9796ZM247.002 53.9796C247.002 58.22 248.208 60.0843 250.621 60.0843C253.033 60.0843 254.24 58.22 254.24 53.943C254.24 49.7026 253.033 47.8383 250.621 47.8383C248.208 47.8383 247.002 49.7026 247.002 53.9796Z" fill="white"/>
<path d="M271.71 57.9641C270.905 58.9511 269.626 59.7919 268.054 59.7919C266.519 59.7919 265.824 59.1339 265.824 57.7448V44.7677H261.474V58.1834C261.474 61.839 262.936 63.4474 266.482 63.4474C269.078 63.4474 270.613 62.4969 271.49 61.6196H271.71L271.819 63.1549H276.06V44.7677H271.71V57.9641Z" fill="white"/>
<path fill-rule="evenodd" clip-rule="evenodd" d="M290.833 60.7789C289.663 62.5701 287.982 63.5205 285.935 63.5205C281.841 63.5205 278.989 60.1574 278.989 54.0893C278.989 47.948 281.914 44.4021 286.118 44.4021C288.018 44.4021 289.627 45.2794 290.724 46.9244V37.7491H295.074V63.1549H291.053L290.833 60.7789ZM290.724 53.943C290.724 49.7026 289.554 47.8383 287.214 47.8383C284.728 47.8383 283.486 49.7392 283.486 54.0893C283.486 58.2565 284.655 60.0843 287.031 60.0843C289.481 60.0843 290.724 58.22 290.724 53.943Z" fill="white"/>
<path d="M484.359 48.7833C484.359 48.7833 490.895 49.3388 492.372 52.9141H492.377C493.854 56.4894 492.054 59.8316 488.839 61.1732C485.624 62.5148 482.725 62.7361 479.362 62.7361C476 62.7361 465.861 62.5148 465.89 54.7076H470.812C470.873 59.2473 479.515 58.7725 481.753 58.6496C481.874 58.6429 481.976 58.6373 482.057 58.6336C483.441 58.5677 487.799 58.2523 487.864 55.5361C487.924 52.9878 483.673 52.6231 482.582 52.5295C482.51 52.5233 482.451 52.5183 482.409 52.5139C481.721 52.4433 476.693 51.9255 475.281 51.7796C473.869 51.6337 470.343 51.177 468.026 49.2494C465.709 47.3217 466.549 43.8405 466.549 43.8405C466.906 42.3177 467.897 41.0773 469.529 40.124C471.057 39.2296 473.051 38.6671 475.503 38.427C475.503 38.427 478.967 38.0551 482.815 38.427C482.823 38.4294 482.833 38.4294 482.841 38.4294C485.453 38.6812 487.546 39.2908 489.113 40.2652C491.223 41.581 492.281 43.4922 492.281 45.9989H487.396C487.393 45.5211 487.287 45.1539 487.204 44.9374C486.811 43.9464 485.546 42.5907 481.571 42.3624C475.188 41.9952 473.147 42.9955 473.147 42.9955C473.147 42.9955 471.35 43.5769 471.313 45.1492C471.277 46.7215 472.382 47.5476 475.961 47.9124L484.359 48.7833Z" fill="white"/>
<path d="M355.838 48.6753C357.281 52.2191 358.885 56.1617 359.244 57.0447C360.467 60.0504 363.351 59.509 363.351 59.509C363.348 59.5465 363.064 62.656 359.536 62.656C359.536 62.656 359.337 62.6724 359.016 62.6206C356.134 62.2831 355.028 59.2135 354.758 58.4643C354.741 58.4194 354.728 58.3829 354.718 58.3557C354.718 58.3546 353.547 55.4792 352.245 52.2782C350.802 48.7344 349.198 44.7917 348.839 43.9087C347.616 40.903 344.732 41.4443 344.732 41.4443C344.735 41.4068 345.019 38.2974 348.547 38.2974C348.547 38.2974 348.746 38.281 349.066 38.3327C351.948 38.6703 353.055 41.7399 353.325 42.4891C353.342 42.534 353.355 42.5705 353.365 42.5977C353.365 42.5988 354.533 45.4683 355.834 48.6652L355.838 48.6753Z" fill="white"/>
<path d="M363.349 59.509V38.827H368.004V54.3521C368.004 58.4146 364.557 59.316 363.349 59.509Z" fill="white"/>
<path d="M372.659 62.1264H395.937V58.1251H377.315V52.382H394.535V48.3807H377.315V42.8283H395.937V38.827H372.659V62.1264Z" fill="white"/>
<path d="M427.735 38.827H432.39V62.1264H427.735V38.827Z" fill="white"/>
<path d="M441.696 53.6695V38.827H437.053V54.2603C437.053 55.9243 437.591 57.4684 438.507 58.7747C440.147 61.1096 443.013 62.6607 446.284 62.6607H448.705C451.977 62.6607 454.843 60.9919 456.482 58.657H447.014C444.063 58.5793 441.693 56.3763 441.693 53.6695H441.696Z" fill="white"/>
<path d="M457.924 54.1426C457.924 55.7972 457.391 57.3554 456.483 58.657H457.453C460.306 58.4828 462.564 56.3104 462.564 53.6695V38.827H457.924V54.1426Z" fill="white"/>
<path d="M340.074 46.6132V62.1288H344.73V41.4468C344.73 41.4468 340.074 41.9552 340.074 46.6132Z" fill="white"/>
<path fill-rule="evenodd" clip-rule="evenodd" d="M420.413 49.9696C423.871 47.5076 423.24 42.6472 420.664 40.6065C418.392 38.8042 414.908 38.8161 412.639 38.8238C412.496 38.8243 412.357 38.8248 412.225 38.8248H399.802V62.1265H415.326C420.812 62.1265 424.458 59.3703 424.458 55.3643C424.458 51.1417 420.411 49.9696 420.411 49.9696H420.413ZM404.46 42.8049H412.944C413.009 42.8049 413.091 42.8034 413.185 42.8018C414.464 42.7792 418.158 42.7139 418.158 45.594C418.158 47.9265 415.861 48.3832 414.633 48.3832H404.46V42.8049ZM415.036 58.1534C413.482 58.1534 404.458 58.1487 404.458 58.1487V52.3586H415.021L415.113 52.3584C416.266 52.356 419.539 52.349 419.539 55.0959C419.539 57.9204 416.59 58.1534 415.036 58.1534Z" fill="white"/>
<path d="M557.902 41.7773C557.911 40.4113 557.556 39.0676 556.873 37.8844C556.191 36.7011 555.205 35.7211 554.018 35.0451L537.898 25.7422V31.0287L551.726 39.007C552.211 39.2875 552.613 39.6906 552.893 40.1758C553.173 40.6609 553.32 41.2112 553.32 41.7713C553.32 42.3313 553.173 42.8816 552.893 43.3667C552.613 43.8519 552.211 44.255 551.726 44.5355L537.898 52.5198V57.8064L554.006 48.5035C555.195 47.8295 556.182 46.8511 556.866 45.6689C557.551 44.4867 557.908 43.1434 557.902 41.7773Z" fill="white"/>
<path d="M556.341 56.4582L570.162 48.4799V43.1934L554.054 52.4963C552.874 53.1787 551.893 54.1598 551.212 55.3409C550.53 56.5221 550.172 57.8618 550.172 59.2254C550.172 60.5891 550.53 61.9288 551.212 63.1099C551.893 64.2911 552.874 65.2722 554.054 65.9546L570.162 75.2575V69.971L556.341 61.9927C555.858 61.711 555.457 61.3075 555.178 60.8225C554.899 60.3374 554.753 59.7878 554.753 59.2285C554.753 58.6691 554.899 58.1195 555.178 57.6345C555.457 57.1495 555.858 56.7459 556.341 56.4642V56.4582Z" fill="white"/>
<path fill-rule="evenodd" clip-rule="evenodd" d="M597.41 38.251H589.589V62.3612H597.41C604.094 62.3612 609.773 58.369 609.773 50.3061C609.773 42.2432 604.094 38.251 597.41 38.251ZM605.158 50.3061C605.158 56.2641 601.196 58.3993 597.029 58.3993H594.15V42.1766H597.029C601.196 42.1766 605.158 44.3481 605.158 50.3061Z" fill="white"/>
<path fill-rule="evenodd" clip-rule="evenodd" d="M611.581 53.6823C611.581 48.5167 615.374 44.7242 620.654 44.7242C625.935 44.7242 629.728 48.5167 629.728 53.6823C629.728 58.8479 625.935 62.6404 620.654 62.6404C615.374 62.6404 611.581 58.8479 611.581 53.6823ZM625.463 53.6823C625.463 50.5491 623.534 48.3776 620.679 48.3776C617.824 48.3776 615.84 50.5491 615.84 53.6823C615.84 56.8155 617.769 58.987 620.679 58.987C623.588 58.987 625.463 56.8155 625.463 53.6823Z" fill="white"/>
<path d="M643.853 62.3608H648.088L648.1 45.001H643.866V54.4733C643.866 57.0259 642.214 58.8828 639.837 58.8828C637.654 58.8828 636.208 57.2315 636.208 54.8544V45.001H631.974V55.7496C631.974 59.8143 634.52 62.6391 638.446 62.6391C640.926 62.6391 642.892 61.5684 643.853 59.6752V62.3608Z" fill="white"/>
<path fill-rule="evenodd" clip-rule="evenodd" d="M655.727 60.179V62.3444H651.523V37.5447H655.727V47.0835C656.325 46.3084 657.1 45.6881 657.987 45.2744C658.874 44.8608 659.848 44.666 660.826 44.7064C665.955 44.7064 669.022 48.3356 669.022 53.6645C669.022 58.9934 665.955 62.6226 660.753 62.6226C659.78 62.6548 658.813 62.449 657.938 62.0232C657.062 61.5974 656.303 60.9643 655.727 60.179ZM664.8 53.6645C664.8 50.4648 662.937 48.3598 660.112 48.3598C657.287 48.3598 655.424 50.4648 655.424 53.6645C655.424 56.8643 657.287 58.9692 660.112 58.9692C662.937 58.9692 664.824 56.8885 664.824 53.6827L664.8 53.6645Z" fill="white"/>
<path d="M675.806 37.561H671.614L671.608 62.3607H675.806V37.561Z" fill="white"/>
<path fill-rule="evenodd" clip-rule="evenodd" d="M695.31 56.5783C694.656 60.262 691.42 62.627 687.15 62.627C681.464 62.627 678.295 58.151 678.295 53.6023C678.295 49.0537 681.119 44.7107 686.805 44.7107C692.624 44.7107 695.273 48.9448 695.273 53.0821C695.274 53.567 695.249 54.0515 695.201 54.5339H682.359C682.668 57.3223 684.458 59.1127 687.15 59.1127C689.315 59.1127 690.731 58.2175 691.178 56.5662L695.31 56.5783ZM691.003 51.7393H682.464C682.914 49.1285 684.432 47.8924 686.805 47.8803C687.336 47.851 687.867 47.9282 688.367 48.1075C688.868 48.2868 689.327 48.5645 689.718 48.9242C690.109 49.2839 690.425 49.7183 690.645 50.2018C690.866 50.6853 690.988 51.2081 691.003 51.7393Z" fill="white"/>
<path d="M709.143 37.9718C702.84 37.9718 697.191 42.1091 697.191 50.3051C697.191 58.5071 702.737 62.6384 709.143 62.6384C715.071 62.6384 719.48 59.2269 719.964 54.2307H715.415C715.004 56.8619 712.451 58.6765 709.143 58.6765C704.945 58.6765 701.775 55.7792 701.775 50.3051C701.775 44.831 704.945 41.8974 709.143 41.8974C712.385 41.8974 714.931 43.7241 715.276 46.3795H720.03C719.377 41.3832 714.968 37.9718 709.143 37.9718Z" fill="white"/>
<path d="M722.723 37.561H726.958V62.3607H722.723V37.561Z" fill="white"/>
<path fill-rule="evenodd" clip-rule="evenodd" d="M738.475 44.7242C733.194 44.7242 729.401 48.5167 729.401 53.6823C729.401 58.8479 733.188 62.6404 738.475 62.6404C743.761 62.6404 747.548 58.8479 747.548 53.6823C747.548 48.5167 743.755 44.7242 738.475 44.7242ZM738.499 48.3776C741.354 48.3776 743.283 50.5491 743.283 53.6823C743.283 56.8155 741.408 58.987 738.499 58.987C735.589 58.987 733.66 56.8155 733.66 53.6823C733.66 50.5491 735.644 48.3776 738.499 48.3776Z" fill="white"/>
<path d="M765.935 62.3608H761.701V59.6752C760.739 61.5684 758.773 62.6391 756.293 62.6391C752.368 62.6391 749.815 59.8143 749.815 55.7496V45.001H754.049V54.8544C754.049 57.2315 755.495 58.8828 757.678 58.8828C760.056 58.8828 761.707 57.0259 761.707 54.4733V45.001H765.941L765.935 62.3608Z" fill="white"/>
<path fill-rule="evenodd" clip-rule="evenodd" d="M776.586 44.7227C771.45 44.7227 768.383 48.3761 768.383 53.6808C768.383 58.9674 771.45 62.6389 776.628 62.5966C777.6 62.6315 778.566 62.4294 779.443 62.0079C780.319 61.5864 781.08 60.9581 781.66 60.1771V62.3607H785.894V37.561H781.685V47.0998C781.086 46.3251 780.311 45.705 779.424 45.2914C778.537 44.8778 777.564 44.6828 776.586 44.7227ZM777.275 48.3761C780.1 48.3761 781.957 50.4811 781.957 53.6808C781.957 56.8866 780.1 58.9855 777.275 58.9855C774.45 58.9855 772.587 56.8624 772.587 53.6808C772.587 50.4992 774.45 48.3761 777.275 48.3761Z" fill="white"/>
<path d="M907.849 41.4133H903.271L897.331 52.2455L891.356 41.4133H886.778L895.304 56.1591V65.8731H899.323V56.1591L907.849 41.4133ZM921.486 41.4133H903.665V45.257H910.584V65.8731H914.602V45.257H921.486V41.4133ZM923.759 53.2238C923.759 51.966 924.947 51.372 926.31 51.372C927.742 51.372 928.965 52.0009 929.594 53.3637L932.774 51.5816C931.551 49.2754 929.175 47.9476 926.31 47.9476C922.746 47.9476 919.915 50.0092 919.915 53.2937C919.915 59.5484 929.315 57.8013 929.315 60.9113C929.315 62.309 928.022 62.868 926.345 62.868C924.423 62.868 923.025 61.9245 922.466 60.3522L919.216 62.239C920.334 64.755 922.85 66.3273 926.345 66.3273C930.118 66.3273 933.158 64.4404 933.158 60.9462C933.158 54.4818 923.759 56.4037 923.759 53.2238ZM949.439 48.4018V50.8827C948.112 49.0658 946.05 47.9476 943.324 47.9476C938.572 47.9476 934.624 51.931 934.624 57.1374C934.624 62.309 938.572 66.3273 943.324 66.3273C946.05 66.3273 948.112 65.2092 949.439 63.3572V65.8731H953.213V48.4018H949.439ZM943.918 62.7283C940.774 62.7283 938.398 60.3871 938.398 57.1374C938.398 53.8878 940.774 51.5467 943.918 51.5467C947.063 51.5467 949.439 53.8878 949.439 57.1374C949.439 60.3871 947.063 62.7283 943.918 62.7283ZM967.989 48.4018V57.7664C967.989 61.3305 966.033 62.7982 963.552 62.7982C961.175 62.7982 959.639 61.4004 959.639 58.7448V48.4018H955.864V59.1292C955.864 63.6717 958.661 66.3273 962.574 66.3273C964.95 66.3273 966.837 65.4538 967.989 63.6367V65.8731H971.764V48.4018H967.989ZM978.552 51.337V48.4018H974.779V65.8731H978.552V57.0675C978.552 53.154 981.453 52.0009 983.934 52.1756V48.0873C981.732 48.0873 979.6 48.961 978.552 51.337ZM997.973 48.4018V57.7664C997.973 61.3305 996.017 62.7982 993.536 62.7982C991.16 62.7982 989.622 61.4004 989.622 58.7448V48.4018H985.849V59.1292C985.849 63.6717 988.644 66.3273 992.558 66.3273C994.933 66.3273 996.821 65.4538 997.973 63.6367V65.8731H1001.75V48.4018H997.973ZM1008.33 53.2238C1008.33 51.966 1009.52 51.372 1010.88 51.372C1012.31 51.372 1013.53 52.0009 1014.16 53.3637L1017.34 51.5816C1016.12 49.2754 1013.74 47.9476 1010.88 47.9476C1007.31 47.9476 1004.48 50.0092 1004.48 53.2937C1004.48 59.5484 1013.88 57.8013 1013.88 60.9113C1013.88 62.309 1012.59 62.868 1010.91 62.868C1008.99 62.868 1007.59 61.9245 1007.03 60.3522L1003.78 62.239C1004.9 64.755 1007.42 66.3273 1010.91 66.3273C1014.69 66.3273 1017.73 64.4404 1017.73 60.9462C1017.73 54.4818 1008.33 56.4037 1008.33 53.2238Z" fill="white"/>
<path fill-rule="evenodd" clip-rule="evenodd" d="M846.443 41.4419C850.538 35.687 857.063 32.4731 860.157 33.0911C862.141 33.4874 860.938 35.6347 859.505 38.0649C859.131 38.699 858.765 39.2835 858.435 39.8091C857.502 41.2978 856.866 42.3135 857.19 42.6426C862.332 37.6986 865.638 37.148 868.393 37.148C871.121 37.148 869.838 39.1137 868.435 41.2634L868.393 41.3273C868.19 41.6389 867.98 41.9474 867.778 42.2445C866.989 43.4023 866.318 44.3881 866.619 44.7167C869.584 42.6066 872.653 42.0969 874.096 42.3951C875.538 42.6933 875.962 43.3185 873.971 46.3961L872.069 49.2509L872.156 49.3915C872.831 50.4766 873.86 52.1314 873.86 54.768C873.86 60.0588 869.818 65.3182 867.556 67.6696C867.36 67.8737 867.09 67.9829 866.807 67.9829H862.605C862.288 67.9829 862.042 67.7086 862.052 67.3919C862.233 61.7552 856.248 61.9872 852.257 67.7436C852.155 67.8909 851.987 67.9829 851.808 67.9829H847.856C847.572 67.9829 847.297 67.8718 847.108 67.6595C845.571 65.9362 844.169 63.0194 843.815 61.7628C842.125 64.3711 837.496 65.8055 834.188 63.5735C830.26 60.9233 830.285 56.415 831.984 53.6623L835.436 55.6239C834.928 57.6243 835.68 59.0018 837.125 59.0018C839.211 59.0019 840.03 56.4734 841.201 52.8578C842.26 49.5866 843.608 45.4255 846.443 41.4419ZM848.971 55.8073C850.123 53.207 850.123 50.6866 848.972 50.1777C847.821 49.6689 845.955 51.3644 844.803 53.9647C844.517 54.6127 844.301 55.2557 844.157 55.8638H848.946L848.971 55.8073ZM857.452 50.1777C858.603 50.6866 858.603 53.207 857.452 55.8073L857.427 55.8638H852.638C852.782 55.2557 852.997 54.6127 853.284 53.9647C854.435 51.3644 856.301 49.6689 857.452 50.1777Z" fill="white"/>
<path fill-rule="evenodd" clip-rule="evenodd" d="M293.762 153.889H302.19C304.715 153.889 306.877 153.392 308.674 152.396C310.48 151.4 311.86 149.971 312.815 148.109C313.779 146.247 314.26 144.021 314.26 141.43C314.26 138.848 313.783 136.629 312.827 134.776C311.872 132.922 310.504 131.501 308.723 130.513C306.95 129.517 304.829 129.02 302.36 129.02H293.762V153.889ZM301.971 149.991H298.267V132.918H302.105C303.788 132.918 305.197 133.233 306.331 133.865C307.472 134.488 308.334 135.431 308.917 136.694C309.5 137.949 309.792 139.528 309.792 141.43C309.792 143.333 309.5 144.919 308.917 146.19C308.334 147.453 307.464 148.405 306.306 149.044C305.149 149.676 303.703 149.991 301.971 149.991ZM316.979 135.237V153.889H321.375V135.237H316.979ZM324.528 160.884V135.237H328.851V138.321H329.106C329.333 137.868 329.652 137.386 330.065 136.876C330.478 136.358 331.037 135.917 331.741 135.553C332.445 135.18 333.344 134.994 334.437 134.994C335.878 134.994 337.177 135.362 338.335 136.099C339.501 136.828 340.424 137.909 341.104 139.342C341.792 140.766 342.136 142.515 342.136 144.588C342.136 146.636 341.8 148.376 341.128 149.809C340.456 151.242 339.541 152.335 338.384 153.088C337.226 153.841 335.915 154.217 334.449 154.217C333.38 154.217 332.494 154.039 331.79 153.683C331.085 153.327 330.519 152.898 330.09 152.396C329.669 151.886 329.341 151.404 329.106 150.951H328.924V160.884H324.528ZM328.839 144.563C328.839 145.769 329.009 146.826 329.349 147.733C329.697 148.639 330.195 149.348 330.842 149.858C331.498 150.36 332.292 150.611 333.223 150.611C334.194 150.611 335.008 150.352 335.664 149.833C336.319 149.307 336.813 148.591 337.145 147.684C337.485 146.769 337.655 145.729 337.655 144.563C337.655 143.406 337.489 142.377 337.157 141.479C336.825 140.58 336.331 139.876 335.676 139.366C335.02 138.856 334.202 138.601 333.223 138.601C332.284 138.601 331.486 138.848 330.83 139.342C330.175 139.835 329.677 140.528 329.337 141.418C329.005 142.309 328.839 143.357 328.839 144.563ZM348.929 153.889V129.02H344.533V153.889H348.929ZM360.218 154.254C358.396 154.254 356.818 153.853 355.482 153.052C354.146 152.25 353.11 151.129 352.373 149.688C351.644 148.247 351.28 146.563 351.28 144.636C351.28 142.709 351.644 141.021 352.373 139.572C353.11 138.123 354.146 136.998 355.482 136.196C356.818 135.395 358.396 134.994 360.218 134.994C362.039 134.994 363.618 135.395 364.954 136.196C366.29 136.998 367.322 138.123 368.051 139.572C368.787 141.021 369.156 142.709 369.156 144.636C369.156 146.563 368.787 148.247 368.051 149.688C367.322 151.129 366.29 152.25 364.954 153.052C363.618 153.853 362.039 154.254 360.218 154.254ZM360.242 150.732C361.23 150.732 362.056 150.461 362.72 149.919C363.383 149.368 363.877 148.631 364.201 147.708C364.533 146.785 364.699 145.757 364.699 144.624C364.699 143.482 364.533 142.45 364.201 141.527C363.877 140.596 363.383 139.856 362.72 139.305C362.056 138.755 361.23 138.479 360.242 138.479C359.23 138.479 358.388 138.755 357.716 139.305C357.052 139.856 356.555 140.596 356.223 141.527C355.899 142.45 355.737 143.482 355.737 144.624C355.737 145.757 355.899 146.785 356.223 147.708C356.555 148.631 357.052 149.368 357.716 149.919C358.388 150.461 359.23 150.732 360.242 150.732ZM374.506 153.088C375.664 153.841 376.976 154.217 378.441 154.217C379.51 154.217 380.396 154.039 381.101 153.683C381.805 153.327 382.372 152.898 382.801 152.396C383.23 151.886 383.558 151.404 383.784 150.951H384.051V153.889H388.375V129.02H383.966V138.321H383.784C383.558 137.868 383.238 137.386 382.825 136.876C382.412 136.358 381.853 135.917 381.149 135.553C380.445 135.18 379.546 134.994 378.453 134.994C377.02 134.994 375.721 135.362 374.555 136.099C373.389 136.828 372.462 137.909 371.774 139.342C371.094 140.766 370.754 142.515 370.754 144.588C370.754 146.636 371.09 148.376 371.762 149.809C372.434 151.242 373.349 152.335 374.506 153.088ZM382.048 149.858C381.392 150.36 380.599 150.611 379.668 150.611C378.704 150.611 377.891 150.352 377.227 149.833C376.571 149.307 376.073 148.591 375.733 147.684C375.401 146.769 375.235 145.729 375.235 144.563C375.235 143.406 375.401 142.377 375.733 141.479C376.065 140.58 376.559 139.876 377.215 139.366C377.87 138.856 378.688 138.601 379.668 138.601C380.615 138.601 381.412 138.848 382.06 139.342C382.716 139.835 383.209 140.528 383.541 141.418C383.881 142.309 384.051 143.357 384.051 144.563C384.051 145.769 383.881 146.826 383.541 147.733C383.201 148.639 382.703 149.348 382.048 149.858ZM399.828 154.254C398.006 154.254 396.427 153.853 395.091 153.052C393.756 152.25 392.719 151.129 391.983 149.688C391.254 148.247 390.89 146.563 390.89 144.636C390.89 142.709 391.254 141.021 391.983 139.572C392.719 138.123 393.756 136.998 395.091 136.196C396.427 135.395 398.006 134.994 399.828 134.994C401.649 134.994 403.228 135.395 404.564 136.196C405.899 136.998 406.932 138.123 407.66 139.572C408.397 141.021 408.765 142.709 408.765 144.636C408.765 146.563 408.397 148.247 407.66 149.688C406.932 151.129 405.899 152.25 404.564 153.052C403.228 153.853 401.649 154.254 399.828 154.254ZM399.852 150.732C400.84 150.732 401.665 150.461 402.329 149.919C402.993 149.368 403.487 148.631 403.811 147.708C404.143 146.785 404.309 145.757 404.309 144.624C404.309 143.482 404.143 142.45 403.811 141.527C403.487 140.596 402.993 139.856 402.329 139.305C401.665 138.755 400.84 138.479 399.852 138.479C398.84 138.479 397.998 138.755 397.326 139.305C396.662 139.856 396.164 140.596 395.832 141.527C395.508 142.45 395.347 143.482 395.347 144.624C395.347 145.757 395.508 146.785 395.832 147.708C396.164 148.631 396.662 149.368 397.326 149.919C397.998 150.461 398.84 150.732 399.852 150.732ZM414.468 153.027C415.804 153.845 417.403 154.254 419.265 154.254C420.828 154.254 422.188 153.97 423.345 153.404C424.503 152.829 425.418 152.036 426.09 151.024C426.762 150.004 427.15 148.834 427.256 147.514H423.054C422.924 148.186 422.686 148.757 422.337 149.226C421.989 149.696 421.556 150.056 421.038 150.307C420.528 150.55 419.949 150.671 419.301 150.671C418.387 150.671 417.589 150.429 416.909 149.943C416.237 149.449 415.715 148.749 415.343 147.842C414.97 146.927 414.784 145.834 414.784 144.563C414.784 143.308 414.97 142.232 415.343 141.333C415.723 140.434 416.253 139.746 416.933 139.269C417.614 138.783 418.403 138.54 419.301 138.54C420.362 138.54 421.208 138.844 421.84 139.451C422.479 140.05 422.884 140.799 423.054 141.697H427.256C427.159 140.353 426.762 139.18 426.066 138.176C425.369 137.164 424.434 136.383 423.26 135.832C422.095 135.273 420.755 134.994 419.241 134.994C417.419 134.994 415.841 135.403 414.505 136.221C413.177 137.03 412.149 138.164 411.42 139.621C410.692 141.07 410.327 142.742 410.327 144.636C410.327 146.522 410.683 148.19 411.396 149.639C412.116 151.08 413.141 152.21 414.468 153.027ZM316.955 129.025V132.321H321.383V129.025H316.955Z" fill="white"/>
<path fill-rule="evenodd" clip-rule="evenodd" d="M265.286 123.258H256.938C256.332 123.258 255.84 123.75 255.84 124.356V131.164H245.842C245.236 131.164 244.744 131.656 244.744 132.262V160.158C244.744 160.765 245.236 161.256 245.842 161.256H268.138C268.744 161.256 269.236 160.765 269.236 160.158V153.46H279.233C279.84 153.46 280.332 152.968 280.332 152.362V138.304C280.332 129.994 273.595 123.258 265.286 123.258ZM269.236 153.46V132.262C269.236 131.656 268.744 131.164 268.138 131.164H255.84V152.362C255.84 152.968 256.332 153.46 256.938 153.46H269.236Z" fill="white"/>
<g clip-path="url(#clip0_1169_162699)">
<path fill-rule="evenodd" clip-rule="evenodd" d="M512.256 122.26H472.256V126.432C475.153 125.532 478.346 125.033 481.701 125.033C495.665 125.033 505.59 132.414 505.59 142.255C505.59 152.097 495.665 159.477 481.701 159.477C478.346 159.477 475.153 158.979 472.256 158.079V162.26H512.256V122.26ZM472.256 148.808C475.056 149.238 478.239 149.478 481.702 149.478C494.414 149.478 503.368 146.817 503.368 142.255C503.368 137.694 494.414 135.033 481.702 135.033C478.239 135.033 475.056 135.273 472.256 135.703V148.808Z" fill="white"/>
</g>
<path d="M529.98 150.28C535.005 150.28 537.517 147.566 537.517 142.138V141.853C537.517 139.175 536.901 137.172 535.669 135.845C534.46 134.493 532.54 133.818 529.909 133.818H527.633V150.28H529.98ZM521.873 129.338H530.193C534.531 129.338 537.873 130.452 540.22 132.68C542.424 134.885 543.526 137.919 543.526 141.782V142.067C543.526 145.978 542.412 149.047 540.184 151.276C537.861 153.599 534.519 154.76 530.157 154.76H521.873V129.338Z" fill="white"/>
<path d="M551.607 155.151C549.806 155.151 548.348 154.713 547.234 153.836C546.002 152.864 545.385 151.453 545.385 149.605C545.385 147.542 546.286 146.002 548.087 144.982C549.699 144.082 552.022 143.631 555.056 143.631H557.154V142.885C557.154 141.699 556.929 140.834 556.479 140.289C556.052 139.744 555.27 139.471 554.132 139.471C552.307 139.471 551.252 140.348 550.967 142.102H546.096C546.239 140.016 547.104 138.405 548.692 137.267C550.138 136.248 552.058 135.738 554.452 135.738C556.846 135.738 558.719 136.259 560.07 137.302C561.516 138.44 562.239 140.218 562.239 142.636V154.76H557.225V152.52C555.969 154.274 554.096 155.151 551.607 155.151ZM553.136 151.56C554.298 151.56 555.258 151.264 556.016 150.671C556.775 150.079 557.154 149.273 557.154 148.253V146.689H555.163C553.599 146.689 552.413 146.89 551.607 147.293C550.825 147.696 550.434 148.372 550.434 149.32C550.434 150.813 551.335 151.56 553.136 151.56Z" fill="white"/>
<path d="M572.805 155.116C568.799 155.116 566.796 153.16 566.796 149.249V139.827H564.414V136.165H566.796V132.147H571.916V136.165H575.827V139.827H571.916V148.787C571.916 150.256 572.603 150.991 573.978 150.991C574.736 150.991 575.388 150.873 575.934 150.636V154.618C574.985 154.95 573.942 155.116 572.805 155.116Z" fill="white"/>
<path d="M583.953 155.151C582.152 155.151 580.694 154.713 579.58 153.836C578.347 152.864 577.731 151.453 577.731 149.605C577.731 147.542 578.632 146.002 580.433 144.982C582.045 144.082 584.368 143.631 587.402 143.631H589.5V142.885C589.5 141.699 589.275 140.834 588.824 140.289C588.398 139.744 587.615 139.471 586.478 139.471C584.652 139.471 583.598 140.348 583.313 142.102H578.442C578.584 140.016 579.45 138.405 581.038 137.267C582.484 136.248 584.404 135.738 586.798 135.738C589.192 135.738 591.064 136.259 592.415 137.302C593.861 138.44 594.584 140.218 594.584 142.636V154.76H589.571V152.52C588.315 154.274 586.442 155.151 583.953 155.151ZM585.482 151.56C586.644 151.56 587.604 151.264 588.362 150.671C589.121 150.079 589.5 149.273 589.5 148.253V146.689H587.509C585.944 146.689 584.759 146.89 583.953 147.293C583.171 147.696 582.78 148.372 582.78 149.32C582.78 150.813 583.681 151.56 585.482 151.56Z" fill="white"/>
<path d="M598.822 129.338H604.582V150.245H614.928V154.76H598.822V129.338Z" fill="white"/>
<path d="M625.861 155.151C622.97 155.151 620.659 154.31 618.928 152.627C617.079 150.92 616.155 148.609 616.155 145.693V145.409C616.155 142.517 617.079 140.17 618.928 138.369C620.73 136.615 622.993 135.738 625.719 135.738C628.303 135.738 630.413 136.485 632.048 137.978C633.873 139.637 634.786 142.043 634.786 145.196V146.618H621.381C621.453 148.182 621.879 149.391 622.661 150.245C623.467 151.074 624.581 151.489 626.004 151.489C628.232 151.489 629.524 150.624 629.879 148.893H634.75C634.442 150.908 633.518 152.461 631.977 153.551C630.46 154.618 628.421 155.151 625.861 155.151ZM629.773 143.453C629.607 140.68 628.256 139.293 625.719 139.293C624.558 139.293 623.598 139.661 622.839 140.396C622.104 141.107 621.642 142.126 621.453 143.453H629.773Z" fill="white"/>
<path d="M637.511 136.165H642.666V139.116C643.828 136.864 645.842 135.738 648.711 135.738C650.583 135.738 652.088 136.307 653.226 137.445C654.388 138.677 654.968 140.502 654.968 142.92V154.76H649.813V143.667C649.813 142.387 649.552 141.45 649.031 140.858C648.509 140.242 647.679 139.933 646.542 139.933C645.38 139.933 644.444 140.289 643.733 141C643.022 141.688 642.666 142.695 642.666 144.022V154.76H637.511V136.165Z" fill="white"/>
<path d="M665.491 155.151C662.979 155.151 661.023 154.618 659.624 153.551C658.226 152.485 657.479 150.944 657.384 148.929H662.184C662.327 149.83 662.635 150.493 663.109 150.92C663.583 151.347 664.365 151.56 665.456 151.56C667.399 151.56 668.371 150.885 668.371 149.533C668.371 148.893 668.087 148.419 667.518 148.111C666.949 147.779 665.977 147.519 664.602 147.329C662.09 146.926 660.336 146.322 659.34 145.516C658.273 144.686 657.74 143.359 657.74 141.533C657.74 139.708 658.499 138.25 660.016 137.16C661.319 136.212 663.014 135.738 665.1 135.738C667.257 135.738 668.999 136.165 670.327 137.018C671.725 137.966 672.543 139.459 672.78 141.498H668.051C667.909 140.716 667.613 140.147 667.162 139.791C666.712 139.436 666.036 139.258 665.136 139.258C664.306 139.258 663.654 139.436 663.18 139.791C662.73 140.147 662.504 140.609 662.504 141.178C662.504 141.77 662.753 142.209 663.251 142.493C663.773 142.778 664.721 143.015 666.096 143.205C668.537 143.536 670.327 144.093 671.464 144.876C672.697 145.8 673.313 147.187 673.313 149.036C673.313 151.027 672.626 152.544 671.251 153.587C669.9 154.63 667.98 155.151 665.491 155.151Z" fill="white"/>
<g clip-path="url(#clip1_1169_162699)">
<g clip-path="url(#clip2_1169_162699)">
<path fill-rule="evenodd" clip-rule="evenodd" d="M730.112 125.873C725.504 125.873 721.768 127.185 721.768 129.646V142.431C721.768 144.892 725.504 146.204 730.112 146.204C731.726 146.204 733.233 146.043 734.51 145.729V156.389C734.51 158.85 738.246 160.161 742.855 160.161C747.463 160.161 751.199 158.85 751.199 156.389V145.648C752.539 146.016 754.16 146.204 755.906 146.204C760.514 146.204 764.251 144.892 764.251 142.431V129.646C764.251 127.185 760.514 125.873 755.906 125.873C751.297 125.873 747.561 127.185 747.561 129.646V134.37H738.457V129.646C738.457 127.185 734.721 125.873 730.112 125.873ZM751.199 144.452L755.754 138.314H752.416L750.046 141.52C750.779 142.081 751.199 142.778 751.199 143.603V144.452ZM747.561 140.386V137.101H738.457V140.306C739.734 139.991 741.241 139.83 742.855 139.83C744.6 139.83 746.221 140.019 747.561 140.386ZM735.666 141.518L733.298 138.314H729.96L734.51 144.446V143.603C734.51 142.776 734.931 142.079 735.666 141.518ZM723.284 129.666C723.284 129.398 723.453 128.839 724.769 128.267C726.027 127.719 727.902 127.39 730.112 127.39C732.322 127.39 734.197 127.719 735.455 128.267C736.771 128.839 736.94 129.398 736.94 129.666C736.94 129.933 736.771 130.493 735.455 131.065C734.197 131.612 732.322 131.942 730.112 131.942C727.902 131.942 726.027 131.612 724.769 131.065C723.453 130.493 723.284 129.933 723.284 129.666ZM750.562 128.267C749.246 128.839 749.078 129.398 749.078 129.666C749.078 129.933 749.246 130.493 750.562 131.065C751.82 131.612 753.696 131.942 755.905 131.942C758.115 131.942 759.99 131.612 761.249 131.065C762.564 130.493 762.733 129.933 762.733 129.666C762.733 129.398 762.564 128.839 761.249 128.267C759.99 127.719 758.115 127.39 755.905 127.39C753.696 127.39 751.82 127.719 750.562 128.267ZM737.511 142.224C736.195 142.797 736.027 143.356 736.027 143.623C736.027 143.891 736.195 144.45 737.511 145.023C738.77 145.57 740.645 145.899 742.855 145.899C745.064 145.899 746.94 145.57 748.198 145.023C749.514 144.45 749.682 143.891 749.682 143.623C749.682 143.356 749.514 142.797 748.198 142.224C746.94 141.677 745.064 141.348 742.855 141.348C740.645 141.348 738.77 141.677 737.511 142.224Z" fill="white"/>
</g>
<path fill-rule="evenodd" clip-rule="evenodd" d="M826.322 131.182H817.312V153.333H827.975C831.912 153.333 834.836 150.575 834.836 146.804C834.836 144.253 833.423 142.317 831.188 141.331C832.224 140.307 832.852 138.954 832.852 137.381C832.852 133.792 830.076 131.182 826.322 131.182ZM821.28 134.488V140.274H825.991C827.589 140.274 828.884 138.979 828.884 137.381C828.884 135.783 827.589 134.488 825.991 134.488H821.28ZM821.28 150.027V143.58H827.645C829.425 143.58 830.868 145.023 830.868 146.804C830.868 148.584 829.425 150.027 827.645 150.027H821.28Z" fill="white"/>
<path d="M774.521 131.182H778.985L784.606 140.935L790.226 131.182H794.69L786.598 145.06V153.333H782.614V145.06L774.521 131.182Z" fill="white"/>
<path fill-rule="evenodd" clip-rule="evenodd" d="M796.262 131.182H803.866C810.479 131.182 814.942 135.479 814.942 142.258C814.942 149.036 810.479 153.333 803.866 153.333H796.262V131.182ZM800.229 150.027V134.488H803.535C807.992 134.488 810.975 137.305 810.975 142.258C810.975 147.21 807.992 150.027 803.535 150.027H800.229Z" fill="white"/>
</g>
<defs>
<clipPath id="clip0_1169_162699">
<rect x="472.256" y="122.258" width="39.9999" height="39.9999" rx="20" fill="white"/>
</clipPath>
<clipPath id="clip1_1169_162699">
<rect width="114.249" height="44.0002" fill="white" transform="translate(721.006 120.258)"/>
</clipPath>
<clipPath id="clip2_1169_162699">
<rect width="44.0002" height="44.0002" fill="white" transform="translate(721.006 120.258)"/>
</clipPath>
</defs>
</svg>
