<svg width="1080" height="190" viewBox="0 0 1080 190" fill="none" xmlns="http://www.w3.org/2000/svg">
<path fill-rule="evenodd" clip-rule="evenodd" d="M242.5 50.4999C242.5 59.8074 234.936 67.3716 225.629 67.3716C216.321 67.3716 208.757 59.8074 208.757 50.4999C208.757 41.1924 216.321 33.6283 225.629 33.6283C234.936 33.6283 242.5 41.1924 242.5 50.4999ZM239.52 50.4999C239.52 58.1765 233.305 64.3909 225.629 64.3909C223.62 64.3909 222.12 63.6369 221.369 62.7223C220.619 61.8077 220.408 60.311 220.666 58.1493L225.137 57.2624C229.222 56.5141 231.473 54.2415 232.279 50.1674C232.378 49.597 232.49 49.0266 232.597 48.486C232.641 48.2648 232.683 48.0486 232.724 47.8393C232.843 47.1888 232.959 46.5701 233.065 46.0015L233.071 45.9743V45.9731C233.184 45.3659 233.287 44.8164 233.373 44.3472C233.83 41.6985 233.458 39.743 232.429 38.3825C236.662 40.7617 239.52 45.2946 239.52 50.4999ZM225.629 36.609C217.952 36.609 211.738 42.8233 211.738 50.4999C211.738 55.7052 214.595 60.2382 218.828 62.6173C217.799 61.2569 217.427 59.3014 217.885 56.6527C217.983 56.1136 218.101 55.4782 218.232 54.7693C218.323 54.2754 218.421 53.7459 218.524 53.1883C218.563 52.9872 218.604 52.7797 218.646 52.5675L218.65 52.5437L218.651 52.5415C218.757 52.0009 218.87 51.4305 218.969 50.8602C219.747 46.7584 221.997 44.4857 226.082 43.7374L230.591 42.8506C230.849 40.6888 230.638 39.1921 229.888 38.2775C229.138 37.3629 227.637 36.609 225.629 36.609ZM230.056 45.9547L226.666 46.6198C223.776 47.1741 222.442 48.5045 221.886 51.3868C221.757 52.0312 221.645 52.6423 221.536 53.233L221.442 53.7425L221.441 53.746C221.358 54.1883 221.275 54.6305 221.192 55.0452L224.554 54.38C227.444 53.8257 228.806 52.4954 229.361 49.6131C229.483 49.0054 229.596 48.3963 229.708 47.7871V47.7856L229.709 47.784V47.7823C229.821 47.1726 229.934 46.5629 230.056 45.9547Z" fill="white"/>
<path d="M107.771 63.1533V58.8398C107.771 55.5864 107.369 54.636 106.126 51.9309L99.6189 37.7475H95.0129L103.348 55.8789V63.1533H107.771Z" fill="white"/>
<path d="M110.659 50.03L116.069 37.7475H111.572L106.162 50.03H110.659Z" fill="white"/>
<path fill-rule="evenodd" clip-rule="evenodd" d="M156.865 63.5189C158.912 63.5189 160.593 62.5685 161.763 60.7773L161.983 63.1533H166.004V37.7475H161.654V46.9228C160.557 45.2779 158.948 44.4005 157.048 44.4005C152.844 44.4005 149.919 47.9464 149.919 54.0877C149.919 60.1558 152.771 63.5189 156.865 63.5189ZM158.144 47.8367C160.484 47.8367 161.654 49.701 161.654 53.9414C161.654 58.2184 160.411 60.0827 157.961 60.0827C155.585 60.0827 154.416 58.255 154.416 54.0877C154.416 49.7376 155.659 47.8367 158.144 47.8367Z" fill="white"/>
<path fill-rule="evenodd" clip-rule="evenodd" d="M183.586 61.9104V58.3645C182.233 59.2784 179.967 60.0826 177.847 60.0826C174.666 60.0826 173.46 58.5838 173.277 55.5132H183.768V53.2102C183.768 46.8131 180.954 44.4004 176.604 44.4004C171.303 44.4004 168.781 48.4581 168.781 54.0144C168.781 60.4116 171.925 63.5188 177.481 63.5188C180.259 63.5188 182.306 62.7877 183.586 61.9104ZM176.531 47.8366C178.687 47.8366 179.345 49.6278 179.345 51.9308V52.2964H173.277C173.387 49.3719 174.447 47.8366 176.531 47.8366Z" fill="white"/>
<path fill-rule="evenodd" clip-rule="evenodd" d="M128.863 50.6149C128.863 46.1552 126.597 44.4736 121.991 44.4736C119.139 44.4736 116.836 45.68 115.52 46.6304V50.3956C116.91 49.2624 119.03 47.9464 121.479 47.9464C123.563 47.9464 124.513 48.6775 124.513 50.6515V51.8212H123.818C117.165 51.8212 114.204 53.978 114.204 57.8163C114.204 61.3621 116.471 63.4092 119.834 63.4092C122.393 63.4092 123.489 62.5685 124.33 61.6911H124.513C124.55 62.1664 124.696 62.7878 124.842 63.1533H129.082C128.936 61.6546 128.863 60.1558 128.863 58.6571V50.6149ZM124.513 58.7667C123.965 59.5709 122.941 60.2289 121.406 60.2289C119.578 60.2289 118.664 59.1688 118.664 57.5604C118.664 55.4402 120.163 54.7091 123.892 54.7091H124.513V58.7667Z" fill="white"/>
<path d="M136.759 49.9569C137.564 48.9699 138.843 48.1292 140.415 48.1292C141.95 48.1292 142.645 48.7872 142.645 50.1763V63.1533H146.995V49.7376C146.995 46.0821 145.533 44.4736 141.987 44.4736C139.391 44.4736 137.856 45.4241 136.979 46.3014H136.759L136.65 44.7661H132.409V63.1533H136.759V49.9569Z" fill="white"/>
<path d="M196.965 63.1532H201.863L195.868 53.6855L201.059 44.766H196.709L193.565 50.3224L190.056 44.766H185.158L190.714 53.5758L184.938 63.1532H189.361L193.053 56.9389L196.965 63.1532Z" fill="white"/>
<path d="M259.311 63.5198C262.052 63.5198 263.917 62.5328 265.05 61.7651V58.2193C263.588 59.2794 261.979 60.0836 259.64 60.0836C255.619 60.0836 253.718 56.8302 253.718 50.4696C253.718 43.9262 255.545 40.819 259.859 40.819C261.869 40.819 263.734 41.6963 265.05 42.5371V38.9913C263.88 38.1505 261.979 37.3828 259.64 37.3828C252.877 37.3828 249.221 42.3543 249.221 50.4696C249.221 58.8042 253.023 63.5198 259.311 63.5198Z" fill="white"/>
<path d="M272.329 37.7484H267.979V63.1542H272.329V37.7484Z" fill="white"/>
<path fill-rule="evenodd" clip-rule="evenodd" d="M275.246 53.9789C275.246 47.8011 278.572 44.4014 283.361 44.4014C288.15 44.4014 291.476 47.8011 291.476 53.9423C291.476 60.1202 288.15 63.5198 283.361 63.5198C278.572 63.5198 275.246 60.1202 275.246 53.9789ZM279.742 53.9789C279.742 58.2193 280.948 60.0836 283.361 60.0836C285.773 60.0836 286.98 58.2193 286.98 53.9423C286.98 49.7019 285.773 47.8376 283.361 47.8376C280.948 47.8376 279.742 49.7019 279.742 53.9789Z" fill="white"/>
<path d="M304.45 57.9634C303.645 58.9504 302.366 59.7912 300.794 59.7912C299.259 59.7912 298.564 59.1332 298.564 57.7441V44.767H294.214V58.1827C294.214 61.8383 295.676 63.4467 299.222 63.4467C301.818 63.4467 303.353 62.4962 304.23 61.6189H304.45L304.559 63.1542H308.8V44.767H304.45V57.9634Z" fill="white"/>
<path fill-rule="evenodd" clip-rule="evenodd" d="M323.573 60.7782C322.403 62.5694 320.721 63.5198 318.674 63.5198C314.58 63.5198 311.729 60.1567 311.729 54.0886C311.729 47.9473 314.654 44.4014 318.858 44.4014C320.758 44.4014 322.367 45.2787 323.464 46.9237V37.7484H327.814V63.1542H323.793L323.573 60.7782ZM323.464 53.9423C323.464 49.7019 322.293 47.8376 319.953 47.8376C317.467 47.8376 316.225 49.7385 316.225 54.0886C316.225 58.2558 317.395 60.0836 319.771 60.0836C322.221 60.0836 323.464 58.2193 323.464 53.9423Z" fill="white"/>
<path d="M517.099 48.7843C517.099 48.7843 523.635 49.3398 525.112 52.9151H525.117C526.594 56.4904 524.794 59.8326 521.579 61.1742C518.364 62.5158 515.465 62.7371 512.102 62.7371C508.74 62.7371 498.601 62.5158 498.63 54.7086H503.552C503.613 59.2483 512.255 58.7735 514.493 58.6506C514.614 58.6439 514.716 58.6383 514.797 58.6346C516.181 58.5687 520.539 58.2533 520.604 55.5371C520.664 52.9888 516.413 52.6241 515.322 52.5305C515.25 52.5243 515.191 52.5193 515.149 52.5149C514.461 52.4443 509.433 51.9265 508.021 51.7806C506.609 51.6347 503.083 51.178 500.766 49.2504C498.449 47.3227 499.289 43.8415 499.289 43.8415C499.646 42.3187 500.637 41.0783 502.269 40.125C503.797 39.2306 505.791 38.6681 508.243 38.428C508.243 38.428 511.707 38.0561 515.555 38.428C515.563 38.4304 515.573 38.4304 515.581 38.4304C518.193 38.6822 520.286 39.2918 521.853 40.2662C523.963 41.582 525.021 43.4932 525.021 45.9999H520.136C520.133 45.5221 520.027 45.1549 519.944 44.9384C519.551 43.9474 518.286 42.5917 514.311 42.3634C507.928 41.9962 505.887 42.9965 505.887 42.9965C505.887 42.9965 504.09 43.5779 504.053 45.1502C504.017 46.7225 505.122 47.5486 508.701 47.9134L517.099 48.7843Z" fill="white"/>
<path d="M388.578 48.6763C390.021 52.2201 391.625 56.1627 391.984 57.0457C393.207 60.0514 396.091 59.51 396.091 59.51C396.088 59.5475 395.804 62.657 392.276 62.657C392.276 62.657 392.077 62.6734 391.756 62.6216C388.874 62.2841 387.768 59.2145 387.498 58.4653C387.481 58.4204 387.468 58.3839 387.458 58.3567C387.458 58.3567 386.287 55.4802 384.985 52.2792C383.542 48.7354 381.938 44.7927 381.579 43.9097C380.356 40.904 377.472 41.4453 377.472 41.4453C377.475 41.4078 377.759 38.2984 381.287 38.2984C381.287 38.2984 381.486 38.282 381.806 38.3337C384.688 38.6713 385.795 41.7409 386.065 42.4901C386.082 42.535 386.095 42.5715 386.105 42.5987C386.105 42.5987 387.273 45.4693 388.574 48.6662L388.578 48.6763Z" fill="white"/>
<path d="M396.089 59.51V38.828H400.744V54.3531C400.744 58.4156 397.297 59.317 396.089 59.51Z" fill="white"/>
<path d="M405.399 62.1274H428.677V58.1261H410.055V52.383H427.275V48.3817H410.055V42.8293H428.677V38.828H405.399V62.1274Z" fill="white"/>
<path d="M460.475 38.828H465.13V62.1274H460.475V38.828Z" fill="white"/>
<path d="M474.436 53.6705V38.828H469.793V54.2613C469.793 55.9253 470.331 57.4694 471.247 58.7757C472.887 61.1106 475.753 62.6617 479.024 62.6617H481.445C484.717 62.6617 487.583 60.9929 489.222 58.658H479.754C476.803 58.5803 474.433 56.3773 474.433 53.6705H474.436Z" fill="white"/>
<path d="M490.664 54.1436C490.664 55.7982 490.131 57.3564 489.223 58.658H490.193C493.046 58.4838 495.304 56.3114 495.304 53.6705V38.828H490.664V54.1436Z" fill="white"/>
<path d="M372.814 46.6142V62.1298H377.47V41.4478C377.47 41.4478 372.814 41.9562 372.814 46.6142Z" fill="white"/>
<path fill-rule="evenodd" clip-rule="evenodd" d="M453.153 49.9706C456.611 47.5086 455.98 42.6482 453.404 40.6075C451.132 38.8052 447.648 38.8171 445.379 38.8248C445.236 38.8253 445.097 38.8258 444.965 38.8258H432.542V62.1275H448.066C453.552 62.1275 457.198 59.3713 457.198 55.3653C457.198 51.1427 453.151 49.9706 453.151 49.9706H453.153ZM437.2 42.8059H445.684C445.749 42.8059 445.831 42.8044 445.925 42.8028C447.204 42.7802 450.898 42.7149 450.898 45.595C450.898 47.9275 448.601 48.3842 447.373 48.3842H437.2V42.8059ZM447.776 58.1544C446.222 58.1544 437.198 58.1497 437.198 58.1497V52.3596H447.761L447.853 52.3594C449.006 52.357 452.279 52.35 452.279 55.0969C452.279 57.9214 449.33 58.1544 447.776 58.1544Z" fill="white"/>
<path d="M647.594 38.4139H643.016L637.076 49.2461L631.101 38.4139H626.523L635.049 53.1597V62.8737H639.068V53.1597L647.594 38.4139ZM661.231 38.4139H643.41V42.2576H650.329V62.8737H654.347V42.2576H661.231V38.4139ZM663.504 50.2244C663.504 48.9666 664.692 48.3726 666.055 48.3726C667.487 48.3726 668.71 49.0015 669.339 50.3643L672.519 48.5822C671.296 46.276 668.92 44.9482 666.055 44.9482C662.491 44.9482 659.66 47.0098 659.66 50.2943C659.66 56.549 669.06 54.8019 669.06 57.9119C669.06 59.3096 667.767 59.8686 666.09 59.8686C664.168 59.8686 662.77 58.9251 662.211 57.3528L658.961 59.2396C660.079 61.7556 662.595 63.3279 666.09 63.3279C669.863 63.3279 672.903 61.441 672.903 57.9468C672.903 51.4824 663.504 53.4043 663.504 50.2244ZM689.184 45.4024V47.8833C687.857 46.0664 685.795 44.9482 683.069 44.9482C678.317 44.9482 674.369 48.9316 674.369 54.138C674.369 59.3096 678.317 63.3279 683.069 63.3279C685.795 63.3279 687.857 62.2098 689.184 60.3578V62.8737H692.958V45.4024H689.184ZM683.663 59.7289C680.519 59.7289 678.143 57.3877 678.143 54.138C678.143 50.8884 680.519 48.5473 683.663 48.5473C686.808 48.5473 689.184 50.8884 689.184 54.138C689.184 57.3877 686.808 59.7289 683.663 59.7289ZM707.734 45.4024V54.767C707.734 58.3311 705.778 59.7988 703.297 59.7988C700.92 59.7988 699.384 58.401 699.384 55.7454V45.4024H695.609V56.1298C695.609 60.6723 698.406 63.3279 702.319 63.3279C704.695 63.3279 706.582 62.4544 707.734 60.6373V62.8737H711.509V45.4024H707.734ZM718.297 48.3376V45.4024H714.524V62.8737H718.297V54.0681C718.297 50.1546 721.198 49.0015 723.679 49.1762V45.0879C721.477 45.0879 719.345 45.9616 718.297 48.3376ZM737.718 45.4024V54.767C737.718 58.3311 735.762 59.7988 733.281 59.7988C730.905 59.7988 729.367 58.401 729.367 55.7454V45.4024H725.594V56.1298C725.594 60.6723 728.389 63.3279 732.303 63.3279C734.678 63.3279 736.566 62.4544 737.718 60.6373V62.8737H741.495V45.4024H737.718ZM748.075 50.2244C748.075 48.9666 749.265 48.3726 750.625 48.3726C752.055 48.3726 753.275 49.0015 753.905 50.3643L757.085 48.5822C755.865 46.276 753.485 44.9482 750.625 44.9482C747.055 44.9482 744.225 47.0098 744.225 50.2943C744.225 56.549 753.625 54.8019 753.625 57.9119C753.625 59.3096 752.335 59.8686 750.655 59.8686C748.735 59.8686 747.335 58.9251 746.775 57.3528L743.525 59.2396C744.645 61.7556 747.165 63.3279 750.655 63.3279C754.435 63.3279 757.475 61.441 757.475 57.9468C757.475 51.4824 748.075 53.4043 748.075 50.2244Z" fill="white"/>
<path fill-rule="evenodd" clip-rule="evenodd" d="M586.188 38.4425C590.283 32.6876 596.808 29.4737 599.902 30.0917C601.886 30.488 600.683 32.6353 599.25 35.0655C598.876 35.6996 598.51 36.2841 598.18 36.8097C597.247 38.2984 596.611 39.3141 596.935 39.6432C602.077 34.6992 605.383 34.1486 608.138 34.1486C610.866 34.1486 609.583 36.1143 608.18 38.264L608.138 38.3279C607.935 38.6395 607.725 38.948 607.523 39.2451C606.734 40.4029 606.063 41.3887 606.364 41.7173C609.329 39.6072 612.398 39.0975 613.841 39.3957C615.283 39.6939 615.707 40.3191 613.716 43.3967L611.814 46.2515L611.901 46.3921C612.576 47.4772 613.605 49.132 613.605 51.7686C613.605 57.0594 609.563 62.3188 607.301 64.6702C607.105 64.8743 606.835 64.9835 606.552 64.9835H602.35C602.033 64.9835 601.787 64.7092 601.797 64.3925C601.978 58.7558 595.993 58.9878 592.002 64.7442C591.9 64.8915 591.732 64.9835 591.553 64.9835H587.601C587.317 64.9835 587.042 64.8724 586.853 64.6601C585.316 62.9368 583.914 60.02 583.56 58.7634C581.87 61.3717 577.241 62.8061 573.933 60.5741C570.005 57.9239 570.03 53.4156 571.729 50.6629L575.181 52.6245C574.673 54.6249 575.425 56.0024 576.87 56.0024C578.956 56.0025 579.775 53.474 580.946 49.8584C582.005 46.5872 583.353 42.4261 586.188 38.4425ZM588.716 52.8079C589.868 50.2076 589.868 47.6872 588.717 47.1783C587.566 46.6695 585.7 48.365 584.548 50.9653C584.262 51.6133 584.046 52.2563 583.902 52.8644H588.691L588.716 52.8079ZM597.197 47.1783C598.348 47.6872 598.348 50.2076 597.197 52.8079L597.172 52.8644H592.383C592.527 52.2563 592.742 51.6133 593.029 50.9653C594.18 48.365 596.046 46.6695 597.197 47.1783Z" fill="white"/>
<path fill-rule="evenodd" clip-rule="evenodd" d="M851.493 62.1319H859.921C862.446 62.1319 864.608 61.6349 866.405 60.6389C868.211 59.6429 869.591 58.2139 870.546 56.3519C871.51 54.4899 871.991 52.2639 871.991 49.6729C871.991 47.0909 871.514 44.8719 870.558 43.0189C869.603 41.1649 868.235 39.7439 866.454 38.7559C864.681 37.7599 862.56 37.2629 860.091 37.2629H851.493V62.1319ZM859.702 58.2339H855.998V41.1609H859.836C861.519 41.1609 862.928 41.4759 864.062 42.1079C865.203 42.7309 866.065 43.6739 866.648 44.9369C867.231 46.1919 867.523 47.7709 867.523 49.6729C867.523 51.5759 867.231 53.1619 866.648 54.4329C866.065 55.6959 865.195 56.6479 864.037 57.2869C862.88 57.9189 861.434 58.2339 859.702 58.2339ZM874.71 43.4799V62.1319H879.106V43.4799H874.71ZM882.259 69.1269V43.4799H886.582V46.5639H886.837C887.064 46.1109 887.383 45.6289 887.796 45.1189C888.209 44.6009 888.768 44.1599 889.472 43.7959C890.176 43.4229 891.075 43.2369 892.168 43.2369C893.609 43.2369 894.908 43.6049 896.066 44.3419C897.232 45.0709 898.155 46.1519 898.835 47.5849C899.523 49.0089 899.867 50.7579 899.867 52.8309C899.867 54.8789 899.531 56.6189 898.859 58.0519C898.187 59.4849 897.272 60.5779 896.115 61.3309C894.957 62.0839 893.646 62.4599 892.18 62.4599C891.111 62.4599 890.225 62.2819 889.521 61.9259C888.816 61.5699 888.25 61.1409 887.821 60.6389C887.4 60.1289 887.072 59.6469 886.837 59.1939H886.655V69.1269H882.259ZM886.57 52.8059C886.57 54.0119 886.74 55.0689 887.08 55.9759C887.428 56.8819 887.926 57.5909 888.573 58.1009C889.229 58.6029 890.023 58.8539 890.954 58.8539C891.925 58.8539 892.739 58.5949 893.395 58.0759C894.05 57.5499 894.544 56.8339 894.876 55.9269C895.216 55.0119 895.386 53.9719 895.386 52.8059C895.386 51.6489 895.22 50.6199 894.888 49.7219C894.556 48.8229 894.062 48.1189 893.407 47.6089C892.751 47.0989 891.933 46.8439 890.954 46.8439C890.015 46.8439 889.217 47.0909 888.561 47.5849C887.906 48.0779 887.408 48.7709 887.068 49.6609C886.736 50.5519 886.57 51.5999 886.57 52.8059ZM906.66 62.1319V37.2629H902.264V62.1319H906.66ZM917.949 62.4969C916.127 62.4969 914.549 62.0959 913.213 61.2949C911.877 60.4929 910.841 59.3719 910.104 57.9309C909.375 56.4899 909.011 54.8059 909.011 52.8789C909.011 50.9519 909.375 49.2639 910.104 47.8149C910.841 46.3659 911.877 45.2409 913.213 44.4389C914.549 43.6379 916.127 43.2369 917.949 43.2369C919.77 43.2369 921.349 43.6379 922.685 44.4389C924.021 45.2409 925.053 46.3659 925.782 47.8149C926.518 49.2639 926.887 50.9519 926.887 52.8789C926.887 54.8059 926.518 56.4899 925.782 57.9309C925.053 59.3719 924.021 60.4929 922.685 61.2949C921.349 62.0959 919.77 62.4969 917.949 62.4969ZM917.973 58.9749C918.961 58.9749 919.787 58.7039 920.451 58.1619C921.114 57.6109 921.608 56.8739 921.932 55.9509C922.264 55.0279 922.43 53.9999 922.43 52.8669C922.43 51.7249 922.264 50.6929 921.932 49.7699C921.608 48.8389 921.114 48.0989 920.451 47.5479C919.787 46.9979 918.961 46.7219 917.973 46.7219C916.961 46.7219 916.119 46.9979 915.447 47.5479C914.783 48.0989 914.286 48.8389 913.954 49.7699C913.63 50.6929 913.468 51.7249 913.468 52.8669C913.468 53.9999 913.63 55.0279 913.954 55.9509C914.286 56.8739 914.783 57.6109 915.447 58.1619C916.119 58.7039 916.961 58.9749 917.973 58.9749ZM932.237 61.3309C933.395 62.0839 934.707 62.4599 936.172 62.4599C937.241 62.4599 938.127 62.2819 938.832 61.9259C939.536 61.5699 940.103 61.1409 940.532 60.6389C940.961 60.1289 941.289 59.6469 941.515 59.1939H941.782V62.1319H946.106V37.2629H941.697V46.5639H941.515C941.289 46.1109 940.969 45.6289 940.556 45.1189C940.143 44.6009 939.584 44.1599 938.88 43.7959C938.176 43.4229 937.277 43.2369 936.184 43.2369C934.751 43.2369 933.452 43.6049 932.286 44.3419C931.12 45.0709 930.193 46.1519 929.505 47.5849C928.825 49.0089 928.485 50.7579 928.485 52.8309C928.485 54.8789 928.821 56.6189 929.493 58.0519C930.165 59.4849 931.08 60.5779 932.237 61.3309ZM939.779 58.1009C939.123 58.6029 938.33 58.8539 937.399 58.8539C936.435 58.8539 935.622 58.5949 934.958 58.0759C934.302 57.5499 933.804 56.8339 933.464 55.9269C933.132 55.0119 932.966 53.9719 932.966 52.8059C932.966 51.6489 933.132 50.6199 933.464 49.7219C933.796 48.8229 934.29 48.1189 934.946 47.6089C935.601 47.0989 936.419 46.8439 937.399 46.8439C938.346 46.8439 939.143 47.0909 939.791 47.5849C940.447 48.0779 940.94 48.7709 941.272 49.6609C941.612 50.5519 941.782 51.5999 941.782 52.8059C941.782 54.0119 941.612 55.0689 941.272 55.9759C940.932 56.8819 940.434 57.5909 939.779 58.1009ZM957.559 62.4969C955.737 62.4969 954.158 62.0959 952.822 61.2949C951.487 60.4929 950.45 59.3719 949.714 57.9309C948.985 56.4899 948.621 54.8059 948.621 52.8789C948.621 50.9519 948.985 49.2639 949.714 47.8149C950.45 46.3659 951.487 45.2409 952.822 44.4389C954.158 43.6379 955.737 43.2369 957.559 43.2369C959.38 43.2369 960.959 43.6379 962.295 44.4389C963.63 45.2409 964.663 46.3659 965.391 47.8149C966.128 49.2639 966.496 50.9519 966.496 52.8789C966.496 54.8059 966.128 56.4899 965.391 57.9309C964.663 59.3719 963.63 60.4929 962.295 61.2949C960.959 62.0959 959.38 62.4969 957.559 62.4969ZM957.583 58.9749C958.571 58.9749 959.396 58.7039 960.06 58.1619C960.724 57.6109 961.218 56.8739 961.542 55.9509C961.874 55.0279 962.04 53.9999 962.04 52.8669C962.04 51.7249 961.874 50.6929 961.542 49.7699C961.218 48.8389 960.724 48.0989 960.06 47.5479C959.396 46.9979 958.571 46.7219 957.583 46.7219C956.571 46.7219 955.729 46.9979 955.057 47.5479C954.393 48.0989 953.895 48.8389 953.563 49.7699C953.239 50.6929 953.078 51.7249 953.078 52.8669C953.078 53.9999 953.239 55.0279 953.563 55.9509C953.895 56.8739 954.393 57.6109 955.057 58.1619C955.729 58.7039 956.571 58.9749 957.583 58.9749ZM972.199 61.2699C973.535 62.0879 975.134 62.4969 976.996 62.4969C978.559 62.4969 979.919 62.2129 981.076 61.6469C982.234 61.0719 983.149 60.2789 983.821 59.2669C984.493 58.2469 984.881 57.0769 984.987 55.7569H980.785C980.655 56.4289 980.417 56.9999 980.068 57.4689C979.72 57.9389 979.287 58.2989 978.769 58.5499C978.259 58.7929 977.68 58.9139 977.032 58.9139C976.118 58.9139 975.32 58.6719 974.64 58.1859C973.968 57.6919 973.446 56.9919 973.074 56.0849C972.701 55.1699 972.515 54.0769 972.515 52.8059C972.515 51.5509 972.701 50.4749 973.074 49.5759C973.454 48.6769 973.984 47.9889 974.664 47.5119C975.345 47.0259 976.134 46.7829 977.032 46.7829C978.093 46.7829 978.939 47.0869 979.571 47.6939C980.21 48.2929 980.615 49.0419 980.785 49.9399H984.987C984.89 48.5959 984.493 47.4229 983.797 46.4189C983.1 45.4069 982.165 44.6259 980.991 44.0749C979.826 43.5159 978.486 43.2369 976.972 43.2369C975.15 43.2369 973.572 43.6459 972.236 44.4639C970.908 45.2729 969.88 46.4069 969.151 47.8639C968.423 49.3129 968.058 50.9849 968.058 52.8789C968.058 54.7649 968.414 56.4329 969.127 57.8819C969.847 59.3229 970.872 60.4529 972.199 61.2699ZM874.686 37.2679V40.5639H879.114V37.2679H874.686Z" fill="white"/>
<path fill-rule="evenodd" clip-rule="evenodd" d="M823.017 31.5009H814.669C814.063 31.5009 813.571 31.9929 813.571 32.5989V39.4069H803.573C802.967 39.4069 802.475 39.8989 802.475 40.5049V68.4009C802.475 69.0079 802.967 69.4989 803.573 69.4989H825.869C826.475 69.4989 826.967 69.0079 826.967 68.4009V61.7029H836.964C837.571 61.7029 838.063 61.2109 838.063 60.6049V46.5469C838.063 38.2369 831.326 31.5009 823.017 31.5009ZM826.967 61.7029V40.5049C826.967 39.8989 826.475 39.4069 825.869 39.4069H813.571V60.6049C813.571 61.2109 814.063 61.7029 814.669 61.7029H826.967Z" fill="white"/>
<mask id="mask0_4375_489666" style="mask-type:luminance" maskUnits="userSpaceOnUse" x="76" y="116" width="41" height="41">
<path d="M116.797 136.499C116.797 125.453 107.843 116.499 96.7971 116.499C85.7514 116.499 76.7971 125.453 76.7971 136.499C76.7971 147.545 85.7514 156.499 96.7971 156.499C107.843 156.499 116.797 147.545 116.797 136.499Z" fill="white"/>
</mask>
<g mask="url(#mask0_4375_489666)">
<path fill-rule="evenodd" clip-rule="evenodd" d="M116.797 116.501H76.7971V120.673C79.6941 119.773 82.8871 119.274 86.2421 119.274C100.206 119.274 110.131 126.655 110.131 136.496C110.131 146.338 100.206 153.718 86.2421 153.718C82.8871 153.718 79.6941 153.22 76.7971 152.32V156.501H116.797V116.501ZM76.7971 143.049C79.5971 143.479 82.7801 143.719 86.2431 143.719C98.9551 143.719 107.909 141.058 107.909 136.496C107.909 131.935 98.9551 129.274 86.2431 129.274C82.7801 129.274 79.5971 129.514 76.7971 129.944V143.049Z" fill="white"/>
</g>
<path d="M134.521 144.521C139.546 144.521 142.058 141.807 142.058 136.379V136.094C142.058 133.416 141.442 131.413 140.21 130.086C139.001 128.734 137.081 128.059 134.45 128.059H132.174V144.521H134.521ZM126.414 123.579H134.734C139.072 123.579 142.414 124.693 144.761 126.921C146.965 129.126 148.067 132.16 148.067 136.023V136.308C148.067 140.219 146.953 143.288 144.725 145.517C142.402 147.84 139.06 149.001 134.698 149.001H126.414V123.579Z" fill="white"/>
<path d="M156.148 149.392C154.347 149.392 152.889 148.954 151.775 148.077C150.543 147.105 149.926 145.694 149.926 143.846C149.926 141.783 150.827 140.243 152.628 139.223C154.24 138.323 156.563 137.872 159.597 137.872H161.695V137.126C161.695 135.94 161.47 135.075 161.02 134.53C160.593 133.985 159.811 133.712 158.673 133.712C156.848 133.712 155.793 134.589 155.508 136.343H150.637C150.78 134.257 151.645 132.646 153.233 131.508C154.679 130.489 156.599 129.979 158.993 129.979C161.387 129.979 163.26 130.5 164.611 131.543C166.057 132.681 166.78 134.459 166.78 136.877V149.001H161.766V146.761C160.51 148.515 158.637 149.392 156.148 149.392ZM157.677 145.801C158.839 145.801 159.799 145.505 160.557 144.912C161.316 144.32 161.695 143.514 161.695 142.494V140.93H159.704C158.14 140.93 156.954 141.131 156.148 141.534C155.366 141.937 154.975 142.613 154.975 143.561C154.975 145.054 155.876 145.801 157.677 145.801Z" fill="white"/>
<path d="M177.346 149.357C173.34 149.357 171.337 147.401 171.337 143.49V134.068H168.955V130.406H171.337V126.388H176.457V130.406H180.368V134.068H176.457V143.028C176.457 144.497 177.144 145.232 178.519 145.232C179.277 145.232 179.929 145.114 180.475 144.877V148.859C179.526 149.191 178.483 149.357 177.346 149.357Z" fill="white"/>
<path d="M188.494 149.392C186.693 149.392 185.235 148.954 184.121 148.077C182.888 147.105 182.272 145.694 182.272 143.846C182.272 141.783 183.173 140.243 184.974 139.223C186.586 138.323 188.909 137.872 191.943 137.872H194.041V137.126C194.041 135.94 193.816 135.075 193.365 134.53C192.939 133.985 192.156 133.712 191.019 133.712C189.193 133.712 188.139 134.589 187.854 136.343H182.983C183.125 134.257 183.991 132.646 185.579 131.508C187.025 130.489 188.945 129.979 191.339 129.979C193.733 129.979 195.605 130.5 196.956 131.543C198.402 132.681 199.125 134.459 199.125 136.877V149.001H194.112V146.761C192.856 148.515 190.983 149.392 188.494 149.392ZM190.023 145.801C191.185 145.801 192.145 145.505 192.903 144.912C193.662 144.32 194.041 143.514 194.041 142.494V140.93H192.05C190.485 140.93 189.3 141.131 188.494 141.534C187.712 141.937 187.321 142.613 187.321 143.561C187.321 145.054 188.222 145.801 190.023 145.801Z" fill="white"/>
<path d="M203.363 123.579H209.123V144.486H219.469V149.001H203.363V123.579Z" fill="white"/>
<path d="M230.402 149.392C227.511 149.392 225.2 148.551 223.469 146.868C221.62 145.161 220.696 142.85 220.696 139.934V139.65C220.696 136.758 221.62 134.411 223.469 132.61C225.271 130.856 227.534 129.979 230.26 129.979C232.844 129.979 234.954 130.726 236.589 132.219C238.414 133.878 239.327 136.284 239.327 139.437V140.859H225.922C225.994 142.423 226.42 143.632 227.202 144.486C228.008 145.315 229.122 145.73 230.545 145.73C232.773 145.73 234.065 144.865 234.42 143.134H239.291C238.983 145.149 238.059 146.702 236.518 147.792C235.001 148.859 232.962 149.392 230.402 149.392ZM234.314 137.694C234.148 134.921 232.797 133.534 230.26 133.534C229.099 133.534 228.139 133.902 227.38 134.637C226.645 135.348 226.183 136.367 225.994 137.694H234.314Z" fill="white"/>
<path d="M242.052 130.406H247.207V133.357C248.369 131.105 250.383 129.979 253.252 129.979C255.124 129.979 256.629 130.548 257.767 131.686C258.929 132.918 259.509 134.743 259.509 137.161V149.001H254.354V137.908C254.354 136.628 254.093 135.691 253.572 135.099C253.05 134.483 252.22 134.174 251.083 134.174C249.921 134.174 248.985 134.53 248.274 135.241C247.563 135.929 247.207 136.936 247.207 138.263V149.001H242.052V130.406Z" fill="white"/>
<path d="M270.032 149.392C267.52 149.392 265.564 148.859 264.165 147.792C262.767 146.726 262.02 145.185 261.925 143.17H266.725C266.868 144.071 267.176 144.734 267.65 145.161C268.124 145.588 268.906 145.801 269.997 145.801C271.94 145.801 272.912 145.126 272.912 143.774C272.912 143.134 272.628 142.66 272.059 142.352C271.49 142.02 270.518 141.76 269.143 141.57C266.631 141.167 264.877 140.563 263.881 139.757C262.814 138.927 262.281 137.6 262.281 135.774C262.281 133.949 263.04 132.491 264.557 131.401C265.86 130.453 267.555 129.979 269.641 129.979C271.798 129.979 273.54 130.406 274.868 131.259C276.266 132.207 277.084 133.7 277.321 135.739H272.592C272.45 134.957 272.154 134.388 271.703 134.032C271.253 133.677 270.577 133.499 269.677 133.499C268.847 133.499 268.195 133.677 267.721 134.032C267.271 134.388 267.045 134.85 267.045 135.419C267.045 136.011 267.294 136.45 267.792 136.734C268.314 137.019 269.262 137.256 270.637 137.446C273.078 137.777 274.868 138.334 276.005 139.117C277.238 140.041 277.854 141.428 277.854 143.277C277.854 145.268 277.167 146.785 275.792 147.828C274.441 148.871 272.521 149.392 270.032 149.392Z" fill="white"/>
<mask id="mask1_4375_489666" style="mask-type:luminance" maskUnits="userSpaceOnUse" x="322" y="114" width="116" height="45">
<path d="M437.103 114.499H322.854V158.499H437.103V114.499Z" fill="white"/>
</mask>
<g mask="url(#mask1_4375_489666)">
<mask id="mask2_4375_489666" style="mask-type:luminance" maskUnits="userSpaceOnUse" x="322" y="114" width="45" height="45">
<path d="M366.854 114.499H322.854V158.499H366.854V114.499Z" fill="white"/>
</mask>
<g mask="url(#mask2_4375_489666)">
<path fill-rule="evenodd" clip-rule="evenodd" d="M331.96 120.114C327.352 120.114 323.616 121.426 323.616 123.887V136.672C323.616 139.133 327.352 140.445 331.96 140.445C333.574 140.445 335.081 140.284 336.358 139.97V150.63C336.358 153.091 340.094 154.402 344.703 154.402C349.311 154.402 353.047 153.091 353.047 150.63V139.889C354.387 140.257 356.008 140.445 357.754 140.445C362.362 140.445 366.099 139.133 366.099 136.672V123.887C366.099 121.426 362.362 120.114 357.754 120.114C353.145 120.114 349.409 121.426 349.409 123.887V128.611H340.305V123.887C340.305 121.426 336.569 120.114 331.96 120.114ZM353.047 138.693L357.602 132.555H354.264L351.894 135.761C352.627 136.322 353.047 137.019 353.047 137.844V138.693ZM349.409 134.627V131.342H340.305V134.547C341.582 134.232 343.089 134.071 344.703 134.071C346.448 134.071 348.069 134.26 349.409 134.627ZM337.514 135.759L335.146 132.555H331.808L336.358 138.687V137.844C336.358 137.017 336.779 136.32 337.514 135.759ZM325.132 123.907C325.132 123.639 325.301 123.08 326.617 122.508C327.875 121.96 329.75 121.631 331.96 121.631C334.17 121.631 336.045 121.96 337.303 122.508C338.619 123.08 338.788 123.639 338.788 123.907C338.788 124.174 338.619 124.734 337.303 125.306C336.045 125.853 334.17 126.183 331.96 126.183C329.75 126.183 327.875 125.853 326.617 125.306C325.301 124.734 325.132 124.174 325.132 123.907ZM352.41 122.508C351.094 123.08 350.926 123.639 350.926 123.907C350.926 124.174 351.094 124.734 352.41 125.306C353.668 125.853 355.544 126.183 357.753 126.183C359.963 126.183 361.838 125.853 363.097 125.306C364.412 124.734 364.581 124.174 364.581 123.907C364.581 123.639 364.412 123.08 363.097 122.508C361.838 121.96 359.963 121.631 357.753 121.631C355.544 121.631 353.668 121.96 352.41 122.508ZM339.359 136.465C338.043 137.038 337.875 137.597 337.875 137.864C337.875 138.132 338.043 138.691 339.359 139.264C340.618 139.811 342.493 140.14 344.703 140.14C346.912 140.14 348.788 139.811 350.046 139.264C351.362 138.691 351.53 138.132 351.53 137.864C351.53 137.597 351.362 137.038 350.046 136.465C348.788 135.918 346.912 135.589 344.703 135.589C342.493 135.589 340.618 135.918 339.359 136.465Z" fill="white"/>
</g>
<path fill-rule="evenodd" clip-rule="evenodd" d="M428.17 125.423H419.16V147.574H429.823C433.76 147.574 436.684 144.816 436.684 141.045C436.684 138.494 435.271 136.558 433.036 135.572C434.072 134.548 434.7 133.195 434.7 131.622C434.7 128.033 431.924 125.423 428.17 125.423ZM423.128 128.729V134.515H427.839C429.437 134.515 430.732 133.22 430.732 131.622C430.732 130.024 429.437 128.729 427.839 128.729H423.128ZM423.128 144.268V137.821H429.493C431.273 137.821 432.716 139.264 432.716 141.045C432.716 142.825 431.273 144.268 429.493 144.268H423.128Z" fill="white"/>
<path d="M376.369 125.423H380.833L386.454 135.176L392.074 125.423H396.538L388.446 139.301V147.574H384.462V139.301L376.369 125.423Z" fill="white"/>
<path fill-rule="evenodd" clip-rule="evenodd" d="M398.11 125.423H405.714C412.327 125.423 416.79 129.72 416.79 136.499C416.79 143.277 412.327 147.574 405.714 147.574H398.11V125.423ZM402.077 144.268V128.729H405.383C409.84 128.729 412.823 131.546 412.823 136.499C412.823 141.451 409.84 144.268 405.383 144.268H402.077Z" fill="white"/>
</g>
<path fill-rule="evenodd" clip-rule="evenodd" d="M482.103 124.499L493.978 116.499L490.623 132.118L484.104 136.499L499.916 147.124L493.978 156.499L482.103 148.499V124.499ZM516.808 134.285L520.103 136.499L504.291 147.124L510.228 156.499L522.103 148.499V125.874L516.808 134.285Z" fill="white"/>
<path fill-rule="evenodd" clip-rule="evenodd" d="M510.666 136.498H505.041L507.954 122.94L499.416 136.499H493.791L497.416 119.624H508.666H521.291L510.666 136.498Z" fill="white"/>
<path fill-rule="evenodd" clip-rule="evenodd" d="M709.381 134.119H707.036V130.617H709.381V128.577C709.381 126.492 709.937 124.939 711.047 123.919C712.18 122.876 713.744 122.355 715.738 122.355C716.259 122.355 716.712 122.389 717.097 122.457C717.505 122.502 717.902 122.582 718.287 122.695V126.401C718.038 126.31 717.766 126.242 717.471 126.197C717.177 126.129 716.848 126.095 716.486 126.095C715.692 126.095 715.126 126.322 714.786 126.775C714.446 127.206 714.276 127.761 714.276 128.441V130.617H718.151L720.325 130.617V126.775H725.219V130.617H728.958V134.119H725.219V142.687C725.219 143.39 725.378 143.922 725.695 144.285C726.035 144.625 726.534 144.795 727.191 144.795C727.554 144.795 727.882 144.772 728.177 144.727C728.494 144.659 728.789 144.568 729.06 144.455V148.263C728.721 148.376 728.301 148.478 727.803 148.569C727.304 148.682 726.726 148.739 726.069 148.739C724.188 148.739 722.761 148.274 721.786 147.345C720.812 146.393 720.325 144.988 720.325 143.129V134.119H718.047L714.276 134.119V148.399H709.381V134.119ZM692.694 148.467C693.419 148.671 694.19 148.773 695.006 148.773C696.411 148.773 697.521 148.535 698.337 148.059C699.175 147.583 699.855 146.982 700.376 146.257V148.399H705.169V136.805C705.169 135.604 704.988 134.584 704.625 133.745C704.263 132.906 703.753 132.226 703.096 131.705C702.416 131.184 701.623 130.81 700.716 130.583C699.81 130.334 698.813 130.209 697.725 130.209C696.637 130.209 695.618 130.334 694.666 130.583C693.737 130.81 692.921 131.172 692.218 131.671C691.516 132.17 690.938 132.804 690.485 133.575C690.054 134.346 689.805 135.252 689.737 136.295H694.394C694.507 135.524 694.79 134.912 695.244 134.459C695.72 134.006 696.445 133.779 697.419 133.779C698.552 133.779 699.311 134.062 699.697 134.629C700.104 135.173 700.308 135.978 700.308 137.043V137.757H698.303C696.943 137.757 695.697 137.859 694.564 138.063C693.431 138.267 692.456 138.596 691.641 139.049C690.825 139.502 690.19 140.092 689.737 140.817C689.284 141.542 689.057 142.426 689.057 143.469C689.057 144.398 689.216 145.203 689.533 145.883C689.85 146.54 690.281 147.084 690.825 147.515C691.369 147.946 691.992 148.263 692.694 148.467ZM699.187 144.523C698.462 145.067 697.555 145.339 696.467 145.339C695.561 145.339 694.904 145.146 694.496 144.761C694.088 144.376 693.884 143.854 693.884 143.197C693.884 142.245 694.281 141.588 695.074 141.225C695.867 140.862 696.977 140.681 698.405 140.681H700.308V142.177C700.308 143.174 699.934 143.956 699.187 144.523ZM677.47 130.617H682.399V134.017C682.966 132.816 683.702 131.909 684.608 131.297C685.515 130.685 686.693 130.368 688.144 130.345V134.935C686.308 134.912 684.892 135.241 683.895 135.921C682.898 136.601 682.399 137.791 682.399 139.491V148.399H677.47V130.617ZM658.868 147.889C660.386 148.478 662.142 148.773 664.137 148.773C665.632 148.773 667.015 148.58 668.284 148.195C669.553 147.81 670.663 147.232 671.615 146.461C672.566 145.713 673.337 144.772 673.926 143.639C674.515 142.483 674.889 141.157 675.048 139.661H669.643C669.417 141.225 668.805 142.392 667.808 143.163C666.833 143.934 665.587 144.319 664.069 144.319C662.052 144.319 660.488 143.628 659.378 142.245C658.29 140.862 657.746 138.902 657.746 136.363V136.091C657.746 133.552 658.313 131.58 659.446 130.175C660.579 128.77 662.108 128.067 664.035 128.067C665.576 128.067 666.754 128.452 667.57 129.223C668.408 129.971 668.929 131.082 669.133 132.555H674.776C674.64 131.059 674.266 129.756 673.654 128.645C673.065 127.534 672.306 126.616 671.377 125.891C670.425 125.166 669.315 124.622 668.046 124.259C666.799 123.896 665.451 123.715 664.001 123.715C662.278 123.715 660.681 124.021 659.208 124.633C657.735 125.222 656.466 126.061 655.401 127.149C654.313 128.237 653.463 129.552 652.852 131.093C652.24 132.612 651.934 134.289 651.934 136.125V136.397C651.934 138.278 652.194 139.978 652.716 141.497C653.237 143.016 654.019 144.308 655.061 145.373C656.081 146.461 657.35 147.3 658.868 147.889ZM640.735 148.773C639.398 148.773 638.163 148.569 637.03 148.161C635.897 147.753 634.922 147.152 634.107 146.359C633.268 145.588 632.611 144.648 632.135 143.537C631.682 142.426 631.455 141.157 631.455 139.729V139.457C631.455 138.052 631.682 136.782 632.135 135.649C632.611 134.516 633.268 133.541 634.107 132.725C634.922 131.932 635.885 131.32 636.996 130.889C638.106 130.436 639.307 130.209 640.599 130.209C641.755 130.209 642.854 130.39 643.896 130.753C644.938 131.093 645.856 131.626 646.649 132.351C647.442 133.076 648.077 134.017 648.553 135.173C649.029 136.306 649.267 137.666 649.267 139.253V140.613H636.452C636.52 142.109 636.928 143.265 637.676 144.081C638.446 144.874 639.511 145.271 640.871 145.271C642.027 145.271 642.888 145.044 643.454 144.591C644.043 144.138 644.417 143.537 644.576 142.789H649.233C648.938 144.716 648.054 146.2 646.581 147.243C645.131 148.263 643.182 148.773 640.735 148.773ZM644.474 137.587C644.383 136.227 644.009 135.23 643.352 134.595C642.695 133.938 641.777 133.609 640.599 133.609C639.488 133.609 638.571 133.96 637.846 134.663C637.143 135.343 636.701 136.318 636.52 137.587H644.474ZM617.592 148.195C618.725 148.58 619.938 148.773 621.229 148.773C622.521 148.773 623.677 148.603 624.696 148.263C625.716 147.9 626.589 147.402 627.314 146.767C628.039 146.155 628.605 145.418 629.013 144.557C629.421 143.673 629.659 142.698 629.727 141.633H625.274C625.161 142.789 624.742 143.65 624.017 144.217C623.314 144.784 622.464 145.067 621.467 145.067C620.085 145.067 619.008 144.614 618.238 143.707C617.49 142.8 617.116 141.452 617.116 139.661V139.389C617.116 137.689 617.502 136.386 618.272 135.479C619.042 134.55 620.074 134.085 621.365 134.085C622.408 134.085 623.223 134.334 623.813 134.833C624.424 135.332 624.81 136.091 624.968 137.111H629.625C629.512 135.842 629.206 134.765 628.707 133.881C628.209 132.997 627.586 132.283 626.838 131.739C626.067 131.195 625.195 130.81 624.22 130.583C623.269 130.334 622.283 130.209 621.263 130.209C619.994 130.209 618.805 130.424 617.694 130.855C616.584 131.263 615.609 131.864 614.771 132.657C613.932 133.473 613.275 134.459 612.799 135.615C612.324 136.748 612.086 138.029 612.086 139.457V139.729C612.086 141.18 612.312 142.472 612.765 143.605C613.241 144.716 613.887 145.656 614.703 146.427C615.519 147.198 616.482 147.787 617.592 148.195ZM600.643 130.617H605.572V134.017C606.138 132.816 606.875 131.909 607.781 131.297C608.688 130.685 609.866 130.368 611.316 130.345V134.935C609.481 134.912 608.064 135.241 607.067 135.921C606.07 136.601 605.572 137.791 605.572 139.491V148.399H600.643V130.617ZM583.953 148.399C584.7 148.649 585.505 148.773 586.366 148.773C587.839 148.773 589.029 148.479 589.935 147.889C590.864 147.277 591.555 146.518 592.008 145.611V148.399H596.903V130.617H592.008V141.055C592.008 142.37 591.646 143.356 590.921 144.013C590.218 144.648 589.346 144.965 588.303 144.965C587.284 144.965 586.513 144.671 585.992 144.081C585.471 143.469 585.21 142.574 585.21 141.395V130.617H580.315V142.075C580.315 143.231 580.463 144.24 580.757 145.101C581.075 145.94 581.505 146.631 582.049 147.175C582.593 147.719 583.227 148.127 583.953 148.399ZM568.877 145.033C570.259 145.033 571.324 144.557 572.072 143.605C572.842 142.653 573.228 141.327 573.228 139.627V139.389C573.228 137.689 572.842 136.363 572.072 135.411C571.324 134.436 570.259 133.949 568.877 133.949C567.517 133.949 566.452 134.425 565.681 135.377C564.911 136.306 564.526 137.621 564.526 139.321V139.593C564.526 141.293 564.9 142.63 565.647 143.605C566.395 144.557 567.472 145.033 568.877 145.033ZM568.843 148.773C567.506 148.773 566.271 148.558 565.138 148.127C564.005 147.696 563.019 147.084 562.18 146.291C561.342 145.52 560.685 144.58 560.209 143.469C559.733 142.336 559.495 141.078 559.495 139.695V139.423C559.495 138.04 559.733 136.782 560.209 135.649C560.685 134.493 561.342 133.518 562.18 132.725C563.019 131.932 564.005 131.32 565.138 130.889C566.293 130.436 567.54 130.209 568.877 130.209C570.214 130.209 571.449 130.424 572.582 130.855C573.737 131.286 574.734 131.898 575.573 132.691C576.389 133.484 577.035 134.448 577.51 135.581C577.986 136.692 578.224 137.938 578.224 139.321V139.593C578.224 140.998 577.986 142.268 577.51 143.401C577.035 144.534 576.377 145.498 575.539 146.291C574.7 147.084 573.703 147.696 572.548 148.127C571.415 148.558 570.18 148.773 568.843 148.773ZM544.072 148.229C545.295 148.592 546.746 148.773 548.422 148.773C549.85 148.773 551.142 148.569 552.297 148.161C553.453 147.753 554.428 147.198 555.221 146.495C556.014 145.815 556.626 145.01 557.056 144.081C557.487 143.129 557.702 142.109 557.702 141.021C557.702 139.774 557.509 138.72 557.124 137.859C556.762 136.998 556.206 136.284 555.459 135.717C554.711 135.173 553.782 134.742 552.671 134.425C551.561 134.085 550.269 133.824 548.796 133.643C547.867 133.507 547.108 133.348 546.519 133.167C545.93 132.986 545.477 132.77 545.159 132.521C544.819 132.294 544.581 132.022 544.445 131.705C544.332 131.365 544.276 130.98 544.276 130.549C544.276 129.733 544.57 129.076 545.159 128.577C545.771 128.056 546.689 127.795 547.913 127.795C549.091 127.795 550.02 128.067 550.7 128.611C551.38 129.132 551.799 129.937 551.958 131.025H557.022C556.796 128.6 555.901 126.786 554.337 125.585C552.796 124.361 550.655 123.749 547.913 123.749C546.576 123.749 545.363 123.93 544.276 124.293C543.188 124.656 542.259 125.154 541.488 125.789C540.718 126.446 540.117 127.217 539.687 128.101C539.279 128.985 539.075 129.948 539.075 130.991C539.075 132.17 539.233 133.178 539.551 134.017C539.891 134.856 540.423 135.558 541.148 136.125C541.851 136.714 542.746 137.19 543.834 137.553C544.944 137.893 546.281 138.165 547.845 138.369C548.728 138.505 549.465 138.664 550.054 138.845C550.643 139.004 551.119 139.196 551.482 139.423C551.822 139.672 552.059 139.967 552.195 140.307C552.354 140.647 552.433 141.055 552.433 141.531C552.433 142.483 552.071 143.265 551.346 143.877C550.621 144.466 549.646 144.761 548.422 144.761C547.516 144.761 546.768 144.659 546.179 144.455C545.612 144.228 545.148 143.934 544.785 143.571C544.423 143.231 544.162 142.823 544.004 142.347C543.845 141.848 543.732 141.327 543.664 140.783H538.395C538.463 142.007 538.712 143.106 539.143 144.081C539.573 145.056 540.197 145.894 541.012 146.597C541.828 147.3 542.848 147.844 544.072 148.229Z" fill="white"/>
<path d="M798.842 123.431H803.46V133.211H807.806V147.881H803.461L803.461 152.499L791.652 152.499V147.881H796.94L796.95 137.629H787.432V152.499L779.825 152.499L775.853 152.498V137.629H779.825V127.234H787.432V117.83L794.495 117.83V112.499H798.842V123.431Z" fill="white"/>
<path d="M1003.2 137.624C1002.22 137.489 1001.28 137.461 1000.38 137.537C999.495 137.595 998.697 137.739 997.987 137.97C997.295 138.181 996.719 138.489 996.257 138.892V147.884H990.753V132.955H995.912L996.142 136.097H996.2C996.795 135.309 997.429 134.665 998.102 134.166C998.794 133.666 999.562 133.291 1000.41 133.042C1001.25 132.792 1002.18 132.667 1003.2 132.667V137.624Z" fill="white"/>
<path d="M978.143 144.339C979.027 144.339 979.815 144.195 980.507 143.906C981.198 143.618 981.746 143.186 982.149 142.61C982.553 142.033 982.754 141.294 982.754 140.391C982.754 139.507 982.543 138.786 982.12 138.229C981.717 137.653 981.169 137.22 980.478 136.932C979.805 136.644 979.027 136.5 978.143 136.5C977.279 136.5 976.501 136.644 975.809 136.932C975.117 137.201 974.57 137.624 974.166 138.2C973.763 138.777 973.561 139.507 973.561 140.391C973.561 141.294 973.763 142.033 974.166 142.61C974.57 143.186 975.117 143.618 975.809 143.906C976.501 144.195 977.279 144.339 978.143 144.339ZM978.143 148.172C976.184 148.172 974.426 147.884 972.87 147.307C971.333 146.731 970.122 145.866 969.238 144.713C968.355 143.561 967.913 142.12 967.913 140.391C967.913 138.681 968.355 137.259 969.238 136.125C970.122 134.973 971.333 134.108 972.87 133.532C974.426 132.955 976.184 132.667 978.143 132.667C980.122 132.667 981.88 132.955 983.417 133.532C984.954 134.108 986.165 134.973 987.049 136.125C987.952 137.259 988.403 138.681 988.403 140.391C988.403 142.12 987.952 143.561 987.049 144.713C986.165 145.866 984.954 146.731 983.417 147.307C981.88 147.884 980.122 148.172 978.143 148.172Z" fill="white"/>
<path d="M952.696 136.731V132.955H966.04V136.731H952.696ZM955.002 129.814H960.477V142.149C960.477 142.898 960.65 143.445 960.996 143.791C961.361 144.137 961.957 144.31 962.783 144.31C963.34 144.31 963.869 144.243 964.368 144.108C964.868 143.955 965.329 143.734 965.751 143.445V147.192C965.156 147.518 964.474 147.759 963.705 147.912C962.937 148.085 962.072 148.172 961.112 148.172C959.632 148.172 958.441 147.97 957.538 147.567C956.654 147.144 956.011 146.519 955.607 145.693C955.204 144.848 955.002 143.82 955.002 142.61V129.814Z" fill="white"/>
<path d="M941.053 136.385C940.304 136.385 939.516 136.442 938.69 136.558C937.864 136.654 937.057 136.798 936.269 136.99C935.482 137.182 934.742 137.413 934.05 137.682V133.935C934.703 133.666 935.462 133.436 936.327 133.243C937.191 133.051 938.114 132.907 939.093 132.811C940.073 132.715 941.063 132.667 942.062 132.667C943.829 132.667 945.347 132.85 946.615 133.215C947.883 133.58 948.863 134.175 949.555 135.001C950.246 135.808 950.592 136.894 950.592 138.258V145.492C950.592 145.799 950.611 146.212 950.65 146.731C950.688 147.23 950.717 147.615 950.736 147.884H945.578C945.501 147.595 945.424 147.221 945.347 146.76C945.29 146.279 945.242 145.857 945.203 145.492L945.059 143.906V138.575C945.059 137.96 944.905 137.499 944.598 137.192C944.31 136.884 943.868 136.673 943.272 136.558C942.677 136.442 941.937 136.385 941.053 136.385ZM945.059 141.947L945.981 143.618C945.962 143.868 945.876 144.185 945.722 144.569C945.568 144.954 945.338 145.357 945.03 145.78C944.742 146.183 944.339 146.567 943.82 146.932C943.32 147.298 942.686 147.595 941.918 147.826C941.168 148.056 940.256 148.172 939.18 148.172C937.95 148.172 936.855 148.018 935.895 147.711C934.953 147.384 934.204 146.894 933.647 146.241C933.109 145.568 932.84 144.733 932.84 143.734C932.84 142.658 933.157 141.745 933.791 140.996C934.444 140.246 935.433 139.68 936.759 139.295C938.104 138.892 939.814 138.69 941.889 138.69H945.405V141.428H941.802C940.919 141.428 940.208 141.495 939.67 141.63C939.151 141.764 938.776 141.966 938.546 142.235C938.315 142.504 938.2 142.821 938.2 143.186C938.2 143.589 938.306 143.916 938.517 144.166C938.748 144.416 939.074 144.598 939.497 144.713C939.939 144.829 940.448 144.886 941.024 144.886C941.812 144.886 942.465 144.781 942.984 144.569C943.503 144.339 943.916 144.06 944.223 143.734C944.531 143.407 944.742 143.08 944.857 142.754C944.992 142.427 945.059 142.158 945.059 141.947Z" fill="white"/>
<path d="M931.381 137.624C930.401 137.489 929.459 137.461 928.556 137.537C927.673 137.595 926.875 137.739 926.164 137.97C925.473 138.181 924.896 138.489 924.435 138.892V147.884H918.931V132.955H924.089L924.32 136.097H924.378C924.973 135.309 925.607 134.665 926.28 134.166C926.971 133.666 927.74 133.291 928.585 133.042C929.431 132.792 930.362 132.667 931.381 132.667V137.624Z" fill="white"/>
<path d="M906.321 144.339C907.205 144.339 907.992 144.195 908.684 143.906C909.376 143.618 909.923 143.186 910.327 142.61C910.73 142.033 910.932 141.294 910.932 140.391C910.932 139.507 910.721 138.786 910.298 138.229C909.894 137.653 909.347 137.22 908.655 136.932C907.983 136.644 907.205 136.5 906.321 136.5C905.456 136.5 904.678 136.644 903.987 136.932C903.295 137.201 902.747 137.624 902.344 138.2C901.94 138.777 901.739 139.507 901.739 140.391C901.739 141.294 901.94 142.033 902.344 142.61C902.747 143.186 903.295 143.618 903.987 143.906C904.678 144.195 905.456 144.339 906.321 144.339ZM906.321 148.172C904.361 148.172 902.603 147.884 901.047 147.307C899.51 146.731 898.3 145.866 897.416 144.713C896.532 143.561 896.09 142.12 896.09 140.391C896.09 138.681 896.532 137.259 897.416 136.125C898.3 134.973 899.51 134.108 901.047 133.532C902.603 132.955 904.361 132.667 906.321 132.667C908.3 132.667 910.058 132.955 911.595 133.532C913.132 134.108 914.342 134.973 915.226 136.125C916.129 137.259 916.58 138.681 916.58 140.391C916.58 142.12 916.129 143.561 915.226 144.713C914.342 145.866 913.132 146.731 911.595 147.307C910.058 147.884 908.3 148.172 906.321 148.172Z" fill="white"/>
<path d="M881.685 136.702V132.955H894.999V136.702H881.685ZM884.048 147.884V133.128C884.048 131.783 884.374 130.659 885.028 129.756C885.681 128.834 886.613 128.143 887.823 127.681C889.053 127.22 890.522 126.99 892.232 126.99C893.078 126.99 893.731 127.019 894.192 127.076C894.653 127.115 895.066 127.172 895.431 127.249V130.938C895.201 130.861 894.874 130.794 894.451 130.736C894.029 130.659 893.5 130.621 892.866 130.621C892.213 130.621 891.627 130.707 891.108 130.88C890.609 131.034 890.215 131.293 889.927 131.658C889.658 132.004 889.523 132.485 889.523 133.099V147.884H884.048Z" fill="white"/>
<path d="M879.062 137.624C878.082 137.489 877.141 137.461 876.238 137.537C875.354 137.595 874.557 137.739 873.846 137.97C873.154 138.181 872.578 138.489 872.117 138.892V147.884H866.612V132.955H871.771L872.001 136.097H872.059C872.654 135.309 873.289 134.665 873.961 134.166C874.653 133.666 875.421 133.291 876.266 133.042C877.112 132.792 878.044 132.667 879.062 132.667V137.624Z" fill="white"/>
<path d="M855.76 148.172C853.051 148.172 850.842 147.864 849.132 147.25C847.441 146.635 846.202 145.751 845.414 144.598C844.626 143.426 844.232 142.024 844.232 140.391C844.232 139.161 844.463 138.066 844.924 137.105C845.404 136.145 846.086 135.338 846.97 134.684C847.873 134.012 848.949 133.512 850.198 133.186C851.447 132.84 852.849 132.667 854.406 132.667C856.019 132.667 857.441 132.869 858.671 133.272C859.92 133.657 860.938 134.233 861.726 135.001C862.513 135.751 863.051 136.692 863.339 137.826C863.647 138.94 863.647 140.237 863.339 141.716H847.201V138.633H860.342L857.979 140.045C858.133 139.353 858.162 138.758 858.066 138.258C857.989 137.739 857.797 137.317 857.489 136.99C857.182 136.644 856.769 136.394 856.25 136.241C855.75 136.068 855.174 135.981 854.521 135.981C853.771 135.981 853.099 136.077 852.503 136.269C851.927 136.442 851.437 136.711 851.034 137.076C850.649 137.422 850.352 137.864 850.14 138.402C849.929 138.94 849.823 139.564 849.823 140.275C849.823 141.236 850.006 142.033 850.371 142.667C850.755 143.282 851.399 143.743 852.302 144.051C853.205 144.339 854.463 144.483 856.077 144.483C856.884 144.483 857.652 144.444 858.383 144.368C859.132 144.291 859.843 144.185 860.515 144.051C861.207 143.897 861.879 143.695 862.532 143.445V147.105C861.86 147.374 861.178 147.586 860.486 147.739C859.814 147.893 859.093 147.999 858.325 148.056C857.556 148.133 856.701 148.172 855.76 148.172Z" fill="white"/>
<path d="M832.455 137.105C833.665 137.105 834.645 137.019 835.395 136.846C836.163 136.654 836.72 136.346 837.066 135.924C837.412 135.501 837.585 134.925 837.585 134.195C837.585 133.522 837.412 132.984 837.066 132.581C836.739 132.158 836.201 131.851 835.452 131.658C834.703 131.466 833.704 131.37 832.455 131.37H825.106V127.249H832.686C835.126 127.249 837.124 127.48 838.68 127.941C840.255 128.402 841.418 129.132 842.167 130.131C842.916 131.111 843.291 132.408 843.291 134.022C843.291 135.693 842.887 137.057 842.081 138.114C841.293 139.171 840.111 139.958 838.536 140.477C836.96 140.977 835.001 141.226 832.657 141.226H825.106V137.105H832.455ZM822.455 127.249H828.103V147.884H822.455V127.249Z" fill="white"/>
</svg>
