<svg fill="none" xmlns="http://www.w3.org/2000/svg" viewBox="0 0 28 29"><path fill-rule="evenodd" clip-rule="evenodd" d="M5 .67a1 1 0 0 1 1 1V3h1.33a1 1 0 1 1 0 2H6v1.33a1 1 0 1 1-2 0V5H2.67a1 1 0 1 1 0-2H4V1.67a1 1 0 0 1 1-1ZM15.4 3a2 2 0 0 1 1.86 0c.48.25.74.72.9 1.06.18.36.37.84.58 1.41l.84 2.17a7.9 7.9 0 0 0 .74 1.66 3 3 0 0 0 .7.7c.29.2.63.35 1.66.74l2.17.84c.57.22 1.05.4 1.42.58.33.16.8.42 1.05.9a2 2 0 0 1 0 1.86c-.25.47-.72.73-1.05.9-.37.17-.85.36-1.42.58l-2.17.83a8.4 8.4 0 0 0-1.66.74 3 3 0 0 0-.7.7c-.2.3-.35.64-.74 1.67l-.84 2.17c-.21.56-.4 1.05-.58 1.41-.16.34-.42.8-.9 1.06a2 2 0 0 1-1.85 0 2.22 2.22 0 0 1-.9-1.06 19.4 19.4 0 0 1-.59-1.41l-.83-2.17a7.9 7.9 0 0 0-.74-1.66 3 3 0 0 0-.7-.7c-.3-.2-.64-.35-1.66-.75l-2.18-.83c-.56-.22-1.05-.4-1.41-.58-.34-.17-.8-.43-1.05-.9a2 2 0 0 1 0-1.86c.25-.48.71-.74 1.05-.9.36-.18.85-.36 1.41-.58l2.18-.84a7.88 7.88 0 0 0 1.65-.73 3 3 0 0 0 .7-.71c.21-.29.35-.63.75-1.66l.83-2.17c.22-.57.4-1.05.58-1.41.17-.34.43-.8.9-1.06Zm.93 1.87-.03.06c-.13.28-.29.68-.53 1.3l-.82 2.13-.04.11a8.66 8.66 0 0 1-.93 1.99 5 5 0 0 1-1.18 1.18c-.51.36-1.11.6-1.98.93l-.12.04-2.13.82a18.82 18.82 0 0 0-1.36.56l.07.03c.27.13.67.29 1.3.53l2.12.82.12.04c.87.34 1.47.57 1.98.93a5 5 0 0 1 1.18 1.18c.37.52.6 1.12.93 1.98l.04.12.82 2.13a18.85 18.85 0 0 0 .56 1.36l.03-.06c.14-.28.3-.68.53-1.3l.82-2.13.05-.12c.33-.86.56-1.46.93-1.98a5 5 0 0 1 1.17-1.18 8.85 8.85 0 0 1 2.1-.97l2.13-.82a18.84 18.84 0 0 0 1.36-.56 18.84 18.84 0 0 0-1.36-.56l-2.13-.82-.11-.04a8.85 8.85 0 0 1-1.99-.93 5 5 0 0 1-1.17-1.18 8.85 8.85 0 0 1-.93-1.99l-.05-.11-.82-2.13a18.77 18.77 0 0 0-.56-1.36ZM5 19.67a1 1 0 0 1 1 1V23h2.33a1 1 0 0 1 0 2H6v2.33a1 1 0 1 1-2 0V25H1.67a1 1 0 1 1 0-2H4v-2.33a1 1 0 0 1 1-1Z" fill="#FFBE5C"/></svg>