<svg width="296" height="48" viewBox="0 0 296 48" fill="none" xmlns="http://www.w3.org/2000/svg">
<path d="M32 24L296 24" stroke="#3697F1" stroke-opacity="0.8" stroke-width="2"/>
<rect width="48" height="48" rx="24" fill="#4AA1F2"/>
<path d="M28.8602 26.2C28.8602 27.2533 28.6202 28.1533 28.1402 28.9C27.6602 29.6333 27.0202 30.2 26.2202 30.6C25.4336 31 24.5736 31.2 23.6402 31.2C21.8936 31.2 20.5536 30.66 19.6202 29.58C18.7002 28.4867 18.2402 26.8533 18.2402 24.68C18.2402 23.1333 18.4602 21.74 18.9002 20.5C19.3402 19.26 20.0202 18.28 20.9402 17.56C21.8736 16.8267 23.0736 16.46 24.5402 16.46C25.8869 16.46 27.0202 16.7267 27.9402 17.26V19.32C26.9936 18.72 25.8936 18.42 24.6402 18.42C23.4136 18.42 22.4669 18.8467 21.8002 19.7C21.1469 20.54 20.7469 21.64 20.6002 23C21.0536 22.4533 21.5802 22.0533 22.1802 21.8C22.7802 21.5333 23.4336 21.4 24.1402 21.4C24.9936 21.4 25.7802 21.58 26.5002 21.94C27.2202 22.2867 27.7936 22.8133 28.2202 23.52C28.6469 24.2267 28.8602 25.12 28.8602 26.2ZM23.6002 29.26C24.1069 29.26 24.5736 29.1533 25.0002 28.94C25.4402 28.7133 25.7869 28.38 26.0402 27.94C26.3069 27.4867 26.4402 26.92 26.4402 26.24C26.4402 25.5867 26.3136 25.04 26.0602 24.6C25.8069 24.16 25.4736 23.8333 25.0602 23.62C24.6469 23.4067 24.2136 23.3 23.7602 23.3C22.9469 23.3 22.2536 23.5467 21.6802 24.04C21.1069 24.5333 20.8202 25.28 20.8202 26.28C20.8069 27.2133 21.0602 27.9467 21.5802 28.48C22.1136 29 22.7869 29.26 23.6002 29.26Z" fill="white" fill-opacity="0.85"/>
</svg>
