<svg width="296" height="48" viewBox="0 0 296 48" fill="none" xmlns="http://www.w3.org/2000/svg">
<path d="M32 24L296 24" stroke="#3697F1" stroke-opacity="0.8" stroke-width="2"/>
<rect width="48" height="48" rx="24" fill="#4AA1F2"/>
<path d="M23.2629 31.2C22.4496 31.2 21.7162 31.12 21.0629 30.96C20.4096 30.8 19.8229 30.54 19.3029 30.18V27.94C19.9162 28.3933 20.5362 28.7267 21.1629 28.94C21.7896 29.14 22.4562 29.24 23.1629 29.24C24.1362 29.24 24.8829 28.9667 25.4029 28.42C25.9362 27.8733 26.2029 27.16 26.2029 26.28C26.2029 25.3867 25.9696 24.7133 25.5029 24.26C25.0362 23.7933 24.3962 23.56 23.5829 23.56C23.0362 23.56 22.5829 23.6467 22.2229 23.82C21.8762 23.98 21.6162 24.1667 21.4429 24.38H19.6429V16.66H27.9029V18.72H21.7229V22.36C21.9762 22.1733 22.2962 22.0067 22.6829 21.86C23.0829 21.7133 23.5762 21.64 24.1629 21.64C25.4829 21.64 26.5562 22.0333 27.3829 22.82C28.2229 23.6067 28.6429 24.7333 28.6429 26.2C28.6429 27.2 28.4162 28.08 27.9629 28.84C27.5229 29.5867 26.8962 30.1667 26.0829 30.58C25.2829 30.9933 24.3429 31.2 23.2629 31.2Z" fill="white" fill-opacity="0.85"/>
</svg>
