<svg width="296" height="48" viewBox="0 0 296 48" fill="none" xmlns="http://www.w3.org/2000/svg">
<path d="M32 24L296 24" stroke="#3697F1" stroke-opacity="0.8" stroke-width="2"/>
<rect width="48" height="48" rx="24" fill="#4AA1F2"/>
<path d="M28.7345 31H19.3145V28.7C20.7012 27.6333 21.8345 26.72 22.7145 25.96C23.6079 25.1867 24.3079 24.5133 24.8145 23.94C25.3212 23.3667 25.6745 22.8333 25.8745 22.34C26.0745 21.8467 26.1745 21.34 26.1745 20.82C26.1745 20.0867 25.9479 19.5133 25.4945 19.1C25.0412 18.6733 24.4279 18.46 23.6545 18.46C22.2412 18.46 20.9279 19.0667 19.7145 20.28V17.98C20.8879 16.98 22.2879 16.48 23.9145 16.48C25.3679 16.48 26.5212 16.86 27.3745 17.62C28.2279 18.38 28.6545 19.4133 28.6545 20.72C28.6545 21.3333 28.5479 21.9267 28.3345 22.5C28.1345 23.06 27.7812 23.6467 27.2745 24.26C26.7812 24.86 26.0945 25.54 25.2145 26.3C24.3345 27.06 23.2212 27.9467 21.8745 28.96H28.7345V31Z" fill="white" fill-opacity="0.85"/>
</svg>
