<svg width="296" height="48" viewBox="0 0 296 48" fill="none" xmlns="http://www.w3.org/2000/svg">
<path d="M32 24L296 24" stroke="#3697F1" stroke-opacity="0.8" stroke-width="2"/>
<rect width="48" height="48" rx="24" fill="#4AA1F2"/>
<path d="M21.5843 24.56V22.54H23.4643C24.1976 22.54 24.791 22.36 25.2443 22C25.6976 21.64 25.9243 21.12 25.9243 20.44C25.9243 19.8133 25.7043 19.3267 25.2643 18.98C24.8243 18.62 24.1843 18.44 23.3443 18.44C21.9576 18.44 20.6643 18.9333 19.4643 19.92V17.7C20.5176 16.8867 21.8976 16.48 23.6043 16.48C25.0576 16.48 26.2043 16.8333 27.0443 17.54C27.8843 18.2333 28.3043 19.14 28.3043 20.26C28.3043 20.8733 28.171 21.4 27.9043 21.84C27.651 22.28 27.3176 22.64 26.9043 22.92C26.491 23.1867 26.051 23.3667 25.5843 23.46C26.1443 23.54 26.671 23.7267 27.1643 24.02C27.6576 24.3 28.051 24.6867 28.3443 25.18C28.651 25.66 28.8043 26.2267 28.8043 26.88C28.8043 27.76 28.5776 28.5267 28.1243 29.18C27.6843 29.82 27.0643 30.32 26.2643 30.68C25.4776 31.0267 24.551 31.2 23.4843 31.2C21.6976 31.2 20.2776 30.8067 19.2243 30.02V27.78C20.411 28.7533 21.7843 29.24 23.3443 29.24C24.3043 29.24 25.0376 29.0267 25.5443 28.6C26.0643 28.1733 26.3243 27.5867 26.3243 26.84C26.3243 25.32 25.3443 24.56 23.3843 24.56H21.5843Z" fill="white" fill-opacity="0.85"/>
</svg>
