<svg width="1800" height="760" viewBox="0 0 1800 760" fill="none" xmlns="http://www.w3.org/2000/svg">
<g clip-path="url(#clip0_302_51203)">
<path d="M1800 0H0V760H1800V0Z" fill="#080349"/>
<g style="mix-blend-mode:color-dodge" filter="url(#filter0_f_302_51203)">
<path d="M999.986 497.484C1085.77 589.625 1245.91 617.317 1357.66 559.336L1630.97 417.526C1742.72 359.545 1763.76 237.847 1677.98 145.706L1414.81 -136.949C1329.03 -229.09 1168.89 -256.782 1057.14 -198.801L783.83 -56.9905C672.081 0.990417 651.036 122.688 736.823 214.829L999.986 497.484Z" fill="url(#paint0_radial_302_51203)"/>
</g>
<g style="mix-blend-mode:screen" filter="url(#filter1_f_302_51203)">
<path d="M891.087 465.241C972.039 552.189 1123.15 578.321 1228.6 523.608L1245.94 514.608C1351.39 459.894 1371.25 345.055 1290.3 258.107C1209.35 171.159 1058.24 145.028 952.791 199.741L935.444 208.741C829.994 263.454 810.135 378.293 891.087 465.241Z" fill="url(#paint1_radial_302_51203)"/>
</g>
<g style="mix-blend-mode:hard-light" opacity="0.2" filter="url(#filter2_f_302_51203)">
<path d="M1274.69 101.67C1181.31 135.694 1142.12 188.206 1134.19 210.208C1123.26 255.93 1111.63 327.921 1152.6 250.117C1203.81 152.863 1284.14 152.573 1446.38 90.9352C1576.17 41.6259 1526.84 11.6268 1485.95 2.79102L1406.54 14.0318C1401.5 29.0677 1368.07 67.6455 1274.69 101.67Z" fill="url(#paint2_radial_302_51203)"/>
</g>
<g style="mix-blend-mode:hard-light" opacity="0.2" filter="url(#filter3_f_302_51203)">
<path d="M1437.54 146.59C1344.16 180.614 1304.96 233.125 1297.04 255.128C1286.1 300.85 1274.48 372.841 1315.45 295.037C1366.66 197.783 1446.99 197.493 1609.22 135.856C1739.01 86.5457 1689.68 56.5467 1648.79 47.7109L1569.39 58.9517C1564.35 73.9876 1530.92 112.566 1437.54 146.59Z" fill="url(#paint3_radial_302_51203)"/>
</g>
<g style="mix-blend-mode:hard-light" opacity="0.2" filter="url(#filter4_f_302_51203)">
<path d="M1203.8 11.2672C1110.42 45.2911 1071.22 97.8028 1063.3 119.806C1052.36 165.527 1040.74 237.519 1081.71 159.715C1132.92 62.46 1213.25 62.1698 1375.49 0.532967C1505.28 -48.7765 1455.94 -78.7755 1415.06 -87.6113L1335.65 -76.3705C1330.61 -61.3346 1297.18 -22.7567 1203.8 11.2672Z" fill="url(#paint4_radial_302_51203)"/>
<path d="M1203.8 11.2672C1110.42 45.2911 1071.22 97.8028 1063.3 119.806C1052.36 165.527 1040.74 237.519 1081.71 159.715C1132.92 62.46 1213.25 62.1698 1375.49 0.532967C1505.28 -48.7765 1455.94 -78.7755 1415.06 -87.6113L1335.65 -76.3705C1330.61 -61.3346 1297.18 -22.7567 1203.8 11.2672Z" stroke="white" stroke-opacity="0.5" stroke-width="0.944715"/>
</g>
<g style="mix-blend-mode:color-dodge" filter="url(#filter5_f_302_51203)">
<path d="M1102.39 629.999C1213.2 689.748 1372.84 663.729 1458.94 571.884L1578.61 444.231C1664.72 352.386 1644.69 229.495 1533.88 169.747L1304.3 45.9652C1193.49 -13.7834 1033.86 12.2358 947.752 104.081L828.078 231.734C741.973 323.579 762.004 446.469 872.817 506.218L1102.39 629.999Z" fill="url(#paint5_radial_302_51203)"/>
</g>
<g style="mix-blend-mode:hard-light" filter="url(#filter6_f_302_51203)">
<path d="M1093.61 608.497C1204.43 668.246 1364.06 642.227 1450.16 550.382L1569.84 422.729C1655.94 330.884 1635.91 207.993 1525.1 148.245L871.447 -204.193C760.634 -263.942 601 -237.923 514.896 -146.078L395.221 -18.4245C309.117 73.4204 329.147 196.311 439.961 256.059L1093.61 608.497Z" fill="url(#paint6_radial_302_51203)"/>
</g>
<g filter="url(#filter7_f_302_51203)">
<path d="M297.701 552.417C410.407 588.863 548.408 534.468 605.935 430.923C663.462 327.378 618.73 213.893 506.025 177.447L406.654 145.313C293.949 108.867 155.948 163.262 98.4208 266.807C40.8939 370.352 85.6253 483.837 198.331 520.283L297.701 552.417Z" fill="url(#paint7_radial_302_51203)"/>
</g>
<g opacity="0.4" filter="url(#filter8_f_302_51203)">
<path d="M638.518 173.541C708.003 196.01 793.083 162.475 828.549 98.6383C864.016 34.801 836.438 -35.1645 766.953 -57.6341L705.689 -77.4451C636.204 -99.9147 551.124 -66.3796 515.658 -2.54234C480.192 61.295 507.77 131.26 577.255 153.73L638.518 173.541Z" fill="url(#paint8_radial_302_51203)"/>
</g>
</g>
<defs>
<filter id="filter0_f_302_51203" x="570.087" y="-343.086" width="1274.63" height="1046.71" filterUnits="userSpaceOnUse" color-interpolation-filters="sRGB">
<feFlood flood-opacity="0" result="BackgroundImageFix"/>
<feBlend mode="normal" in="SourceGraphic" in2="BackgroundImageFix" result="shape"/>
<feGaussianBlur stdDeviation="56.9881" result="effect1_foregroundBlur_302_51203"/>
</filter>
<filter id="filter1_f_302_51203" x="727.324" y="57.1644" width="726.737" height="609.021" filterUnits="userSpaceOnUse" color-interpolation-filters="sRGB">
<feFlood flood-opacity="0" result="BackgroundImageFix"/>
<feBlend mode="normal" in="SourceGraphic" in2="BackgroundImageFix" result="shape"/>
<feGaussianBlur stdDeviation="56.9881" result="effect1_foregroundBlur_302_51203"/>
</filter>
<filter id="filter2_f_302_51203" x="1074.72" y="-46.3342" width="504.625" height="380.02" filterUnits="userSpaceOnUse" color-interpolation-filters="sRGB">
<feFlood flood-opacity="0" result="BackgroundImageFix"/>
<feBlend mode="normal" in="SourceGraphic" in2="BackgroundImageFix" result="shape"/>
<feGaussianBlur stdDeviation="24.5626" result="effect1_foregroundBlur_302_51203"/>
</filter>
<filter id="filter3_f_302_51203" x="1237.57" y="-1.41426" width="504.619" height="380.02" filterUnits="userSpaceOnUse" color-interpolation-filters="sRGB">
<feFlood flood-opacity="0" result="BackgroundImageFix"/>
<feBlend mode="normal" in="SourceGraphic" in2="BackgroundImageFix" result="shape"/>
<feGaussianBlur stdDeviation="24.5626" result="effect1_foregroundBlur_302_51203"/>
</filter>
<filter id="filter4_f_302_51203" x="1003.36" y="-137.217" width="505.57" height="380.973" filterUnits="userSpaceOnUse" color-interpolation-filters="sRGB">
<feFlood flood-opacity="0" result="BackgroundImageFix"/>
<feBlend mode="normal" in="SourceGraphic" in2="BackgroundImageFix" result="shape"/>
<feGaussianBlur stdDeviation="24.5626" result="effect1_foregroundBlur_302_51203"/>
</filter>
<filter id="filter5_f_302_51203" x="660.638" y="-100.127" width="1085.42" height="876.218" filterUnits="userSpaceOnUse" color-interpolation-filters="sRGB">
<feFlood flood-opacity="0" result="BackgroundImageFix"/>
<feBlend mode="normal" in="SourceGraphic" in2="BackgroundImageFix" result="shape"/>
<feGaussianBlur stdDeviation="56.9881" result="effect1_foregroundBlur_302_51203"/>
</filter>
<filter id="filter6_f_302_51203" x="227.782" y="-350.285" width="1509.49" height="1104.87" filterUnits="userSpaceOnUse" color-interpolation-filters="sRGB">
<feFlood flood-opacity="0" result="BackgroundImageFix"/>
<feBlend mode="normal" in="SourceGraphic" in2="BackgroundImageFix" result="shape"/>
<feGaussianBlur stdDeviation="56.9881" result="effect1_foregroundBlur_302_51203"/>
</filter>
<filter id="filter7_f_302_51203" x="-6.67383" y="53.9844" width="717.704" height="589.762" filterUnits="userSpaceOnUse" color-interpolation-filters="sRGB">
<feFlood flood-opacity="0" result="BackgroundImageFix"/>
<feBlend mode="normal" in="SourceGraphic" in2="BackgroundImageFix" result="shape"/>
<feGaussianBlur stdDeviation="40" result="effect1_foregroundBlur_302_51203"/>
</filter>
<filter id="filter8_f_302_51203" x="386.211" y="-198.406" width="571.786" height="492.907" filterUnits="userSpaceOnUse" color-interpolation-filters="sRGB">
<feFlood flood-opacity="0" result="BackgroundImageFix"/>
<feBlend mode="normal" in="SourceGraphic" in2="BackgroundImageFix" result="shape"/>
<feGaussianBlur stdDeviation="56.9881" result="effect1_foregroundBlur_302_51203"/>
</filter>
<radialGradient id="paint0_radial_302_51203" cx="0" cy="0" r="1" gradientUnits="userSpaceOnUse" gradientTransform="translate(1444.13 261.743) rotate(-169.745) scale(418.742 319.847)">
<stop stop-color="#5DAAAE"/>
<stop offset="1" stop-color="#9FA7FF" stop-opacity="0"/>
</radialGradient>
<radialGradient id="paint1_radial_302_51203" cx="0" cy="0" r="1" gradientUnits="userSpaceOnUse" gradientTransform="translate(991.032 380.648) rotate(-104.893) scale(182.539 229.014)">
<stop stop-color="#444CE4"/>
<stop offset="1" stop-color="#F257A0"/>
</radialGradient>
<radialGradient id="paint2_radial_302_51203" cx="0" cy="0" r="1" gradientUnits="userSpaceOnUse" gradientTransform="translate(1381.86 81.4157) rotate(145.903) scale(164.413 140.264)">
<stop stop-color="#63D1F4"/>
<stop offset="1" stop-color="white" stop-opacity="0.91"/>
</radialGradient>
<radialGradient id="paint3_radial_302_51203" cx="0" cy="0" r="1" gradientUnits="userSpaceOnUse" gradientTransform="translate(1544.71 126.336) rotate(145.903) scale(164.413 140.264)">
<stop stop-color="#63D1F4"/>
<stop offset="1" stop-color="white" stop-opacity="0.91"/>
</radialGradient>
<radialGradient id="paint4_radial_302_51203" cx="0" cy="0" r="1" gradientUnits="userSpaceOnUse" gradientTransform="translate(1310.97 -8.9866) rotate(145.903) scale(164.413 140.264)">
<stop stop-color="#63D1F4"/>
<stop offset="1" stop-color="white" stop-opacity="0.91"/>
</radialGradient>
<radialGradient id="paint5_radial_302_51203" cx="0" cy="0" r="1" gradientUnits="userSpaceOnUse" gradientTransform="translate(1413.39 340.373) rotate(171.853) scale(349.572 270.247)">
<stop stop-color="#F257A0"/>
<stop offset="1" stop-color="#D03F92" stop-opacity="0"/>
</radialGradient>
<radialGradient id="paint6_radial_302_51203" cx="0" cy="0" r="1" gradientUnits="userSpaceOnUse" gradientTransform="translate(1287.36 255.651) rotate(-177.304) scale(480.352 328.876)">
<stop stop-color="#FFD7D7"/>
<stop offset="0.0001" stop-color="#6DFFD3"/>
<stop offset="0.778467" stop-color="#5589C0" stop-opacity="0.333932"/>
<stop offset="1" stop-color="#EE8969" stop-opacity="0"/>
</radialGradient>
<radialGradient id="paint7_radial_302_51203" cx="0" cy="0" r="1" gradientUnits="userSpaceOnUse" gradientTransform="translate(275.317 411.666) rotate(-140.686) scale(228.64 220.176)">
<stop stop-color="#45307E"/>
<stop offset="1" stop-color="#080349"/>
</radialGradient>
<radialGradient id="paint8_radial_302_51203" cx="0" cy="0" r="1" gradientUnits="userSpaceOnUse" gradientTransform="translate(624.717 86.766) rotate(-140.686) scale(140.961 135.742)">
<stop stop-color="#45307E"/>
<stop offset="1" stop-color="#080349"/>
</radialGradient>
<clipPath id="clip0_302_51203">
<rect width="1800" height="760" fill="white"/>
</clipPath>
</defs>
</svg>
